<?xml version="1.0" encoding="UTF-8"?>
<svg width="128" height="128" fill="none" version="1.1" viewBox="0 0 128 128" xmlns="http://www.w3.org/2000/svg" xmlns:cc="http://creativecommons.org/ns#" xmlns:dc="http://purl.org/dc/elements/1.1/" xmlns:rdf="http://www.w3.org/1999/02/22-rdf-syntax-ns#">
 <g fill="#3143e6" fill-opacity=".8">
  <path d="m22.093 0.42246c-3.8006 1.3769-6.6762 4.2559-8.1514 8.0862-0.27503 0.72602-0.52509 1.7024-0.57509 2.178-0.075 0.5007-0.12502 13.093-0.12502 27.989 0 14.921-0.075 27.113-0.17503 27.138-2.0754 0.17537-4.8509 1.1266-6.6012 2.2531-1.4503 0.92642-3.8757 3.48-4.7758 5.007-0.37507 0.62581-0.90016 1.8526-1.2002 2.7287-0.47509 1.427-0.5501 2.0278-0.45008 5.007l0.10002 3.3797 1.0752 2.2282c2.0754 4.3059 6.6262 7.6607 10.902 8.0612 0.70011 0.0501 9.7016 0.12523 20.004 0.17518l18.753 0.0501 0.0249 3.9054c0.0249 3.4298 0.075 3.9805 0.50015 4.5564 1.0502 1.427 3.1506 1.9527 4.6508 1.1515 0.37506-0.20034 3.1755-2.3282 6.201-4.7066 5.9761-4.7316 6.9012-5.7579 6.6762-7.3351-0.30005-2.0278-0.60011-2.3534-6.9262-7.3602-5.7511-4.5314-6.3261-4.9319-7.5013-4.9319-1.1252 0-2.3504 0.67594-3.1005 1.6523-0.47521 0.62581-0.52509 1.0515-0.52509 4.6315v3.9304h-33.006v-79.611l0.62509-1.2518c0.90015-1.8526 2.5255-3.4548 4.3258-4.281l1.5502-0.726h79.314l1.7002 0.87621c2.2005 1.1266 3.6507 2.8289 4.3508 5.1321 0.47521 1.5522 0.50015 2.2281 0.45008 12.342l-0.0499 10.69h-33.256l-0.025-3.8803c0-2.5787-0.0999-4.0808-0.30005-4.4563-0.67512-1.2017-2.6005-1.9527-4.0757-1.552-0.6001 0.17518-2.9756 1.8776-6.6263 4.7566-5.0008 3.9556-5.8259 4.6814-6.426 5.8332-0.65018 1.2266-0.70025 1.452-0.45008 2.3532 0.15003 0.55071 0.49997 1.3018 0.80002 1.6523 0.57516 0.75105 10.427 8.637 11.777 9.413 0.47521 0.30041 1.1252 0.52573 1.4753 0.52573 0.32499 0 0.85008-0.025 1.1501-0.025 0.30005 0 1.0252-0.42566 1.6254-0.95139l1.0502-0.9512 0.025-4.1058v-4.1058l18.628 0.0252c10.252 0 19.078 0.0751 19.628 0.15021 4.976 0.67594 8.7015 5.1071 8.5016 10.114-0.10014 2.9041-1.7004 6.0585-3.8508 7.5856-1.1001 0.7762-3.3006 1.7274-4.3007 1.8277l-0.85009 0.0751-0.0251-6.7846c-0.0249-7.3602-0.0999-7.6606-1.4001-8.2363-0.97517-0.40068-1.4753-0.25047-2.3005 0.60084l-0.65018 0.67594v36.075c0 35.625 0 36.1-0.49996 37.727-0.72518 2.3282-2.1754 4.0307-4.3759 5.1572l-1.7002 0.87628h-79.314l-1.5502-0.72607c-1.8003-0.82614-3.4257-2.4283-4.3258-4.281-0.62509-1.2518-0.62509-1.3018-0.6751-9.4382-0.05-9.1376-0.075-9.1628-1.7503-9.7384-0.67512-0.22531-1.0002-0.20034-1.4753 0.05-1.3502 0.7011-1.3752 0.87628-1.3502 9.1879 0 8.662 0.025 8.9624 0.70011 10.765 1.2752 3.3046 3.5756 5.8831 6.7262 7.4603l1.9504 0.97636h82.765l2.0505-1.1014c3.4506-1.8025 6.4761-5.683 6.9511-8.8875 0.10015-0.5507 0.17516-13.343 0.2001-28.414l0.0501-27.388 1.1501-0.0751c1.4502-0.10007 4.2008-1.1266 5.776-2.1279 1.4252-0.92623 3.9256-3.5549 4.8008-5.032 0.325-0.60084 0.85009-1.8025 1.1502-2.7038 0.4752-1.427 0.55022-2.0278 0.45008-5.007-0.1-3.1544-0.15003-3.5047-0.90016-5.0819-1.3752-3.0042-3.9506-5.7331-6.6511-7.11-1.5254-0.77602-2.3254-1.0515-4.2758-1.427l-1.5003-0.30042-0.0251-11.391c-0.025-8.0612-0.12496-11.691-0.35-12.492-0.92529-3.3797-3.5256-6.5591-6.8262-8.2865l-2.0505-1.1015-41.007-0.0501c-39.332-0.0501-41.057-0.0501-42.283 0.40055zm50.359 38.604-0.075 3.5549-4.2257-3.3547c-2.3504-1.8525-4.2257-3.4548-4.2007-3.5549 0-0.12524 1.9254-1.7024 4.2257-3.5299l4.2007-3.3046 0.075 3.3046c0.0251 1.8275 0.0251 4.9319 0 6.8846zm-59.26 41.308-0.075 9.6134-0.85015-0.0751c-1.4002-0.10027-3.9007-1.5021-5.1509-2.854-2.6004-2.7539-3.4506-6.5592-2.2504-9.9138 1.0252-2.854 2.6255-4.6315 5.2509-5.8332 1.6003-0.72607 2.6255-0.97636 2.9505-0.72607 0.10001 0.0751 0.15003 4.4813 0.12501 9.7888zm46.658 8.6118c2.2755 1.7775 4.1257 3.3298 4.1509 3.4049 0 0.12505-3.9757 3.3046-7.6765 6.1835l-1.0751 0.82615v-6.9096c0-3.9805 0.1-6.8846 0.22504-6.8345 0.12509 0.025 2.0754 1.5271 4.3757 3.3296z" stroke-width=".18765"/>
  <path d="m21.588 34.7c-0.44346 0.22531-1.0348 0.75104-1.2714 1.1266-0.35477 0.60083-0.35477 0.82615-0.0295 1.5021 0.20688 0.42565 0.68005 0.92622 1.0348 1.0764 0.41375 0.20034 5.0849 0.27545 15.876 0.27545 14.279 0 15.314-0.025 15.994-0.45063 0.38426-0.25028 0.70954-0.65097 0.76874-0.87628 0.0295-0.25029 0.14767-0.50057 0.26607-0.60084 0.29557-0.25028-0.62084-1.552-1.3896-1.9777-0.59136-0.35055-2.72-0.40049-15.551-0.45062-13.57-0.0501-14.93 0-15.699 0.37552z" stroke-width=".20404"/>
  <path d="m21.058 53.096c-0.46812 0.40049-0.8115 0.80117-0.71787 0.92622 0.0936 0.12524 0.0311 0.27545-0.12476 0.35055-0.46812 0.22532-0.0314 1.0515 0.90489 1.7775l0.87399 0.67594 7.7084-0.0252h7.7398l0.87375-0.67594c0.46813-0.35036 0.90512-0.85112 0.99875-1.1014 0.18725-0.62599-0.56175-1.9277-1.3421-2.2531-0.43676-0.20035-3.2455-0.30042-8.3326-0.32558l-7.6773-0.05z" stroke-width=".20964"/>
  <path d="m64.896 52.72c-0.22599 0.17518-0.53429 0.67594-0.69877 1.0764-0.2878 0.65097-0.2878 0.82615 0 1.5522 0.16448 0.45063 0.49329 0.95139 0.71943 1.1266 0.53429 0.4005 41.107 0.45063 41.724 0.0501 0.57561-0.37552 1.0689-1.6273 0.90441-2.3534-0.0617-0.32539-0.3288-0.85112-0.57545-1.1266l-0.47278-0.5507-20.615-0.0501c-16.71-0.05-20.677 0-20.985 0.27544z" stroke-width=".17013"/>
  <path d="m21.849 71.321c-0.64805 0.35036-1.4188 2.0528-1.0684 2.3532 0.0875 0.10008 0.12256 0.25029 0.07 0.37553-0.0525 0.12523 0.12257 0.50076 0.38531 0.87628l0.49054 0.67594 10.054-0.0252h10.054l0.45546-0.62581c0.77075-1.0515 0.5955-2.6788-0.33276-3.4047-0.38544-0.30041-19.583-0.50076-20.108-0.22531z" stroke-width=".15706"/>
  <path d="m62.795 7.3046c-1.5003 0.90126-1.7004 2.203-0.50015 3.4548 1.2002 1.2516 2.9506 0.92623 3.8007-0.7011 0.55003-1.0515 0-2.3782-1.2252-2.8789-1.1003-0.4756-1.1252-0.4756-2.0754 0.12523z" stroke-width=".18765"/>
  <path d="m81.97 71.471c-0.42256 0.20015-0.79829 0.65078-1.033 1.2017-0.30512 0.77602-0.30512 0.97636 0 1.5772 0.18787 0.40049 0.49299 0.85112 0.68085 1.0263 0.25812 0.22532 3.3335 0.30042 12.606 0.30042 12.254 0 12.254 0 12.794-0.52573 0.3053-0.30042 0.61042-0.82615 0.68085-1.1515 0.18786-0.72608-0.37555-1.9777-1.033-2.3532-0.70427-0.40068-23.804-0.47578-24.696-0.0751z" stroke-width=".18182"/>
  <path d="m76.367 90.523c-0.30958 0.17537-0.73165 0.67594-0.95682 1.0766-0.39379 0.65078-0.39379 0.82615 0 1.552 0.22517 0.45062 0.67531 0.95138 0.98489 1.1266 0.75972 0.40068 28.954 0.45062 29.826 0.0501 0.5909-0.27545 1.407-1.5021 1.407-2.1029 0-0.22531-0.33765-0.75105-0.75972-1.1515l-0.78778-0.77621-14.604-0.0499c-11.649-0.0501-14.688 0.025-15.11 0.27526z" stroke-width=".19906"/>
  <path d="m21.674 43.798c-0.53673 0.22531-1.2525 0.75103-1.5388 1.1266-0.42938 0.60083-0.42938 0.82615-0.0357 1.5021 0.25038 0.42565 0.82307 0.92622 1.2524 1.0764 0.50077 0.20034 6.1544 0.27545 19.215 0.27545 17.283 0 18.535-0.025 19.358-0.45063 0.46507-0.25028 0.85876-0.65097 0.93041-0.87628 0.0357-0.25029 0.17873-0.50057 0.32204-0.60084 0.35773-0.25028-0.75142-1.552-1.6818-1.9777-0.71573-0.35055-3.292-0.40049-18.821-0.45062-16.424-0.0501-18.07 0-19 0.37552z" stroke-width=".22447"/>
  <path d="m21.938 62.845c-0.45325 0.17518-1.0716 0.67594-1.4015 1.0764-0.57723 0.65097-0.57723 0.82615 0 1.5522 0.32989 0.45063 0.98937 0.95139 1.4429 1.1266 1.0716 0.4005 82.447 0.45063 83.684 0.0501 1.1545-0.37553 2.1438-1.6273 1.8139-2.3534-0.12367-0.32539-0.65947-0.85112-1.1542-1.1266l-0.94824-0.55071-41.347-0.0501c-33.515-0.05-41.471 0-42.09 0.27545z" stroke-width=".24094"/>
  <path d="m53.181 72.356c-0.53404 0.40049-0.92577 0.80118-0.81896 0.92623 0.10681 0.12523 0.0355 0.27544-0.14232 0.35055-0.53404 0.22531-0.0358 1.0515 1.0323 1.7775l0.99705 0.67594 8.7938-0.0252h8.8296l0.99679-0.67594c0.53404-0.35036 1.0326-0.85112 1.1394-1.1014 0.21362-0.62599-0.64084-1.9277-1.5311-2.2531-0.49827-0.20034-3.7025-0.30042-9.506-0.32558l-8.7583-0.0499z" stroke-width=".22391"/>
  <path d="m44.384 53.132c-0.39058 0.40049-0.67706 0.80117-0.59895 0.92622 0.0781 0.12524 0.026 0.27545-0.10409 0.35055-0.39057 0.22532-0.0261 1.0515 0.75498 1.7775l0.72921 0.67594 6.4314-0.0252h6.4576l0.72901-0.67594c0.39058-0.35036 0.75518-0.85112 0.83329-1.1014 0.15623-0.62599-0.46869-1.9277-1.1198-2.2531-0.36441-0.20035-2.7079-0.30042-6.9523-0.32558l-6.4054-0.05z" stroke-width=".19149"/>
  <path d="m22.983 110.43c-0.45443 0.17519-1.0744 0.67594-1.4051 1.0764-0.57872 0.65097-0.57872 0.82615 0 1.5522 0.33075 0.45063 0.99193 0.95139 1.4467 1.1266 1.0744 0.4005 82.661 0.45063 83.9 0.0501 1.1575-0.37552 2.1494-1.6273 1.8186-2.3534-0.12399-0.32539-0.66118-0.85112-1.1572-1.1266l-0.9507-0.5507-41.454-0.0501c-33.602-0.0499-41.579 0-42.199 0.27544z" stroke-width=".24125"/>
  <path d="m68.047 100.08c-0.54845 0.22532-1.2798 0.75105-1.5724 1.1266-0.43876 0.60084-0.43876 0.82615-0.0365 1.5021 0.25585 0.42566 0.84105 0.92623 1.2798 1.0764 0.51171 0.20034 6.2888 0.27545 19.635 0.27545 17.66 0 18.94-0.025 19.781-0.45063 0.47523-0.25029 0.87752-0.65097 0.95073-0.87628 0.0365-0.25029 0.18264-0.50058 0.32908-0.60084 0.36554-0.25029-0.76783-1.552-1.7186-1.9777-0.73136-0.35055-3.3639-0.4005-19.232-0.45063-16.783-0.0501-18.465 0-19.415 0.37552z" stroke-width=".22691"/>
 </g>
 <metadata>
  <rdf:RDF>
   <cc:Work rdf:about="">
    <dc:creator>
     <cc:Agent>
      <dc:title>valney felipe</dc:title>
     </cc:Agent>
    </dc:creator>
    <dc:language>english</dc:language>
   </cc:Work>
  </rdf:RDF>
 </metadata>
</svg>
