<?xml version="1.0" encoding="UTF-8"?>
<svg width="128" height="128" fill="none" version="1.1" viewBox="0 0 128 128" xmlns="http://www.w3.org/2000/svg" xmlns:cc="http://creativecommons.org/ns#" xmlns:dc="http://purl.org/dc/elements/1.1/" xmlns:rdf="http://www.w3.org/1999/02/22-rdf-syntax-ns#">
 <path d="m60.427 0.17197c-10.845 0.72611-21.181 4.5901-29.786 11.151-12.093 9.1802-19.959 22.613-22.123 37.888-0.22912 1.5301-0.40733 3.4231-0.40733 4.2272v1.4521l-1.6547 1.0374c-2.2403 1.4521-3.9969 3.5009-5.2952 6.1978l-1.0692 2.2303-0.0764 10.088c-0.0509 6.6646 0.0255 10.555 0.20366 11.462 0.73828 3.6046 3.6914 7.365 7.1027 9.0246 3.2077 1.556 6.9245 1.8413 9.5212 0.70019 2.3166-1.0114 4.4806-3.6046 4.9897-5.9905 0.12735-0.64826 0.2801-7.2611 0.30549-15.171l0.0764-14.03-0.68736-1.4523c-1.12-2.334-3.564-4.3048-5.8807-4.7457l-0.96738-0.20753 0.1782-1.945c0.45824-4.9272 2.1639-11.099 4.455-16.052 4.8879-10.555 12.983-18.931 23.294-24.066 5.8807-2.9304 12.754-4.8235 17.744-4.9013 1.3747 0 2.4947-0.12965 2.4947-0.25932s0.60469 0.25932 0.84011-0.0519c0.43285 0.10374 2.3168 0.28527 4.1242 0.44086 19.399 1.5041 36.176 14.341 42.973 32.909 1.4001 3.8121 2.4949 8.5578 2.8512 12.37l0.17833 1.8154-0.96745 0.20734c-2.393 0.44092-5.2188 2.8527-6.0081 5.1088-0.99285 2.8527-0.99285 2.8527-0.91648 16.804 0.0764 13.329 0.0764 13.641 0.63657 14.834 1.1456 2.5154 4.455 5.1347 6.5171 5.1347h0.68735v3.4231c0 3.9158-0.38186 5.9386-1.5021 8.1947-1.5019 3.0083-4.1496 5.2644-7.3572 6.2758-1.4001 0.44073-2.3676 0.51853-7.0263 0.51853h-5.3971l-0.30549-0.82972c-0.53461-1.5042-2.4693-3.4751-4.3277-4.4086l-1.7058-0.85579h-14.511l-1.6802 0.82992c-2.0111 1.0114-3.564 2.6452-4.506 4.6938-0.61099 1.2967-0.68736 1.7894-0.68736 4.0714 0 2.334 0.0764 2.749 0.73834 4.1233 0.89108 1.8672 2.4693 3.527 4.1751 4.4086 1.9601 1.0114 4.3023 1.2706 10.463 1.1411 4.9387-0.10386 5.6516-0.18166 6.95-0.70018 1.8074-0.72625 4.0986-2.7749 4.9133-4.4606l0.61099-1.2187 6.4408-0.10386c5.779-0.10367 6.6191-0.18147 8.0955-0.67413 5.0662-1.7376 9.0376-5.2125 11.201-9.7768 1.5784-3.3453 1.8076-4.5642 1.9603-10.451l0.15275-5.2644 1.0436-0.5446c1.6802-0.85578 4.2769-3.7343 5.1934-5.6793 1.3239-2.8008 1.3747-3.449 1.273-14.937l-0.0764-10.581-0.84011-1.7374c-1.0438-2.1784-2.9022-4.2789-5.0152-5.6534l-1.6546-1.0372v-1.4264c0-5.6532-2.5967-15.56-5.779-22.017-5.066-10.269-13.722-19.242-24.007-24.87-6.5173-3.5528-14.842-5.9646-22.021-6.3276-1.6802-0.0778-3.1567-0.2334-3.3094-0.3112-0.35648-0.25932-1.5275-0.25932-4.8369-0.0259zm-46.238 60.787c0.38187 0.23339 1.101 0.70019 1.1774 0.90771 0.30549 0.80386 0.12727 25.674-0.17822 26.374-0.30549 0.64826-1.3747 1.4004-2.0621 1.4004-0.1782 0-0.94193-0.18147-1.6802-0.41486-1.6802-0.49286-3.4622-2.1006-4.2514-3.8641-0.61099-1.2706-0.61099-1.4004-0.61099-10.244 0-10.14 0.0255-10.243 2.0621-12.111 1.5529-1.4264 1.9857-1.7116 3.284-2.0488 1.5529-0.44073 1.3938-0.51853 2.2594 0zm103.52 0.70019c1.3747 0.64845 2.4693 1.8672 3.1313 3.527 0.53462 1.2965 0.56001 1.7116 0.56001 10.243 0 8.7912 0 8.921-0.61098 10.192-0.78913 1.7635-2.5713 3.3714-4.2515 3.8641-1.6546 0.51872-1.8584 0.51872-2.7494 0.0259-1.3237-0.67412-1.3491-0.88165-1.2474-14.159 0.10177-13.278 0.10177-13.355 1.4511-14.133 0.78913-0.44093 2.2658-0.25946 3.7169 0.44073zm-32.79 54.174c0.45824 0.25927 0.99285 0.88166 1.2476 1.3226 0.56001 1.1409 0.15275 2.5674-0.99285 3.3971-0.76374 0.57066-1.0692 0.59653-5.779 0.67432-5.728 0.10367-6.6445-0.0778-7.5864-1.504-0.45824-0.67432-0.5602-1.1411-0.45824-1.7894 0.15275-0.93359 0.96727-2.0228 1.8074-2.36 0.2801-0.12954 2.8514-0.2334 5.728-0.2334 4.7352-0.0259 5.2953 0.0261 6.0335 0.49285z" fill="#3143e6" fill-opacity=".8" stroke-width=".19271"/>
 <defs>
  <filter x="167.07" y="171.09" width="354.2" height="352.86" color-interpolation-filters="sRGB" filterUnits="userSpaceOnUse">
   <feFlood flood-opacity="0" result="BackgroundImageFix"/>
   <feColorMatrix in="SourceAlpha" result="hardAlpha" values="0 0 0 0 0 0 0 0 0 0 0 0 0 0 0 0 0 0 127 0"/>
   <feOffset dy="4"/>
   <feGaussianBlur stdDeviation="2"/>
   <feComposite in2="hardAlpha" operator="out"/>
   <feColorMatrix values="0 0 0 0 0 0 0 0 0 0 0 0 0 0 0 0 0 0 0.25 0"/>
   <feBlend in2="BackgroundImageFix" result="effect1_dropShadow_3_52"/>
   <feBlend in="SourceGraphic" in2="effect1_dropShadow_3_52" result="shape"/>
  </filter>
  <filter id="filter2317" x="-.020797" y="-.020878" width="1.0416" height="1.0418" color-interpolation-filters="sRGB">
   <feGaussianBlur in="SourceGraphic" result="result6" stdDeviation="3"/>
   <feColorMatrix in="SourceGraphic" result="result7" values="1 0 0 0 0 0 1 0 0 0 0 0 1 0 0 0 0 0 1 0 "/>
   <feComposite in="result6" in2="result7" operator="in"/>
  </filter>
  <filter id="filter262" x="0" y="0" width="1" height="1" color-interpolation-filters="sRGB">
   <feColorMatrix result="result2" type="luminanceToAlpha"/>
   <feComposite in="result2" in2="SourceGraphic" k3="2" operator="arithmetic" result="result4"/>
   <feBlend in="result4" in2="result2" mode="multiply" result="result3"/>
   <feComposite in="result3" in2="SourceGraphic" operator="in"/>
  </filter>
  <filter id="filter272" x="0" y="0" width="1" height="1" color-interpolation-filters="sRGB">
   <feColorMatrix result="result2" type="luminanceToAlpha"/>
   <feComposite in="result2" in2="SourceGraphic" k3="2" operator="arithmetic" result="result4"/>
   <feBlend in="result4" in2="result2" mode="multiply" result="result3"/>
   <feComposite in="result3" in2="SourceGraphic" operator="in"/>
  </filter>
  <filter id="filter282" x="0" y="0" width="1" height="1" color-interpolation-filters="sRGB">
   <feColorMatrix result="result2" type="luminanceToAlpha"/>
   <feComposite in="result2" in2="SourceGraphic" k3="2" operator="arithmetic" result="result4"/>
   <feBlend in="result4" in2="result2" mode="multiply" result="result3"/>
   <feComposite in="result3" in2="SourceGraphic" operator="in"/>
  </filter>
 </defs>
 <g transform="matrix(.19093 0 0 .1945 -1.416 -3.3506)" filter="url(#filter2317)">
  <g transform="translate(-1.3094 26.993)" fill="#3143e6">
   <g stroke-width=".19271">
    <path transform="matrix(5.2374 0 0 5.1415 -1455.8 -1423.3)" d="m327.99 328.19h34.737c0.24821 0 0.65471 0.11203 0.82712 0.16804l0.51686 0.3359 0.31026 0.41991 0.20679 0.41992 0.10329 0.67199c0 0.028-0.0206 0.13439-0.10329 0.33589-0.0829 0.2015-0.31027 0.53195-0.41357 0.67179l-0.82712 0.50394-0.62034 0.16805h-38.355l-0.62034-0.16805-0.41337-0.16785-0.41356-0.33609-0.41357-0.41991-0.20678-0.41992v-0.67179l0.20678-0.41992 0.20678-0.25207 0.20679-0.25187 0.20678-0.16805 0.20678-0.16804 0.31007-0.16785 0.20678-0.084h1.1372z" filter="url(#filter262)"/>
    <path transform="matrix(5.2374 0 0 5.1415 -1455.8 -1423.3)" d="m330.15 334.8h29.26c0.20907 0 0.55161 0.0885 0.69672 0.13264l0.43532 0.2651 0.26139 0.33162 0.17413 0.33161 0.0871 0.5304c0 0.022-0.0174 0.106-0.0871 0.26509-0.0697 0.1593-0.26119 0.42012-0.34826 0.53059l-0.69671 0.39775-0.52259 0.13264h-32.308l-0.52259-0.13264-0.34826-0.13265-0.34826-0.2651-0.34845-0.33162-0.17414-0.33142v-0.53058l0.17414-0.33143 0.17413-0.19897 0.17432-0.19897 0.17413-0.13245 0.17413-0.13264 0.2612-0.13265 0.17413-0.0663h0.9581z" filter="url(#filter272)"/>
    <path transform="matrix(5.2374 0 0 5.1415 -1455.8 -1423.3)" d="m330.96 340.64h27.226c0.19437 0 0.51304 0.0885 0.64822 0.13265l0.40516 0.26509 0.24306 0.33162 0.1621 0.33162 0.081 0.53039c0 0.022-0.0162 0.106-0.081 0.2651-0.0649 0.15929-0.24325 0.42011-0.3242 0.53058l-0.64822 0.39775-0.48612 0.13265h-30.062l-0.4863-0.13265-0.32402-0.13265-0.3242-0.2651-0.32401-0.33161-0.16211-0.33142v-0.53059l0.16211-0.33142 0.1621-0.19897 0.16191-0.19897 0.1621-0.13245 0.1621-0.13265 0.24306-0.13265 0.1621-0.0663h0.89128z" filter="url(#filter282)"/>
   </g>
   <path d="m223.47 172.67c-29.275 7.196-52.54 35.773-50.507 66.408-1.3905 50.986-3.0801 102.09-0.96042 153.06 6.2569 31.108 35.986 55.946 68 54.534 0.79815 16.415-2.2193 33.502 2.8 49.333 8.2465 21.044 39.816 27.231 54.934 10.034 21.114-18.81 40.4-39.606 61.866-58.034 34.066-0.43157 68.234 1.176 102.21-1.4547 32.013-6.019 56.072-37.447 53.971-69.916 0.92893-48.163 2.3097-96.391 0.79332-144.54-3.1406-33.103-34.209-61.568-67.915-59.129-73.564-1.9345-147.21-2.8187-220.78-0.76782l-2.7741 0.2278zm235.73 36.266c14.863 6.8747 25.51 22.051 23.417 38.85-0.18269 44.646 0.18358 89.362-2.2335 133.95 0.13655 14.585-12.089 26.093-24.694 30.938-36.964 0.24172-73.939 0.11886-110.89 1.1952-18.167 12.747-32.746 30.14-48.816 45.482-7.1058 7.106-14.212 14.212-21.317 21.318-0.7563-19.972 2.0978-40.436-2.5602-59.99-9.6339-14.435-30.587-5.0656-44.622-11.134-17.533-6.3762-23.062-25.05-21.377-41.979 0.21889-44.208-0.6668-88.509 1.9752-132.65 0.52814-16.647 16.908-28.642 32.823-28.114 63.661-2.2745 127.41 0.067 191.09 0.5259 9.0425 0.45753 18.326-0.43504 27.202 1.6051z" fill-opacity=".8" shape-rendering="crispEdges"/>
  </g>
 </g>
 <metadata>
  <rdf:RDF>
   <cc:Work rdf:about="">
    <dc:creator>
     <cc:Agent>
      <dc:title>valney felipe</dc:title>
     </cc:Agent>
    </dc:creator>
    <dc:language>english</dc:language>
   </cc:Work>
  </rdf:RDF>
 </metadata>
</svg>
