<?xml version="1.0" encoding="UTF-8"?>
<svg width="128" height="128" fill="none" version="1.1" viewBox="0 0 128 128" xmlns="http://www.w3.org/2000/svg" xmlns:cc="http://creativecommons.org/ns#" xmlns:dc="http://purl.org/dc/elements/1.1/" xmlns:rdf="http://www.w3.org/1999/02/22-rdf-syntax-ns#">
 <g transform="matrix(.19223 0 0 .19221 -2.1435 -2.0752)" fill="#3143e6" fill-opacity=".8">
  <path d="m253.73 15.333c-9.066 2.5333-23.2 7.2-31.466 10.533-25.867 10.133-59.467 28-63.2 33.6-2.4 3.8667-1.867 9.6 2.266 22.533 4.267 13.333 4.4 35.467 0.4 46.4-7.733 20.8-24.8 32.533-49.066 33.867-11.867 0.666-19.334-0.534-38.934-6.4-8.8-2.667-12-0.8-20.133 11.466-8.6667 13.2-21.067 38.4-27.6 55.867-5.3334 14.4-14 44.933-14 49.333 0 4.534 3.6 8.534 11.067 12.267 22.667 11.467 40.8 31.067 44.8 48.4 1.6 7.333-1.2 22.933-5.8666 32.267-4.6667 9.2-21.467 25.733-32.4 31.866-15.333 8.667-16.267 9.334-17.867 12.667-4.1334 9.067 14.4 62.667 34.133 99.2 13.333 24.667 14.533 25.467 33.467 19.333 14.267-4.666 34.134-5.866 45.467-2.533 22.533 6.4 36.133 24.8 37.467 50.667 0.666 12 0 16.533-6.534 38.933-2.533 8.667-0.533 12.133 10.267 18.667 13.733 8.4 42.133 22.133 57.067 27.6 14.8 5.6 43.866 14.133 47.6 14.133 5.333 0 9.2-3.2 13.333-11.2 10.4-19.733 23.6-34 37.867-40.667 11.2-5.2 16.133-5.866 26.8-3.466 21.333 4.933 37.466 18.666 50.4 42.933 8.133 15.067 9.066 15.333 30.933 9.867 21.067-5.334 37.733-11.334 57.733-20.934 17.067-8.133 35.867-19.066 39.467-23.066 2.933-3.2 2.533-9.467-1.867-24.8-7.866-28.4-0.933-56.667 17.467-70 10.4-7.467 18.933-9.867 35.2-9.734 12 0 16.8 0.667 26.4 3.467 14.533 4.533 18.8 4.533 22.667 0.4 4.133-4.4 19.6-33.467 26.266-49.2 10.4-24.667 20-55.733 20-64.933-0.133-6.267-1.6-8-13.2-14.134-19.466-10.266-36.4-29.866-40-46.266-1.866-7.734 0.8-21.734 6-32 4.534-8.934 21.467-25.6 32.267-31.6 15.333-8.667 16.267-9.334 17.867-12.667 1.333-2.8 0.933-5.867-1.6-16.4-7.067-29.733-21.867-66-37.334-91.6-9.6-15.733-10.933-16.267-28.666-10.4-13.734 4.533-37.2 5.2-48.134 1.333-21.333-7.466-33.466-24.8-34.8-49.6-0.666-12 0-16.666 6.4-38.8 2.534-8.5333 0.934-12-8.533-18-31.333-20.267-101.73-46.267-112.27-41.467-3.333 1.6-4 2.5334-12.666 17.867-2.534 4.6667-9.2 12.933-14.667 18.533-10.267 10.4-19.333 16.133-29.2 18.4-7.2 1.6-22.933-1.2-31.733-5.6-12.934-6.6666-28.267-23.467-36.934-40.533-3.866-7.7333-7.733-11.067-12.8-10.933-1.866 0-10.666 2.1333-19.6 4.5333zm18.4 30.4c15.867 27.067 42.934 44.133 72.534 45.867 10.666 0.6666 13.2 0.2666 22.666-2.8 19.6-6.6667 38.4-22.533 50.134-42.267l5.333-8.9333 15.2 4.5333c8.267 2.5333 21.6 7.2 29.6 10.667 13.333 5.6 39.067 18.8 39.067 19.867 0 0.2667-0.934 4.5334-2.134 9.6-2.8 11.333-3.066 36.933-0.666 47.066 3.866 15.467 12.266 30 23.466 40.267 5.867 5.333 20.4 12.667 30.134 15.333 11.066 2.934 35.6 2.8 48.933-0.133 5.333-1.2 10-2.133 10.267-2.133 1.333 0 15.866 29.066 21.333 42.533 6 15.067 12.667 36.133 12.667 40.133 0 1.067-3.734 4.134-8.4 6.8-19.067 11.2-35.734 31.334-41.867 50.267-4 12.533-5.333 29.2-3.067 39.067 4.4 19.333 19.734 40 39.734 53.333 5.6 3.733 10.4 6.933 10.666 7.067 0.8 0.8-8.133 28-13.066 40-5.867 14-17.2 37.2-20.267 41.2-1.733 2.4-2.4 2.4-12.133 0.4-12.934-2.667-36.267-2.667-47.467-0.134-27.733 6.534-48.133 27.734-54.133 56-3.2 15.467-1.867 44 2.666 55.467 1.6 4.267-38.666 23.6-67.866 32.4l-14.534 4.4-7.733-11.6c-19.2-28.667-45.333-44-75.067-44-24 0-51.733 17.867-67.466 43.6-3.467 5.6-6.934 9.733-8.134 9.733-7.866 0-67.466-24.8-79.6-33.066-1.333-0.934-1.2-2.934 0.534-10.4 2.8-11.467 3.066-37.067 0.666-47.2-5.333-21.867-19.6-40.934-37.333-50-18.933-9.467-47.333-11.067-72.933-3.867-2.2666 0.667-3.7333-1.2-10.133-13.733-11.867-22.667-26.4-60.534-26.4-68.134 0-1.333 3.3333-4.133 8.4-7.066 18.933-11.2 34.933-30.267 41.733-49.867 4.9334-14.4 5.3334-35.867 0.9334-47.733-6.5334-17.334-23.733-37.067-41.333-47.467-5.8666-3.333-8.4-5.6-8.4-7.467 0-9.6 27.733-75.466 33.867-80.533 1.3333-1.067 4.2667-0.933 10.933 0.667 11.467 2.666 37.2 3.066 47.2 0.666 28-6.8 48.266-26.666 55.333-54.133 2.533-10 2.533-35.6 0-47.333-1.067-4.8-1.867-9.3333-2-10.267 0-2 18-11.867 34.933-19.333 14.534-6.2666 41.867-15.733 45.734-15.733 1.866 0 4.133 2.5333 7.466 8.4z"/>
  <path d="m319.33 109.47c-54.933 5.866-104.4 30-143.47 70-31.334 32.133-50.667 68-60.4 111.6-2.934 13.2-4.267 22.666-7.067 50.4-1.6 16.133 4.533 55.733 12.133 78.133 16.534 48.533 49.334 91.067 92.8 120 19.334 12.933 44.267 24.267 66.8 30.267 19.467 5.2 27.2 6.4 61.2 9.6 10.534 1.066 36.8-1.734 54.667-5.734 44.8-9.866 83.2-31.466 116.13-65.333 37.734-38.533 59.867-86.267 65.2-140.4 0.667-7.733 1.734-17.333 2.134-21.467 1.733-15.333-3.6-51.2-11.067-75.066-21.2-67.2-75.6-123.47-143.07-148-16-5.734-39.866-11.067-54.666-12.267-6.267-0.533-11.867-1.333-12.667-1.733-2-1.467-25.333-1.334-38.667 0zm32 23.866c33.734 1.867 57.6 7.867 85.334 21.334 64.133 31.2 108.4 92.266 117.87 162.93 1.867 13.467-0.266 50.933-3.733 67.733-5.867 28-16.4 53.467-31.467 75.867-34.8 52-87.2 84.533-150.27 93.467-12 1.733-51.734-0.667-67.467-4-89.2-18.934-156.27-91.067-168.27-180.67-1.733-14 0.267-50.533 3.867-67.867 18.4-88.133 88-154.27 176.8-168.13 13.333-2.133 11.867-2.133 37.333-0.667z"/>
  <path d="m224.73 299.93-3.733 2.933v40.4c0 39.333 0.133 40.4 2.8 42.933 2.666 2.4 6.933 2.534 89.066 3.6 47.334 0.534 100.4 0.8 117.87 0.667 31.733-0.4 31.867-0.4 34.4-3.6 2.4-2.933 2.533-5.333 2.267-43.2l-0.4-40-3.334-2.4c-3.066-2.267-10.266-2.4-119.33-3.333l-116-0.934zm145.33 21.066 74.934 0.8v45.334l-68.267-0.8c-37.467-0.534-82.8-0.934-100.67-0.934h-32.4v-45.333h25.734c14 0 59.333 0.4 100.67 0.933z"/>
  <path d="m224.73 192.93-3.733 2.933v40.4c0 39.333 0.133 40.4 2.8 42.933 2.666 2.4 6.933 2.534 89.066 3.6 47.334 0.534 100.4 0.8 117.87 0.667 31.733-0.4 31.867-0.4 34.4-3.6 2.4-2.933 2.533-5.333 2.267-43.2l-0.4-40-3.334-2.4c-3.066-2.267-10.266-2.4-119.33-3.333l-116-0.934zm145.33 21.066 74.934 0.8v45.334l-68.267-0.8c-37.467-0.534-82.8-0.934-100.67-0.934h-32.4v-45.333h25.734c14 0 59.333 0.4 100.67 0.933z"/>
  <path d="m224.73 406.93-3.733 2.933v40.4c0 39.333 0.133 40.4 2.8 42.933 2.666 2.4 6.933 2.534 89.066 3.6 47.334 0.534 100.4 0.8 117.87 0.667 31.733-0.4 31.867-0.4 34.4-3.6 2.4-2.933 2.533-5.333 2.267-43.2l-0.4-40-3.334-2.4c-3.066-2.267-10.266-2.4-119.33-3.333l-116-0.934zm145.33 21.066 74.934 0.8v45.334l-68.267-0.8c-37.467-0.534-82.8-0.934-100.67-0.934h-32.4v-45.333h25.734c14 0 59.333 0.4 100.67 0.933z"/>
  <path d="m260.94 227.71c-5.44 3.923-5.253 13.394 0.563 17.317 4.126 2.841 6.002 2.977 43.331 2.977 38.641 0 38.829 0 43.331-3.383 6.377-4.465 6.377-12.582 0.374-16.641-4.126-2.841-5.814-2.976-44.08-2.976-37.328 0-39.955 0.135-43.519 2.706z"/>
  <path d="m260.94 441.71c-5.44 3.923-5.253 13.394 0.563 17.317 4.126 2.841 6.002 2.977 43.331 2.977 38.641 0 38.829 0 43.331-3.383 6.377-4.465 6.377-12.582 0.374-16.641-4.126-2.841-5.814-2.976-44.08-2.976-37.328 0-39.955 0.135-43.519 2.706z"/>
  <path d="m260.94 334.71c-5.44 3.923-5.253 13.394 0.563 17.317 4.126 2.841 6.002 2.977 43.331 2.977 38.641 0 38.829 0 43.331-3.383 6.377-4.465 6.377-12.582 0.374-16.641-4.126-2.841-5.814-2.976-44.08-2.976-37.328 0-39.955 0.135-43.519 2.706z"/>
 </g>
 <metadata>
  <rdf:RDF>
   <cc:Work rdf:about="">
    <dc:creator>
     <cc:Agent>
      <dc:title>valney felipe</dc:title>
     </cc:Agent>
    </dc:creator>
    <dc:language>english</dc:language>
   </cc:Work>
  </rdf:RDF>
 </metadata>
</svg>
