<?xml version="1.0" encoding="UTF-8"?>
<svg width="128" height="128.2" fill="none" version="1.1" viewBox="0 0 128 128.2" xmlns="http://www.w3.org/2000/svg" xmlns:cc="http://creativecommons.org/ns#" xmlns:dc="http://purl.org/dc/elements/1.1/" xmlns:rdf="http://www.w3.org/1999/02/22-rdf-syntax-ns#">
 <g transform="matrix(.18786 0 0 .18786 -.37481 -.29556)">
  <g fill="#3143e6">
   <ellipse cx="503.5" cy="626.5" rx="18.5" ry="17.5"/>
   <ellipse cx="503.5" cy="353.5" rx="18.5" ry="17.5"/>
   <ellipse cx="503.5" cy="489.5" rx="18.5" ry="17.5"/>
   <g fill-opacity=".8">
    <path d="m389.33 2.9333c-2.533 0.66667-7.066 1.8667-10 2.6667-17.333 4.5333-39.6 15.333-55.333 26.8-18 13.2-37.2 36.667-47.467 57.867l-4.666 9.6-4.4-2.6667c-18.267-10.8-49.2-14.267-71.867-8.1333-17.6 4.8-30.533 12.533-44.4 26.266-10.4 10.267-13.067 14-18.267 24.667-6.533 13.467-10.266 26.267-10.266 35.733v5.734l-3.867-2.134c-4.533-2.266-13.733-5.466-19.467-6.666-6.1333-1.334-24.667-1.734-30.667-0.534-10.4 1.867-12.133 2.534-23.067 7.867-15.867 7.867-27.6 20-35.467 36.4-7.0666 14.8-8.6666 22.933-8 39.733 0.8 21.6 7.4667 36.267 23.867 52.534 16 16 31.733 22.8 53.733 23.6 6.2667 0.266 7.4667-0.134 11.2-3.867 5.6-5.6 5.6-11.067 0.1334-16.667-3.3334-3.333-5.4667-4.133-11.867-4.666-27.867-2.267-51.333-26.4-51.333-52.8 0-10.267 0.1333-11.6 2.4-18.934 10.533-33.6 49.733-49.066 80.4-31.733 3.333 1.867 10.266 7.867 15.466 13.333 11.734 12.4 15.6 13.6 22.8 6.4 5.2-5.2 5.2-6.266 0.4-22.666s-3.2-30.134 5.6-48.4c12.534-26.534 40.534-43.067 69.067-41.067 17.467 1.2 26.667 4.667 43.6 16.267 6.8 4.666 9.6 5.866 12.267 5.2 5.066-1.067 10.133-7.334 12.8-15.467 14.266-43.6 52.266-77.6 99.2-88.8 15.066-3.6 43.2-3.4667 57.466 0.2667 1.867 0.4 4.8 1.0666 6.534 1.4666 6.533 1.3334 23.733 8.6667 32.8 13.867 19.733 11.6 36.4 28.267 48.133 48 6.533 11.067 13.467 27.733 14.667 35.6 0.4 2.8 1.066 5.467 1.466 6 3.2 5.467 2.8 39.333-0.8 53.733-2.533 10.534-2.533 10.667 0 14.8 1.334 2.4 4.4 4.934 6.667 5.867 3.733 1.6 4.933 1.2 17.2-4.667 11.467-5.466 14.667-6.4 23.6-6.933 43.2-2.533 73.333 44.933 52 82.133-9.6 16.534-26.533 27.334-45.067 28.667-6.933 0.4-8.8 1.067-12.266 4.533-5.467 5.6-5.467 11.067 0.133 16.667 3.733 3.733 4.933 4.133 11.2 3.867 22-0.8 37.733-7.6 53.733-23.6 16.4-16.267 23.067-30.934 23.867-52.534 0.667-16.8-0.933-24.933-8-39.733-7.867-16.4-19.6-28.533-35.467-36.4-10.933-5.333-12.666-5.867-23.066-7.867-6.134-1.2-24-0.933-28.267 0.267-9.067 2.667-8.267 3.867-8.133-12.667 0.133-67.6-42.267-127.47-106.93-150.67-4-1.4667-8.8-2.9333-10.533-3.2-1.733-0.4-6.8-1.4667-11.067-2.5333-9.066-2.1333-54.933-2.4-62.4-0.4z"/>
    <path d="m229.87 164.27c-20.534 20-24.934 25.466-24.934 30.533 0 4.533 5.6 11.2 10.534 12.4 4.4 1.2 7.866-0.8 16.933-9.733l7.733-7.467-0.266 39.2-0.267 39.333 4.267 3.734c6 5.333 13.733 4.266 18.133-2.534 2-2.933 2.267-8.133 2-40.8l-0.133-37.466 7.333 6.933c4 3.867 8.933 7.6 10.933 8.267 4.8 1.866 10.267-0.4 13.867-5.334 5.2-7.333 3.867-9.6-18.533-32.133-27.334-27.333-24.8-27.067-47.6-4.933z"/>
    <path d="m425.2 152.13c-2.133 2-3.867 4.667-3.867 6.134-0.133 1.333 0 18.533 0 38.266l0.134 35.867-8.134-7.467c-9.333-8.666-12.8-10-18.266-7.066-5.6 2.8-7.467 5.466-7.867 11.2-0.267 4.8 0.533 5.733 20.533 25.733 18.134 18 21.6 20.8 25.467 21.067 4.133 0.133 6.133-1.334 24.4-19.467 23.333-23.067 24.8-25.2 21.733-31.6-2.533-5.333-9.866-9.467-14.4-8-1.6 0.533-6.666 4.533-11.333 9.067l-8.4 8 0.267-39.2 0.266-39.2-4.266-3.734c-5.334-4.666-10.934-4.533-16.267 0.4z"/>
    <path d="m147.6 296.27c-0.667 0.4-2.133 0.533-2.933 0.266-0.934-0.4-4.8 0.8-8.8 2.534-8.134 3.6-18 13.333-19.334 19.2-0.533 2-1.2 4.266-1.6 4.933s-0.666 14.8-0.666 31.333c0 32 0.666 35.6 7.066 43.734 3.867 4.933 12.4 10.933 17.6 12.533 5.067 1.333 400.27 1.733 406.13 0.267 9.066-2.134 19.066-10.934 23.333-20.267 2.4-5.467 2.667-8.8 2.533-35.333 0-17.467-0.533-31.734-1.466-35.067-2.934-10.933-16.667-22.4-28.8-23.867-7.067-0.933-391.6-1.2-393.07-0.266zm395.2 28.8 3.867 4.266v24.134c0 26.933-0.934 30.533-8.134 33.066-6 2.134-385.73 2.134-391.73 0-7.2-2.533-8.133-6.266-8.133-32.533 0-27.467 0.666-29.867 10-32.933 1.466-0.4 89.866-0.667 196.4-0.667l193.87 0.267z"/>
    <path d="m158.53 346.13c-3.066 3.2-3.866 5.067-3.466 8 0.8 5.734 2.133 8.134 5.733 10.534 2.8 1.866 15.333 2 114.67 2 123.2 0 116.13 0.533 119.73-8.267 2.267-5.067 1.467-8.267-3.067-12.533l-3.466-3.334-113.07-0.266-113.07-0.267z"/>
    <path d="m411.87 343.73c-3.734 2.667-6.667 9.067-5.734 12.8 0.4 1.734 2.4 4.8 4.4 6.667 3.6 3.467 4 3.6 22.667 3.733 20.933 0 24.267-0.933 27.333-8.533 2.267-5.067 1.467-8.267-3.066-12.667-3.467-3.466-3.867-3.466-23.334-3.6-14.4-0.133-20.533 0.4-22.266 1.6z"/>
    <path d="m134.93 436.13c-9.066 4.134-13.733 8.934-17.733 17.734-2.667 6-2.8 8.666-2.8 36.8 0 28 0.133 30.666 2.933 36.933 3.467 8.133 9.334 14 17.6 17.733 6.267 2.667 6.8 2.667 207.87 2.667h201.73l6.934-3.333c8-3.867 13.066-9.334 16.8-17.734 2.4-5.2 2.666-9.2 2.666-36.133 0-28.4-0.133-30.667-2.933-37.2-3.467-8.133-10.667-15.067-18.8-18.133-5.333-2-22.667-2.267-206.27-2.534l-200.53-0.266zm407.33 24.4 3.733 3.2v53.867l-3.733 3.2-3.734 3.2h-391.73l-3.733-3.2-3.734-3.2-0.4-26.133-0.4-26.134 4-4 3.867-4h392.13z"/>
   </g>
  </g>
  <ellipse cx="503.5" cy="489.5" rx="6.5" ry="5.5" fill="#d9d9d9"/>
  <g fill="#3143e6" fill-opacity=".8">
   <path d="m165.6 478.8c-1.2 0.533-3.733 2.533-5.467 4.4-4.533 4.8-4.266 10.667 0.667 15.6l4 3.867h112.4c120.53 0 116.53 0.266 119.87-6.267 3.066-5.867-0.534-15.2-6.4-17.067-3.334-1.066-222.4-1.466-225.07-0.533z"/>
   <path d="m422.27 478.53c-2.8 0.8-7.867 6-9.067 9.2-1.467 3.867 1.467 10 6.267 13.067 2.666 1.867 6.8 2.267 21.866 2.133 11.2 0 19.6-0.666 21.334-1.6 1.6-0.8 3.733-3.6 4.8-6.133 1.6-3.867 1.6-5.2 0-9.067-1.067-2.533-3.2-5.333-4.8-6.133-2.534-1.333-36.534-2.667-40.4-1.467z"/>
   <path d="m140.93 570.13c-10.933 2.8-20.666 11.6-25.066 22.534-2 5.2-2 60.533 0 68.133 1.866 6.933 11.066 17.467 18.133 20.667 5.067 2.4 14.267 2.533 208.67 2.533s203.6-0.133 208.67-2.533c7.067-3.2 16.267-13.734 18.134-20.667 2.133-7.467 2-62.8-0.134-68.133-4.266-11.2-15.6-21.067-26-22.667s-396.27-1.467-402.4 0.133zm397.6 24.667c7.2 2.533 8.134 6.133 8.134 33.067 0 23.866 0 24-3.467 28l-3.467 4.133h-394.13l-3.467-4.133c-3.466-4-3.466-4.267-3.466-27.867 0-26.4 0.8-30 7.333-32.8 5.333-2.4 385.73-2.667 392.53-0.4z"/>
   <path d="m164.67 616c-4.667 2.267-8.667 9.467-7.734 13.467 0.4 1.466 2.267 4.266 4.267 6l3.467 3.333h226.4l3.866-3.733c5.2-4.934 5.067-10.8-0.4-16.267-2.266-2.267-4.8-4.133-5.6-4.133-0.933 0-50.8-0.134-110.93-0.4-94.933-0.267-109.87 0-113.33 1.733z"/>
   <path d="m420.67 616c-4.667 2.267-8.667 9.467-7.734 13.467 0.4 1.466 2.4 4.266 4.267 6.133 3.467 3.467 3.733 3.467 23.867 3.467 21.733-0.134 22.8-0.4 26.4-7.334 2.4-4.666 1.333-9.066-3.467-13.733-3.6-3.467-4.133-3.6-21.467-3.733-13.6-0.267-18.8 0.266-21.866 1.733z"/>
  </g>
  <rect transform="translate(343,510)" width="12" height="7" fill="#f5f5f5"/>
  <path d="m344.5 511 2 4.5 2-4.5" stroke="#3143e6" stroke-opacity=".06"/>
  <path d="m350 511 2.286 3 2.214-3m-2.214 3v2.5" stroke="#3143e6" stroke-opacity=".06"/>
  <ellipse cx="503.5" cy="353.5" rx="6.5" ry="5.5" fill="#d9d9d9"/>
  <path d="m510 626.5c0 3.038-2.91 5.5-6.5 5.5s-6.5-2.462-6.5-5.5 2.91-5.5 6.5-5.5 6.5 2.462 6.5 5.5z" fill="#d9d9d9"/>
 </g>
 <metadata>
  <rdf:RDF>
   <cc:Work rdf:about="">
    <dc:creator>
     <cc:Agent>
      <dc:title>valney felipe</dc:title>
     </cc:Agent>
    </dc:creator>
    <dc:language>english</dc:language>
   </cc:Work>
  </rdf:RDF>
 </metadata>
</svg>
