<?xml version="1.0" encoding="UTF-8"?>
<svg width="128" height="128" fill="none" version="1.1" viewBox="0 0 128 128" xmlns="http://www.w3.org/2000/svg" xmlns:cc="http://creativecommons.org/ns#" xmlns:dc="http://purl.org/dc/elements/1.1/" xmlns:rdf="http://www.w3.org/1999/02/22-rdf-syntax-ns#">
 <g fill="#3143e6" stroke-width=".20978">
  <path d="m96.477 50.202c0 13.401-14.504 25.492-32.396 25.492-17.892 0-32.396-12.091-32.396-25.492 0-13.401 14.504-24.926 32.396-24.926 17.892 0 32.396 11.525 32.396 24.926z" fill-opacity=".09"/>
  <g fill-opacity=".8">
   <path d="m61.858 0.50617c-0.28968 0.26925-0.70719 0.56291-0.65259 0.95511v7.3535c0.15251 0.47861 0.69691 0.78816 1.1649 1.067 0.54626 0.28932 1.2355 0.59592 1.8907 0.34956 0.74235-0.25086 1.4462-0.64669 1.887-1.1998 0.16469-0.26581 0.0635-0.57381 0.0916-0.86048v-6.9095c-0.11386-0.5827-0.83429-0.91999-1.4612-1.1089-0.86321-0.2361-1.8864-0.21582-2.6703 0.18559-0.0895 0.0497-0.1737 0.10584-0.24996 0.16801z"/>
   <path d="m57.478 12.687c-0.2489 0.12589-0.80802 0.25176-1.2432 0.25176-1.1497 0-6.3703 1.1078-8.7942 1.8631-6.2771 1.9638-11.498 4.7334-16.532 8.8372-5.2828 4.2551-8.8254 8.7115-11.156 13.974-0.93226 2.0898-2.02 5.4383-2.2064 6.7979-0.062 0.47849-0.21766 1.3345-0.34158 1.8883-0.37281 1.8128-0.21765 7.2009 0.27962 10.348 0.74585 4.5824 4.2884 11.531 8.0484 15.837 2.5793 2.9709 7.7688 7.1505 11.405 9.1899 4.2264 2.3666 4.879 2.8702 5.9976 4.7332l1.0255 1.687 0.0932 5.0858c0.0932 3.3486 0 5.1111-0.18641 5.1111-0.55933 0-2.2687 1.3092-3.1077 2.3666-0.71461 0.93151-0.80781 1.2589-0.77683 3.55 0 2.0143 0.12445 2.7192 0.62161 3.4996l0.62135 1.0072-0.62135 0.85597c-0.46602 0.62938-0.62161 1.3596-0.68384 2.8954-0.062 3.4998 1.0255 5.4132 3.7603 6.4707 1.2739 0.50361 1.9578 0.57915 5.5313 0.60426l4.071 0.0251 0.0318 2.4423c0.0625 2.8954 0.71481 4.3054 2.5481 5.3375l1.181 0.65468h7.023c6.7744 0 7.0231-0.0251 7.8932-0.55384 2.1752-1.3849 2.6726-2.417 2.7346-5.5894l0.0318-2.2913 4.0707-0.0251c3.5738-0.0251 4.2574-0.10065 5.5316-0.60426 2.7655-1.0826 3.8533-2.9458 3.729-6.3698-0.062-1.6366-0.2489-2.4424-0.68378-3.0466-0.59037-0.80555-0.59037-0.83085 0.0318-1.8128 0.49727-0.78044 0.62135-1.4854 0.62135-3.4996 0.0318-2.2911-0.062-2.6185-0.77683-3.55-0.80802-1.0323-2.5481-2.3666-3.0764-2.3666-0.49727 0-0.34211-9.0639 0.15569-10.449 0.83905-2.2156 2.2374-3.5247 6.2462-5.8662 11.001-6.4203 17.837-15.157 19.857-25.354 0.062-0.27702 0.21766-0.80574 0.34158-1.1834 0.12445-0.4532 0.0318-0.88109-0.34158-1.3343-1.7713-2.1904-4.7545-1.1834-5.2206 1.7875-0.27962 1.9136-0.46602 2.5934-1.15 4.4062-0.96324 2.6183-3.3871 6.6971-5.4691 9.2652-2.3306 2.7947-7.1784 6.7477-11.125 9.0137-4.1019 2.3415-5.811 3.8773-7.3648 6.5713l-1.2739 2.1904-0.0318 5.1613-0.0318 5.1613h-29.522l-0.0318-4.7836c0-2.6436-0.12445-5.0607-0.21765-5.4132-0.71482-2.4422-2.1132-4.532-4.1332-6.1684-0.77683-0.62956-2.7036-1.8381-4.2572-2.694-11.809-6.5713-18.894-17.574-18.428-28.652 0.12445-3.3487 0.40406-5.0104 1.3984-8.1073 3.2007-10.071 12.554-18.682 24.612-22.71 3.0142-1.0072 8.2349-2.1653 9.7265-2.1653 1.3052 0 2.9212-0.83086 3.1697-1.6366 0.52851-1.6869-1.9578-3.4997-3.6046-2.6436zm25.047 89.733c0.62161 0.70509 0.55939 3.1221-0.0932 3.7264-0.46603 0.42789-1.4604 0.45319-18.366 0.45319-20.51 0-19.018 0.17618-19.018-2.266 0-1.41 0.3421-2.0898 1.2432-2.3415 0.24837-0.0755 8.4214-0.12595 18.117-0.10083 17.091 0.0504 17.682 0.0755 18.117 0.52873zm-0.18641 8.7115c0.46603 0.37766 0.62156 0.83086 0.62156 1.8883 0 1.0575-0.15516 1.5106-0.62156 1.8883-0.62134 0.50343-1.0255 0.50343-18.334 0.50343-17.309 0-17.713 0-18.335-0.50343-0.46602-0.37766-0.62156-0.83085-0.62156-1.8883 0-1.0574 0.15569-1.5106 0.62156-1.8883 0.62161-0.50361 1.0255-0.50361 18.335-0.50361 17.309 0 17.713 0 18.334 0.50361zm-12.803 10.323c0.12445 2.694-0.0318 2.7696-5.5003 2.7696-5.4694 0-5.6246-0.0755-5.6246-2.6185 0-1.007 0.0932-1.9134 0.21765-2.0141 0.12445-0.0755 2.6104-0.12595 5.5004-0.10084l5.3139 0.0755z"/>
   <path d="m67.95 13.04c-1.5538 1.1582-1.3983 2.7947 0.31086 3.5248 0.49727 0.20143 1.6471 0.42803 2.5793 0.52873 9.0429 0.90646 19.267 5.6397 25.451 11.808 4.941 4.9347 8.2661 11.103 9.1672 16.995 0.21765 1.2336 1.4296 2.543 2.4238 2.543 1.7093 0 3.2942-1.4351 2.9212-2.6436-0.12445-0.37766-0.27961-1.1583-0.40406-1.7121-0.46602-2.9206-2.113-6.9741-4.0707-10.247-5.4071-9.0135-15.289-16.114-26.818-19.361-2.921-0.80568-5.1584-1.284-6.8987-1.4603-0.65259-0.0504-1.5539-0.20141-1.9578-0.35248-1.2119-0.35249-1.8335-0.27696-2.7036 0.37767z"/>
   <path d="m20.032 13.442c-1.243 0.37766-2.1752 1.4855-2.051 2.4926 0.0318 0.47839 6.1839 5.5138 7.2716 5.967 0.77683 0.35255 0.96329 0.32744 1.8645-0.0755 0.55938-0.27684 1.1809-0.80556 1.4294-1.2085 0.37282-0.62938 0.37282-0.80557-0.12445-1.5609-0.71482-1.0323-6.3084-5.4888-7.1474-5.665-0.37282-0.0755-0.93226-0.0504-1.2429 0.0503z"/>
   <path d="m106.33 13.619c-1.1809 0.4532-6.7435 5.0607-7.0232 5.8161-0.31086 0.75533 0.40407 1.8128 1.5849 2.3918 0.90128 0.40296 1.0877 0.42807 1.8645 0.0755 1.0877-0.45319 7.2406-5.4886 7.2716-5.967 0.0932-0.73013-0.0932-1.133-0.87003-1.7876-0.99448-0.85605-1.678-0.98192-2.8278-0.52873z"/>
   <path d="m0.85842 49.27c-1.1498 0.93151-1.1498 1.8883 0.0318 2.7947l0.90117 0.7049h4.6613c2.6414 0 4.9409-0.12595 5.2828-0.27701 0.31085-0.12576 0.80802-0.62937 1.0877-1.0826 0.40406-0.67979 0.43477-0.90639 0.062-1.4602-0.80781-1.2589-1.0875-1.3094-6.2771-1.3596l-4.8478-0.0253z"/>
   <path d="m116.18 48.892c-0.34157 0.17617-0.77683 0.65448-1.0255 1.0322-0.40406 0.60426-0.37282 0.78063 0.0318 1.4855 0.27961 0.4532 0.77677 0.95681 1.0875 1.0826 0.34211 0.15106 2.6416 0.27701 5.2828 0.27701h4.6613l0.90128-0.7049c1.1497-0.90639 1.1807-1.8632 0.062-2.7696-0.87003-0.67979-0.90101-0.67979-5.6556-0.7049-3.4806-0.0253-4.941 0.0755-5.3451 0.30213z"/>
   <path d="m21.741 81.875c-1.8645 1.4855-3.5113 2.9711-3.6668 3.3234-0.52851 1.1583 1.0565 2.7696 2.7036 2.7696 0.52852 0 1.6781-0.73021 3.9777-2.5932 3.791-2.9962 4.3504-3.676 3.8222-4.7334-0.21765-0.37767-0.71476-0.88128-1.1187-1.1079-1.5228-0.80555-2.1442-0.55384-5.718 2.3415z"/>
   <path d="m100.3 79.735c-1.8645 1.41-1.4916 2.1149 2.9522 5.6398 2.2994 1.863 3.4494 2.5932 3.9775 2.5932 1.6471 0 3.2319-1.6113 2.7036-2.7696-0.15517-0.35236-1.8023-1.8379-3.6668-3.3234-3.729-2.996-4.4748-3.273-5.9665-2.14z"/>
  </g>
  <ellipse cx="63.848" cy="50.485" rx="9.3226" ry="7.27"/>
 </g>
 <ellipse cx="63.965" cy="50.674" rx="3.3794" ry="2.5492" fill="#fff" stroke-width=".20978"/>
 <metadata>
  <rdf:RDF>
   <cc:Work rdf:about="">
    <dc:creator>
     <cc:Agent>
      <dc:title>valney felipe</dc:title>
     </cc:Agent>
    </dc:creator>
    <dc:language>english</dc:language>
   </cc:Work>
  </rdf:RDF>
 </metadata>
</svg>
