<?xml version="1.0" encoding="UTF-8"?>
<svg width="128" height="128" fill="none" version="1.1" viewBox="0 0 128 128" xmlns="http://www.w3.org/2000/svg" xmlns:cc="http://creativecommons.org/ns#" xmlns:dc="http://purl.org/dc/elements/1.1/" xmlns:rdf="http://www.w3.org/1999/02/22-rdf-syntax-ns#">
 <metadata>
  <rdf:RDF>
   <cc:Work rdf:about="">
    <dc:creator>
     <cc:Agent>
      <dc:title>valney felipe</dc:title>
     </cc:Agent>
    </dc:creator>
    <dc:language>english</dc:language>
   </cc:Work>
  </rdf:RDF>
 </metadata>
 <path d="m11.998 0.33177c-4.1202 1.1623-8.1405 4.7044-10.088 8.8554-0.54935 1.2176-1.1486 2.712-1.3234 3.3207-0.3496 1.356-0.79907 97.962-0.47444 100.95 0.67421 6.0879 5.7182 12.093 11.512 13.726 1.7479 0.49811 4.22 0.52571 52.139 0.71956 49.867 0.16604 50.341 0.16604 52.238-0.38749 5.3688-1.5497 9.4638-5.8113 11.312-11.789 0.39947-1.2729 0.44947-5.1195 0.6242-50.365 0.10001-26.954 0.0749-49.867-0.0249-50.917-0.32456-2.9887-2.0475-6.6139-4.32-9.132-2.0475-2.2415-4.8942-4.0403-7.4163-4.6766-2.4721-0.60879-102.05-0.9132-104.18-0.30438zm73.489 7.3056 28.592 0.16604 1.6732 0.88551c2.1224 1.1069 3.7705 2.9332 4.7444 5.2578 0.6493 1.5497 0.79912 2.2415 0.89894 4.5936l0.12492 2.7674-42.026-0.16603c-23.123-0.11083-48.942-0.19385-57.383-0.19385h-15.357l0.12484-2.7396c0.0999-2.2967 0.24972-2.9887 0.89894-4.5382 1.2485-2.961 3.7456-5.258 6.4673-5.9773 1.0987-0.27673 29.914-0.30439 71.241-0.0553zm20.427 21.336h15.582l-0.17473 40.872c-0.0998 27.535-0.24965 41.343-0.42457 42.283-0.77402 3.9571-3.396 6.9181-7.0666 8.025-1.3733 0.41509-5.7682 0.4429-49.942 0.27686-52.613-0.19385-50.066-0.11083-52.513-1.6882-1.6231-1.0514-3.0214-2.7948-3.8954-4.8151l-0.77408-1.7986-0.0999-6.5032c-0.025-3.5698 0-22.359 0.0999-41.758l0.17478-35.256 41.75 0.16604c22.947 0.11062 48.717 0.19364 57.283 0.19364z" fill="#3143e6" fill-opacity=".8" stroke-width=".19715"/>
 <g transform="matrix(.18728 0 0 .20755 5.6292e-5 -8.9696e-5)" fill="#3143e6" fill-opacity=".8">
  <path d="m309.1 163.61c-77.085 9.169-145.64 49.222-189.73 110.83-4.022 5.791-8.529 11.582-9.978 13.03-4.988 4.987-20.92 38.767-27.196 57.266-12.07 36.675-17.863 82.359-12.23 96.192 4.5056 10.617 9.3334 12.065 40.875 12.065 30.577 0 34.277-0.966 39.588-9.652 3.379-5.791 3.379-18.338 0-24.129-4.345-7.238-10.139-9.651-23.817-9.651h-12.23v-4.664c0-2.575 1.126-10.134 2.414-16.569 6.114-29.276 20.115-61.448 37.174-85.094l9.173-12.547 7.885 7.078c13.357 12.065 28.324 13.03 37.174 2.413 9.978-11.743 9.013-21.715-3.057-35.228l-7.081-7.882 14.161-9.652c26.392-18.016 54.233-29.758 84.809-35.71 9.333-1.769 17.702-3.217 18.668-3.217 0.804 0 1.448 5.469 1.448 12.225 0 14.317 2.414 19.786 11.104 24.289 11.748 6.274 23.978 3.861 29.771-5.951 1.771-3.056 2.576-8.364 2.576-16.73 0-6.756 0.643-12.225 1.448-12.225 0.966 0 9.333 1.448 18.667 3.218 30.577 5.951 58.416 17.694 84.809 35.711l14.161 9.651-7.242 8.042c-9.493 10.617-12.712 17.534-11.586 24.773 1.287 8.042 5.15 13.35 11.586 16.085 11.427 4.666 18.829 2.735 30.738-8.043l8.207-7.238 9.173 12.546c17.058 23.647 31.059 55.819 37.174 85.095 1.288 6.434 2.414 13.995 2.414 16.568v4.665h-12.23c-13.679 0-19.473 2.413-23.818 9.652-3.379 5.791-3.379 18.338 0 24.129 5.311 8.686 9.012 9.651 39.588 9.651 31.543 0 36.371-1.448 40.876-12.064 5.794-13.835-0.16-59.519-12.392-96.355-6.919-20.911-26.874-61.126-37.012-74.477-45.382-60.321-110.4-97.159-188.12-106.81-19.954-2.413-44.093-3.056-57.933-1.286z"/>
  <path d="m377.09 328.02c-9.766 0.415-12.226 3.474-29.672 37.713l-15.919 31.243-7.896-0.069c-13.35-0.333-25.723 3.784-37.697 12.778-10.386 7.646-11.327 8.784-17.725 21.697-9.013 17.69-10.161 28.786-5.245 46.025 7.163 25.214 29.51 44.686 54.618 47.417 11.692 1.465 30.819-3.524 41.13-10.67 28.84-19.807 36.287-62.375 15.427-89.716l-4.698-6.346 15.919-31.243c17.372-34.096 18.327-37.384 13.357-46.026-3.552-6.122-15.353-13.034-21.599-12.803zm-40.608 121.09c4.703 5.63 5.718 15.312 2.447 21.732-3.344 6.563-15.286 10.54-21.582 7.332-9.303-4.74-14.605-17.684-10.607-25.53 4.288-8.417 15.589-13.261 22.602-9.687 1.718 0.875 5.002 3.626 7.14 6.153z"/>
 </g>
 <g stroke-width=".19715">
  <rect x="59.33" y="94.765" width="2.2474" height="1.4528" fill="#f5f5f5"/>
  <path d="m59.611 94.973 0.37456 0.93396 0.37456-0.93396" stroke="#3143e6" stroke-opacity=".06"/>
  <path d="m60.641 94.973 0.42812 0.62264 0.41464-0.62264m-0.41464 0.62264v0.51886" stroke="#3143e6" stroke-opacity=".06"/>
 </g>
 <path d="m65.372 16.829c-0.52198-0.17706-0.80654-0.37643-1.1307-0.79225-0.43758-0.56122-0.57498-0.93271-0.59937-1.6204-0.0166-0.46756 0.0174-0.80837 0.10434-1.0472 0.0779-0.2139 0.24775-0.57283 0.32068-0.67747 0.0372-0.0534 0.0919-0.13149 0.1217-0.17363 0.0298-0.0421 0.11429-0.13521 0.18784-0.20681 0.0735-0.0716 0.14042-0.13998 0.14859-0.15195 0.0785-0.11501 0.48311-0.35195 0.81723-0.47862 0.18634-0.0706 0.95779-0.10109 1.1441-0.0452 0.0735 0.0221 0.16658 0.0481 0.20672 0.0579 0.16338 0.0398 0.53582 0.26232 0.76444 0.45677 0.39482 0.33583 0.65563 0.73807 0.83931 1.2945 0.0951 0.28799 0.12169 1.0376 0.0497 1.3978-0.1431 0.71558-0.55212 1.3274-1.1659 1.7438-0.46749 0.31722-1.271 0.42502-1.8087 0.24265z" fill="#00f" stroke-width=".16996"/>
 <ellipse cx="65.908" cy="14.208" rx=".76124" ry=".84361" fill="#0ff" stroke-width=".19715"/>
</svg>
