<?xml version="1.0" encoding="UTF-8"?>
<svg width="128" height="128" fill="none" version="1.1" viewBox="0 0 128 128" xmlns="http://www.w3.org/2000/svg" xmlns:cc="http://creativecommons.org/ns#" xmlns:dc="http://purl.org/dc/elements/1.1/" xmlns:rdf="http://www.w3.org/1999/02/22-rdf-syntax-ns#">
 <g fill="#3143e6" fill-opacity=".8">
  <path d="m18.254 0.33026c-2.9985 0.94332-5.1476 3.2561-6.197 6.6945-0.49974 1.6432-0.52474 2.2215-0.52474 21.149 0 17.071 0.05 19.566 0.39981 20.206 1.2494 2.3432 3.998 2.3432 5.2474 0 0.34982-0.63903 0.3998-3.1039 0.47476-19.232 0.025-10.194 0.1-18.775 0.14993-19.08 0.0999-0.63903 1.2744-2.191 1.7991-2.3432 0.62463-0.18258 98.526-0.33474 99.602-0.15216 0.67467 0.12172 1.3743 0.51732 1.8741 1.0651l0.79949 0.85196 0.075 43.425c0.05 38.189 0 43.516-0.32478 44.367-0.77456 2.0387 2.099 1.8867-37.356 1.9474-27.112 0.0609-35.982 0.15223-36.408 0.4261-1.8741 1.2171-1.9241 5.1123-0.125 6.5425 0.52474 0.42587 1.2995 0.51716 4.0231 0.54774l3.3983 0.0303-0.0249 5.1732c0 6.2381-0.0249 6.4207-0.89956 7.4858-0.79968 0.94325-1.824 1.2171-4.198 1.1258-1.7991-0.0609-2.6486 0.39552-3.2735 1.7649-0.44979 1.0348-0.39975 2.9519 0.125 3.9255 0.94959 1.7651-0.3499 1.6738 22.963 1.6738 19.191 0.0303 21.464-0.0306 22.015-0.45645 1.974-1.5825 1.949-4.869-0.0249-6.4513-0.47488-0.39551-1.0995-0.51739-2.3988-0.45645-2.1739 0.0609-3.3985-0.30422-4.198-1.339-0.59971-0.76066-0.59971-0.85195-0.59971-6.6032v-5.8426l18.241-0.0609c17.941-0.0607 18.266-0.0607 19.665-0.69974 1.7742-0.79126 3.5982-2.7693 4.5728-4.9297l0.74963-1.6129 0.075-45.766 0.05-45.766-0.57478-1.5519c-0.32478-0.85204-0.92448-2.0084-1.3242-2.5865-0.92467-1.3389-2.9236-2.8603-4.3479-3.3474-1.6743-0.5173-101.78-0.63903-103.5-0.12171zm60.145 112.59c0 3.3777 0.10008 6.2383 0.19996 6.36 0.0999 0.12164 0.17486 0.48681 0.17486 0.79126 0 0.51716-0.44978 0.54774-8.9956 0.54774-4.9476 0-8.9956-0.0913-8.9956-0.18258 0-0.0913 0.125-0.45645 0.27492-0.79126 0.19997-0.4261 0.27493-2.6474 0.24982-6.5425-0.0249-3.2255 0.0251-6.0252 0.10008-6.1772 0.0999-0.21316 3.2484-0.27387 8.5708-0.24351l8.4208 0.0913z" stroke-width=".20681"/>
  <path d="m20.99 111.78c-0.57847 0.12497-1.9421 1.7986-1.8182 2.2234 0.0413 0.14988 0 0.39962-0.12397 0.54951-0.14463 0.17481-0.0827 0.59956 0.22727 1.399 0.59919 1.4737 1.9215 2.3231 2.9753 1.9234 0.82657-0.3496 1.7769-1.4488 1.9009-2.2732 0.0414-0.29978 0.14458-0.62445 0.20656-0.6994 0.0414-0.075 0-0.27486-0.12397-0.47476-0.12396-0.1748-0.16519-0.32467-0.1032-0.32467 0.39251 0-0.70259-1.5987-1.3636-2.0234-0.76457-0.47457-0.90916-0.49968-1.7769-0.29977z" stroke-width=".31487"/>
  <g transform="matrix(.18741 0 0 .22823 -.18745 -14.185)">
   <path d="m117.98 336.21c-1.714 0.218-5.755 3.134-5.388 3.874 0.123 0.262 0 0.697-0.367 0.958-0.429 0.305-0.245 1.045 0.673 2.438 1.776 2.568 5.694 4.049 8.816 3.352 2.45-0.609 5.266-2.525 5.633-3.961 0.123-0.523 0.428-1.089 0.612-1.219 0.123-0.131 0-0.479-0.367-0.828-0.368-0.304-0.49-0.565-0.306-0.565 1.163 0-2.082-2.787-4.041-3.527-2.265-0.827-2.694-0.871-5.265-0.522z"/>
   <path d="m263.79 407.8c-11.749 5.647-13.287 21.8-2.657 28.235 2.798 1.839 25.037 1.97 188.82 1.97 177.77 0 185.88 0 189.24-2.364 1.958-1.313 4.616-4.597 6.014-7.223 2.098-3.939 2.238-5.647 0.98-9.981-1.539-5.384-8.253-11.95-12.309-11.95-1.259 0-84.201-0.131-184.21-0.394-159.31-0.263-182.39 0-185.89 1.707z"/>
   <path d="m369.6 450.27c-1.733 0.266-5.067 2.533-7.467 5.066-7.333 7.2-7.333 15.334-0.133 22.667 5.6 5.467 11.6 6.8 17.733 3.733 6-3.066 9.334-7.733 10.134-13.866 1.2-10.4-9.467-19.734-20.267-17.6z"/>
   <rect x="35" y="353" width="169" height="5"/>
   <path d="m49.813 295.17c-0.1452 0.14-3.0508 0.559-6.392 0.979-14.528 1.678-30.944 12.868-38.353 26.294l-3.3414 6.014-0.43583 129.23-0.29054 129.09 3.3414 7.273c4.5036 9.37 10.169 15.664 19.176 21.118 12.93 7.972 11.622 7.833 95.446 7.833 75.689 0 77.869-0.14 86.003-2.937 14.964-5.455 27.893-18.042 31.38-31.049 2.179-7.273 2.179-252.87 0.146-259.58-2.179-7.132-9.879-17.901-16.126-22.657-6.973-5.314-17.724-9.929-24.552-10.629-5.23-0.559-145.42-1.539-146-0.979zm140.34 35.665c5.376 0.978 8.427 3.635 10.896 9.09 2.615 6.294 2.761 234.27 0 239.44-0.872 1.818-3.632 4.755-5.811 6.294-4.067 2.937-5.375 2.937-75.834 2.937s-71.766 0-75.834-2.937c-2.1791-1.539-4.9393-4.476-5.811-6.294-1.4528-2.657-1.7433-29.51-1.4528-121.82l0.2906-118.6 3.7772-3.496c2.0338-1.958 5.5204-3.917 7.8449-4.336 2.3244-0.42 4.6487-0.979 4.9393-1.398 1.0169-0.84 132.2 0.139 136.99 1.119z"/>
  </g>
 </g>
 <text transform="matrix(.18741 0 0 .22823 -.18745 -14.185)" fill="#ffb380" style="shape-inside:url(#rect3220);white-space:pre" xml:space="preserve"/>
 <text transform="matrix(.18741 0 0 .22823 -.18745 -14.185)" fill="#ffb380" style="shape-inside:url(#rect3226);white-space:pre" xml:space="preserve"/>
 <rect x="6.363" y="107.53" width="31.672" height="1.1411" fill="#3143e6" fill-opacity=".8" stroke-width=".20681"/>
 <metadata>
  <rdf:RDF>
   <cc:Work rdf:about="">
    <dc:creator>
     <cc:Agent>
      <dc:title>valney felipe</dc:title>
     </cc:Agent>
    </dc:creator>
    <dc:language>english</dc:language>
   </cc:Work>
  </rdf:RDF>
 </metadata>
</svg>
