<svg width="688" height="688" viewBox="0 0 688 688" fill="none" xmlns="http://www.w3.org/2000/svg">
<path d="M335.733 14.9333C328.533 19.4666 326.667 24.4 326.667 40V54L311.733 57.8666C300 60.8 277.867 68.5333 267.733 73.0666C267.333 73.3333 263.467 68.9333 259.333 63.3333C255.333 57.7333 250 52 247.6 50.6666C242.933 47.8666 233.2 47.0666 227.6 49.2C223.733 50.6666 181.2 81.3333 175.067 87.0666C165.6 96 165.733 107.333 175.467 120.8C179.067 125.733 182.533 130.667 183.067 131.6C183.867 132.8 182 135.867 177.6 141.067C169.333 150.533 157.467 167.067 152.133 176.533L148 183.733L136 179.867C129.333 177.733 122.4 176 120.267 176C115.2 176.133 106.133 180.4 103.467 184.133C100.4 188.533 81.3333 247.867 81.3333 252.933C81.3333 264.667 87.3333 270.8 104 276.133L116.667 280.133L116.267 290.533L115.733 301.067L126.4 302C132.4 302.533 137.733 302.533 138.4 302.133C139.067 301.733 140 295.067 140.533 287.467C142 266.133 139.067 261.6 119.6 255.2C113.6 253.333 108.267 251.333 107.733 250.8C106.8 250 121.2 203.733 122.8 202.133C123.2 201.733 128 202.8 133.333 204.667C151.6 210.8 162 208.533 169.067 196.533C177.067 182.933 187.467 168.133 196.533 157.467C208.8 142.933 209.2 142 209.333 133.2C209.333 125.6 207.2 121.2 197.067 108.133C195.733 106.4 194.667 104.533 194.667 104C194.667 102.8 234.267 73.8666 235.6 74.1333C236 74.2666 239.467 78.4 243.2 83.4666C251.733 94.8 255.467 97.6 263.6 98.2666C269.067 98.8 272.133 98.1333 282.667 93.6C297.467 87.3333 314.267 82 327.2 79.2C338.267 76.9333 345.733 72.9333 348.133 68.1333C349.067 66.2666 350 58.2666 350.4 50.2666L350.933 36H376.667H402.4L402.933 50.2666C403.733 70.6666 407.867 77.0666 421.867 79.4666C431.2 80.9333 457.2 89.2 470.533 94.9333C481.2 99.4666 484.267 100.133 489.733 99.6C497.867 98.9333 501.6 96.1333 510.133 84.8C513.867 79.7333 517.333 75.7333 518 75.6C519.333 75.6 558.667 104.133 558.667 105.2C558.667 105.733 556 109.867 552.667 114.4C545.333 124.533 544 127.733 544 135.467C544 142.8 545.2 145.067 554 155.333C564 166.933 571.6 177.467 580.133 191.2C584.267 198.133 589.467 204.667 592 206.267C597.867 210.267 606.933 210.267 620.4 206.133C627.733 203.867 630.933 203.333 631.333 204.4C640.4 231.733 646.8 252.267 646.4 252.533C646.267 252.8 640.933 254.533 634.667 256.4C621.067 260.667 618.133 262.533 614.533 269.6C611.867 274.933 611.733 275.867 613.333 295.2C614.8 314.533 614.4 323.2 611.2 344.8C610.667 348.933 611.067 351.6 613.2 355.733C616.8 362.667 619.467 364.533 632.667 368.8C638.533 370.8 643.733 372.667 644.267 373.2C644.8 373.6 641.733 384.8 637.467 398C628.667 425.067 630.4 423.333 616.4 418.533C606 415.067 596.267 415.2 590.667 418.933C588.133 420.667 582.933 427.2 578.8 434.133C570.267 447.867 562.667 458.4 552.667 470C543.867 480.267 542.667 482.533 542.667 489.867C542.667 497.6 544 500.8 551.333 510.933C554.667 515.467 557.333 519.6 557.333 520.133C557.333 521.2 518 549.733 516.667 549.733C516 549.6 512.533 545.6 508.8 540.533C500.267 529.2 496.533 526.4 488.4 525.733C482.933 525.2 479.867 525.867 469.2 530.4C456 536 427.067 545.333 422.667 545.333C421.333 545.333 419.733 546 419.2 546.8C417.6 549.333 421.467 568.133 423.867 569.067C428 570.667 465.467 559.467 484.267 550.933C484.8 550.667 488.533 555.067 492.667 560.667C502.533 574 506.267 576.267 516.8 575.733C524.8 575.2 525.333 574.933 544.8 560.933C574.667 539.467 580 535.067 582.267 529.6C585.733 521.333 584 513.6 576.533 503.2C572.933 498.267 569.467 493.333 568.933 492.4C568.133 491.2 570 488.133 574.4 482.933C582.667 473.467 594.533 456.933 599.867 447.467L604 440.267L616 444.133C622.667 446.267 629.6 448 631.733 448C637.6 447.867 646 443.333 648.933 438.533C652.667 432.533 670.667 376.267 670.667 370.8C670.667 365.2 667.867 358.8 663.6 354.933C661.733 353.2 654.933 350.133 648.4 348.133C642 346 636.8 344 636.8 343.467C637.867 338.133 638.533 304.4 637.6 294.533L636.667 281.733L649.467 277.467C666.133 272 672 266 672 254.267C672 249.067 652.933 189.867 649.867 185.467C647.2 181.733 638.133 177.467 633.067 177.333C630.933 177.333 624 179.067 617.333 181.2L605.333 185.067L601.2 177.867C595.733 168.267 584 151.733 575.733 142.267L568.933 134.533L573.2 128.933C581.2 118.267 585.333 110.133 585.333 104.933C585.333 98.4 582.667 92.1333 577.867 87.8666C571.467 82.1333 529.2 51.8666 525.733 50.5333C520.133 48.4 510.4 49.2 505.733 52C503.333 53.3333 498 59.0666 494 64.6666C489.867 70.2666 486 74.6666 485.6 74.4C475.467 69.8666 453.333 62.1333 441.733 59.2L426.667 55.3333V41.2C426.667 28.8 426.267 26.5333 423.6 22.6666C417.733 13.7333 416.667 13.6 376.133 13.0666C343.333 12.6666 339.2 12.9333 335.733 14.9333Z" fill="#3143E6" fill-opacity="0.8"/>
<path d="M353.333 98.6667C294.533 101.867 233.333 138.667 197.733 192C179.067 219.867 165.6 258 163.2 289.733L162.267 300.933L171.467 301.733C187.6 303.333 186.133 304.133 187.333 291.6C188.533 277.333 194.4 254.4 200.667 239.333C218.4 196.4 253.067 159.467 294.133 140C308.667 132.933 330.667 125.733 340 124.8C371.067 121.733 377.467 121.467 391.067 122.667C436.8 127.067 475.467 144.4 507.467 175.067C538.4 204.533 557.333 240.133 564.8 282.667C567.067 295.733 567.467 333.067 565.333 335.2C564.667 335.867 564 337.867 564 339.467C564 345.333 556 373.6 551.2 384.933C536.933 418.267 515.733 445.067 486.667 466.533C472.533 477.067 444.533 490.8 428 495.467C421.067 497.467 415.067 499.2 414.8 499.467C414.533 499.733 415.333 505.067 416.667 511.333L419.067 522.8L423.2 522C432.267 520.133 450.267 514.267 461.6 509.333C512.267 487.333 554.667 443.333 575.067 391.333C577.733 384.667 582.133 370.667 584.933 360L589.867 340.667L590 311.333C590 278.4 588.267 267.2 579.2 240.933C554.8 170.933 494.267 117.733 422 102.533C409.867 100.133 382.267 97.2 374 97.6C371.867 97.7334 362.533 98.1334 353.333 98.6667Z" fill="#3143E6" fill-opacity="0.8"/>
<path d="M347.733 174.8L344 177.6V253.467C344 327.6 344 329.333 346.667 332C349.2 334.533 351.067 334.667 376.667 334.667C402.267 334.667 404.133 334.533 406.667 332C409.333 329.333 409.333 327.6 409.333 254C409.333 180.4 409.333 178.667 406.667 176C404.267 173.6 402.267 173.333 380.4 173.333C367.333 173.333 355.467 173.067 354 172.667C352.533 172.267 349.733 173.2 347.733 174.8ZM386.667 254V312H376.667H366.667V254V196H376.667H386.667V254Z" fill="#3143E6" fill-opacity="0.8"/>
<path d="M432 229.333C429.467 231.867 429.333 233.733 429.333 280.667C429.333 327.6 429.467 329.467 432 332C434.533 334.533 436.4 334.667 462 334.667C487.6 334.667 489.467 334.533 492 332C494.533 329.467 494.667 327.6 494.667 280.667C494.667 233.733 494.533 231.867 492 229.333C489.467 226.8 487.6 226.667 462 226.667C436.4 226.667 434.533 226.8 432 229.333ZM472 280.667V312H462H452V280.667V249.333H462H472V280.667Z" fill="#3143E6" fill-opacity="0.8"/>
<path d="M261.333 260C258.8 262.533 258.667 264.4 258.667 295.333C258.667 326.267 258.8 328.133 261.333 330.667C263.867 333.2 265.733 333.333 291.333 333.333C316.933 333.333 318.8 333.2 321.333 330.667C323.867 328.133 324 326.267 324 295.333C324 264.4 323.867 262.533 321.333 260C318.8 257.467 316.933 257.333 291.333 257.333C265.733 257.333 263.867 257.467 261.333 260ZM301.333 295.333V310.667H291.333H281.333V295.333V280H291.333H301.333V295.333Z" fill="#3143E6" fill-opacity="0.8"/>
<path d="M44.2667 343.333L43.8667 354.667H76.5334C106.4 354.667 109.2 354.8 109.867 356.933C110.267 358.267 121.333 407.333 134.667 466C161.733 585.733 161.867 586.133 165.067 587.867C166.8 588.8 350.4 590.267 360.933 589.467C361.867 589.333 363.2 588.133 364 586.533C366.8 581.6 405.333 444.8 405.333 440.267C405.333 434.267 402.4 428.133 397.467 423.333L393.2 419.333L366.933 418.4C352.533 418 297.467 417.467 244.667 417.467L148.667 417.333L140.933 382.933C136.667 364.133 133.2 347.467 133.333 345.867C133.333 341.333 130.533 334.667 128 333.333C126.533 332.533 108.933 332 85.0667 332H44.6667L44.2667 343.333ZM379.467 441.733C380 442.133 372.4 470.667 362.533 504.933L344.8 567.333L263.733 566.933L182.667 566.667L182 563.6C177.2 543.733 154.667 443.067 154.667 441.6C154.667 439.867 168.267 439.733 266.667 440.267C328.267 440.533 378.933 441.2 379.467 441.733Z" fill="#3143E6" fill-opacity="0.8"/>
<path d="M236 364.4V375.6L317.067 376.4C361.6 376.933 424.267 377.333 456.267 377.333H514.4L514.933 366.533C515.2 360 514.8 355.467 514 355.333C513.333 355.067 450.4 354.533 374.4 354L236 353.2V364.4Z" fill="#3143E6" fill-opacity="0.8"/>
<path d="M33.3333 439.333V450.667H65.9999H98.6666V439.333V428H65.9999H33.3333V439.333Z" fill="#3143E6" fill-opacity="0.8"/>
<path d="M12.5333 491.867C12.2667 492.133 12 497.467 12 503.6V514.667H44.6667H77.3333V503.333V492.133L45.2 491.733C27.6 491.467 12.8 491.6 12.5333 491.867Z" fill="#3143E6" fill-opacity="0.8"/>
<path d="M65.3333 567.333V578.667H97.9999H130.667V567.333V556H97.9999H65.3333V567.333Z" fill="#3143E6" fill-opacity="0.8"/>
<path d="M200.667 611.867C194.133 614.933 187.467 621.733 184.8 628.267C181.867 635.2 182.133 650 185.2 656.667C188.267 663.2 195.067 669.867 201.6 672.533C208 675.333 222.667 675.333 229.067 672.533C241.2 667.467 248 656.667 248 642C248 627.333 241.2 616.533 229.067 611.467C222.133 608.533 207.333 608.8 200.667 611.867Z" fill="#3143E6" fill-opacity="0.8"/>
<path d="M296.667 611.867C290.133 614.933 283.467 621.733 280.8 628.267C277.867 635.2 278.133 650 281.2 656.667C284.267 663.2 291.067 669.867 297.6 672.533C304 675.333 318.667 675.333 325.067 672.533C337.2 667.467 344 656.667 344 642C344 627.333 337.2 616.533 325.067 611.467C318.133 608.533 303.333 608.8 296.667 611.867Z" fill="#3143E6" fill-opacity="0.8"/>
</svg>
