<?xml version="1.0" encoding="UTF-8"?>
<svg width="128" height="128" fill="none" version="1.1" viewBox="0 0 128 128" xmlns="http://www.w3.org/2000/svg" xmlns:cc="http://creativecommons.org/ns#" xmlns:dc="http://purl.org/dc/elements/1.1/" xmlns:rdf="http://www.w3.org/1999/02/22-rdf-syntax-ns#">
 <g fill="#3143e6" fill-opacity=".8">
  <path d="m23.795 0.053853c-2.1289 0.39945-2.755 1.4729-2.755 4.8183v2.5215h-4.9344c-4.4584 0-5.1346 0.0749-6.6124 0.5742-3.6569 1.2482-6.4872 3.6948-8.1653 7.0901l-0.95179 1.9223-0.15028 8.6129c-0.10019 4.7435-0.17533 23.342-0.20038 41.292l-0.0251 32.654 0.77646 1.6726c1.077 2.1969 3.0808 4.1941 5.3601 5.3176l1.7533 0.84875 29.48 0.12488c16.206 0.0749 29.53 0.19979 29.631 0.29958 0.10031 0.0998 0.55116 0.99855 0.97683 2.0222 3.3814 7.7391 10.445 14.13 18.635 16.876 3.1811 1.0736 4.9593 1.2983 10.194 1.2983 6.7126 0 9.2174-0.52427 14.302-3.0458 8.3407-4.1441 14.603-12.183 16.506-21.22 0.501-2.3966 0.52598-11.259 0-13.631-0.80157-3.7948-2.3294-7.3897-4.6588-10.935-1.6281-2.4966-6.0363-6.8655-8.3657-8.3385l-1.7534-1.0983 0.0752-25.315c0.10031-24.94 0.0751-25.34-0.42568-26.987-1.4027-4.5686-4.9094-8.0138-9.518-9.3869-1.052-0.29959-2.4796-0.39946-6.2117-0.39946h-4.834v-2.5714c0-2.0471-0.10013-2.6713-0.47583-3.2454-0.80157-1.2233-1.4778-1.5229-3.4065-1.5229-1.9285 0-2.6048 0.29959-3.4063 1.5229-0.3757 0.57418-0.47583 1.1983-0.47583 3.2454v2.5714h-13.275v-2.5714c0-2.9459-0.40069-3.9445-1.8785-4.5686-1.052-0.42441-2.8304-0.44938-3.8072-0.0499-0.37571 0.14979-0.7764 0.29958-0.90169 0.29958-0.10013 0.025-0.4007 0.34951-0.67628 0.77391-0.42567 0.62413-0.50081 1.1734-0.50081 3.2954v2.5714h-13.275v-2.5714c0-2.6713-0.25041-3.4202-1.4027-4.294-0.65109-0.4993-4.308-0.4993-4.9593 0-1.1521 0.87378-1.4025 1.6227-1.4025 4.294v2.5714h-13.275v-2.5714c0-2.6962-0.27558-3.4951-1.4277-4.294-0.55098-0.37448-2.5798-0.64909-3.5818-0.47434zm-2.755 17.625c0 2.0972 0.10013 2.6963 0.47583 3.2955 0.80157 1.1983 1.7282 1.6477 3.4063 1.6477 1.6783 0 2.605-0.44938 3.4065-1.6477 0.3757-0.59916 0.47583-1.1983 0.47583-3.2955v-2.5464h13.275v2.5464c0 2.821 0.27539 3.5451 1.6531 4.4687 1.0018 0.64916 3.4565 0.64916 4.4583 0 1.3775-0.92364 1.6531-1.6477 1.6531-4.4687v-2.5464h13.275v2.5714c0 2.4716 0.025 2.6462 0.75141 3.6199 0.95166 1.3232 1.4025 1.5479 3.1809 1.5479 1.6281 0 2.5798-0.47427 3.3564-1.6477 0.37571-0.59916 0.47584-1.1983 0.47584-3.2954v-2.5464h13.275v2.5464c0 2.8211 0.27539 3.545 1.6531 4.4688 1.0018 0.64897 3.4565 0.64897 4.4583 0 1.3775-0.92383 1.6531-1.6477 1.6531-4.4938v-2.5964l4.2079 0.12482c3.7321 0.0999 4.308 0.17477 5.31 0.67405 1.5278 0.77393 2.1791 1.423 2.9555 2.8959 0.65128 1.2234 0.65128 1.3232 0.75141 7.4646l0.10012 6.2163-29.505-0.14979c-16.256-0.0998-38.197-0.17469-48.792-0.17469h-19.236l0.10018-6.1914c0.0751-5.8667 0.12524-6.2163 0.67627-7.2898 0.75141-1.473 1.4277-2.172 2.655-2.8211 1.3776-0.69904 2.4296-0.84883 6.4621-0.89875l3.4316-0.025zm52.449 22.593 31.76 0.1498-0.0751 12.807c-0.05 7.0402-0.17526 12.857-0.27539 12.957-0.10031 0.1-1.1773 0-2.3795-0.22469-4.709-0.84875-11.422-0.39937-15.855 1.0985-7.7645 2.5964-14.452 8.3883-18.034 15.603-2.3544 4.7435-3.2561 8.613-3.2561 13.956v3.2703l-27.477-0.1247c-26.951-0.12489-27.527-0.12489-28.328-0.62425-1.7032-1.0234-1.9286-1.7226-2.0288-6.6157-0.0501-2.3966 0-15.179 0.1002-28.41l0.17533-24.016h16.957c9.3175 0 31.234 0.0749 48.717 0.17469zm29.28 34.002c8.6914 2.3717 15.304 9.4119 17.082 18.225 0.57596 2.8209 0.40069 7.814-0.35072 10.51-1.3024 4.5686-4.4333 9.2121-8.1152 12.108-8.5411 6.7406-20.013 6.8904-28.704 0.37447-9.6932-7.2899-12.173-20.546-5.7609-30.907 5.335-8.6379 16.155-12.957 25.849-10.311z" stroke-width=".18754"/>
  <path d="m14.934 49.538c-1.6524 0.65421-2.4942 1.8619-2.4942 3.5727 0 1.7108 0.84187 2.9185 2.4942 3.5727 0.90424 0.37747 1.9643 0.45293 6.236 0.45293 5.7995 0 6.7661-0.20128 8.0133-1.7361 0.99772-1.1826 0.99772-3.3965 0-4.5791-1.2472-1.5348-2.2139-1.7361-8.0133-1.7361-4.2717 0-5.3318 0.0755-6.236 0.45293z" stroke-width=".20759"/>
  <path d="m38.892 49.538c-1.4549 0.65421-2.1962 1.8619-2.1962 3.5727 0 1.7108 0.74133 2.9185 2.1962 3.5727 0.79624 0.37747 1.7297 0.45293 5.491 0.45293 5.1066 0 5.9578-0.20128 7.056-1.7361 0.87853-1.1826 0.87853-3.3965 0-4.5791-1.0982-1.5348-1.9494-1.7361-7.056-1.7361-3.7614 0-4.6948 0.0755-5.491 0.45293z" stroke-width=".1948"/>
  <path d="m60.724 49.239c-2.1641 0.94873-2.9612 3.9445-1.5375 5.792 1.2526 1.6477 2.3063 1.9222 7.4597 1.9473 5.1535 0.0249 6.0362-0.17488 7.1751-1.6977 0.9112-1.1734 0.9112-3.3703 0-4.5437-1.082-1.4479-2.0216-1.6726-7.4029-1.7724-3.986-0.1-4.9542-0.05-5.6944 0.27449z" stroke-width=".19996"/>
  <path d="m13.888 66.536c-1.5467 0.79895-2.1267 1.7226-2.1267 3.3952 0 1.6728 0.58002 2.5964 2.1267 3.3954 0.83782 0.42428 1.6111 0.47427 6.8958 0.47427 5.2847 0 6.0581-0.05 6.8957-0.47427 1.5467-0.79895 2.1268-1.7226 2.1268-3.3954 0-1.6726-0.58002-2.5962-2.1268-3.3952-0.83764-0.42447-1.611-0.47427-6.8957-0.47427-5.2847 0-6.058 0.0498-6.8958 0.47427z" stroke-width=".21272"/>
  <path d="m38.571 66.696c-1.2987 0.79894-1.7857 1.7226-1.7857 3.3952 0 1.6728 0.48702 2.5964 1.7857 3.3954 0.70353 0.42428 1.3529 0.47428 5.79 0.47428 4.4373 0 5.0867-0.05 5.7902-0.47428 1.2987-0.79894 1.7857-1.7226 1.7857-3.3954 0-1.6726-0.48702-2.5962-1.7857-3.3952-0.70353-0.42447-1.3529-0.47428-5.7902-0.47428-4.4371 0-5.0865 0.0498-5.79 0.47428z" stroke-width=".19492"/>
  <path d="m60.667 66.105c-1.2304 0.72386-1.7498 1.6975-1.7498 3.3203 0 1.8475 0.68348 2.9209 2.2967 3.6199 1.0391 0.47447 1.6678 0.52427 5.7966 0.52427 5.0856 0 5.605-0.1247 6.6986-1.6477 0.71096-0.99855 0.71096-3.3703-0.0273-4.4686-0.95703-1.3981-1.7498-1.5979-7.3003-1.6977-4.3746-0.0749-5.0856-0.05-5.7145 0.34958z" stroke-width=".19595"/>
  <path d="m14.728 82.917c-1.6464 0.64915-2.4852 1.8475-2.4852 3.545 0 1.6977 0.83874 2.896 2.4852 3.5452 0.9009 0.37448 1.957 0.44937 6.2129 0.44937 5.778 0 6.7409-0.19978 7.9836-1.7226 0.9939-1.1734 0.9939-3.3703 0-4.5437-1.2427-1.5228-2.2056-1.7226-7.9836-1.7226-4.2559 0-5.312 0.0749-6.2129 0.44937z" stroke-width=".20886"/>
  <path d="m38.628 82.116c-1.5402 0.64915-2.3248 1.8475-2.3248 3.545 0 1.6977 0.78459 2.896 2.3248 3.5452 0.84255 0.37448 1.8307 0.44938 5.8116 0.44938 5.4049 0 6.3059-0.19979 7.4681-1.7226 0.92995-1.1734 0.92995-3.3703 0-4.5437-1.1623-1.5228-2.0632-1.7226-7.4681-1.7226-3.9809 0-4.969 0.0749-5.8116 0.44937z" stroke-width=".20201"/>
  <path d="m105.49 106.48c1.6531-1.0985 1.6531-1.0985 1.6531-9.6366 0-10.885 0.7764-10.111-10.144-10.111-7.1886 0-7.8147 0.05-8.491 0.47427-1.2023 0.79896-1.6531 1.7226-1.6531 3.3954 0 1.6726 0.45085 2.5962 1.6531 3.3952 0.65128 0.42447 1.2524 0.47428 5.7859 0.47428h5.0846v5.068c0 4.5186 0.05 5.1178 0.47583 5.7669 0.80157 1.1983 1.7282 1.6477 3.4063 1.6477 1.052 0 1.7282-0.14979 2.2292-0.47427z" stroke-width=".18754"/>
 </g>
 <metadata>
  <rdf:RDF>
   <cc:Work rdf:about="">
    <dc:creator>
     <cc:Agent>
      <dc:title>valney felipe</dc:title>
     </cc:Agent>
    </dc:creator>
    <dc:language>english</dc:language>
   </cc:Work>
  </rdf:RDF>
 </metadata>
</svg>
