<?xml version="1.0" encoding="UTF-8"?>
<svg width="128" height="128" fill="none" version="1.1" viewBox="0 0 128 128" xmlns="http://www.w3.org/2000/svg" xmlns:cc="http://creativecommons.org/ns#" xmlns:dc="http://purl.org/dc/elements/1.1/" xmlns:rdf="http://www.w3.org/1999/02/22-rdf-syntax-ns#">
 <mask id="mask0_1_240" x="0" y="0" width="224" height="194" maskUnits="userSpaceOnUse">
  <path d="m223.78 0.13895h-223.55v193.84h223.55z" fill="#fff"/>
 </mask>
 <g transform="translate(-45.918 -27.957)">
  <g transform="matrix(.59529 0 0 .69818 44.497 27.755)" fill="#3143e6" fill-opacity=".8" mask="url(#mask0_1_240)">
   <path d="m217.17 163.14c1.8656 10.536-7.5958 23.815-19.08 19.724-7.9743-3.4458-11.757-12.032-17.685-17.943-11.632-14.064-23.355-28.05-34.998-42.104 6.9404-6.869 14.634-13.573 18.484-22.864 3.7921-7.6567 9.4724 7.665 13.955 10.482 12.211 15.108 25.245 29.623 37.005 45.048 1.1624 2.4116 2.0729 4.9762 2.319 7.657z"/>
   <path d="m112.52 38.304c9.2674-3.3762 21.126-0.02003 25.278 9.4333 4.956 10.68 3.0211 23.46-1.6433 33.892-4.8316 11.666-19.361 19.124-31.266 13.546-10.759-5.0276-12.858-18.62-10.948-29.182 1.206-11.559 7.3482-23.171 18.579-27.689zm-2.887 20.087c-2.5425 6.654-4.6368 14.795-1.4908 21.564 3.5199 5.7955 12.518 3.0962 15.204-2.2302 3.6745-6.8487 5.3025-15.484 2.8541-22.984-3.2734-6.5434-13.278-3.7769-15.743 2.1436-0.27467 0.5022-0.54933 1.0044-0.824 1.5066z" clip-rule="evenodd" fill-rule="evenodd"/>
   <path d="m91.379 37.802c-0.58417 4.2685-1.1683 8.537-1.7525 12.806h-21.551c-0.04956 3.1651-1.7907 7.8109-0.77517 10.044h19.233c-0.5843 4.2684-1.1686 8.5368-1.7529 12.805-6.5992 0.04193-13.198 0.08387-19.798 0.1258-0.03514 3.1107-1.8127 7.7442-0.77547 9.9178h20.883c-0.58433 4.2685-1.1687 8.537-1.753 12.806h-34.543c2.6466-19.501 5.2931-39.002 7.9397-58.503h34.646z" stroke="#3143e6" stroke-opacity=".8"/>
   <path d="m46.731 56.634c-4.2965 0.04183-8.593 0.08367-12.89 0.1255 0.94608-4.5878-3.7887-7.3779-7.8286-6.3114-4.7912 0.24945-6.8352 7.9717-1.566 9.29 6.6988 2.4053 15.649 3.3465 18.624 10.959 3.7015 9.354-0.69751 21.515-10.103 25.643-7.7084 3.6121-18.047 3.6906-24.947-1.7641-5.0424-4.2566-5.6801-11.592-4.8047-17.729h12.683c-0.89532 4.6827 3.0495 9.3627 7.9392 8.4112 4.4313 0.57822 9.0637-5.3112 5.0527-8.6621-6.8329-3.7936-16.997-3.2699-20.663-11.455-3.7351-10.17 2.3413-22.72 12.56-26.304 8.277-3.6831 20.34-2.1531 24.602 6.7501 1.5336 3.53 1.7677 7.2546 1.3406 11.048z" stroke="#3143e6" stroke-opacity=".8"/>
   <path d="m77.107 25.067c-12.167 1.2752 4.7409-12.247 8.9233-15.334 17.268-12.81 42.692-12.538 59.823 0.51451 20.203 14.911 29.317 41.63 26.101 66.12-1.702 14.962-7.909 29.584-18.659 40.288-6.8654 8.3991-17.259 13.135-27.692 15.933-19.288 3.749-39.861-4.2278-51.735-19.794-5.926-6.8089 9.591-2.5213 13.991-3.7148 9.0863-1.8088 16.034 5.7499 24.926 5.742 18.446 1.2589 35.029-12.618 40.48-29.658 8.7043-21.993 0.16721-50.685-21.222-62.119-11.111-6.0542-25.974-5.7071-36.232 1.9691-6.2322 0.12496-12.471 0.02304-18.705 0.0537z"/>
  </g>
 </g>
 <metadata>
  <rdf:RDF>
   <cc:Work rdf:about="">
    <dc:creator>
     <cc:Agent>
      <dc:title>valney felipe</dc:title>
     </cc:Agent>
    </dc:creator>
    <dc:language>english</dc:language>
   </cc:Work>
  </rdf:RDF>
 </metadata>
</svg>
