<svg width="688" height="688" viewBox="0 0 688 688" fill="none" xmlns="http://www.w3.org/2000/svg">
<path d="M326.933 13C284.667 34.6 184.533 89.5333 180.533 93.4C178 96.0666 174.533 100.6 173.2 103.4C170.667 108.467 170.533 112.733 169.867 201.4L169.2 294.067L131.2 314.467C110.267 325.8 87.2 338.067 79.8667 341.8C52.1333 355.933 17.0667 375.133 14.1333 377.933C12.4 379.4 9.6 383.133 7.86667 386.067L4.8 391.4L4.26667 490.067L3.86667 588.733L6.8 594.2C8.4 597.133 11.7333 601.4 14.1333 603.533C16.5333 605.667 52.1333 624.467 93.2 645.4L167.867 683.4H179.867H191.867L219.867 668.867C235.333 661 317.9 619.31 319.367 617.977C323.233 614.243 352 602.2 347.867 598.867C342.133 594.2 347.867 577.733 214.267 645.133L191.2 656.867V569.533V482.067L196.933 479C200 477.267 232.133 460.867 268.267 442.6L333.867 409.267L333.6 497L333.2 584.733L305.467 598.867C290.267 606.6 276.8 613.933 275.6 615C272.667 618.067 272.8 627.4 275.867 630.733C280.8 636.2 286.8 634.467 316.533 619.4L344.133 605.533L377.333 622.6C395.6 631.933 430.933 649.933 455.733 662.6L501.067 685.667L511.733 685.133L522.533 684.733L597.2 646.733C638.267 625.8 673.867 607 676.267 604.867C678.667 602.733 681.867 598.733 683.333 595.933C685.733 591 685.867 586.867 686.133 492.467L686.533 394.067L683.6 388.733C679.067 380.2 674.8 377.133 646.4 361.8C631.6 353.933 618.133 346.467 616.4 345.267L613.2 343.133L615.467 335.933C620.533 319.4 621.867 301.267 619.2 284.067C616.933 269.8 610.4 264.067 601.2 268.467C595.333 271.267 594.267 275.267 596.267 287C599.333 304.6 597.2 321.4 590.133 336.6C585.6 346.2 583.2 349.267 569.867 362.867C552.667 380.333 529.733 389.133 505.867 387.667C488.667 386.467 475.867 381.8 460.8 371.133C453.067 365.667 437.067 348.333 438.533 347C438.8 346.733 437.333 343 435.2 338.733C429.467 327.533 426.933 315.8 426.933 302.067C427.067 278.333 434.8 260.333 452.533 242.733C465.067 230.067 477.067 223.133 492.533 219.267C502.933 216.6 518.267 216.333 529.2 218.6C541.333 221.133 559.867 230.733 570.267 240.067C586.367 254.515 586.133 250.6 591.867 244.733C599.2 237.533 595.333 229.133 578.933 216.6C559.733 201.8 537.333 194.467 511.333 194.6C492 194.6 479.333 197.667 461.867 206.333C451.067 211.667 447.333 214.6 435.867 226.067C424.4 237.533 421.467 241.267 416.133 252.067C412.667 259 408.533 269.533 407.067 275.4C402.133 294.333 403.733 324.467 410.533 341.533C411.067 343.133 410.133 344.2 407.067 345.4C404.667 346.467 392.533 352.733 380 359.533C367.467 366.2 357.2 371.667 357.067 371.533C357.067 371.533 357.333 332.333 357.6 284.467L358.133 197.667L429.067 161.533L499.867 125.533L501.367 144.2C504.7 199.233 505 203.133 506.2 204.733C509.4 207.4 514.067 205.4 517.933 204.733C526.733 203.4 525.267 199 525.267 139.2C525.267 110.667 521.867 103.933 513.333 95.5333C509.333 91.5333 487.733 79.2667 433.867 50.4667C345.733 3.26667 346.133 3.4 326.933 13ZM416.267 67.6666C452.667 87.1333 483.333 103.8 484.267 104.733C485.467 105.8 470 114.333 417.467 141.133C379.733 160.333 348.4 176.067 347.867 176.067C347.333 176.067 315.467 160.067 276.933 140.467C223.067 113 207.6 104.467 208.8 103.4C210.133 102.2 311.867 47.4 338.533 33.5333C341.6 31.9333 345.2 31.1333 346.933 31.5333C348.667 31.8 379.867 48.0666 416.267 67.6666ZM326.267 191.8L335.2 196.6L335.067 269.4C334.933 309.4 334.533 348.467 334 356.2L333.2 370.467L310.533 357.933C298.133 351.133 266.4 333.933 240.267 319.8L192.533 294.067V209V123.933L254.933 155.4C289.2 172.867 321.2 189.267 326.267 191.8ZM209.467 329.667C224.667 337.8 237.467 345 237.867 345.4C238.267 345.8 256.267 355.667 277.867 367.267C299.467 378.867 317.6 388.733 318.267 389.267C318.8 389.8 287.733 406.2 249.333 425.8L179.6 461.4L122.4 432.2C90.9333 416.2 59.3333 400.067 52.1333 396.467L38.9333 389.933L74.1333 371.133C93.3333 360.733 117.867 347.8 128.533 342.333C139.2 336.733 155.067 328.333 163.867 323.533C172.667 318.733 180.267 314.733 180.8 314.733C181.2 314.733 194.133 321.4 209.467 329.667ZM427.067 371.667C435.2 382.067 449.067 392.867 462.533 399.4C477.733 406.867 487.067 409.267 504.133 410.333C538.133 412.333 567.2 400.733 590.8 375.533L601.333 364.333L626.267 377.8L651.333 391.267L642.267 395.8C637.333 398.333 605.733 414.467 572 431.533L510.933 462.733L441.067 427.133C402.667 407.533 371.6 391.267 372 390.867C373.333 389.4 419.867 364.333 420.667 364.6C421.2 364.6 424 367.933 427.067 371.667ZM97.3333 445.667L168.533 482.067V569.8V657.533L136.267 641C118.4 631.933 87.2 615.933 66.8 605.4C41.0667 592.333 29.0667 585.4 27.4667 583C25.3333 579.8 25.2 572.2 24.8 494.467C24.6667 447.667 24.8 409.4 25.2 409.4C25.7333 409.4 58.1333 425.8 97.3333 445.667ZM428.933 447.267L499.2 483V570.2C499.2 618.2 498.8 657.4 498.267 657.4C497.6 657.4 465.733 641.267 427.2 621.667L357.2 586.067L356.8 498.333C356.667 450.067 356.933 410.733 357.6 411C358.133 411.133 390.267 427.533 428.933 447.267ZM665.6 495.8C665.2 573.533 665.067 581.133 662.933 584.333C661.333 586.733 649.6 593.533 624.933 606.067C605.333 616.2 574 632.2 555.6 641.667L521.867 658.867V571.133V483.4L592.933 447.133C631.867 427.133 664.4 410.867 664.933 410.733C665.467 410.733 665.733 449 665.6 495.8Z" fill="#3143E6" fill-opacity="0.8"/>
<path d="M539.334 272.267C534.134 277.6 522.4 289.867 513.2 299.6L496.533 317.067L484 305.333C476.933 298.667 469.733 293.067 467.6 292.667C459.867 290.8 453.333 296.533 453.333 305.067C453.333 308 456.8 312 470.933 325.6C480.667 334.933 490 343.2 491.6 344.133C493.2 345.067 496.4 345.333 499.067 344.8C502.8 344.133 507.6 339.733 525.6 320.933C565.6 278.933 565.334 279.333 565.334 274.267C565.334 267.2 561.067 262.667 554.4 262.667C549.334 262.667 548.134 263.467 539.334 272.267Z" fill="#32DE43" fill-opacity="0.8"/>
</svg>
