<svg width="196" height="155" viewBox="0 0 196 155" fill="none" xmlns="http://www.w3.org/2000/svg">
<g clip-path="url(#clip0_2_2)">
<path d="M12.6034 0.580435C8.04148 1.94143 4.59129 4.63177 2.13783 8.71475L0.489405 11.4367L0.221058 29.193C0.0293805 38.9731 -0.0472903 61.6986 0.0293805 79.7396L0.106051 112.53L1.75447 115.252C4.24628 119.398 7.7348 122.089 12.4884 123.418C14.4052 123.956 15.8619 124.019 28.5126 124.019H42.4283L43.4634 123.291C44.2301 122.722 44.5368 122.184 44.6518 120.949C44.8435 119.525 44.7285 119.24 43.6934 118.291L42.5433 117.214L28.9726 117.056C15.7086 116.898 15.4019 116.898 14.0218 116.17C10.955 114.587 8.46317 111.232 8.07982 108.067C7.96481 107.149 8.00315 93.4762 8.15649 77.6823L8.42483 49.0065H33.0362C46.5302 49.0065 83.8689 49.1015 115.994 49.2281L174.34 49.418V61.8252C174.34 68.6618 174.225 75.7516 174.072 77.5874L173.842 80.974H172.155C170.2 80.974 168.475 81.5121 166.827 82.6515L165.677 83.4745L162.418 82.3983C159.466 81.4171 159.198 81.2272 159.198 80.436C159.121 77.9988 158.546 76.7644 156.745 75.2769C154.329 73.2828 152.796 72.9663 145.934 73.1246C140.759 73.2195 140.299 73.2828 138.689 74.0741C136.158 75.2769 134.088 77.9039 134.088 79.8346C134.088 81.2589 134.012 81.3538 132.67 81.797C131.865 82.0502 130.408 82.5566 129.411 82.9364L127.648 83.6011L126.345 82.7781C123.469 80.974 119.521 80.436 116.531 81.4488C114.844 82.0502 108.25 87.3042 107.254 88.8868C105.605 91.5455 105.988 94.8372 108.212 97.2743L109.515 98.6353L108.212 101.136L106.908 103.605L105.068 103.794C102.423 104.111 101.35 104.522 99.3948 106.01C97.248 107.656 96.903 108.637 96.903 113.321V117.056H85.3257C74.6301 117.056 73.6334 117.12 72.5216 117.658C70.2215 118.797 69.8765 121.677 71.7933 123.26L72.7133 124.019L83.5622 124.051C89.5426 124.083 97.2096 124.209 100.66 124.304L106.908 124.494L108.212 127.153L109.515 129.812L108.519 130.793C107.024 132.28 106.487 133.578 106.487 135.889C106.487 138.737 107.177 139.687 111.93 143.516C115.572 146.492 116.032 146.777 118.064 147.125C120.978 147.663 123.814 147.188 126.115 145.7C127.533 144.846 127.916 144.719 128.568 145.004C128.951 145.194 130.331 145.669 131.597 146.049L133.897 146.745L134.127 148.486C134.433 150.733 135.967 152.885 137.999 154.025C139.532 154.848 139.762 154.879 145.896 154.974C153.179 155.101 154.713 154.816 156.745 152.917C158.316 151.429 159.006 150.005 159.006 148.327V146.966L162.342 145.795L165.715 144.624L166.673 145.352C168.514 146.777 170.162 147.283 173.037 147.251C175.222 147.251 176.027 147.125 177.446 146.428C179.439 145.447 185.074 140.763 185.994 139.307C187.528 136.775 187.068 133.167 184.921 131.109L183.694 129.907L185.036 127.121L186.378 124.336H188.065C191.016 124.336 193.93 122.88 195.348 120.696C195.847 119.936 195.962 118.67 196 114.018V108.289L194.888 106.96C193.432 105.25 191.016 104.079 188.41 103.858L186.378 103.699L185.036 101.104L183.694 98.5087L184.959 97.1794C186.493 95.5019 187.145 93.6344 186.876 91.5455C186.646 89.6148 186.033 88.6019 184.078 86.7029L182.621 85.3102L182.736 50.6207C182.813 20.1091 182.774 15.6463 182.238 13.5574C180.858 8.14503 176.986 3.74554 171.734 1.62492L168.82 0.42218L128.951 0.232274C106.985 0.10567 72.33 0.0107166 51.8589 0.0107166C15.8619 -0.0209344 14.5968 -0.0209344 12.6034 0.580435ZM167.938 8.11338C170.239 9.12621 171.427 10.2973 172.96 12.9243L174.149 14.9817L174.264 28.7182L174.379 42.4547L119.099 42.2648C88.6992 42.1382 51.3222 42.0433 36.0647 42.0433H8.30983L8.42483 28.1801L8.53984 14.3486L9.65157 12.3863C10.8016 10.2973 13.2168 8.14503 15.3635 7.35375C16.4369 6.94229 26.0975 6.91064 91.3443 7.06889L166.098 7.29045L167.938 8.11338ZM150.573 82.8731C150.841 86.7978 150.841 86.7978 156.515 88.2538C158.01 88.6336 160.463 89.5198 161.996 90.1845C164.143 91.134 165.255 91.4189 166.635 91.4189C168.322 91.4189 168.667 91.2606 170.775 89.7097L173.075 87.9689L175.721 90.1845L178.327 92.3684L176.564 93.856C173.344 96.6096 173.229 97.5275 175.644 101.484C176.564 103.035 177.714 105.345 178.174 106.643C179.439 110.061 180.091 110.536 184.231 110.726L187.566 110.884L187.681 114.113L187.796 117.373H184.806C180.167 117.373 179.554 117.847 177.944 122.247C177.561 123.291 176.526 125.317 175.606 126.773C173.267 130.54 173.344 131.426 176.066 133.8C177.216 134.812 178.174 135.762 178.174 135.92C178.174 136.3 173.497 140.161 173.037 140.161C172.845 140.161 171.695 139.37 170.469 138.421C168.514 136.87 168.092 136.68 166.635 136.68C165.523 136.68 164.297 136.996 162.648 137.756C161.383 138.357 158.508 139.37 156.323 139.972C151.033 141.459 150.803 141.681 150.611 145.257L150.496 148.106L146.586 148.011L142.714 147.916L142.522 145.162C142.292 141.744 141.717 141.206 137.615 140.193C136.082 139.813 133.322 138.864 131.52 138.104C129.066 137.06 127.725 136.68 126.498 136.68C125.003 136.68 124.619 136.838 122.549 138.484L120.249 140.288L117.489 138.009L114.729 135.73L116.991 133.863C119.061 132.122 119.253 131.837 119.253 130.603C119.253 129.622 118.831 128.609 117.681 126.868C116.837 125.57 115.687 123.26 115.112 121.741C113.694 118.006 113.119 117.594 108.864 117.373L105.528 117.214V114.049V110.884L108.825 110.789C113.042 110.663 113.732 110.22 114.921 106.896C115.381 105.599 116.531 103.288 117.451 101.769C119.866 97.7491 119.828 96.7995 116.952 94.2675L114.806 92.3368L117.412 90.1528L120.019 87.9689L122.281 89.6781C125.54 92.1785 126.345 92.2101 131.175 90.2161C133.283 89.3616 136.273 88.3171 137.769 87.9689C141.602 87.051 142.292 86.3547 142.445 83.2529C142.522 81.9236 142.637 80.6259 142.714 80.4043C142.867 80.1195 143.864 80.0245 146.624 80.0878L150.381 80.1828L150.573 82.8731Z" fill="#3142E6" fill-opacity="0.83"/>
<path d="M30.9277 14.2854C26.7875 15.7413 24.1807 18.2101 23.069 21.755C21.4972 26.8825 24.3724 32.1682 30.0077 34.4787C31.6561 35.1434 32.4611 35.2383 35.9497 35.2383C39.3615 35.2383 40.2432 35.1434 41.7383 34.5104C44.5751 33.3709 46.5302 31.7567 47.9103 29.4462C49.0604 27.5155 49.1754 27.0724 49.1754 24.477C49.137 22.2298 48.9837 21.3119 48.2937 20.0775C46.9903 17.7037 45.0735 15.9945 42.39 14.8234C40.2432 13.8739 39.5915 13.7473 36.5247 13.6523C33.5729 13.5574 32.7678 13.6523 30.9277 14.2854ZM38.2881 21.2486C39.0165 21.6284 39.8982 22.483 40.2816 23.1477C41.1633 24.6036 40.7416 25.9646 38.9782 27.3572C38.0198 28.1169 37.4831 28.2751 35.9113 28.2751C34.1479 28.2751 33.8412 28.1485 32.6528 27.104C30.4294 25.0784 30.8894 22.5779 33.7645 21.1536C35.3746 20.3307 36.678 20.3624 38.2881 21.2486Z" fill="#3142E6" fill-opacity="0.83"/>
<path d="M65.0846 14.0954C61.6344 15.0766 59.2959 16.8491 57.3792 19.8876C56.6124 21.0903 56.4974 21.7866 56.4591 24.477C56.4591 28.2751 57.2258 29.8893 60.2926 32.4214C63.0911 34.7319 65.6979 35.4915 70.2598 35.3333C74.3234 35.175 76.5469 34.3837 79.192 32.1998C83.1405 28.9081 84.0606 23.6224 81.4538 19.3495C80.1504 17.2289 77.1986 15.0766 74.5534 14.222C71.8699 13.4307 67.653 13.3358 65.0846 14.0954ZM71.6399 20.9953C74.0934 22.0715 75.0518 25.015 73.48 26.6609C71.7933 28.4333 69.3015 28.8764 67.193 27.8003C65.9663 27.1673 64.7012 25.5214 64.7012 24.477C64.7012 23.3375 66.6563 21.1852 68.1514 20.7421C69.2248 20.4256 70.4899 20.5206 71.6399 20.9953Z" fill="#3142E6" fill-opacity="0.83"/>
<path d="M110.819 14.317C107.177 15.2666 103.995 17.767 102.615 20.8055C101.503 23.2426 101.695 27.5788 102.998 29.6994C104.187 31.6301 106.64 33.6874 108.979 34.7003L110.895 35.5549L131.405 35.6498C154.214 35.7448 153.984 35.7764 157.55 33.6241C159.85 32.1999 161.536 30.0159 162.341 27.3256C163.837 22.2931 160.846 17.0707 155.173 14.8551L153.064 14.0322L132.747 13.9689C116.837 13.9372 112.084 14.0005 110.819 14.317ZM151.339 21.3119C154.943 22.8628 154.943 26.7242 151.339 28.2751C149.652 29.0031 114.652 28.9714 112.965 28.2751C111.547 27.6421 110.32 26.0596 110.32 24.7935C110.32 23.4642 111.624 21.85 113.119 21.3119C114.997 20.6156 149.729 20.6156 151.339 21.3119Z" fill="#3142E6" fill-opacity="0.83"/>
<path d="M141.372 94.7422C137.155 95.5335 132.785 97.5275 129.68 100.123C119.674 108.352 120.403 121.93 131.29 129.432C133.705 131.109 138.65 133.072 141.679 133.546C144.976 134.053 151.263 133.768 154.444 132.913C161.038 131.173 166.827 126.425 169.242 120.854C170.584 117.721 170.89 112.53 169.97 109.46C167.938 102.813 161.881 97.3693 154.214 95.3436C150.343 94.3308 144.976 94.0776 141.372 94.7422ZM149.077 101.547C154.023 102.307 158.163 104.934 160.425 108.764C161.805 111.011 161.881 111.359 161.881 114.018C161.843 118.101 160.885 120 157.32 122.943C153.754 125.887 151.454 126.678 146.547 126.71C143.442 126.71 142.829 126.615 140.529 125.697C134.012 123.165 130.216 117.594 131.367 112.34C132.593 106.96 137.078 102.972 143.48 101.674C145.934 101.167 146.586 101.167 149.077 101.547Z" fill="#3142E6" fill-opacity="0.83"/>
<path d="M59.3726 67.2692C58.5675 67.9338 58.1459 68.8201 57.6475 70.8457C57.2641 72.3333 56.5358 74.5172 56.0757 75.7516C54.7723 79.0117 50.1338 95.2803 50.1338 96.578C50.1338 99.3317 54.619 100.819 57.3025 98.9518C58.1459 98.3821 58.2609 98.0656 61.251 87.779C62.7461 82.5883 64.2028 77.9039 64.4712 77.3658C65.4679 75.4035 66.733 69.9911 66.4646 68.8517C66.0813 67.2375 64.7012 66.4146 62.3244 66.4146C60.7527 66.4146 60.2543 66.5728 59.3726 67.2692Z" fill="#3142E6" fill-opacity="0.83"/>
<path d="M35.3363 68.915C34.9146 69.0732 32.9978 70.5925 31.1194 72.3016C29.241 74.0108 26.5958 76.3213 25.2541 77.4608C21.9572 80.2461 21.3822 81.069 21.3822 83.2212C21.3822 84.5822 21.5739 85.2153 22.2256 85.9116C24.449 88.2538 33.4195 96.3881 34.3396 96.8628C34.9146 97.1793 36.0263 97.4326 36.8697 97.4326C39.8215 97.4326 41.93 94.489 40.4732 92.2734C40.2432 91.8936 37.9814 89.6781 35.4513 87.3675L30.8894 83.1579L31.8478 82.1451C32.3461 81.607 34.4546 79.708 36.4864 77.9672C38.5181 76.2264 40.4732 74.3906 40.8183 73.8842C41.6233 72.6498 41.2783 70.6558 40.0515 69.6746C39.0548 68.82 36.678 68.4402 35.3363 68.915Z" fill="#3142E6" fill-opacity="0.83"/>
<path d="M78.2719 68.9466C76.8535 69.4214 75.8185 70.814 75.8185 72.27C75.8185 73.7259 76.0102 73.9475 81.3771 79.1383C82.6422 80.3727 84.0606 81.7653 84.559 82.2717L85.4407 83.1579L80.8788 87.3675C75.8185 92.0202 75.4351 92.5266 75.4351 93.9509C75.4351 96.6096 79.0387 98.3504 81.7988 97.0211C82.7572 96.578 93.2611 86.9244 94.2578 85.5634C95.2929 84.1708 95.2162 81.6703 94.1428 80.4043C90.0793 75.8466 83.0639 69.3581 81.6838 68.915C80.5721 68.5668 79.3453 68.5668 78.2719 68.9466Z" fill="#3142E6" fill-opacity="0.83"/>
<path d="M55.7307 117.531C54.0823 118.259 53.6223 118.955 53.584 120.633C53.584 121.93 53.7756 122.31 54.6957 123.102C55.6541 123.861 56.1524 124.019 57.7625 124.019C60.446 124.019 61.6727 123.133 61.9027 120.949C62.0944 119.525 61.9794 119.24 61.021 118.354C59.6793 117.12 57.4558 116.771 55.7307 117.531Z" fill="#3142E6" fill-opacity="0.83"/>
</g>
<defs>
<clipPath id="clip0_2_2">
<rect width="196" height="155" fill="white"/>
</clipPath>
</defs>
</svg>
