<?xml version="1.0" encoding="UTF-8"?>
<svg width="128" height="128" fill="none" version="1.1" viewBox="0 0 128 128" xmlns="http://www.w3.org/2000/svg" xmlns:cc="http://creativecommons.org/ns#" xmlns:dc="http://purl.org/dc/elements/1.1/" xmlns:rdf="http://www.w3.org/1999/02/22-rdf-syntax-ns#">
 <path d="m57.658 0.1548c-5.7657 0.7126-13.211 2.9874-18.375 5.6734-1.4539 0.74001-2.8076 1.6445-3.0332 2.0008-0.57664 0.87705-0.52644 1.946 0.07518 2.7956 0.92746 1.2882 1.7047 1.2334 4.9635-0.43851 4.5875-2.3571 9.3756-4.0289 13.838-4.8238 0.90246-0.16444 2.0055-0.38369 2.4818-0.46591l0.85226-0.16445-1.6795 2.0282c-3.3842 3.9467-7.5707 10.059-10.253 14.882l-1.3537 2.4667-10.629 0.0822-10.629 0.0549 2.1307-2.3298c1.1783-1.3156 2.933-3.0696 3.8856-3.9192 2.2811-2.0009 2.3815-2.1378 2.3815-3.5082 0-0.93185-0.1254-1.2882-0.65184-1.7267-0.75204-0.63036-1.6295-0.74-2.4316-0.24667-1.7297 0.98667-7.2948 6.7423-10.052 10.36-4.3368 5.6734-7.6959 12.114-10.052 19.295l-0.82725 2.4667-1.4539 0.35623c-0.80219 0.19178-1.9052 0.65778-2.4818 1.0416-1.3788 0.8769-3.0583 2.9051-3.7101 4.4674-0.52643 1.2607-0.5515 1.6445-0.6267 13.43-0.075177 13.759-0.12535 13.293 1.9804 15.814 1.3537 1.6169 2.7324 2.494 4.5875 2.96l1.4539 0.35623 0.82725 2.4667c3.6349 11.045 9.902 20.72 18.3 28.23 8.4981 7.592 19.704 12.635 30.709 13.786 10.027 1.0416 16.319 0.35623 24.893-2.7134 4.2365-1.5349 10.679-4.8785 11.456-5.9474 0.65184-0.90445 0.65184-2.0009 0-2.9053-0.97766-1.3429-1.6545-1.2333-5.4397 0.84977-5.2643 2.9051-10.654 4.9058-15.618 5.8103-0.90246 0.13712-2.0055 0.35644-2.4818 0.43867l-0.85226 0.16445 1.6795-2.0282c3.309-3.8918 7.1946-9.5105 10.303-14.965l1.4539-2.5216h10.554l10.554 0.0275-3.2588 3.4534c-3.0584 3.234-3.259 3.508-3.259 4.4947 0 1.4253 0.80224 2.3022 2.1057 2.3022 0.80225 0 1.2285-0.24668 2.4065-1.3429 7.2948-6.8518 13.562-16.719 16.67-26.394l0.92746-2.9327 1.4791-0.35623c0.80225-0.19179 1.9051-0.65779 2.4818-1.0416 1.3787-0.8769 3.0584-2.9051 3.71-4.4674 0.52643-1.2607 0.55162-1.6445 0.62683-13.402 0.0752-13.759 0.15041-13.32-1.9805-15.842-1.3537-1.6169-2.7324-2.494-4.5875-2.96l-1.4539-0.35623-0.82725-2.4667c-1.2033-3.7001-2.2561-6.2763-3.8104-9.2912-6.5678-12.909-17.021-23.05-29.355-28.477-4.8381-2.1378-10.328-3.6178-15.592-4.2482-3.6098-0.41112-10.629-0.57556-13.01-0.27407zm17.147 5.7556c9.7514 1.9459 19.653 7.6741 27.074 15.622l2.7574 2.9874h-21.107l-1.4541-2.5489c-3.1084-5.4267-6.994-11.045-10.303-14.937l-1.6795-2.0282 0.97766 0.19185c0.52643 0.0822 2.2311 0.41111 3.7352 0.7126zm-2.7074 8.9897c1.1531 1.5896 3.0332 4.3852 4.1363 6.1941l2.0305 3.2889-2.9832 0.0549c-1.6295 0.0549-7.9215 0-13.988-0.1371l-11.005-0.19179 2.0305-3.2889c2.7324-4.44 5.7656-8.5786 9.0998-12.306l2.7574-3.1245 2.883 3.2889c1.6043 1.8363 3.8604 4.6045 5.0387 6.2215zm-30.458 16.527c-1.4289 3.2889-3.284 8.2496-4.1615 11.1l-0.70184 2.2749h-11.882c-7.5455 0-11.882-0.10976-11.882-0.27421 0-1.2333 3.4594-8.9623 5.7405-12.799l1.6545-2.8231h22.336zm33.917-2.2474h5.3143l1.9053 4.3578c1.0779 2.3845 2.4818 5.92 3.1586 7.8659l1.2283 3.5356-6.1668 0.0549c-3.4092 0.0549-13.712-0.0273-22.912-0.13711l-16.695-0.19178 1.2285-3.5356c0.67685-1.946 2.1057-5.5089 3.1586-7.9207l1.9553-4.3854 11.256 0.16445c6.192 0.10976 13.662 0.19199 16.57 0.19199zm34.243 2.8229c2.2812 3.8371 5.7406 11.566 5.7406 12.799 0 0.16445-4.3367 0.27401-11.882 0.27401h-11.882l-0.57645-1.8638c-0.80224-2.7134-2.3313-6.8245-3.8606-10.525-0.75204-1.7814-1.3787-3.3163-1.3787-3.3985 0-0.0549 4.9885-0.10956 11.105-0.10956h11.08zm11.757 18.281c1.0529 0.57556 1.7799 1.4253 2.3815 2.7134 0.60164 1.3156 0.72704 4.906 0.42622 13.868-0.1756 6.2216-0.30082 7.5645-0.67683 8.3594-0.60164 1.3429-1.3287 2.1651-2.4818 2.7956-1.0029 0.54802-1.1031 0.54802-57.281 0.35623-60.941-0.21933-56.88-0.10956-58.384-1.6171-1.7798-1.7267-1.9804-3.9467-1.6044-15.787 0.20055-6.4956 0.27576-7.3725 0.72698-8.3592 0.57658-1.206 1.3286-2.0282 2.4567-2.7134 0.70191-0.41112 5.0387-0.43866 57.156-0.27422 53.445 0.16445 56.453 0.19199 57.281 0.65779zm-84.329 34.863c0.87746 2.8778 2.7324 7.8387 4.1613 11.1l1.1031 2.5489h-22.336l-1.6545-2.8229c-2.2812-3.8371-5.7406-11.566-5.7406-12.799 0-0.16444 4.3368-0.27401 11.882-0.27401h11.882zm36.374-2.0007 13.311 0.16445-1.2285 3.5356c-0.67685 1.946-2.1057 5.5089-3.1586 7.9207l-1.9553 4.3854-11.03-0.16445c-6.0666-0.10977-13.512-0.19199-16.57-0.19199h-5.54l-1.9053-4.3303c-1.9051-4.3031-2.3563-5.5089-3.71-9.4556l-0.70184-2.1105 9.576 0.0273c5.2643 0.02761 15.567 0.13711 22.912 0.21933zm41.588 0.71267c-0.57663 2.5489-3.5096 8.9348-5.9914 13.073l-1.2785 2.1378h-11.105c-6.1166 0-11.105-0.0549-11.105-0.10976 0-0.0822 0.62665-1.6169 1.3787-3.3985 1.5291-3.7 3.0584-7.8112 3.8604-10.552l0.57663-1.8365h23.815zm-70.016 20.199c3.8354 6.9067 7.5205 12.361 11.356 16.883l1.6795 2.028-0.97767-0.19179c-4.3117-0.76735-6.994-1.4527-10.128-2.5762-8.0217-2.9054-14.665-7.3178-20.681-13.786l-2.7574-2.96h21.183zm32.714-0.19179c0.15041 0.13711-3.5096 5.9474-5.6153 8.8801-1.2283 1.7267-3.5346 4.6045-5.1641 6.4407l-2.958 3.3165-3.0584-3.4534c-3.8854-4.3305-9.0746-11.621-10.704-14.992l-0.32583-0.65779 13.888 0.192c7.6209 0.10956 13.888 0.24667 13.938 0.274z" fill="#3143e6" fill-opacity=".8" stroke-width=".19659"/>
 <g transform="matrix(1.0977 0 0 1 -5.9637 0)" fill="#3143e6" fill-opacity=".8" stroke-width=".19636">
  <path d="m24.435 54.312c-0.8253 1.0142-0.7754 1.6445 0.42503 5.646 2.3258 7.6741 3.9764 12.58 4.4518 13.238 0.65011 0.90445 2.3757 0.93179 3.1011 0.0273 0.27517-0.32889 1.1005-2.4667 1.8256-4.714 1.2004-3.7 2.1758-5.8105 2.1758-4.714 0 0.65779 2.8762 9.0719 3.2762 9.5652 0.52519 0.65779 2.4009 0.65779 3.0011 0 0.25003-0.274 1.0003-2.1378 1.6506-4.166 0.67525-2.028 1.5506-4.44 1.9258-5.3445 1.1254-2.6585 2.4759-6.9889 2.4759-7.9207 0-1.3156-0.77541-2.0829-2.1008-2.0829-0.72532 0-1.2004 0.16444-1.5005 0.52067-0.22508 0.27401-0.97536 2.1927-1.6757 4.2756-1.1254 3.3985-2.1506 5.9749-2.2257 5.6185-0.0251-0.0822-0.075-0.3289-0.12511-0.54802-0.22508-1.2609-2.951-8.9623-3.3012-9.3734-0.47511-0.57556-2.2508-0.68533-2.9011-0.16445-0.22508 0.19178-0.97535 2.028-1.6506 4.0563-0.67524 2.0282-1.4255 4.166-1.6255 4.714-0.42522 1.0964-0.90033 1.5898-0.90033 0.932 0-0.79489-2.851-9.0445-3.3012-9.5379-0.60022-0.65779-2.4759-0.68533-3.0011-0.0276z"/>
  <path d="m52.245 54.394c-0.75028 0.82223-0.62517 2.22 0.50024 5.5638 0.55014 1.6171 1.0504 3.3163 1.1254 3.7274 0.20014 1.3156 2.9011 9.1816 3.3012 9.675 0.47511 0.57556 2.2758 0.65779 2.9011 0.13711 0.25003-0.16445 1.0504-2.1378 1.7755-4.3305 0.72533-2.1927 1.5506-4.4674 1.8007-5.0705l0.47529-1.0689 0.175 1.0964c0.27517 1.7814 2.9011 9.2912 3.3762 9.6474 0.62517 0.52068 2.4258 0.43845 2.9011-0.13711 0.19995-0.24667 1.0252-2.4391 1.8256-4.8511 0.77522-2.4118 1.5506-4.5769 1.7256-4.7963 0.55014-0.76735 2.3759-6.7696 2.3759-7.7838 0-1.3702-0.70038-2.0829-2.0758-2.0829-0.72533 0-1.2254 0.16444-1.4756 0.46599-0.22508 0.27401-0.97535 2.2747-1.7005 4.4674-1.2505 3.7823-2.2259 6.1941-2.276 5.6185-0.0499-0.76734-0.30011-1.6718-1.5005-5.3169-1.5006-4.5223-2.1257-5.5089-3.5762-5.5089-1.2256 0-1.5756 0.6029-3.1262 5.3718-1.3004 4.0016-2.2758 5.9474-2.2758 4.5771 0-0.82223-2.7261-8.8801-3.2012-9.4832-0.55014-0.68512-2.4009-0.63024-3.0512 0.0822z"/>
  <path d="m80.005 54.723c-0.72514 0.87711-0.62517 1.946 0.47529 5.2349 0.55014 1.6171 1.0504 3.2616 1.1003 3.6727 0.22508 1.4525 3.0262 9.5103 3.4764 10.004 0.60022 0.65779 2.4759 0.68533 3.0011 0 0.22508-0.24667 0.97536-2.2474 1.7005-4.44 1.3756-4.1934 2.2259-6.2214 2.2508-5.4267 0 0.90445 2.8261 9.1267 3.3264 9.7298 0.67524 0.82223 2.4009 0.87691 3.026 0.10956 0.25002-0.30155 1.1254-2.5489 1.9258-4.9883 0.8253-2.4667 1.6005-4.6045 1.7256-4.7689 0.12492-0.19178 0.75027-1.9185 1.3754-3.8369 1.2004-3.6454 1.2505-4.44 0.45017-5.4267-0.55014-0.63044-2.4258-0.63044-3.026 0.0273-0.25022 0.27401-1.0005 2.1378-1.6506 4.166-1.3505 4.0563-2.4009 6.523-2.4009 5.5912 0-0.93199-2.9762-9.5379-3.4263-9.9216-0.6503-0.52068-2.4258-0.41112-2.9011 0.16444-0.22508 0.27401-1.0252 2.3571-1.8007 4.6594-1.3505 4.1111-1.8256 5.2623-2.1758 5.2623-0.1 0-0.15005-0.21933-0.15005-0.49334 0.0501-0.68533-2.7259-8.8254-3.201-9.4283-0.62535-0.74-2.426-0.68512-3.1012 0.10957z"/>
 </g>
 <metadata>
  <rdf:RDF>
   <cc:Work rdf:about="">
    <dc:creator>
     <cc:Agent>
      <dc:title>valney felipe</dc:title>
     </cc:Agent>
    </dc:creator>
    <dc:language>englosh</dc:language>
   </cc:Work>
  </rdf:RDF>
 </metadata>
</svg>
