<?xml version="1.0" encoding="UTF-8"?>
<svg width="128" height="128" fill="none" version="1.1" viewBox="0 0 128 128" xmlns="http://www.w3.org/2000/svg" xmlns:cc="http://creativecommons.org/ns#" xmlns:dc="http://purl.org/dc/elements/1.1/" xmlns:rdf="http://www.w3.org/1999/02/22-rdf-syntax-ns#">
 <g fill="#3143e6" fill-opacity=".8" stroke-width=".19365">
  <path d="m7.1378 0.48791c-2.6205 0.98836-4.9915 3.3391-6.2144 6.0905l-0.64889 1.4959-0.14975 46.667-0.12479 46.667 0.74873 1.7364c1.3477 3.0452 3.519 5.0753 6.5139 6.0636 1.4725 0.50767 2.346 0.53432 11.905 0.53432h10.282l1.8967 2.3775c5.6154 7.0522 13.702 12.368 22.137 14.532 3.6936 0.96167 6.6136 1.3088 11.555 1.3357 3.569 0.0532 4.7669-0.0535 7.038-0.53432 9.5587-2.0836 18.593-7.7199 24.209-15.119l1.747-2.2972h10.382c9.6334-0.0269 10.532-0.0535 12.004-0.56098 2.9949-0.9885 5.1662-3.0186 6.5388-6.1173l0.7738-1.763 0.17464-45.144c0.0998-24.843 0.12485-45.866 0.05-46.747-0.0999-0.88151-0.44923-2.2706-0.7987-3.072-0.84849-1.9233-3.2444-4.4877-5.1662-5.5028l-1.4974-0.77468-31.821-0.16027c-17.495-0.0801-42.702-0.18698-56.029-0.18698-22.961-0.0267-24.284 0-25.506 0.48083zm112.38 5.209c1.173 0.50754 2.7454 2.137 3.3193 3.4459 0.44924 0.98837 0.52411 1.6295 0.52411 5.2357v4.087l-43.476-0.16027c-23.909-0.10675-50.564-0.18693-59.274-0.18693h-15.798v-4.007c0-2.8583 0.0998-4.274 0.34941-4.9151 0.49913-1.2822 1.9966-2.9651 3.2195-3.6329l1.0482-0.56096 54.657 0.16026c43.825 0.16029 54.806 0.26715 55.43 0.53426zm-11.93 17.764h15.848l-0.17464 38.119c-0.19972 37.131-0.19972 38.172-0.67385 39.348-0.59897 1.4691-1.5223 2.5378-2.8451 3.2857-0.94844 0.56097-1.3228 0.58761-9.6585 0.66775-4.7918 0.0535-8.6852 0.0269-8.6852-0.0266s0.49921-1.2556 1.0982-2.6179c0.62387-1.389 1.5223-3.7665 1.9965-5.3158l0.87357-2.8048 2.4459-0.13363c2.5456-0.13343 3.0698-0.32055 3.9931-1.389 1.2228-1.389 1.5972-3.4459 0.97334-5.3426-0.47413-1.4156-9.2842-12.849-10.457-13.57-1.2477-0.77473-3.7934-0.66775-4.8416 0.16028-0.39944 0.29391-2.7954 3.2857-5.3659 6.6515-4.1679 5.4227-4.692 6.2241-4.9167 7.4528-0.29949 1.5761-0.0498 3.0987 0.67385 4.1405 0.64895 0.96166 1.9966 1.8965 2.7205 1.8965 0.74872 0 0.67384 0.40069-0.72383 3.2055-1.0233 2.0836-2.2711 3.9803-4.1679 6.3578l-1.148 1.4425-41.18-0.37404-0.94845-0.9883c-0.5241-0.53433-1.5223-1.7098-2.1962-2.6179-1.6472-2.2172-3.2944-3.0987-5.6654-3.0719-0.99823 0-2.1213 0.18693-2.6954 0.45399-1.9965 0.88151-3.8185 3.4728-3.8434 5.4227v0.88153l-9.5336-0.0801c-9.2343-0.0801-9.5837-0.10675-10.557-0.66775-1.3477-0.77473-2.2462-1.8165-2.8951-3.3926l-0.5241-1.3089 0.1747-38.066 0.19966-38.066 43.426 0.16027c23.884 0.10675 50.564 0.18692 59.274 0.18692zm-3.1946 60.638 3.569 4.6747-2.7205 0.13363c-1.4974 0.0801-2.9698 0.29391-3.2693 0.48082-0.37436 0.21378-0.69893 0.85488-0.97334 1.8698-0.84868 3.3125-1.7221 5.9036-2.7454 8.2811-5.0164 11.567-15.174 20.141-27.004 22.786-5.4406 1.2287-13.177 0.61447-19.192-1.496-4.8418-1.7095-10.507-5.3424-14.4-9.2159-2.321-2.3507-4.8918-5.8232-4.8918-6.6515 0-0.90816 0.92355-1.8965 1.7969-1.8965 0.7987 0 1.0482 0.24041 3.2944 3.1254 4.5174 5.8232 11.605 10.311 18.868 11.941 1.0233 0.24041 3.6687 0.56096 5.8651 0.72124 3.419 0.26706 4.7482 0.37404 6.8944 0 12.504-2.1369 21.806-11.914 26.648-23.881 1.4475-4.4344 0.94826-5.7699-2.2462-6.0372l-1.772-0.16027 3.0946-4.0069c5.3159-6.9185 4.7669-6.3309 5.2162-5.7966 0.22461 0.24041 2.0215 2.5644 3.9682 5.1288zm-30.822 25.911 4.4923 0.0269-1.4475 0.80137c-1.9966 1.0951-5.3908 2.2705-8.0113 2.7514-3.1946 0.61445-8.4106 0.21376-12.329-0.93502-1.9965-0.5876-5.7652-2.2439-6.1644-2.6978-0.17464-0.18712 2.5705-0.24042 9.359-0.10701 5.291 0.0801 11.63 0.16027 14.101 0.16027z"/>
  <path d="m9.1843 9.7038c-0.47418 0.48084-0.62393 0.93494-0.62393 1.7897 0.025 2.1637 1.6721 3.2322 3.4691 2.2172 1.3727-0.74797 1.5973-2.7781 0.4742-4.087-0.77369-0.85481-2.4957-0.82811-3.3193 0.0801z"/>
  <path d="m17.67 9.7038c-0.47418 0.48084-0.62393 0.93495-0.62393 1.8432 0 1.0151 0.1248 1.2822 0.79865 1.8966 1.4226 1.2822 3.519 0.53424 3.8434-1.3623 0.32457-1.8165-0.62387-3.0452-2.321-3.0452-0.82359 0-1.2478 0.16027-1.697 0.6678z"/>
  <path d="m26.155 9.7038c-0.84848 0.88153-0.84848 2.4843-0.0249 3.5261 0.49902 0.61438 0.79851 0.74795 1.7718 0.74795 0.97334 0 1.2728-0.13357 1.772-0.74795 0.67385-0.85481 0.77362-2.0034 0.22462-3.0987-0.42434-0.90823-0.8236-1.0952-2.1464-1.0952-0.72364 0-1.1729 0.187-1.5972 0.66782z"/>
  <path d="m92.242 9.8908c-0.67385 0.82809-0.87357 1.8432-0.54919 2.8583 0.54919 1.6295 0.44924 1.6295 13.951 1.6295 8.8349 0 12.404-0.0801 12.803-0.32055 0.87338-0.48084 1.148-1.0685 1.1729-2.2973 0-0.85479-0.14974-1.3089-0.62387-1.7897l-0.59898-0.66781h-25.656z"/>
  <path d="m9.6538 30.268c-1.4508 0.8765-1.4508 2.4698-0.0426 3.5054l1.0241 0.74368 17.112 0.0797c11.308 0.0529 17.666-0.0269 18.819-0.21257 1.7922-0.29211 2.987-1.2746 2.987-2.3901 0-0.77013-1.1096-2.0181-1.9203-2.2306-0.38409-0.0795-8.8757-0.15927-18.819-0.15927h-18.136z"/>
  <path d="m77.673 29.991c-0.77493 0.15947-1.915 1.5138-1.915 2.204 0 1.1153 1.2769 2.098 3.192 2.3901 1.2311 0.18592 8.0244 0.26565 20.107 0.21237l18.284-0.0795 1.0943-0.74348c1.5047-1.0358 1.5047-2.6291-0.0455-3.5054l-1.0942-0.66394-19.515 0.0266c-10.715 0-19.788 0.0797-20.107 0.15928z"/>
  <path d="m61.43 34.981c-12.079 1.4425-23.335 8.6283-30.223 19.313-2.97 4.5679-5.7154 10.899-6.6138 15.253l-0.34927 1.6028-2.2213 0.13361c-2.321 0.13364-2.8451 0.3472-3.7685 1.389-1.2229 1.3892-1.5973 3.4459-0.97334 5.3426 0.44923 1.3624 9.2842 12.849 10.407 13.543 1.3226 0.80139 3.5939 0.77475 4.7418-0.0535 0.82359-0.58761 8.9598-10.925 10.008-12.715 0.67385-1.1219 0.74872-3.7398 0.14974-4.9686-0.7738-1.5761-2.1964-2.5378-3.7436-2.5378-0.69893 0-0.74872-0.0535-0.59898-0.74788 0.32438-1.5226 3.1695-7.1858 4.3175-8.6016 3.8685-4.7013 6.3641-7.0253 9.5836-8.922 5.4657-3.2055 10.832-4.4342 16.322-3.7398 6.6138 0.85487 11.555 2.9118 16.272 6.8117 1.9216 1.6028 4.7918 4.9686 5.815 6.8117 1.5225 2.7515 4.4923 4.087 7.4623 3.3125 1.6721-0.42754 2.92-1.4425 4.118-3.3125 0.92335-1.4156 0.99822-1.7095 0.99822-3.3389 0-0.96167-0.12466-2.2172-0.32438-2.7782-0.77361-2.4576-5.9898-8.8152-9.8831-12.074-6.2893-5.2623-13.477-8.3876-21.838-9.5096-3.1196-0.40069-7.3124-0.50767-9.6585-0.21377zm7.2877 5.1823c8.9347 0.66775 17.37 4.648 23.809 11.219 2.8451 2.9116 5.7652 6.865 5.7652 7.8 0 1.5226-1.2479 2.5109-2.3461 1.8698-0.32439-0.16027-1.2728-1.2822-2.0964-2.4843-2.92-4.1672-7.537-8.2542-11.905-10.605-3.5688-1.8967-9.4088-3.6597-12.179-3.6597-0.62406 0-1.198-0.10675-1.2728-0.24042-0.0999-0.13343-1.5225-0.21357-3.2195-0.16027-9.0097 0.26725-17.445 4.3008-23.66 11.273-2.3461 2.6712-5.1164 6.7851-6.3892 9.5098-1.747 3.7396-2.87 8.4411-2.4708 10.178 0.22462 0.96165 0.99842 1.3088 3.2446 1.4958l1.9716 0.13363-3.8185 4.9419c-2.0964 2.7247-3.8934 5.0487-3.9931 5.1555-0.14974 0.18692-7.9864-9.6967-7.9864-10.071 0-0.0532 1.198-0.16028 2.6454-0.21357 2.4958-0.0801 2.6705-0.10701 3.2195-0.80138 0.29949-0.37404 0.64896-1.2556 0.72383-1.9502 0.44923-3.0719 2.6954-10.311 3.4941-11.166 0.17464-0.16029 0.77362-1.2021 1.3726-2.2439 5.7403-10.552 16.073-18.058 27.229-19.821 2.9949-0.48083 3.3193-0.50767 4.4923-0.40069 0.62387 0.0532 2.1462 0.16027 3.3692 0.24041z"/>
  <path d="m9.1843 39.355c-0.89846 0.93481-0.87349 2.7247 0.025 3.6329l0.64888 0.6411h19.217l0.62387-0.77474c0.52411-0.66776 0.59898-0.98831 0.49921-2.0035-0.22461-2.2439 0.12485-2.1637-10.832-2.1637h-9.5836z"/>
  <path d="m98.656 39.435c-0.37436 0.32056-0.59898 0.88152-0.67385 1.6829-0.0998 1.015-0.0249 1.3355 0.49921 2.0035l0.62387 0.77454h19.217l0.64896-0.6411c0.89846-0.90818 0.92336-2.6979 0.0249-3.6329l-0.59898-0.66775h-9.5836c-8.8598 0-9.6585 0.0266-10.158 0.48082z"/>
 </g>
 <path d="m61.105 67.413c-0.34865 0.0984-0.89215 0.27964-1.21 0.4091-0.99469 0.39356-2.2868 1.0875-2.4303 1.305-0.0923 0.15017-0.0718 0.37284 0.0872 0.87515 0.16407 0.51785 0.1692 1.3775 0.0154 1.8021-0.29738 0.80785-0.95367 1.2635-1.8868 1.3153-0.45633 0.0258-0.74346-0.0207-1.4972-0.24857-0.3384-0.10355-0.46145-0.0311-0.77422 0.44534-0.33327 0.51268-0.81011 1.4914-1.0613 2.1698-0.2051 0.55927-0.53837 1.7451-0.53837 1.916 0 0.17607 0.13844 0.33142 0.42556 0.47641 0.87164 0.44535 1.569 1.2066 1.7228 1.8798 0.0615 0.28481-0.0461 0.8907-0.2256 1.2532-0.17946 0.35732-0.82549 0.99945-1.2459 1.2377-0.58963 0.33659-0.62552 0.36248-0.68705 0.49194-0.15895 0.35214 0.55374 2.4339 1.3126 3.8528 0.51273 0.95801 0.55887 0.98908 1.287 0.75087 0.54861-0.18125 1.3126-0.22785 1.7484-0.0984 0.86651 0.24856 1.3895 0.9632 1.4408 1.9678 0.0256 0.46606 0 0.64213-0.25124 1.5121-0.0974 0.3366-0.0205 0.47123 0.39481 0.72498 0.52811 0.32625 1.6202 0.85962 2.1945 1.0719 0.56913 0.2175 1.6869 0.54891 1.8304 0.54891 0.20509 0 0.35378-0.12429 0.51273-0.43498 0.39992-0.76641 0.90752-1.3205 1.4561-1.5794 0.4307-0.20196 0.62041-0.22785 1.0306-0.13463 0.82036 0.19159 1.4408 0.72498 1.9381 1.6675 0.31276 0.58516 0.34865 0.59552 1.1895 0.3832 0.8101-0.20714 1.451-0.44018 2.2201-0.81302 0.65629-0.31589 1.3792-0.74051 1.5177-0.89587 0.1128-0.12429 0.0974-0.36766-0.0718-0.9632-0.30251-1.103-0.0359-2.2008 0.67167-2.7187 0.39993-0.29 0.72807-0.38321 1.3536-0.37802 0.46146 0 0.64604 0.0258 1.0152 0.13463 0.55888 0.17608 0.72295 0.17608 0.87164 0.0155 0.15895-0.1709 0.75371-1.2998 1.0101-1.9109 0.39993-0.95802 0.7691-2.1646 0.7691-2.5219-5e-3 -0.24339-0.0615-0.31071-0.5076-0.54891-0.74859-0.39874-1.3998-1.16-1.5382-1.7969-0.0718-0.30035 0.0308-0.84409 0.23073-1.2428 0.17433-0.34694 0.82549-0.99425 1.2408-1.2273 0.58964-0.3366 0.62553-0.36248 0.68706-0.49194 0.0513-0.1088 0.0359-0.22786-0.0615-0.63696-0.27175-1.1548-0.84087-2.5633-1.4356-3.5576-0.36916-0.61106-0.42043-0.63177-1.1024-0.40393-0.52811 0.17608-1.4305 0.20197-1.851 0.0518-0.82036-0.28998-1.2869-0.96319-1.3382-1.9264-0.0256-0.46606 0-0.64731 0.24611-1.5069 0.0974-0.33144 0.0359-0.46607-0.32814-0.6991-1.2049-0.78713-3.9121-1.7969-4.3172-1.6105-0.12818 0.0622-0.15382 0.0984-0.48709 0.69392-0.0974 0.18124-0.35379 0.50231-0.564 0.7198-0.3948 0.40392-0.74346 0.62659-1.1229 0.71463-0.27687 0.0621-0.88189-0.0466-1.2203-0.2175-0.49735-0.25892-1.087-0.91141-1.4203-1.5742-0.14869-0.30035-0.29738-0.42981-0.49221-0.42464-0.0718 0-0.41019 0.0828-0.75371 0.17608zm0.70757 1.1807c0.61014 1.0512 1.651 1.7141 2.7892 1.7814 0.41018 0.0259 0.5076 0.0102 0.87163-0.1088 0.75371-0.25892 1.4767-0.87516 1.9279-1.6416l0.20509-0.34695 0.58451 0.17607c0.31789 0.0984 0.83062 0.27963 1.1382 0.41427 0.51273 0.2175 1.5023 0.73016 1.5023 0.7716 0 0.0102-0.0359 0.17606-0.082 0.37283-0.10767 0.44017-0.11793 1.4344-0.0256 1.828 0.14869 0.60069 0.47171 1.1652 0.9024 1.5639 0.22561 0.20714 0.78448 0.49195 1.1588 0.59552 0.42556 0.11392 1.369 0.1088 1.8817-5e-3 0.20509-0.0466 0.38455-0.0828 0.3948-0.0828 0.0513 0 0.61015 1.1289 0.82036 1.6519 0.23073 0.58517 0.48709 1.4034 0.48709 1.5587 0 0.0415-0.14356 0.16054-0.32301 0.2641-0.7332 0.43499-1.3741 1.2169-1.61 1.9523-0.15381 0.48679-0.20509 1.1341-0.11792 1.5173 0.1692 0.75087 0.75883 1.5536 1.5279 2.0714 0.21535 0.145 0.39993 0.26928 0.41019 0.27446 0.0308 0.0311-0.31277 1.0875-0.50248 1.5535-0.2256 0.54373-0.66142 1.4448-0.77934 1.6002-0.0667 0.0932-0.0923 0.0932-0.46658 0.0155-0.49735-0.10356-1.3946-0.10356-1.8253-5e-3 -1.0665 0.25374-1.8509 1.0771-2.0817 2.175-0.12305 0.60069-0.0718 1.7089 0.10254 2.1542 0.0615 0.16573-1.4869 0.9166-2.6098 1.2584l-0.55887 0.17089-0.29738-0.45053c-0.73833-1.1134-1.7433-1.7089-2.8867-1.7089-0.92291 0-1.9894 0.6939-2.5944 1.6934-0.13332 0.21749-0.26662 0.37803-0.31277 0.37803-0.30251 0-2.5944-0.96319-3.061-1.2842-0.0513-0.0362-0.0462-0.11392 0.0205-0.40393 0.10767-0.44534 0.11792-1.4396 0.0256-1.8332-0.20509-0.84927-0.75371-1.5898-1.4356-1.9419-0.72807-0.36768-1.8202-0.42983-2.8046-0.15018-0.0872 0.0258-0.14356-0.0466-0.38967-0.53338-0.45633-0.88034-1.0152-2.351-1.0152-2.6462 0-0.0518 0.12818-0.16052 0.32302-0.27445 0.72807-0.43499 1.3433-1.1755 1.6048-1.9368 0.18971-0.55927 0.20509-1.393 0.0359-1.8539-0.25124-0.6732-0.91266-1.4396-1.5895-1.8435-0.2256-0.12946-0.32302-0.2175-0.32302-0.29 0-0.37284 1.0665-2.931 1.3023-3.1278 0.0513-0.0415 0.16407-0.0362 0.42044 0.0258 0.44094 0.10356 1.4305 0.11917 1.815 0.0259 1.0767-0.2641 1.8561-1.0357 2.1278-2.1024 0.0974-0.38838 0.0974-1.3826 0-1.8384-0.041-0.18643-0.0718-0.3625-0.0769-0.39875 0-0.0777 0.69218-0.46087 1.3433-0.75087 0.55887-0.24339 1.61-0.61106 1.7587-0.61106 0.0718 0 0.15895 0.0984 0.28713 0.32625z" fill="#3737c8" stroke-width=".0051528"/>
 <ellipse cx="64.366" cy="80.265" rx="5.0455" ry="4.7146" fill="#3737c8" stroke-width=".19365"/>
 <ellipse cx="64.474" cy="80.307" rx="1.529" ry="1.3941" fill="#8787de" stroke-width=".19365"/>
 <metadata>
  <rdf:RDF>
   <cc:Work rdf:about="">
    <dc:creator>
     <cc:Agent>
      <dc:title>valney felipe</dc:title>
     </cc:Agent>
    </dc:creator>
    <dc:language>english</dc:language>
   </cc:Work>
  </rdf:RDF>
 </metadata>
</svg>
