<svg width="72" height="72" viewBox="0 0 72 72" fill="none" xmlns="http://www.w3.org/2000/svg">
<path d="M43.7748 55.068C43.5103 55.1479 43.2654 55.272 43.0201 55.2731C39.8278 55.2857 36.6356 55.2819 33.4434 55.2797C32.8488 55.2793 32.4152 54.8882 32.3153 54.2761C32.2202 53.6928 32.5723 53.1244 33.0915 53.0359C33.2668 53.0061 33.4453 52.9857 33.6224 52.9855C36.6857 52.9826 39.7491 52.9829 42.8124 52.9845C43.0102 52.9846 43.2089 52.9908 43.4058 53.0106C43.8195 53.0524 44.0748 53.3256 44.1764 53.7635C44.2819 54.2185 44.2682 54.6549 43.8847 54.9681C43.8527 54.9942 43.8243 55.026 43.7748 55.068Z" fill="black"/>
<path d="M43.7748 40.9391C43.5103 41.019 43.2654 41.1431 43.0201 41.1442C39.8278 41.1568 36.6356 41.153 33.4434 41.1508C32.8488 41.1504 32.4152 40.7593 32.3153 40.1472C32.2202 39.5638 32.5723 38.9955 33.0915 38.907C33.2668 38.8772 33.4453 38.8568 33.6224 38.8566C36.6857 38.8536 39.7491 38.854 42.8124 38.8556C43.0102 38.8557 43.2089 38.8619 43.4058 38.8817C43.8195 38.9235 44.0748 39.1967 44.1764 39.6345C44.2819 40.0896 44.2682 40.526 43.8847 40.8392C43.8527 40.8653 43.8243 40.8971 43.7748 40.9391Z" fill="black"/>
<path d="M43.7748 45.7048C43.5103 45.7847 43.2654 45.9089 43.0201 45.9099C39.8278 45.9225 36.6356 45.9187 33.4434 45.9165C32.8488 45.9161 32.4152 45.525 32.3153 44.9129C32.2202 44.3296 32.5723 43.7612 33.0915 43.6727C33.2668 43.6429 33.4453 43.6225 33.6224 43.6223C36.6857 43.6194 39.7491 43.6197 42.8124 43.6213C43.0102 43.6214 43.2089 43.6276 43.4058 43.6475C43.8195 43.6892 44.0748 43.9624 44.1764 44.4003C44.2819 44.8553 44.2682 45.2917 43.8847 45.6049C43.8527 45.631 43.8243 45.6628 43.7748 45.7048Z" fill="black"/>
<path d="M43.7748 50.3023C43.5103 50.3822 43.2654 50.5064 43.0201 50.5074C39.8278 50.52 36.6356 50.5162 33.4434 50.514C32.8488 50.5136 32.4152 50.1225 32.3153 49.5104C32.2202 48.9271 32.5723 48.3587 33.0915 48.2702C33.2668 48.2404 33.4453 48.22 33.6224 48.2198C36.6857 48.2169 39.7491 48.2172 42.8124 48.2188C43.0102 48.2189 43.2089 48.2251 43.4058 48.245C43.8195 48.2867 44.0748 48.5599 44.1764 48.9978C44.2819 49.4528 44.2682 49.8892 43.8847 50.2024C43.8527 50.2285 43.8243 50.2603 43.7748 50.3023Z" fill="black"/>
<path d="M43.142 32.0007C42.1503 32.0005 41.189 31.9665 40.2311 32.0127C39.6477 32.0408 39.1271 31.5789 39.1265 30.9366C39.1259 30.4354 39.4465 29.8951 40.1622 29.8865C41.3859 29.8718 42.6102 29.9187 43.8341 29.9466C44.1978 29.9549 44.3826 30.2352 44.4935 30.5435C44.613 30.8757 44.6226 31.2103 44.3955 31.5356C44.0768 31.9922 43.6488 32.0474 43.142 32.0007Z" fill="black"/>
<path d="M36.0461 58.8961C34.6598 58.895 33.3008 58.8585 31.9451 58.9079C31.2388 58.9337 30.5196 58.3051 30.521 57.5253C30.5367 48.7518 30.531 39.9783 30.5311 31.2047C30.5311 30.7096 30.5503 30.2135 30.5278 29.7193C30.4939 28.9752 31.0475 28.3813 31.8447 28.3831C33.1353 28.386 34.426 28.3844 35.7166 28.3836C38.4224 28.3817 41.128 28.379 43.8337 28.3769C44.1674 28.3767 44.5033 28.3565 44.8344 28.3855C45.257 28.4225 45.637 28.5834 45.8395 28.973C45.9302 29.1476 45.9684 29.3625 45.976 29.5612C45.9934 30.0183 45.9752 30.4766 45.9755 30.9344C45.981 39.5772 45.9879 48.2199 45.9912 56.8625C45.9913 57.2539 46.0003 57.6525 45.9279 58.0338C45.8898 58.2339 45.7164 58.4414 45.5475 58.5793C45.2391 58.8316 44.8599 58.9006 44.4499 58.8995C41.6582 58.8894 38.8665 58.8955 36.0461 58.8961ZM44.0757 44.5722C44.076 44.2961 44.0623 44.0131 43.8148 43.8338C43.5136 43.6157 43.1785 43.4967 42.7844 43.498C39.8014 43.508 36.8184 43.503 33.8354 43.5052C33.6737 43.5053 33.5106 43.5195 33.3508 43.5434C32.7891 43.6275 32.2792 44.3224 32.5352 44.8692C32.7303 45.2859 33.0359 45.5502 33.5059 45.5505C36.6896 45.5527 39.8734 45.552 43.0572 45.5508C43.6839 45.5506 44.0255 45.2357 44.0757 44.5722ZM35.3289 50.3827C37.9099 50.3827 40.4909 50.3846 43.0718 50.3813C43.6784 50.3805 44.0754 49.9699 44.0754 49.3648C44.0754 48.7214 43.7222 48.3632 43.0737 48.3628C39.8905 48.361 36.7072 48.3702 33.5241 48.3528C33.0452 48.3502 32.467 48.7786 32.4539 49.3501C32.4415 49.8889 32.9513 50.3731 33.5222 50.3798C34.1053 50.3866 34.6884 50.3822 35.3289 50.3827ZM33.6771 38.6059C33.3406 38.637 33.0281 38.6639 32.7404 38.916C32.2936 39.3074 32.2151 39.9908 32.6112 40.4389C32.9233 40.792 33.3468 40.8881 33.7635 40.8906C36.8115 40.9094 39.8598 40.9149 42.9076 40.8867C43.4209 40.8819 43.916 40.7162 44.1431 40.1259C44.4076 39.4381 43.891 38.6098 43.1343 38.6091C40.0002 38.6065 36.8661 38.6066 33.6771 38.6059ZM42.0985 53.0166C39.3457 53.0163 36.5929 53.0065 33.8402 53.0279C33.497 53.0306 33.082 53.11 32.828 53.3095C32.3131 53.7137 32.1492 54.1068 32.5215 54.7055C32.6808 54.9618 32.8767 55.2573 33.2847 55.2567C36.6015 55.2515 39.9182 55.2549 43.235 55.2537C43.3287 55.2537 43.4373 55.2568 43.5137 55.2148C44.2189 54.8269 44.491 54.0892 43.9116 53.3954C43.8375 53.3067 43.7287 53.227 43.6193 53.1885C43.1468 53.0223 42.6545 52.9863 42.0985 53.0166ZM39.346 30.3665C39.1121 30.5422 39.1541 30.7938 39.1552 31.0334C39.1572 31.4888 39.7102 32.0351 40.1807 32.0368C41.2314 32.0405 42.2821 32.0415 43.3328 32.0367C43.8718 32.0342 44.4021 31.5244 44.4066 31.0005C44.4122 30.3231 43.8856 29.9109 43.2719 29.8815C42.2714 29.8335 41.2656 29.8438 40.2643 29.8833C39.935 29.8963 39.5679 29.9935 39.346 30.3665Z" fill="#FBFEFE"/>
<path d="M28.4603 48.866C28.4604 42.3534 28.4544 35.869 28.4663 29.3845C28.4684 28.2146 29.0887 27.3664 30.0936 26.7766C30.6721 26.4371 31.318 26.3046 31.9834 26.3037C36.2475 26.2978 40.5118 26.2839 44.7757 26.3147C45.8267 26.3223 46.7337 26.7832 47.3976 27.5984C47.8419 28.144 48.0475 28.801 48.0482 29.4972C48.0532 34.3745 48.0456 39.2519 48.0472 44.1292C48.0486 48.5114 48.0612 52.8936 48.0552 57.2758C48.0546 57.7277 48.005 58.1902 47.9001 58.6298C47.7151 59.4052 47.2301 59.972 46.5284 60.3936C45.8648 60.7923 45.1614 60.8915 44.4023 60.8893C40.1955 60.8764 35.9887 60.8758 31.7819 60.8887C30.647 60.8921 29.7383 60.4525 29.0748 59.5947C28.7016 59.1125 28.4533 58.5412 28.4556 57.8919C28.4661 54.8926 28.4603 51.8933 28.4603 48.866ZM36.0442 58.8972C38.8359 58.8967 41.6277 58.891 44.4193 58.9006C44.8294 58.9023 45.2085 58.8327 45.5169 58.5804C45.6858 58.4425 45.8593 58.2351 45.8973 58.0349C45.9697 57.6536 45.9608 57.255 45.9606 56.8637C45.9573 48.2211 45.9505 39.5783 45.9449 30.9356C45.9446 30.4778 45.9629 30.0195 45.9454 29.5624C45.9379 29.3638 45.8997 29.1488 45.809 28.9742C45.6065 28.5846 45.2265 28.4237 44.8039 28.3867C44.4727 28.3577 44.1369 28.3779 43.8032 28.3782C41.0975 28.3801 38.3918 28.3829 35.6861 28.3847C34.3954 28.3856 33.1048 28.3872 31.8141 28.3844C31.017 28.3826 30.4633 28.9764 30.4972 29.7205C30.5197 30.2147 30.5006 30.7107 30.5006 31.206C30.5004 39.9795 30.5061 48.7531 30.4905 57.5264C30.489 58.3063 31.2083 58.9348 31.9145 58.9095C33.2702 58.8596 34.6292 58.8967 36.0442 58.8972Z" fill="black"/>
<path d="M28.0667 12.8726L26.3042 16.1829L26.1867 16.2951L25.9517 16.3793L25.7168 16.4354L25.5111 16.3793L25.2762 16.3232L25.0412 16.1829L23.6312 15.0889L22.4857 14.4717L21.252 14.135H19.6658L18.344 14.3034L17.5802 14.4717L16.3172 15.201L14.966 16.3513L14.1141 17.6417L13.6148 19.4371V20.6887L13.6735 21.2887L13.7617 21.7375L13.6148 22.1583L13.2623 22.495L11.7936 22.8597L10.0018 23.5049L8.85625 24.1501L7.06446 25.6089L5.83076 27.0396L5.06704 28.3301L4.59707 29.5083L4.24458 30.7147L4.06834 31.7526V33.3236L4.24458 34.7263L4.92018 36.7742L5.80139 38.3452L6.97634 39.7479L8.62126 41.0944L10.8243 42.1604L12.058 42.5252L13.5854 42.7496H16.0822H22.8088H24.6006C24.6945 42.7496 24.9139 42.8431 25.0118 42.8899C25.1097 42.9647 25.329 43.1592 25.423 43.3387C25.5405 43.5631 25.5111 43.5351 25.5405 43.8437C25.564 44.0905 25.3936 44.3393 25.3055 44.4328L24.7474 44.7414L24.1893 44.7975H15.3478H12.9979L11.3236 44.5169C11.0495 44.4235 10.2956 44.1411 9.4731 43.7595C8.65064 43.378 8.05335 43.0582 7.85755 42.9459L6.33011 41.908L4.80268 40.4211L3.2165 38.0646L2.42341 36.2412L2.01218 34.6702L1.83594 32.482L2.01218 30.2097L2.51153 28.3301L3.09901 27.1518L5.0083 24.6831L6.74135 23.056L9.26748 21.6814L11.118 21.0362L11.4118 20.8959L11.4705 20.6995L11.4118 20.1946V19.6616C11.4411 19.3904 11.5116 18.7582 11.5586 18.3992C11.6056 18.04 11.8524 17.4827 11.9699 17.2489L12.8804 15.7621L14.6135 13.9386L15.9353 13.125L17.404 12.564L19.6364 12.2554L21.8101 12.3957L23.3669 12.8726L24.4831 13.4336L25.0412 13.7984H25.3055L25.4524 13.5179L26.0399 12.3957L27.1267 10.9088L28.6835 9.39396L29.8584 8.38403L32.5315 6.84107L35.0576 5.97141L38.23 5.55063H40.2567L43.0472 5.97141L45.9259 6.86916L47.4533 7.68269L48.5989 8.49627L48.9807 8.80481L50.9781 10.6283L52.1825 12.059L53.1224 13.63L53.5043 14.4436L53.7099 15.0327L54.4149 17.1087L54.6205 18.3711L54.6792 18.6236L54.738 18.8199L54.7086 19.0724V19.2688L54.738 19.6054V20.0823V20.4751V20.6434L54.7674 20.7837L54.7967 20.8959L54.8555 20.9801L54.973 21.0923L55.2667 21.1484L55.5017 21.1203L56.2948 21.4289L58.7033 22.6633L59.4377 23.1402L60.1427 23.6732L60.6419 24.1501L61.7583 25.4405L62.8156 27.3201L63.5207 28.7789L63.9613 30.1535L64.1667 31.1635L64.2551 31.6685V32.4259V32.9589L64.1667 33.8566L63.9028 35.1471L63.5207 36.4936L63.1977 37.4755L62.7864 38.2891L61.5822 40.1125L61.0532 40.6736L59.9666 41.7116L58.5564 42.7776L56.8823 43.5912L55.7367 44.04L55.208 44.2364L53.6805 44.545L52.4468 44.6572L51.2719 44.7414L50.4788 44.6572L50.1263 44.3767L49.8619 44.04L49.7738 43.7314L49.8619 43.479L50.1263 43.0862L50.4788 42.9459L53.6805 42.7776L56.8823 41.7116L60.3481 39.0465L61.5529 36.4936L61.8759 35.7081L62.2872 33.5481V32.5662L62.1989 31.6685V31.0232L62.052 30.378L61.7583 29.312L61.4938 28.5825L61.0825 27.8532L60.8478 27.4884L60.6717 27.236L60.6419 27.1799L60.6126 27.1238L60.495 26.9835L60.3189 26.703L60.1427 26.4505L60.0251 26.2822L59.9374 26.17L59.8783 26.1139L59.6436 25.9455L59.5553 25.8614V25.8333C59.487 25.7679 59.273 25.5528 58.9678 25.2162C58.6626 24.8795 58.6253 24.9076 58.6448 24.9636L57.9982 24.4587L57.8514 24.4026L57.7636 24.3465L57.7343 24.3184L57.646 24.1501L57.4991 24.066L57.0585 23.7854L56.0892 23.3085L55.3548 23.028L54.7086 22.8316L53.9449 22.6633L53.4749 22.495L53.2693 22.3827L52.9462 22.1302L52.8581 21.9058L52.8287 21.6814L52.8581 21.2326V19.8579L52.6231 17.7539L52.3293 16.5756L51.6831 15.0327L51.1838 13.9948L49.8326 12.1432L48.1289 10.4881L46.3371 9.22565L45.1915 8.60846L44.4278 8.41206L42.4304 7.76684L40.7855 7.51437L38.5237 7.40218L36.7906 7.68269L34.7639 8.15959L31.9146 9.39396L29.9172 10.9088L28.0667 12.8726Z" fill="black" stroke="black"/>
</svg>
