<svg width="72" height="72" viewBox="0 0 72 72" fill="none" xmlns="http://www.w3.org/2000/svg">
<mask id="mask0_52_784" style="mask-type:luminance" maskUnits="userSpaceOnUse" x="8" y="14" width="56" height="52">
<path d="M63.3735 14.5956H8.62695V65.9059H63.3735V14.5956Z" fill="white"/>
</mask>
<g mask="url(#mask0_52_784)">
<path d="M61.7566 57.7431C61.7578 57.921 61.7575 58.0708 61.7576 58.2528C61.7478 58.5877 61.7375 58.8903 61.7161 59.2281C61.6863 59.4377 61.6678 59.6122 61.6478 59.8138C61.4147 60.4582 61.204 61.079 60.8295 61.5992C60.4776 62.0881 60.0733 62.4446 59.6236 62.7383C59.5113 62.8116 59.394 62.872 59.2619 62.9497C59.0909 63.0039 58.937 63.0467 58.7631 63.0987C58.5072 63.1313 58.2711 63.1548 58.0118 63.1809C57.8906 63.1579 57.7926 63.1323 57.6726 63.1063C57.4689 63.0586 57.2873 63.011 57.0841 62.9643C56.9795 62.9214 56.8965 62.8776 56.7947 62.8276C56.6281 62.7281 56.4802 62.6346 56.3128 62.5407C56.2304 62.4952 56.1675 62.4503 56.0873 62.3982C55.9383 62.2512 55.8065 62.1114 55.6557 61.9707C55.5912 61.9042 55.5457 61.8385 55.4846 61.7625C55.3555 61.5889 55.2418 61.4255 55.1092 61.2612C55.0448 61.1946 54.9993 61.1289 54.9383 61.053C54.8091 60.8793 54.6954 60.7159 54.5629 60.5516C54.4984 60.485 54.453 60.4193 54.392 60.3434C54.2628 60.1697 54.1491 60.0063 54.0165 59.842C53.9521 59.7754 53.9067 59.7097 53.8456 59.6338C53.7164 59.4602 53.6027 59.2967 53.4701 59.1324C53.4058 59.0658 53.3603 59.0001 53.2993 58.9242C53.1701 58.7506 53.0564 58.5871 52.9238 58.4228C52.8594 58.3562 52.8139 58.2905 52.7529 58.2146C52.6237 58.041 52.51 57.8775 52.3774 57.7132C52.313 57.6466 52.2676 57.5809 52.2066 57.505C52.0774 57.3314 51.9637 57.1679 51.8311 57.0036C51.7667 56.937 51.7212 56.8713 51.6602 56.7954C51.531 56.6218 51.4173 56.4583 51.2847 56.2941C51.2203 56.2274 51.1749 56.1617 51.1139 56.0858C50.9846 55.9122 50.871 55.7487 50.7383 55.5845C50.674 55.5179 50.6286 55.4521 50.5675 55.3763C50.4383 55.2026 50.3247 55.0391 50.192 54.8749C50.1277 54.8083 50.0822 54.7425 50.0212 54.6667C49.892 54.493 49.7783 54.3295 49.6457 54.1653C49.5813 54.0987 49.5358 54.033 49.4748 53.9571C49.3456 53.7834 49.2319 53.62 49.0994 53.4557C49.0349 53.3891 48.9895 53.3234 48.9285 53.2475C48.7993 53.0738 48.6856 52.9104 48.553 52.7461C48.4886 52.6795 48.4431 52.6138 48.3821 52.5379C48.2529 52.3642 48.1392 52.2008 48.0066 52.0365C47.9423 51.9699 47.8968 51.9042 47.8358 51.8283C47.7065 51.6546 47.5929 51.4912 47.4603 51.3269C47.3959 51.2603 47.3504 51.1946 47.2894 51.1187C47.1602 50.945 47.0466 50.7816 46.9139 50.6173C46.8495 50.5507 46.804 50.485 46.7431 50.4091C46.6139 50.2354 46.5002 50.072 46.3676 49.9077C46.3032 49.8412 46.2577 49.7754 46.1967 49.6995C46.0675 49.5258 45.9538 49.3624 45.8212 49.1981C45.7568 49.1316 45.7114 49.0658 45.6504 48.9899C45.5211 48.8162 45.4075 48.6528 45.2749 48.4885C45.2105 48.422 45.165 48.3563 45.104 48.2803C44.9748 48.1066 44.8611 47.9433 44.7285 47.7789C44.6642 47.7124 44.6187 47.6467 44.5576 47.5707C44.4284 47.3971 44.3148 47.2337 44.1821 47.0694C44.2984 46.8953 44.4295 46.7159 44.5704 46.5508C44.6552 46.4515 44.7555 46.3745 44.8766 46.2546C44.9406 46.195 44.9769 46.1681 45.0131 46.1411C45.0131 46.1411 45.0302 46.1243 45.049 46.1026C46.376 44.9374 47.4552 43.4971 48.3458 41.8128C48.3458 41.8128 48.3629 41.7958 48.3784 41.7681C48.4139 41.6926 48.434 41.6449 48.454 41.5973C48.6236 41.2127 48.7932 40.8282 48.9661 40.4174C49.0307 40.3039 49.092 40.2166 49.168 40.1179C49.2471 40.1503 49.3115 40.194 49.3929 40.2459C49.5237 40.4176 49.6373 40.5811 49.7699 40.7453C49.8343 40.8119 49.8798 40.8776 49.9408 40.9535C50.07 41.1272 50.1837 41.2906 50.3163 41.4549C50.3806 41.5215 50.4261 41.5872 50.4872 41.6631C50.6163 41.8368 50.73 42.0002 50.8626 42.1645C50.927 42.2311 50.9725 42.2968 51.0335 42.3727C51.1627 42.5463 51.2764 42.7098 51.4089 42.8741C51.4734 42.9407 51.5188 43.0064 51.5798 43.0823C51.709 43.2559 51.8227 43.4194 51.9553 43.5837C52.0197 43.6503 52.0652 43.716 52.1262 43.7919C52.2554 43.9655 52.3691 44.129 52.5017 44.2933C52.5661 44.3599 52.6115 44.4256 52.6725 44.5015C52.8018 44.6751 52.9154 44.8386 53.048 45.0029C53.1124 45.0695 53.1579 45.1352 53.2189 45.2111C53.3481 45.3847 53.4618 45.5482 53.5944 45.7124C53.6588 45.779 53.7043 45.8448 53.7653 45.9206C53.8944 46.0943 54.0081 46.2578 54.1407 46.422C54.2052 46.4886 54.2506 46.5544 54.3116 46.6302C54.4408 46.8039 54.5545 46.9673 54.6871 47.1316C54.7515 47.1982 54.7969 47.2639 54.8579 47.3398C54.9872 47.5135 55.1008 47.6769 55.2334 47.8412C55.2978 47.9078 55.3433 47.9735 55.4043 48.0494C55.5335 48.2231 55.6472 48.3865 55.7798 48.5508C55.8441 48.6174 55.8896 48.6831 55.9507 48.759C56.0799 48.9327 56.1935 49.0961 56.3261 49.2604C56.3905 49.327 56.436 49.3927 56.497 49.4686C56.6262 49.6423 56.7399 49.8057 56.8725 49.97C56.9369 50.0366 56.9824 50.1023 57.0434 50.1782C57.1725 50.3519 57.2863 50.5153 57.4188 50.6796C57.4832 50.7462 57.5287 50.8119 57.5897 50.8878C57.7189 51.0615 57.8326 51.2249 57.9652 51.3892C58.0296 51.4557 58.075 51.5215 58.136 51.5974C58.2653 51.7711 58.3789 51.9345 58.5116 52.0988C58.5759 52.1653 58.6214 52.2311 58.6824 52.307C58.8116 52.4807 58.9253 52.6441 59.0579 52.8084C59.1223 52.8749 59.1678 52.9406 59.2288 53.0166C59.358 53.1903 59.4716 53.3537 59.6042 53.518C59.6686 53.5845 59.7141 53.6502 59.7751 53.7262C59.9043 53.8998 60.018 54.0633 60.1506 54.2276C60.215 54.2941 60.2605 54.3598 60.3214 54.4358C60.4507 54.6094 60.5644 54.7729 60.6969 54.9372C60.7613 55.0037 60.8068 55.0694 60.8678 55.1454C60.9789 55.3418 61.0744 55.5281 61.1888 55.7164C61.238 55.8039 61.2684 55.8893 61.3113 55.9921C61.3891 56.2051 61.4543 56.4006 61.5286 56.6175C61.5688 56.7461 61.5997 56.8532 61.6403 56.9813C61.685 57.2399 61.72 57.4775 61.7566 57.7431Z" fill="black"/>
<path fill-rule="evenodd" clip-rule="evenodd" d="M36.1266 24.6982L37.1871 24.4323L37.7427 24.3659H38.0963L38.5761 24.3991L39.0306 24.4656L39.3084 24.532L39.7376 24.665L40.2427 24.8976L40.6972 25.1634L41.278 25.6619L41.581 25.9942L41.9598 26.5259L42.2628 27.0577L42.5911 27.8884L42.7931 28.5531L42.9194 29.1845L42.9951 29.8491L43.0204 30.6135L42.9951 31.4111L42.9447 32.0757L42.8689 32.8068L42.7426 33.5711L42.5154 34.5016L42.2123 35.4654L42.0356 35.8974L41.7073 36.6285L41.5305 36.9608L41.177 37.5258L40.571 38.2901L40.0154 38.855L39.4346 39.287L38.9295 39.5861L38.071 39.9849L37.4144 40.1511L36.4549 40.2508L35.773 40.2176L35.0913 40.0846L34.2579 39.7523L33.9044 39.5529L33.1721 38.988L32.7933 38.5892L32.4145 38.0243L32.0357 37.2932L31.7327 36.3958L31.5307 35.4654L31.455 34.6346L31.4297 33.9035V33.3385L31.4802 32.84L31.5559 32.1754L31.6822 31.2781L31.8337 30.4473L31.9347 30.0817L32.162 29.3506L32.4398 28.6195L32.667 28.121L33.0206 27.4897L33.4498 26.8583L33.9802 26.2268L34.5609 25.6619L35.47 25.0471L36.1266 24.6982ZM35.4195 30.0153L35.3185 30.248L35.1653 30.68C35.1575 30.7021 35.1215 30.8195 35.0407 31.112C34.9599 31.4044 34.9398 31.544 34.9398 31.5772L34.8135 32.1754L34.7377 32.8733L34.6872 33.3718L34.662 33.9699C34.662 34.0364 34.667 34.2358 34.6872 34.5016C34.7074 34.7675 34.7462 34.9226 34.763 34.9669L34.9145 35.4654L35.167 35.9306L35.2932 36.0968L35.5205 36.2962L35.9498 36.4956L36.2781 36.5621L36.5054 36.5952L37.0862 36.5288L37.5407 36.3626L38.0963 35.9971L38.4498 35.5983L38.778 35.133L39.0306 34.6346L39.2326 34.1361L39.4346 33.4714L39.5861 32.7403L39.6619 32.1422L39.7376 31.5772L39.7629 30.7132L39.7376 30.1482L39.6872 29.7827L39.6114 29.4836L39.5356 29.1845L39.4346 28.9519L39.3336 28.7857L39.1568 28.5531L39.0053 28.3869L38.8286 28.2873L38.5761 28.1543L38.3235 28.0879L38.0963 28.0546H37.97H37.768L37.4397 28.0879L37.1871 28.1543L36.9346 28.254L36.6064 28.4534L36.2276 28.7525L35.9498 29.0848L35.6215 29.6165L35.4195 30.0153Z" fill="black"/>
<path d="M30.9501 24.5652L30.5209 27.9549H25.2431L24.9149 30.6135H29.7633L29.334 34.0031L24.4856 34.0364L24.1573 36.6617H29.4098L28.9805 40.0514H20.521L22.4654 24.5652H30.9501Z" fill="black" stroke="black"/>
<path d="M20.0159 29.5501L16.8593 29.5833V29.1513L16.7583 28.6528L16.4805 28.2208L16.0765 27.9881L15.622 27.8884H15.2179L14.8392 27.9217L14.2583 28.2208L14.0564 28.4534L13.8543 28.8521L13.7785 29.2177V29.5168L13.8543 29.7827L14.1826 30.1815L14.8392 30.5138L16.7078 31.0787L17.5159 31.4443L18.3239 32.0424L18.8037 32.6074L19.1825 33.405L19.3088 33.7705L19.4098 34.3022L19.435 34.7675V35.1995L19.334 36.2297L19.1067 37.1602L18.7785 37.9578L18.4754 38.4563L18.0714 38.988L17.1371 39.7855L16.127 40.3505L15.3947 40.5499L14.8139 40.6496L13.9553 40.716H13.3745L12.8442 40.6496L12.2382 40.5166L11.6574 40.3172L11.0514 40.0181L10.7483 39.7855L10.3443 39.42L10.0412 39.0544L9.78875 38.5892L9.61197 38.1904L9.38468 37.3596L9.33422 37.0273L9.30895 36.8279L9.28369 36.5621V36.263V35.698L9.33422 35.1995L9.35942 34.9004H12.4655V35.133V35.4654L12.5159 35.7977L12.617 36.13L12.7685 36.4291L12.9453 36.6617L13.1725 36.8611L13.5008 37.0273L13.93 37.1269H14.4098L14.8644 37.0605L15.2432 36.9276L15.5462 36.7282L15.7735 36.4623L15.9503 36.0968L16.0007 35.8974L16.026 35.4986L15.9503 35.2327L15.824 35.0001L15.6472 34.834L15.3694 34.6678L15.1169 34.5349L14.6119 34.3355L13.7281 34.0696L12.617 33.704L12.2887 33.5379L11.6321 33.1391L11.1523 32.7071L10.9251 32.408L10.6978 32.0757L10.4958 31.5772L10.3695 31.112L10.319 30.547V29.8824L10.42 29.0516L10.5716 28.3205L11.1776 26.9912L11.8089 26.0939L12.6674 25.3628L13.93 24.6982L15.1422 24.3659H16.2028L17.1876 24.4987L17.9452 24.7979L18.5007 25.097L19.334 25.961L19.6876 26.6257L20.0159 27.7223L20.0663 28.5864L20.0159 29.5501Z" fill="black" stroke="black"/>
<path d="M27.4549 21.1942C27.3075 21.1953 27.1862 21.1949 27.0388 21.1952C26.786 21.1947 26.5591 21.1938 26.3062 21.1941C26.2084 21.1533 26.1366 21.1111 26.0513 21.0505C26.7742 20.1025 27.5109 19.173 28.2638 18.2314C28.5198 18.0273 28.7596 17.8356 28.9989 17.643C29.1519 17.5199 29.3041 17.3956 29.49 17.2439C29.5613 17.1881 29.5992 17.1602 29.637 17.1322C29.637 17.1322 29.6408 17.1336 29.6402 17.1352C30.1132 16.8055 30.5867 16.4741 31.0773 16.1304C31.2961 16.0278 31.4979 15.9374 31.7351 15.8351C31.7966 15.8011 31.8226 15.7789 31.8485 15.7568C31.8485 15.7568 31.8439 15.7563 31.8431 15.7591C32.1728 15.6223 32.5033 15.4829 32.8522 15.3311C33.0371 15.2734 33.2036 15.228 33.3859 15.1779C33.709 15.0856 34.0163 14.998 34.3435 14.8971C34.5054 14.8614 34.6475 14.8391 34.8134 14.8137C35.1041 14.764 35.371 14.7174 35.6613 14.6684C35.806 14.6662 35.9273 14.6665 36.0746 14.6663C36.3484 14.6433 36.5963 14.6208 36.8678 14.5956C36.9955 14.6166 37.0994 14.6404 37.2262 14.6649C37.476 14.6666 37.7029 14.6676 37.9558 14.6672C38.0863 14.6877 38.1908 14.7095 38.3177 14.7348C38.5505 14.763 38.7607 14.7879 38.9955 14.8108C39.1229 14.8336 39.2255 14.8584 39.3512 14.8833C39.5652 14.9305 39.7561 14.9775 39.9706 15.0218C40.0777 15.0467 40.1613 15.0745 40.2668 15.1041C40.4822 15.178 40.6757 15.2501 40.8927 15.3206C40.9965 15.3658 41.077 15.4126 41.1763 15.4643C41.3741 15.5408 41.5531 15.6125 41.7548 15.6828C41.8443 15.7264 41.911 15.7715 41.9959 15.8239C42.1887 15.926 42.3632 16.0208 42.5593 16.1143C42.6476 16.159 42.7146 16.205 42.7998 16.2585C42.9746 16.3783 43.131 16.4907 43.3056 16.6121C43.4061 16.6667 43.4884 16.7122 43.5889 16.7654C43.7496 16.8855 43.8921 16.998 44.0524 17.1195C44.1379 17.1733 44.2053 17.2182 44.2908 17.2714C44.4656 17.398 44.6226 17.5163 44.8005 17.6359C44.8695 17.7044 44.9173 17.7715 44.9815 17.849C45.1375 17.9955 45.2771 18.1316 45.4345 18.277C45.516 18.3551 45.5796 18.4238 45.6597 18.5022C45.7999 18.65 45.9236 18.7883 46.0659 18.9332C46.1344 19.0058 46.1843 19.0717 46.2488 19.1514C46.3836 19.3262 46.5038 19.4873 46.6416 19.6572C46.7081 19.7315 46.757 19.7969 46.8206 19.8755C46.956 20.0494 47.0767 20.2103 47.215 20.3794C47.283 20.4541 47.3334 20.5206 47.3983 20.601C47.5144 20.7766 47.6158 20.9383 47.7339 21.1117C47.8004 21.2097 47.85 21.2961 47.9141 21.3968C48.0295 21.5953 48.1303 21.7795 48.2489 21.9724C48.2998 22.0682 48.3328 22.1554 48.3773 22.2619C48.4893 22.4653 48.5899 22.6494 48.7084 22.842C48.7599 22.9383 48.7936 23.0259 48.8373 23.1344C48.9306 23.3402 49.014 23.525 49.1126 23.7259C49.1625 23.8456 49.1971 23.9494 49.2402 24.0748C49.3314 24.3011 49.414 24.5057 49.5134 24.7223C49.562 24.8223 49.5938 24.9103 49.6385 25.0163C49.7148 25.2632 49.778 25.4919 49.858 25.7347C49.9059 25.8363 49.937 25.9239 49.9808 26.0294C50.0391 26.2802 50.0847 26.5128 50.146 26.7641C50.1929 26.8877 50.2242 26.9929 50.2681 27.1163C50.3253 27.3887 50.3699 27.6429 50.432 27.9115C50.4645 28.0319 50.4794 28.138 50.5023 28.2689C50.5364 28.5491 50.5627 28.8044 50.605 29.0803C50.6367 29.2262 50.6523 29.3513 50.6761 29.5016C50.7024 29.7922 50.7206 30.0578 50.7399 30.3539C50.7567 30.5164 50.7723 30.6485 50.7931 30.8084C50.7977 31.1226 50.797 31.4089 50.7975 31.7281C50.7982 31.914 50.7978 32.067 50.7979 32.2528C50.7977 32.5719 50.797 32.8582 50.7974 33.1773C50.7983 33.364 50.798 33.5177 50.7984 33.7043C50.7598 34.0726 50.7208 34.4079 50.6828 34.7738C50.6645 34.9831 50.6452 35.1618 50.6259 35.3712C50.567 35.7415 50.5082 36.081 50.4481 36.4511C50.4469 36.4815 50.4511 36.4795 50.4367 36.4878C50.4137 36.5359 50.405 36.5755 50.3963 36.6151C50.3585 36.8179 50.3207 37.0207 50.2812 37.2525C50.1643 37.6966 50.0489 38.1117 49.9317 38.5547C49.9298 38.5829 49.9341 38.5808 49.9201 38.5885C49.8982 38.6346 49.8903 38.6728 49.8825 38.711C49.8054 38.9641 49.7283 39.2172 49.6493 39.4985C49.4558 39.9598 49.2637 40.3925 49.0729 40.8261C48.9956 41.0019 48.9213 41.18 48.8422 41.3828C48.8388 41.4086 48.8431 41.4066 48.8288 41.4161C48.8051 41.4675 48.7959 41.5092 48.7866 41.5509C48.5403 42.0185 48.2941 42.486 48.0436 42.979C47.1895 44.0824 46.3396 45.1604 45.4571 46.259C45.3884 46.3343 45.3523 46.389 45.3162 46.4435C45.3162 46.4435 45.3182 46.4406 45.3196 46.4413C45.0674 46.6169 44.8123 46.7884 44.561 46.9684C44.4628 47.0388 44.3732 47.1284 44.2479 47.2378C44.1873 47.319 44.1585 47.3716 44.1298 47.4242C44.1298 47.4242 44.1341 47.4252 44.1348 47.4226C43.9767 47.5091 43.8143 47.5895 43.6596 47.6889C43.3305 47.9003 43.0053 48.1218 42.6619 48.3519C42.4384 48.4556 42.2317 48.5463 42.0108 48.6451C41.6329 48.8147 41.2692 48.9764 40.8864 49.1507C40.6838 49.2318 40.5002 49.3003 40.296 49.3776C39.9673 49.472 39.6591 49.5577 39.3317 49.6556C39.1884 49.6694 39.0645 49.6709 38.922 49.6734C38.6365 49.7206 38.3695 49.7669 38.0776 49.8145C37.9105 49.8359 37.7681 49.8557 37.6027 49.8822C37.3528 49.8877 37.1259 49.8867 36.8729 49.887C36.7255 49.8881 36.6042 49.8878 36.4569 49.8881C36.2218 49.8638 36.0126 49.8388 35.7795 49.8149C35.6352 49.8151 35.5147 49.8142 35.3683 49.8137C35.1508 49.7678 34.9591 49.7218 34.7447 49.6735C34.6173 49.6506 34.5126 49.6301 34.3857 49.6041C34.1723 49.5518 33.9811 49.505 33.7677 49.456C33.6462 49.4294 33.5467 49.4049 33.4255 49.3777C33.2258 49.3056 33.0476 49.2363 32.8478 49.1657C32.7419 49.14 32.6576 49.1155 32.5517 49.0886C32.3546 48.9924 32.1791 48.8986 31.9823 48.8043C31.878 48.7783 31.795 48.7527 31.6903 48.7255C31.5115 48.6113 31.3543 48.4988 31.1787 48.3771C31.0763 48.3432 30.9921 48.3185 30.8863 48.2914C30.7077 48.1711 30.5508 48.0531 30.3734 47.9346C30.2859 47.888 30.2188 47.842 30.1335 47.7884C29.959 47.6623 29.8028 47.5438 29.626 47.4246C29.5399 47.3777 29.4745 47.3313 29.3903 47.2798C29.2335 47.1327 29.0954 46.9908 28.9372 46.8482C28.8515 46.8002 28.7858 46.753 28.7013 46.7003C28.5442 46.5522 28.4059 46.4094 28.2473 46.2658C28.1786 46.1977 28.1304 46.1305 28.0657 46.0528C27.9114 45.8995 27.7736 45.7566 27.6155 45.6133C27.5474 45.5457 27.4996 45.4786 27.4355 45.401C27.2984 45.2297 27.1776 45.0688 27.0392 44.8988C26.971 44.8225 26.9205 44.7552 26.8541 44.6759C26.7209 44.4977 26.6036 44.3315 26.4665 44.1644C26.3989 44.0965 26.3511 44.0294 26.2869 43.9519C26.2207 43.7943 26.1708 43.647 26.0986 43.434C26.2784 43.434 26.4485 43.434 26.6435 43.4326C26.7898 43.4316 26.9112 43.4319 27.0585 43.4317C27.3113 43.4321 27.5381 43.433 27.7911 43.4326C27.9384 43.4316 28.0597 43.4319 28.2071 43.4317C28.4599 43.4321 28.6867 43.433 28.9396 43.4326C29.0869 43.4316 29.2083 43.4319 29.3556 43.4316C29.6084 43.4321 29.8352 43.433 30.0882 43.4326C30.2355 43.4316 30.3568 43.4319 30.5042 43.4317C30.757 43.4321 30.9838 43.433 31.2367 43.4326C31.384 43.4316 31.5054 43.4319 31.6527 43.4317C31.8715 43.4727 32.0642 43.5144 32.277 43.5654C32.3812 43.6199 32.4654 43.6652 32.5681 43.7183C32.7452 43.8209 32.9037 43.9157 33.0836 44.0092C33.1855 44.056 33.2663 44.1041 33.366 44.1571C33.564 44.2342 33.743 44.3065 33.9447 44.3766C34.0533 44.4197 34.139 44.4648 34.2451 44.5136C34.4385 44.583 34.6117 44.6488 34.8044 44.7248C34.9282 44.757 35.0325 44.779 35.1593 44.8043C35.3918 44.8333 35.6019 44.8589 35.8372 44.8829C35.9648 44.905 36.0672 44.9287 36.1925 44.9526C36.4423 44.9538 36.6692 44.9548 36.9222 44.9544C37.0696 44.9532 37.1908 44.9535 37.3381 44.9532C37.6343 44.914 37.9046 44.8754 38.2197 44.8239C38.4051 44.7857 38.5456 44.7602 38.7094 44.7361C39.0376 44.6402 39.3426 44.543 39.6699 44.4421C39.9092 44.3448 40.1261 44.2512 40.3644 44.1559C40.8301 43.8658 41.2744 43.5774 41.7396 43.2847C42.091 43.0314 42.4215 42.7825 42.7702 42.5178C42.8266 42.4746 42.8646 42.4471 42.9124 42.4115C42.9427 42.3747 42.9633 42.3459 43.0015 42.3029C43.49 41.7343 43.9687 41.19 44.4275 40.6201C44.5773 40.4341 44.6754 40.1817 44.8072 39.9552C44.8295 39.9301 44.8418 39.9093 44.8717 39.8837C44.9047 39.8566 44.9201 39.8344 44.9475 39.7931C45.1814 39.3026 45.4034 38.8313 45.6352 38.339C45.8505 37.7772 46.0558 37.2366 46.2591 36.6966C46.2569 36.6973 46.2569 36.7029 46.273 36.689C46.3085 36.6329 46.328 36.5908 46.3553 36.5257C46.4038 36.2754 46.4446 36.0481 46.4958 35.7979C46.5782 35.4056 46.65 35.0362 46.7197 34.6676C46.7176 34.6684 46.7174 34.6741 46.7313 34.6626C46.7541 34.6118 46.763 34.5723 46.7742 34.503C46.794 34.2937 46.8115 34.1145 46.8291 33.9353C46.857 33.5997 46.8848 33.2642 46.925 32.8925C46.9398 32.7038 46.9424 32.5512 46.9444 32.3699C46.9319 32.0754 46.9198 31.8098 46.8968 31.5182C46.8864 31.3383 46.887 31.1843 46.887 30.9973C46.8554 30.7215 46.8243 30.4785 46.7826 30.2106C46.7571 30.0531 46.7423 29.9206 46.7205 29.7609C46.6695 29.4849 46.6256 29.2359 46.5647 28.9716C46.5312 28.8467 46.5145 28.7371 46.4909 28.6011C46.4204 28.3458 46.3569 28.1169 46.2763 27.8746C46.2419 27.754 46.2247 27.6471 46.2023 27.5135C46.1151 27.2803 46.0331 27.0735 45.9328 26.8567C45.8836 26.76 45.8526 26.6736 45.8091 26.5692C45.7138 26.3421 45.6312 26.1329 45.5306 25.9142C45.481 25.8177 45.4496 25.7307 45.405 25.626C45.2922 25.4186 45.1925 25.2289 45.073 25.0372C45.0215 24.9482 44.9899 24.8614 44.9454 24.7567C44.8308 24.5567 44.7291 24.3745 44.6111 24.1804C44.5447 24.1023 44.4946 24.0359 44.4301 23.9558C44.2968 23.7755 44.178 23.6091 44.0394 23.4418C43.9717 23.3738 43.9239 23.3067 43.8598 23.2292C43.723 23.0577 43.6026 22.8967 43.4642 22.7276C43.3961 22.6531 43.3461 22.5868 43.2815 22.5066C43.1282 22.3564 42.9894 22.22 42.8325 22.0754C42.7488 22.0199 42.6833 21.9727 42.5989 21.92C42.4419 21.7727 42.3037 21.6306 42.1455 21.4881C42.0598 21.4402 41.9941 21.393 41.9096 21.3404C41.734 21.2151 41.5773 21.0951 41.3993 20.9762C41.3126 20.9308 41.2472 20.8846 41.163 20.833C40.9872 20.7155 40.8303 20.6031 40.6549 20.4812C40.5492 20.4282 40.4616 20.3849 40.3551 20.3338C40.1618 20.2546 39.9878 20.1832 39.7924 20.1111C39.6881 20.085 39.6051 20.0595 39.5004 20.0325C39.2864 19.9595 39.0941 19.8881 38.8788 19.818C38.7568 19.794 38.6577 19.7686 38.5368 19.7416C38.3191 19.6931 38.1233 19.6462 37.904 19.6004C37.7624 19.6001 37.6441 19.5986 37.5007 19.5968C37.2639 19.573 37.0524 19.5496 36.8151 19.5276C36.6682 19.5287 36.5469 19.5284 36.3996 19.5286C36.1049 19.5679 35.8363 19.6065 35.5468 19.6591C35.3839 19.6944 35.2417 19.7157 35.0762 19.7419C34.7461 19.8392 34.4394 19.9318 34.1115 20.0303C33.9029 20.103 33.7154 20.1699 33.5131 20.2437C33.1616 20.4289 32.82 20.5942 32.4904 20.7914C32.3327 20.8857 32.1976 21.0404 32.0356 21.18C31.8989 21.193 31.7787 21.1938 31.6328 21.1951C31.3803 21.1947 31.1534 21.1938 30.9005 21.1941C30.7531 21.1953 30.6318 21.1949 30.4844 21.1953C30.2316 21.1949 30.0049 21.1938 29.752 21.1942C29.6046 21.1953 29.4832 21.1949 29.3358 21.1953C29.0831 21.1949 28.8563 21.1938 28.6035 21.1942C28.4561 21.1953 28.3347 21.1949 28.1873 21.1953C27.9345 21.1949 27.7078 21.1938 27.4549 21.1942Z" fill="black"/>
</g>
</svg>
