<svg width="569" height="426" viewBox="0 0 569 426" fill="none" xmlns="http://www.w3.org/2000/svg">
<path d="M477.746 352.295H91.5377C91.4142 352.27 91.3037 352.204 91.224 352.107C91.1443 352.01 91.1006 351.888 91.1006 351.763C91.1006 351.637 91.1443 351.516 91.224 351.418C91.3037 351.322 91.4142 351.255 91.5377 351.23H477.746C477.871 351.255 477.981 351.322 478.059 351.418C478.141 351.516 478.184 351.637 478.184 351.763C478.184 351.888 478.141 352.01 478.059 352.107C477.981 352.204 477.871 352.27 477.746 352.295Z" fill="#B2B6BB"/>
<path d="M158.587 126.188C156.747 130.589 155.621 135.254 155.252 140.008H155.074L143.082 139.756H142.929V139.401C142.972 139.089 143.011 138.777 143.05 138.461C143.238 136.831 143.545 135.217 143.968 133.633C144.661 131.03 145.636 128.51 146.873 126.117C146.897 126.059 146.939 126.01 146.994 125.979C147.049 125.948 147.113 125.937 147.175 125.947C150.909 126.03 154.645 126.108 158.381 126.181L158.587 126.188Z" fill="#DADDDF"/>
<path d="M157.563 157.201H157.368L146.244 156.97C146.185 156.976 146.125 156.961 146.076 156.928C146.027 156.895 145.991 156.846 145.974 156.789C144.724 154.048 143.839 151.155 143.342 148.184C143.096 146.749 142.94 145.3 142.876 143.846C142.87 143.797 142.86 143.748 142.848 143.7V143.345H143.033L154.957 143.594C155.177 143.594 155.167 143.594 155.177 143.821C155.231 144.811 155.277 145.802 155.351 146.789C155.476 148.357 155.696 149.915 156.009 151.457C156.382 153.344 156.882 155.204 157.507 157.023C157.542 157.073 157.542 157.13 157.563 157.201Z" fill="#DADDDF"/>
<path d="M205.1 161.777C205.06 161.844 205.032 161.894 205 161.944C204.009 163.388 202.907 164.753 201.703 166.026C200.254 167.594 198.649 169.011 196.913 170.254C193.559 172.682 189.786 174.473 185.782 175.536C184.225 175.944 182.643 176.244 181.045 176.435L180.579 176.506H180.305L180.049 176.332L180.352 176.126C183.853 173.852 186.936 170.991 189.463 167.67C190.89 165.794 192.153 163.798 193.236 161.706C193.257 161.649 193.296 161.601 193.348 161.57C193.4 161.539 193.461 161.527 193.52 161.535L204.9 161.777H205.1Z" fill="#DADDDF"/>
<path d="M194.207 140.814L178.307 140.484L178.598 126.614C178.66 126.611 178.722 126.611 178.783 126.614L191.013 126.866C191.067 126.86 191.122 126.874 191.167 126.904C191.212 126.935 191.245 126.981 191.259 127.033C192.346 129.666 193.138 132.41 193.62 135.216C193.873 136.676 194.046 138.149 194.139 139.629C194.171 140.019 194.171 140.406 194.207 140.814Z" fill="#DADDDF"/>
<path d="M194.036 144.517C194.015 144.843 194.004 145.17 193.968 145.493C193.883 146.263 193.812 147.037 193.688 147.804C193.517 148.869 193.332 149.934 193.097 150.971C192.574 153.282 191.836 155.54 190.892 157.716C190.877 157.779 190.838 157.836 190.784 157.872C190.729 157.909 190.662 157.924 190.597 157.914C186.425 157.822 182.252 157.733 178.079 157.648H177.852L178.136 144.208L194.036 144.517Z" fill="#DADDDF"/>
<path d="M175.01 126.621L174.718 140.512L159.192 140.186C159.22 139.831 159.238 139.476 159.284 139.149C159.377 138.375 159.459 137.594 159.597 136.827C159.811 135.652 160.038 134.481 160.309 133.32C160.879 130.984 161.678 128.709 162.695 126.529C162.713 126.474 162.751 126.428 162.8 126.398C162.849 126.368 162.908 126.357 162.965 126.365L174.804 126.618L175.01 126.621Z" fill="#DADDDF"/>
<path d="M174.658 144.293C174.563 148.65 174.471 153.004 174.381 157.353V157.552H174.171C170.102 157.467 166.037 157.383 161.973 157.3C161.913 157.306 161.852 157.291 161.803 157.256C161.753 157.222 161.718 157.171 161.703 157.112C160.806 154.838 160.147 152.478 159.736 150.069C159.53 148.83 159.38 147.584 159.249 146.331C159.16 145.518 159.156 144.691 159.117 143.871C159.117 143.849 159.117 143.828 159.117 143.785C159.178 143.782 159.238 143.782 159.299 143.785L174.459 144.098C174.612 144.094 174.662 144.13 174.658 144.293Z" fill="#DADDDF"/>
<path d="M211.07 141.268L198.04 140.995C197.875 136.199 196.949 131.46 195.295 126.955H195.498L207.44 127.2C207.5 127.194 207.56 127.208 207.611 127.24C207.661 127.272 207.7 127.321 207.72 127.377C209.047 130.158 209.992 133.105 210.53 136.139C210.813 137.756 210.99 139.39 211.06 141.03C211.078 141.105 211.07 141.18 211.07 141.268Z" fill="#DADDDF"/>
<path d="M211.007 144.765C210.985 145.081 210.971 145.379 210.942 145.674C210.593 149.575 209.558 153.385 207.884 156.927C207.699 157.329 207.496 157.723 207.308 158.12C207.293 158.159 207.266 158.192 207.231 158.214C207.195 158.236 207.154 158.245 207.112 158.241C203.122 158.153 199.131 158.068 195.139 157.985H195.01C195.163 157.574 195.316 157.172 195.462 156.768C196.209 154.716 196.793 152.609 197.208 150.466C197.518 148.911 197.738 147.34 197.866 145.759C197.898 145.404 197.93 145.014 197.952 144.644C197.952 144.541 197.987 144.495 198.094 144.506C198.133 144.51 198.172 144.51 198.211 144.506L211.007 144.765Z" fill="#DADDDF"/>
<path d="M205.551 123.628C205.551 123.628 205.533 123.66 205.523 123.678H205.359L193.961 123.443C193.904 123.449 193.847 123.436 193.798 123.405C193.749 123.375 193.712 123.33 193.691 123.277C192.239 120.222 190.396 117.369 188.207 114.789C186.916 113.297 185.488 111.93 183.94 110.706C183.175 110.092 182.382 109.517 181.6 108.931L181.468 108.828L181.628 108.725C181.611 108.651 181.589 108.576 181.561 108.477C186.415 109.133 191.071 110.827 195.211 113.441C199.351 116.056 202.878 119.53 205.551 123.628Z" fill="#DADDDF"/>
<path d="M171.767 176.168C171.659 176.196 171.548 176.211 171.436 176.215C170.187 176.023 168.951 175.756 167.734 175.416C162.845 174.063 158.328 171.619 154.523 168.27C153.079 167.013 151.75 165.632 150.55 164.141C149.661 163.009 148.841 161.823 148.097 160.591L148.047 160.481H148.235C151.775 160.557 155.312 160.629 158.847 160.698C158.904 160.694 158.961 160.71 159.009 160.742C159.056 160.774 159.092 160.821 159.11 160.875C160.167 163.13 161.427 165.285 162.876 167.311C164.217 169.15 165.711 170.872 167.343 172.459C168.685 173.779 170.131 174.99 171.667 176.08C171.703 176.106 171.736 176.136 171.767 176.168Z" fill="#DADDDF"/>
<path d="M173.04 108.63C172.549 108.985 171.973 109.364 171.408 109.776C169.526 111.175 167.772 112.737 166.166 114.445C163.992 116.718 162.124 119.263 160.608 122.017C160.515 122.191 160.426 122.372 160.323 122.539C160.303 122.566 160.278 122.588 160.249 122.605C160.221 122.622 160.189 122.634 160.156 122.638C159.964 122.638 159.768 122.638 159.576 122.638L149.203 122.421C155.152 114.398 163.019 109.663 172.926 108.374L172.855 108.505L173.04 108.63Z" fill="#DADDDF"/>
<path d="M189.029 161.45C187.513 163.984 185.701 166.328 183.63 168.433C181.8 170.326 179.75 171.995 177.524 173.403L177.78 161.23L189.029 161.45Z" fill="#DADDDF"/>
<path d="M174.285 161.145L174.032 173.083C169.61 169.913 165.998 165.746 163.492 160.921L174.285 161.145Z" fill="#DADDDF"/>
<path d="M189.477 123.238L178.677 123.015L178.915 111.655C181.101 113.14 183.099 114.883 184.868 116.845C186.621 118.812 188.165 120.954 189.477 123.238Z" fill="#DADDDF"/>
<path d="M175.323 111.921L175.088 123.032L164.718 122.83C167.347 118.414 170.98 114.677 175.323 111.921Z" fill="#DADDDF"/>
<path d="M441.146 236.352C447.625 228.648 446.363 218.478 442.252 213.277L434.14 213.987C437.604 216.518 439.161 223.348 436.526 226.728C433.891 230.107 427.746 231.698 424.435 228.954C421.835 226.824 419.965 220.764 416.611 221.112C416.17 213.93 409.367 207.742 402.162 207.977C401.287 206.147 400.011 204.538 398.428 203.271C396.842 202.003 394.993 201.11 393.012 200.658C391.035 200.205 388.979 200.206 386.998 200.66C385.021 201.113 383.168 202.008 381.586 203.277L381.23 230.395C381.23 230.395 386.034 238.159 395.384 237.165C397.845 236.902 399.943 236.345 401.59 234.943C401.824 235.24 402.112 235.491 402.439 235.681C403.723 236.419 405.377 236.256 406.707 235.589C406.874 235.5 407.041 235.404 407.201 235.305C409.872 239.437 415.381 243.207 419.826 244.219C426.302 245.681 436.882 241.425 441.146 236.352Z" fill="white"/>
<g opacity="0.2">
<path opacity="0.2" d="M415.932 223.771C415.925 223.731 415.925 223.69 415.932 223.65L416 223.295C416.032 223.146 416.067 222.958 416.096 222.731C416.124 222.503 416.17 222.251 416.185 221.957C416.323 220.302 416.135 218.637 415.633 217.054C415.292 215.961 414.801 214.922 414.172 213.966C413.46 212.864 412.564 211.893 411.522 211.094C409.122 209.242 406.138 208.31 403.108 208.47C402.671 208.47 402.244 208.552 401.842 208.605H401.764L401.739 208.534C400.793 205.816 398.93 203.509 396.472 202.006C395.925 201.675 395.356 201.386 394.765 201.139C394.207 200.917 393.634 200.73 393.051 200.579C392.009 200.291 390.932 200.137 389.85 200.117C388.289 200.075 386.735 200.382 385.309 201.015C385.085 201.108 384.865 201.215 384.651 201.335C384.491 201.412 384.335 201.498 384.185 201.594L383.901 201.761C383.869 201.783 383.837 201.8 383.801 201.814C383.801 201.814 383.83 201.789 383.89 201.746L384.164 201.562C384.313 201.461 384.466 201.369 384.626 201.285C384.84 201.162 385.057 201.051 385.281 200.951C386.71 200.286 388.275 199.957 389.854 199.989C390.946 200.001 392.03 200.15 393.083 200.433C393.673 200.583 394.253 200.77 394.819 200.99C395.416 201.238 395.996 201.53 396.55 201.864C399.05 203.379 400.946 205.716 401.91 208.474L401.807 208.413C403.528 208.138 405.292 208.222 406.981 208.658C408.667 209.094 410.249 209.873 411.622 210.948C412.674 211.764 413.578 212.753 414.296 213.873C414.926 214.843 415.416 215.898 415.751 217.004C416.245 218.604 416.416 220.287 416.248 221.953C416.227 222.248 416.177 222.507 416.142 222.731C416.113 222.919 416.078 223.107 416.028 223.291L415.943 223.646C415.943 223.688 415.939 223.73 415.932 223.771Z" fill="black"/>
</g>
<g opacity="0.2">
<path opacity="0.2" d="M420.462 224.64C420.427 224.64 420.381 224.331 420.171 223.877C420.046 223.613 419.893 223.365 419.712 223.135C419.492 222.855 419.236 222.604 418.951 222.386C418.663 222.175 418.354 221.998 418.023 221.86C417.753 221.751 417.468 221.674 417.18 221.63C416.686 221.552 416.369 221.591 416.366 221.555C416.437 221.525 416.512 221.508 416.586 221.505C416.789 221.481 416.995 221.481 417.198 221.505C417.5 221.534 417.799 221.602 418.083 221.708C418.432 221.843 418.763 222.024 419.065 222.247C419.36 222.476 419.623 222.742 419.851 223.039C420.032 223.284 420.178 223.552 420.292 223.834C420.37 224.023 420.423 224.221 420.452 224.424C420.47 224.558 420.477 224.637 420.462 224.64Z" fill="black"/>
</g>
<g opacity="0.2">
<path opacity="0.2" d="M419.158 233.888C419.158 233.888 419.086 233.675 418.912 233.31C418.663 232.793 418.311 232.333 417.881 231.953C417.241 231.376 416.43 231.019 415.573 230.938C414.502 230.84 413.432 231.155 412.586 231.819L412.472 231.911L412.44 231.769C412.337 231.295 412.177 230.835 411.963 230.399C411.426 229.27 410.58 228.318 409.52 227.651C408.649 227.116 407.664 226.792 406.647 226.707C405.96 226.648 405.27 226.691 404.595 226.834C404.115 226.944 403.859 227.04 403.855 227.023C403.912 226.986 403.972 226.959 404.036 226.941C404.214 226.871 404.392 226.813 404.577 226.767C405.423 226.55 406.302 226.503 407.166 226.63C408.03 226.757 408.862 227.054 409.609 227.505C410.704 228.181 411.579 229.157 412.13 230.317C412.347 230.77 412.511 231.246 412.618 231.737L412.472 231.684C413.354 230.994 414.47 230.672 415.587 230.785C416.473 230.874 417.308 231.247 417.963 231.85C418.397 232.247 418.741 232.731 418.973 233.27C419.037 233.414 419.086 233.562 419.126 233.714C419.147 233.769 419.158 233.829 419.158 233.888Z" fill="black"/>
</g>
<g opacity="0.2">
<path opacity="0.2" d="M444.805 229.859C444.791 229.953 444.766 230.046 444.734 230.136C444.677 230.317 444.602 230.583 444.481 230.92C444.129 231.867 443.692 232.78 443.173 233.647C442.394 234.933 441.466 236.124 440.41 237.197C439.791 237.827 439.133 238.419 438.443 238.972C437.707 239.573 436.939 240.131 436.138 240.644C433.333 242.464 430.239 243.793 426.985 244.574C426.003 244.81 425 244.958 423.99 245.017C423.635 245.017 423.354 245.017 423.165 245.017C423.069 245.017 422.973 245.009 422.877 244.993C422.973 244.984 423.069 244.984 423.165 244.993C423.354 244.993 423.631 244.993 423.983 244.957C424.986 244.87 425.982 244.703 426.956 244.457C430.178 243.646 433.247 242.31 436.035 240.502C436.828 239.99 437.597 239.435 438.329 238.84C439.015 238.286 439.67 237.694 440.289 237.065C441.341 236.011 442.269 234.842 443.059 233.579C443.585 232.724 444.037 231.826 444.414 230.896C444.545 230.562 444.627 230.299 444.698 230.125C444.727 230.034 444.762 229.945 444.805 229.859Z" fill="black"/>
</g>
<g opacity="0.2">
<path opacity="0.2" d="M437.486 223.295C437.504 223.453 437.504 223.613 437.486 223.771C437.447 224.2 437.369 224.625 437.259 225.042C436.885 226.43 436.131 227.688 435.082 228.675C434.037 229.663 432.735 230.34 431.323 230.633C430.9 230.726 430.47 230.778 430.04 230.789C429.883 230.8 429.723 230.793 429.567 230.768C430.146 230.713 430.722 230.627 431.295 230.509C432.668 230.188 433.93 229.51 434.958 228.543C435.982 227.577 436.732 226.356 437.131 225.006C437.284 224.444 437.405 223.872 437.486 223.295Z" fill="black"/>
</g>
<path d="M392.681 135.933H200.989C200.146 135.933 199.463 136.615 199.463 137.456V276.857C199.463 277.698 200.146 278.38 200.989 278.38H392.681C393.524 278.38 394.207 277.698 394.207 276.857V137.456C394.207 136.615 393.524 135.933 392.681 135.933Z" fill="#4D61FC"/>
<path opacity="0.6" d="M392.681 135.933H200.989C200.146 135.933 199.463 136.615 199.463 137.456V276.857C199.463 277.698 200.146 278.38 200.989 278.38H392.681C393.524 278.38 394.207 277.698 394.207 276.857V137.456C394.207 136.615 393.524 135.933 392.681 135.933Z" fill="white"/>
<path opacity="0.4" d="M200.668 135.681H392.859C393.264 135.681 393.652 135.841 393.936 136.127C394.224 136.412 394.384 136.8 394.384 137.204V147.744H199.15V137.204C199.15 136.801 199.31 136.415 199.594 136.129C199.879 135.844 200.265 135.683 200.668 135.681Z" fill="#4D61FC"/>
<path d="M390.64 135.898H198.947C198.105 135.898 197.422 136.579 197.422 137.421V276.822C197.422 277.663 198.105 278.345 198.947 278.345H390.64C391.483 278.345 392.165 277.663 392.165 276.822V137.421C392.165 136.579 391.483 135.898 390.64 135.898Z" fill="#4D61FC"/>
<path opacity="0.8" d="M390.64 135.898H198.947C198.105 135.898 197.422 136.579 197.422 137.421V276.822C197.422 277.663 198.105 278.345 198.947 278.345H390.64C391.483 278.345 392.165 277.663 392.165 276.822V137.421C392.165 136.579 391.483 135.898 390.64 135.898Z" fill="white"/>
<path d="M390.515 278.589H199.075C197.557 278.589 197.173 278.234 197.173 276.743V137.498C197.173 136.011 197.557 135.652 199.075 135.652H390.515C392.034 135.652 392.418 136.007 392.418 137.498V276.743C392.418 278.227 392.034 278.589 390.515 278.589ZM199.075 136.142C197.831 136.142 197.674 136.281 197.674 137.498V276.743C197.674 277.958 197.831 278.1 199.075 278.1H390.515C391.757 278.1 391.917 277.958 391.917 276.743V137.498C391.917 136.281 391.757 136.142 390.515 136.142H199.075Z" fill="#4D61FC"/>
<path opacity="0.6" d="M390.515 278.589H199.075C197.557 278.589 197.173 278.234 197.173 276.743V137.498C197.173 136.011 197.557 135.652 199.075 135.652H390.515C392.034 135.652 392.418 136.007 392.418 137.498V276.743C392.418 278.227 392.034 278.589 390.515 278.589ZM199.075 136.142C197.831 136.142 197.674 136.281 197.674 137.498V276.743C197.674 277.958 197.831 278.1 199.075 278.1H390.515C391.757 278.1 391.917 277.958 391.917 276.743V137.498C391.917 136.281 391.757 136.142 390.515 136.142H199.075Z" fill="white"/>
<path d="M198.684 135.681H390.875C391.28 135.681 391.668 135.841 391.952 136.127C392.24 136.412 392.4 136.8 392.4 137.204V147.744H197.162V137.204C197.162 136.8 197.323 136.414 197.608 136.128C197.893 135.843 198.28 135.682 198.684 135.681Z" fill="#4D61FC"/>
<path d="M203.926 143.633C204.879 143.633 205.651 142.862 205.651 141.911C205.651 140.961 204.879 140.19 203.926 140.19C202.973 140.19 202.201 140.961 202.201 141.911C202.201 142.862 202.973 143.633 203.926 143.633Z" fill="white"/>
<path d="M209.41 143.633C210.363 143.633 211.135 142.862 211.135 141.911C211.135 140.961 210.363 140.19 209.41 140.19C208.457 140.19 207.685 140.961 207.685 141.911C207.685 142.862 208.457 143.633 209.41 143.633Z" fill="white"/>
<path d="M214.89 143.633C215.843 143.633 216.615 142.862 216.615 141.911C216.615 140.961 215.843 140.19 214.89 140.19C213.937 140.19 213.165 140.961 213.165 141.911C213.165 142.862 213.937 143.633 214.89 143.633Z" fill="white"/>
<path d="M357.947 193.989H231.644C228.998 193.989 226.853 196.13 226.853 198.771V199.275C226.853 201.917 228.998 204.057 231.644 204.057H357.947C360.593 204.057 362.738 201.917 362.738 199.275V198.771C362.738 196.13 360.593 193.989 357.947 193.989Z" fill="white"/>
<path d="M357.947 193.989H347.446V204.054H357.947C359.217 204.054 360.437 203.55 361.333 202.653C362.232 201.756 362.737 200.54 362.737 199.272V198.771C362.737 197.503 362.232 196.287 361.333 195.39C360.437 194.493 359.217 193.989 357.947 193.989Z" fill="#4D61FC"/>
<path d="M351.358 201.679C351.336 201.654 351.318 201.625 351.308 201.594C351.297 201.562 351.293 201.529 351.295 201.496C351.297 201.463 351.306 201.431 351.321 201.401C351.336 201.372 351.357 201.345 351.382 201.324L353.378 199.517C353.4 199.496 353.426 199.479 353.455 199.469C353.484 199.459 353.515 199.454 353.546 199.456C353.576 199.459 353.607 199.467 353.634 199.481C353.661 199.495 353.685 199.514 353.705 199.538L353.957 199.84C353.98 199.864 353.997 199.893 354.008 199.924C354.019 199.956 354.023 199.989 354.022 200.022C354.019 200.055 354.011 200.087 353.996 200.117C353.981 200.147 353.961 200.173 353.936 200.195L351.927 201.995C351.904 202.015 351.877 202.03 351.848 202.04C351.819 202.05 351.788 202.054 351.758 202.052C351.727 202.049 351.698 202.041 351.67 202.027C351.643 202.013 351.619 201.994 351.599 201.97L351.358 201.679Z" fill="white"/>
<path d="M355.746 195.982C355.988 195.983 356.23 196.024 356.457 196.102C356.951 196.275 357.368 196.615 357.634 197.064C357.901 197.513 358.001 198.042 357.919 198.557C357.833 199.073 357.567 199.541 357.172 199.881C356.774 200.221 356.269 200.41 355.746 200.416C355.504 200.413 355.264 200.373 355.035 200.295C354.536 200.126 354.115 199.787 353.844 199.336C353.573 198.886 353.472 198.355 353.557 197.837C353.642 197.319 353.909 196.848 354.31 196.508C354.711 196.168 355.22 195.982 355.746 195.982ZM355.746 196.582C355.364 196.584 354.996 196.72 354.705 196.967C354.414 197.215 354.22 197.556 354.157 197.932C354.093 198.308 354.165 198.693 354.359 199.022C354.552 199.35 354.856 199.6 355.216 199.727C355.387 199.784 355.566 199.814 355.746 199.816C356.084 199.816 356.411 199.711 356.688 199.516C356.962 199.32 357.168 199.044 357.279 198.726C357.35 198.525 357.378 198.313 357.364 198.101C357.353 197.889 357.296 197.681 357.204 197.49C357.111 197.299 356.98 197.129 356.823 196.988C356.663 196.847 356.478 196.739 356.276 196.67C356.105 196.611 355.927 196.581 355.746 196.582Z" fill="white"/>
<path d="M233.966 199.819C234.447 199.819 234.837 199.43 234.837 198.949C234.837 198.469 234.447 198.08 233.966 198.08C233.485 198.08 233.094 198.469 233.094 198.949C233.094 199.43 233.485 199.819 233.966 199.819Z" fill="#B2B6BB"/>
<path d="M236.871 199.819C237.352 199.819 237.742 199.43 237.742 198.949C237.742 198.469 237.352 198.08 236.871 198.08C236.39 198.08 236 198.469 236 198.949C236 199.43 236.39 199.819 236.871 199.819Z" fill="#B2B6BB"/>
<path d="M239.773 199.819C240.254 199.819 240.644 199.43 240.644 198.949C240.644 198.469 240.254 198.08 239.773 198.08C239.292 198.08 238.902 198.469 238.902 198.949C238.902 199.43 239.292 199.819 239.773 199.819Z" fill="#B2B6BB"/>
<path d="M242.678 199.819C243.16 199.819 243.55 199.43 243.55 198.949C243.55 198.469 243.16 198.08 242.678 198.08C242.197 198.08 241.807 198.469 241.807 198.949C241.807 199.43 242.197 199.819 242.678 199.819Z" fill="#B2B6BB"/>
<path d="M245.58 199.819C246.061 199.819 246.452 199.43 246.452 198.949C246.452 198.469 246.061 198.08 245.58 198.08C245.099 198.08 244.709 198.469 244.709 198.949C244.709 199.43 245.099 199.819 245.58 199.819Z" fill="#B2B6BB"/>
<path d="M248.486 199.819C248.967 199.819 249.357 199.43 249.357 198.949C249.357 198.469 248.967 198.08 248.486 198.08C248.005 198.08 247.615 198.469 247.615 198.949C247.615 199.43 248.005 199.819 248.486 199.819Z" fill="#B2B6BB"/>
<path d="M259.18 171.195H255.958C254.056 171.195 252.515 172.734 252.515 174.632V183.081C252.515 184.978 254.056 186.517 255.958 186.517H259.18C261.081 186.517 262.622 184.978 262.622 183.081V174.632C262.622 172.734 261.081 171.195 259.18 171.195Z" fill="white"/>
<path d="M274.198 176.425H270.976C269.074 176.425 267.533 177.963 267.533 179.861V183.077C267.533 184.975 269.074 186.514 270.976 186.514H274.198C276.099 186.514 277.64 184.975 277.64 183.077V179.861C277.64 177.963 276.099 176.425 274.198 176.425Z" fill="white"/>
<path d="M289.216 176.425H285.994C284.093 176.425 282.551 177.963 282.551 179.861V183.077C282.551 184.975 284.093 186.514 285.994 186.514H289.216C291.117 186.514 292.658 184.975 292.658 183.077V179.861C292.658 177.963 291.117 176.425 289.216 176.425Z" fill="white"/>
<path d="M304.234 171.195H301.012C299.111 171.195 297.569 172.734 297.569 174.632V183.081C297.569 184.978 299.111 186.517 301.012 186.517H304.234C306.135 186.517 307.676 184.978 307.676 183.081V174.632C307.676 172.734 306.135 171.195 304.234 171.195Z" fill="white"/>
<path d="M316.033 171.195H316.03C314.129 171.195 312.587 172.734 312.587 174.632V183.081C312.587 184.978 314.129 186.517 316.03 186.517H316.033C317.935 186.517 319.476 184.978 319.476 183.081V174.632C319.476 172.734 317.935 171.195 316.033 171.195Z" fill="white"/>
<path d="M329.181 176.425H327.829C325.928 176.425 324.387 177.963 324.387 179.861V183.077C324.387 184.975 325.928 186.514 327.829 186.514H329.181C331.082 186.514 332.623 184.975 332.623 183.077V179.861C332.623 177.963 331.082 176.425 329.181 176.425Z" fill="white"/>
<path d="M341.443 217.232H248.144C247.518 217.232 247.01 217.739 247.01 218.364V236.277C247.01 236.903 247.518 237.41 248.144 237.41H341.443C342.069 237.41 342.577 236.903 342.577 236.277V218.364C342.577 217.739 342.069 217.232 341.443 217.232Z" fill="white"/>
<path d="M336.176 221.034H278.07V222.163H336.176V221.034Z" fill="#DADDDF"/>
<path d="M336.176 224.85H278.07V225.979H336.176V224.85Z" fill="#DADDDF"/>
<path d="M336.176 228.667H278.07V229.795H336.176V228.667Z" fill="#DADDDF"/>
<path d="M315.55 232.483H278.07V233.612H315.55V232.483Z" fill="#DADDDF"/>
<path d="M272.608 218.623H248.607V236.018H272.608V218.623Z" fill="#F4F4F4"/>
<path d="M248.607 231.126L255.687 227.097L260.627 229.874L268.397 224.53L272.608 227.921V236.019H248.649L248.607 231.126Z" fill="#DADDDF"/>
<path d="M258.895 222.166C258.895 222.576 258.773 222.976 258.546 223.316C258.318 223.657 257.994 223.922 257.614 224.078C257.235 224.235 256.818 224.276 256.416 224.196C256.014 224.116 255.644 223.918 255.354 223.628C255.065 223.339 254.868 222.969 254.788 222.568C254.708 222.166 254.75 221.75 254.907 221.372C255.065 220.994 255.331 220.671 255.672 220.444C256.014 220.216 256.415 220.096 256.825 220.096C257.375 220.098 257.901 220.316 258.289 220.704C258.677 221.092 258.895 221.618 258.895 222.166Z" fill="#DADDDF"/>
<path d="M341.443 242.437H248.144C247.518 242.437 247.01 242.944 247.01 243.569V261.482C247.01 262.108 247.518 262.615 248.144 262.615H341.443C342.069 262.615 342.577 262.108 342.577 261.482V243.569C342.577 242.944 342.069 242.437 341.443 242.437Z" fill="white"/>
<path d="M336.176 246.239H278.07V247.368H336.176V246.239Z" fill="#DADDDF"/>
<path d="M336.176 250.055H278.07V251.184H336.176V250.055Z" fill="#DADDDF"/>
<path d="M336.176 253.872H278.07V255H336.176V253.872Z" fill="#DADDDF"/>
<path d="M315.55 257.688H278.07V258.817H315.55V257.688Z" fill="#DADDDF"/>
<path d="M272.608 243.828H248.607V261.223H272.608V243.828Z" fill="#F4F4F4"/>
<path d="M264.936 253.543C265.508 251.152 264.03 248.75 261.634 248.179C259.239 247.608 256.833 249.084 256.261 251.475C255.689 253.867 257.167 256.268 259.563 256.839C261.959 257.41 264.364 255.934 264.936 253.543Z" fill="#DADDDF"/>
<path d="M262.106 252.526L260.943 253.197L259.777 253.868V252.526V251.184L260.943 251.855L262.106 252.526Z" fill="#F4F4F4"/>
<path d="M390.334 297.934L390.512 295.3C390.515 295.255 390.508 295.209 390.483 295.17C390.458 295.132 390.423 295.102 390.38 295.086L383.221 292.843C383.168 292.83 383.111 292.838 383.065 292.866C383.019 292.894 382.983 292.939 382.969 292.992L382.169 295.541L373.854 321.942C373.844 321.968 373.84 321.995 373.84 322.022C373.84 322.049 373.847 322.076 373.858 322.1C373.872 322.125 373.886 322.148 373.908 322.166C373.925 322.185 373.95 322.199 373.975 322.209L410.391 333.64C410.445 333.652 410.501 333.644 410.548 333.615C410.597 333.586 410.629 333.54 410.644 333.487L418.891 307.295C418.908 307.243 418.908 307.186 418.884 307.136C418.862 307.085 418.82 307.046 418.77 307.025L390.462 298.15C390.419 298.134 390.384 298.104 390.359 298.065C390.338 298.025 390.327 297.979 390.334 297.934Z" fill="#4D61FC"/>
<path opacity="0.2" d="M390.334 297.934L390.512 295.3C390.515 295.255 390.508 295.209 390.483 295.17C390.458 295.132 390.423 295.102 390.38 295.086L383.221 292.843C383.168 292.83 383.111 292.838 383.065 292.866C383.019 292.894 382.983 292.939 382.969 292.992L382.169 295.541L373.854 321.942C373.844 321.968 373.84 321.995 373.84 322.022C373.84 322.049 373.847 322.076 373.858 322.1C373.872 322.125 373.886 322.148 373.908 322.166C373.925 322.185 373.95 322.199 373.975 322.209L410.391 333.64C410.445 333.652 410.501 333.644 410.548 333.615C410.597 333.586 410.629 333.54 410.644 333.487L418.891 307.295C418.908 307.243 418.908 307.186 418.884 307.136C418.862 307.085 418.82 307.046 418.77 307.025L390.462 298.15C390.419 298.134 390.384 298.104 390.359 298.065C390.338 298.025 390.327 297.979 390.334 297.934Z" fill="black"/>
<path d="M377.997 310.472L401.052 326.529L421.7 296.986L404.584 285.065L394.712 286.56L377.997 310.472Z" fill="#DADDDF"/>
<path opacity="0.2" d="M404.584 285.065L394.712 286.56L400.647 290.695L404.584 285.065Z" fill="black"/>
<g opacity="0.2">
<path opacity="0.2" d="M416.01 300.366L403.19 291.439L402.66 292.199L415.48 301.126L416.01 300.366Z" fill="black"/>
<path opacity="0.2" d="M414.669 302.286L401.853 293.359L401.323 294.119L414.139 303.046L414.669 302.286Z" fill="black"/>
<path opacity="0.2" d="M413.339 304.199L400.519 295.272L399.989 296.032L412.806 304.959L413.339 304.199Z" fill="black"/>
<path opacity="0.2" d="M411.995 306.114L393.214 293.036L392.685 293.796L411.465 306.874L411.995 306.114Z" fill="black"/>
<path opacity="0.2" d="M410.654 308.028L391.874 294.95L391.344 295.709L410.125 308.788L410.654 308.028Z" fill="black"/>
<path opacity="0.2" d="M409.321 309.939L390.54 296.861L390.01 297.62L408.791 310.699L409.321 309.939Z" fill="black"/>
<path opacity="0.2" d="M407.98 311.859L389.199 298.78L388.666 299.54L407.447 312.619L407.98 311.859Z" fill="black"/>
<path opacity="0.2" d="M406.646 313.772L387.866 300.693L387.333 301.453L406.113 314.531L406.646 313.772Z" fill="black"/>
<path opacity="0.2" d="M405.306 315.683L386.525 302.605L385.995 303.365L404.776 316.443L405.306 315.683Z" fill="black"/>
<path opacity="0.2" d="M403.965 317.603L385.185 304.524L384.655 305.284L403.432 318.363L403.965 317.603Z" fill="black"/>
<path opacity="0.2" d="M402.628 319.516L383.848 306.438L383.318 307.198L402.098 320.276L402.628 319.516Z" fill="black"/>
<path opacity="0.2" d="M401.287 321.43L382.507 308.352L381.977 309.111L400.757 322.19L401.287 321.43Z" fill="black"/>
</g>
<path d="M373.869 322.177L410.285 333.604C410.313 333.611 410.341 333.612 410.37 333.607C410.402 333.601 410.427 333.59 410.452 333.574C410.477 333.557 410.498 333.536 410.512 333.511C410.53 333.487 410.541 333.459 410.544 333.43L415.608 308.662C415.622 308.613 415.615 308.561 415.59 308.516C415.569 308.471 415.53 308.437 415.48 308.42L386.564 299.34C386.525 299.326 386.493 299.301 386.468 299.268C386.447 299.235 386.433 299.195 386.433 299.155L386.315 296.627C386.315 296.587 386.301 296.547 386.28 296.514C386.255 296.482 386.223 296.457 386.184 296.443L379.615 294.384C379.587 294.377 379.559 294.376 379.527 294.382C379.498 294.387 379.473 294.398 379.448 294.414C379.423 294.431 379.402 294.452 379.388 294.476C379.37 294.501 379.359 294.529 379.356 294.558L373.758 321.932C373.744 321.979 373.748 322.029 373.769 322.074C373.79 322.119 373.826 322.155 373.869 322.177Z" fill="#4D61FC"/>
<path d="M288.234 323.654L257.917 330.803C257.807 330.829 257.691 330.81 257.595 330.751C257.499 330.691 257.431 330.597 257.405 330.487L248.159 291.402C248.145 291.348 248.143 291.292 248.151 291.237C248.16 291.182 248.18 291.13 248.209 291.083C248.238 291.035 248.276 290.995 248.321 290.962C248.366 290.93 248.417 290.907 248.472 290.894L271.185 285.537L281.004 291.253L288.55 323.142C288.576 323.252 288.557 323.367 288.498 323.463C288.438 323.559 288.343 323.627 288.234 323.654Z" fill="#DADDDF"/>
<path opacity="0.2" d="M271.185 285.537L281.004 291.253L273.397 293.045C273.287 293.071 273.172 293.052 273.076 292.993C272.98 292.934 272.912 292.839 272.885 292.729L271.185 285.537Z" fill="black"/>
<path opacity="0.1" d="M256.186 325.789L287.581 318.386L288.739 323.282C288.76 323.369 288.745 323.46 288.698 323.537C288.651 323.613 288.576 323.667 288.488 323.688L257.751 330.935C257.708 330.945 257.663 330.947 257.619 330.94C257.576 330.933 257.534 330.917 257.496 330.894C257.458 330.871 257.425 330.84 257.399 330.804C257.373 330.768 257.355 330.728 257.345 330.684L256.186 325.789Z" fill="black"/>
<path d="M269.116 313.039L267.547 312.986L267.138 299.592L268.707 299.645L269.116 313.039Z" fill="white"/>
<path d="M264.905 311.512L258.475 308.8L262.896 303.134L264.133 304.097L260.968 308.154L265.517 310.068L264.905 311.512Z" fill="white"/>
<path d="M273.337 309.525L272.142 308.506L275.35 304.76L270.705 302.549L271.381 301.136L277.871 304.228L273.337 309.525Z" fill="white"/>
<path d="M390.334 297.934L390.512 295.3C390.515 295.255 390.508 295.209 390.483 295.17C390.458 295.132 390.423 295.102 390.38 295.086L383.221 292.843C383.168 292.83 383.111 292.838 383.065 292.866C383.019 292.894 382.983 292.939 382.969 292.992L382.169 295.541L373.854 321.942C373.844 321.968 373.84 321.995 373.84 322.022C373.84 322.049 373.847 322.076 373.858 322.1C373.872 322.125 373.886 322.148 373.908 322.166C373.925 322.185 373.95 322.199 373.975 322.209L410.391 333.64C410.445 333.652 410.501 333.644 410.548 333.615C410.597 333.586 410.629 333.54 410.644 333.487L418.891 307.295C418.908 307.243 418.908 307.186 418.884 307.136C418.862 307.085 418.82 307.046 418.77 307.025L390.462 298.15C390.419 298.134 390.384 298.104 390.359 298.065C390.338 298.025 390.327 297.979 390.334 297.934Z" fill="#4D61FC"/>
<path opacity="0.2" d="M390.334 297.934L390.512 295.3C390.515 295.255 390.508 295.209 390.483 295.17C390.458 295.132 390.423 295.102 390.38 295.086L383.221 292.843C383.168 292.83 383.111 292.838 383.065 292.866C383.019 292.894 382.983 292.939 382.969 292.992L382.169 295.541L373.854 321.942C373.844 321.968 373.84 321.995 373.84 322.022C373.84 322.049 373.847 322.076 373.858 322.1C373.872 322.125 373.886 322.148 373.908 322.166C373.925 322.185 373.95 322.199 373.975 322.209L410.391 333.64C410.445 333.652 410.501 333.644 410.548 333.615C410.597 333.586 410.629 333.54 410.644 333.487L418.891 307.295C418.908 307.243 418.908 307.186 418.884 307.136C418.862 307.085 418.82 307.046 418.77 307.025L390.462 298.15C390.419 298.134 390.384 298.104 390.359 298.065C390.338 298.025 390.327 297.979 390.334 297.934Z" fill="black"/>
<path d="M373.869 322.177L410.285 333.604C410.313 333.611 410.341 333.612 410.37 333.607C410.402 333.601 410.427 333.59 410.452 333.574C410.477 333.557 410.498 333.536 410.512 333.511C410.53 333.487 410.541 333.459 410.544 333.43L415.608 308.662C415.622 308.613 415.615 308.561 415.59 308.516C415.569 308.471 415.53 308.437 415.48 308.42L386.564 299.34C386.525 299.326 386.493 299.301 386.468 299.268C386.447 299.235 386.433 299.195 386.433 299.155L386.315 296.627C386.315 296.587 386.301 296.547 386.28 296.514C386.255 296.482 386.223 296.457 386.184 296.443L379.615 294.384C379.587 294.377 379.559 294.376 379.527 294.382C379.498 294.387 379.473 294.398 379.448 294.414C379.423 294.431 379.402 294.452 379.388 294.476C379.37 294.501 379.359 294.529 379.356 294.558L373.758 321.932C373.744 321.979 373.748 322.029 373.769 322.074C373.79 322.119 373.826 322.155 373.869 322.177Z" fill="#4D61FC"/>
<path d="M182.276 331.655L191.714 331.627L190.238 345.117H182.251L182.276 331.655Z" fill="#FC9D9D"/>
<path opacity="0.15" d="M182.276 345.199L182.304 335.642L191.305 335.614L191.166 336.76L185.423 337.634C185.16 337.669 184.918 337.795 184.738 337.989C184.558 338.183 184.452 338.434 184.438 338.699L184.246 342.849L182.276 345.199Z" fill="black"/>
<path d="M182.08 342.114L182.051 342.905C182.043 343.576 181.923 344.24 181.696 344.872L180.711 347.63C180.44 348.411 180.302 349.232 180.302 350.058V350.197C180.306 350.331 180.338 350.464 180.394 350.586C180.45 350.708 180.53 350.819 180.63 350.91C180.729 351.001 180.846 351.071 180.972 351.117C181.099 351.163 181.234 351.183 181.369 351.177H191.187C191.458 351.185 191.722 351.088 191.921 350.904C192.121 350.721 192.24 350.467 192.254 350.197V349.842C192.254 349.128 192.143 348.418 191.927 347.737L191.077 344.925C190.891 344.352 190.798 343.753 190.803 343.15V342.114C190.798 341.461 190.544 340.835 190.092 340.363L189.957 340.2C189.055 339.284 187.827 338.761 186.54 338.746C185.254 338.731 184.013 339.224 183.09 340.118L182.844 340.363C182.388 340.836 182.117 341.458 182.08 342.114Z" fill="#4D61FC"/>
<path opacity="0.6" d="M180.302 349.43H192.226C192.249 349.566 192.259 349.704 192.254 349.842V350.197C192.25 350.332 192.218 350.464 192.162 350.586C192.106 350.709 192.026 350.819 191.926 350.91C191.827 351.001 191.711 351.072 191.584 351.117C191.457 351.164 191.322 351.183 191.187 351.177H181.369C181.098 351.186 180.834 351.088 180.635 350.905C180.435 350.722 180.316 350.467 180.302 350.197V349.43Z" fill="black"/>
<path d="M188.57 342.551C188.594 342.491 188.597 342.426 188.576 342.365C188.556 342.304 188.515 342.253 188.46 342.22C187.826 341.909 187.129 341.748 186.422 341.748C185.715 341.748 185.018 341.909 184.384 342.22C184.326 342.249 184.281 342.3 184.26 342.361C184.239 342.423 184.243 342.49 184.272 342.549C184.301 342.607 184.352 342.652 184.413 342.673C184.475 342.694 184.543 342.689 184.601 342.661C185.166 342.393 185.783 342.254 186.408 342.254C187.033 342.254 187.65 342.393 188.214 342.661C188.246 342.68 188.284 342.689 188.321 342.685C188.371 342.686 188.42 342.674 188.463 342.65C188.507 342.626 188.543 342.592 188.57 342.551Z" fill="white"/>
<path d="M188.57 343.807C188.595 343.748 188.597 343.682 188.577 343.621C188.556 343.561 188.515 343.509 188.46 343.477C187.826 343.166 187.129 343.004 186.422 343.004C185.716 343.004 185.018 343.166 184.384 343.477C184.355 343.491 184.329 343.51 184.307 343.535C184.286 343.559 184.269 343.587 184.259 343.618C184.249 343.649 184.245 343.682 184.247 343.714C184.25 343.746 184.259 343.778 184.274 343.807C184.288 343.836 184.307 343.862 184.331 343.884C184.356 343.905 184.384 343.922 184.415 343.931C184.445 343.941 184.478 343.945 184.51 343.942C184.542 343.939 184.573 343.929 184.601 343.913C185.166 343.645 185.783 343.506 186.408 343.506C187.033 343.506 187.65 343.645 188.214 343.913C188.239 343.942 188.296 343.942 188.321 343.942C188.371 343.942 188.42 343.93 188.463 343.907C188.507 343.883 188.543 343.849 188.57 343.807Z" fill="white"/>
<path d="M188.57 345.035C188.594 344.976 188.597 344.911 188.576 344.85C188.556 344.789 188.515 344.738 188.46 344.705C187.826 344.394 187.129 344.233 186.422 344.233C185.715 344.233 185.018 344.394 184.384 344.705C184.326 344.734 184.281 344.785 184.26 344.846C184.239 344.908 184.243 344.975 184.272 345.034C184.301 345.092 184.352 345.137 184.413 345.158C184.475 345.179 184.543 345.174 184.601 345.146C185.166 344.878 185.783 344.739 186.408 344.739C187.033 344.739 187.65 344.878 188.214 345.146C188.246 345.165 188.284 345.174 188.321 345.17C188.371 345.171 188.42 345.159 188.463 345.135C188.507 345.111 188.543 345.077 188.57 345.035Z" fill="white"/>
<path d="M211.003 332.28L220.271 332.255L220.505 337.58C220.535 338.266 220.721 338.937 221.049 339.541C221.376 340.145 221.837 340.667 222.397 341.066L229.193 345.912L212.159 345.493L211.003 332.28Z" fill="#FC9D9D"/>
<path opacity="0.15" d="M217.091 343.349L219.534 344.318L212.105 345.131L211.291 336.118H220.374L220.427 337.183L214.993 337.971C214.711 338.012 214.456 338.16 214.28 338.384C214.104 338.608 214.02 338.891 214.047 339.174V339.281C214.129 340.173 214.456 341.026 214.994 341.744C215.531 342.462 216.257 343.018 217.091 343.349Z" fill="black"/>
<path d="M211.974 341.752L215.598 342.877C215.857 342.957 216.133 342.971 216.399 342.916C216.665 342.861 216.913 342.741 217.12 342.565L219.965 340.126C220.277 339.857 220.672 339.705 221.084 339.695C221.496 339.686 221.899 339.819 222.223 340.073L228.681 345.078L233.774 346.757C234.506 347.002 235.142 347.469 235.595 348.094C236.047 348.719 236.292 349.469 236.295 350.24C236.294 350.455 236.208 350.661 236.055 350.813C235.903 350.966 235.696 351.052 235.481 351.053H212.92C212.664 351.054 212.412 351.004 212.175 350.907C211.94 350.81 211.725 350.667 211.545 350.487C211.364 350.307 211.221 350.093 211.124 349.857C211.027 349.622 210.977 349.369 210.978 349.114V342.483C210.98 342.363 211.009 342.246 211.064 342.14C211.119 342.033 211.197 341.941 211.294 341.87C211.39 341.799 211.502 341.752 211.62 341.731C211.738 341.711 211.859 341.718 211.974 341.752Z" fill="#4D61FC"/>
<path opacity="0.6" d="M211.003 349.427H236.203C236.278 349.691 236.314 349.965 236.309 350.24C236.308 350.455 236.222 350.661 236.069 350.813C235.917 350.966 235.711 351.052 235.495 351.053H212.92C212.459 351.052 212.014 350.888 211.663 350.591C211.312 350.293 211.078 349.881 211.003 349.427Z" fill="black"/>
<path d="M222.266 342.667L223.628 341.201C223.666 341.163 223.687 341.111 223.687 341.057C223.687 341.003 223.666 340.952 223.628 340.914C223.59 340.876 223.538 340.854 223.484 340.854C223.43 340.854 223.378 340.876 223.34 340.914L221.974 342.38C221.936 342.418 221.915 342.47 221.915 342.524C221.915 342.577 221.936 342.629 221.974 342.667C222.01 342.7 222.057 342.719 222.106 342.721C222.162 342.716 222.217 342.697 222.266 342.667Z" fill="white"/>
<path d="M223.333 343.505L224.698 342.039C224.736 342.001 224.758 341.949 224.758 341.895C224.758 341.841 224.736 341.789 224.698 341.751C224.66 341.713 224.608 341.692 224.554 341.692C224.5 341.692 224.448 341.713 224.41 341.751L223.045 343.217C223.007 343.256 222.986 343.307 222.986 343.361C222.986 343.415 223.007 343.466 223.045 343.505C223.08 343.539 223.127 343.558 223.176 343.558C223.232 343.553 223.285 343.535 223.333 343.505Z" fill="white"/>
<path d="M224.417 344.35L225.783 342.88C225.82 342.842 225.841 342.79 225.841 342.737C225.841 342.683 225.82 342.631 225.783 342.593C225.744 342.555 225.691 342.534 225.637 342.534C225.583 342.534 225.53 342.555 225.491 342.593L224.129 344.059C224.091 344.098 224.07 344.15 224.07 344.205C224.07 344.259 224.091 344.311 224.129 344.35C224.166 344.382 224.212 344.4 224.261 344.4C224.317 344.403 224.373 344.385 224.417 344.35Z" fill="white"/>
<path d="M217.002 239.032L221.238 336.103H210.886L201.764 258.085C201.733 257.825 201.607 257.585 201.411 257.411C201.214 257.238 200.96 257.142 200.697 257.144C200.434 257.147 200.182 257.247 199.988 257.425C199.794 257.603 199.673 257.845 199.648 258.106L191.945 336.103H181.724L183.022 241.627L217.002 239.032Z" fill="#21252B"/>
<path opacity="0.3" d="M186.792 241.34L184.015 336.103H181.717L183.015 241.627L186.792 241.34Z" fill="black"/>
<path opacity="0.3" d="M200.715 257.152C200.977 257.15 201.232 257.245 201.428 257.418C201.625 257.592 201.751 257.832 201.782 258.092L210.886 336.104H213.731L205.1 259.15C204.669 256.044 200.715 257.152 200.715 257.152Z" fill="black"/>
<path d="M225.509 178.189L209.193 165.494L213.375 161.074C213.375 161.074 234.04 171.231 238.578 178.189L233.937 181.671L225.509 178.189Z" fill="#FC9D9D"/>
<path d="M165.206 232.677L172.076 251.776L177.144 250.36L174.398 231.059L165.206 232.677Z" fill="#FC9D9D"/>
<path d="M196.476 182.47L206.529 182.406C206.529 182.406 212.575 180.872 215.107 180.557L225.509 178.178C225.509 178.178 234.983 180.063 238.571 178.178C238.571 178.178 240.637 183.24 235.228 185.924L213.375 196.83L214.325 203.149C214.325 203.149 217.604 228.272 218.418 249.544C218.423 249.663 218.381 249.778 218.301 249.867C218.221 249.955 218.11 250.009 217.991 250.016L182.486 252.646C182.424 252.651 182.363 252.643 182.305 252.623C182.247 252.603 182.194 252.572 182.148 252.531C182.102 252.491 182.065 252.441 182.039 252.386C182.013 252.331 181.998 252.271 181.995 252.21L180.473 218.939L175.412 206.937L173.83 221.779L175.096 230.938L164.473 232.809L162.08 222.912C161.899 222.161 161.841 221.387 161.906 220.618L164.014 195.25C164.014 195.25 164.014 188.931 168.446 186.73L183.833 181.916L196.476 182.47Z" fill="#4D61FC"/>
<path opacity="0.3" d="M191.945 336.104L192.094 334.371H181.756L181.717 336.104H191.945Z" fill="black"/>
<path opacity="0.3" d="M210.708 334.371H221.156L221.238 336.104H210.896L210.708 334.371Z" fill="black"/>
<path d="M199.562 166.58C200.524 166.463 201.4 165.969 201.996 165.207C202.593 164.446 202.863 163.479 202.745 162.519C202.628 161.559 202.133 160.685 201.37 160.089C200.607 159.493 199.638 159.224 198.677 159.341C198.567 159.341 198.268 159.302 198.321 159.409C199.377 162.497 198.755 166.644 199.562 166.58Z" fill="black"/>
<path d="M183.833 181.913C183.833 182.098 190.793 186.56 193.912 185.935C195.494 185.619 196.511 182.662 196.476 182.481L195.622 177.586V175.047C195.768 174.462 196.469 173.908 196.469 173.134C196.689 169.566 197.095 166.329 197.095 166.329C197.095 166.329 185.412 158.519 184.676 167.617L184.381 168.941L183.833 181.913Z" fill="#FC9D9D"/>
<path opacity="0.15" d="M188.314 176.79C189.16 177.642 190.224 178.359 192.304 178.487C193.897 179.428 194.893 179.424 195.811 179.314L195.54 177.305C194.545 178.37 190.359 178.647 188.588 176.506C188.545 176.439 188.396 176.449 188.328 176.506C188.303 176.549 188.288 176.596 188.286 176.646C188.283 176.696 188.293 176.745 188.314 176.79Z" fill="black"/>
<path d="M198.008 155.188C198.008 155.188 203.898 176.229 194.097 178.057C185.611 179.634 183.976 166.367 183.976 166.367L183.94 157.734L190.395 154.78L198.008 155.188Z" fill="#FC9D9D"/>
<path d="M195.594 160.517C194.488 159.203 192.749 158.312 190.992 158.49C189.011 158.689 187.525 160.396 187.894 162.693L187.973 163.201C188.009 163.432 187.953 163.668 187.817 163.858C187.68 164.049 187.474 164.179 187.244 164.219C187.027 164.241 186.816 164.305 186.624 164.409C186.432 164.512 186.262 164.652 186.125 164.821C185.988 164.99 185.885 165.184 185.823 165.393C185.761 165.602 185.741 165.821 185.764 166.037L185.924 167.539C185.93 167.626 185.902 167.712 185.844 167.779C185.787 167.845 185.706 167.886 185.618 167.894C185.618 167.894 185.185 168 185.081 167.642L184.726 166.044L185.53 156.814L192.934 154.223L196.312 156.64L195.594 160.517Z" fill="black"/>
<path opacity="0.15" d="M184.104 168.248C184.104 168.248 184.637 170.006 185.053 169.196L184.42 170.776L184.104 168.248Z" fill="black"/>
<path d="M195.974 173.24L191.97 172.64C191.986 173.091 192.157 173.523 192.454 173.862C192.751 174.202 193.157 174.428 193.602 174.504C195.512 174.831 195.974 173.24 195.974 173.24Z" fill="white"/>
<path d="M191.586 165.785C191.426 165.798 191.274 165.858 191.148 165.958C191.023 166.058 190.929 166.193 190.881 166.345C190.832 166.497 190.829 166.661 190.874 166.815C190.918 166.969 191.007 167.106 191.129 167.21C191.252 167.313 191.402 167.378 191.562 167.396C191.721 167.414 191.882 167.384 192.025 167.311C192.167 167.237 192.285 167.123 192.363 166.983C192.44 166.843 192.474 166.683 192.461 166.523C192.443 166.31 192.341 166.112 192.176 165.974C192.012 165.835 191.8 165.767 191.586 165.785Z" fill="black"/>
<path d="M192.021 166.484C192.101 166.477 192.161 166.407 192.155 166.327C192.148 166.246 192.078 166.187 191.997 166.193C191.917 166.2 191.857 166.27 191.864 166.35C191.87 166.43 191.941 166.49 192.021 166.484Z" fill="white"/>
<path d="M197.951 167.113C198.399 167.113 198.762 166.75 198.762 166.303C198.762 165.856 198.399 165.494 197.951 165.494C197.504 165.494 197.141 165.856 197.141 166.303C197.141 166.75 197.504 167.113 197.951 167.113Z" fill="black"/>
<path d="M198.279 166.156C198.359 166.149 198.419 166.079 198.412 165.999C198.406 165.918 198.336 165.859 198.255 165.866C198.175 165.872 198.115 165.942 198.122 166.022C198.128 166.102 198.199 166.162 198.279 166.156Z" fill="white"/>
<path opacity="0.25" d="M195.448 170.975L194.42 171.092C194.36 171.09 194.302 171.07 194.253 171.034C194.204 170.999 194.167 170.95 194.146 170.893C194.151 170.834 194.171 170.777 194.207 170.728C194.242 170.68 194.29 170.642 194.345 170.62L195.373 170.499C195.493 170.481 195.6 170.418 195.675 170.323C195.75 170.228 195.785 170.109 195.775 169.988C195.715 169.733 195.476 169.53 195.259 169.587C195.2 169.583 195.142 169.562 195.094 169.527C195.046 169.492 195.008 169.444 194.986 169.388C194.939 169.282 195.078 169.157 195.185 169.111C195.431 169.084 195.679 169.152 195.877 169.301C196.076 169.45 196.21 169.669 196.252 169.914C196.271 170.036 196.266 170.162 196.237 170.283C196.207 170.404 196.152 170.517 196.077 170.616C196.002 170.715 195.908 170.798 195.8 170.86C195.691 170.922 195.572 170.961 195.448 170.975Z" fill="black"/>
<path d="M181.586 160.584C181.692 158.248 182.763 156.427 184.747 155.823C185.587 155.585 186.473 155.551 187.329 155.724C187.406 155.743 187.486 155.745 187.565 155.732C187.643 155.719 187.718 155.69 187.784 155.646C187.851 155.603 187.908 155.547 187.952 155.481C187.996 155.415 188.026 155.341 188.04 155.262C188.169 154.485 188.554 153.772 189.133 153.237C189.713 152.701 190.454 152.373 191.241 152.305C191.792 152.255 192.348 152.338 192.861 152.547C193.373 152.757 193.828 153.087 194.185 153.509C194.236 153.572 194.3 153.623 194.372 153.66C194.445 153.697 194.524 153.717 194.605 153.721C194.686 153.725 194.767 153.711 194.843 153.681C194.918 153.651 194.986 153.606 195.042 153.548C195.042 153.548 197.24 151.489 200.48 153.143C201.573 153.739 202.406 154.718 202.817 155.891C203.228 157.064 203.189 158.348 202.706 159.494C201.657 162.054 198.485 163.044 196.348 161.34C195.446 160.58 194.869 159.504 194.737 158.333C194.574 157.528 194.582 156.697 194.758 155.894L193.73 155.98C192.514 156.004 190.586 155.937 188.805 156.335C188.847 156.366 188.883 156.363 188.922 156.398L185.814 157.723C185.814 157.723 185.508 166.243 184.989 166.204C182.724 165.916 181.461 162.696 181.586 160.584Z" fill="black"/>
<g opacity="0.4">
<path opacity="0.4" d="M175.416 200.93C175.377 200.93 175.34 200.915 175.312 200.89C175.283 200.865 175.264 200.83 175.259 200.792C175.047 199.081 174.494 197.43 173.633 195.935C172.772 194.441 171.62 193.134 170.245 192.091C170.228 192.079 170.213 192.065 170.201 192.048C170.19 192.03 170.182 192.011 170.177 191.991C170.174 191.97 170.173 191.95 170.177 191.929C170.181 191.909 170.189 191.89 170.201 191.873C170.212 191.855 170.227 191.841 170.244 191.829C170.261 191.817 170.281 191.809 170.301 191.805C170.321 191.801 170.342 191.801 170.362 191.805C170.383 191.809 170.402 191.817 170.419 191.828C171.832 192.896 173.016 194.237 173.901 195.77C174.786 197.303 175.354 198.997 175.572 200.753C175.575 200.773 175.573 200.794 175.567 200.814C175.562 200.834 175.552 200.853 175.539 200.869C175.526 200.885 175.51 200.898 175.492 200.908C175.474 200.918 175.454 200.925 175.434 200.927L175.416 200.93Z" fill="black"/>
</g>
<path opacity="0.3" d="M182.478 252.646L186.792 252.345L186.081 241.34L184.658 220.423C184.508 218.959 184.111 217.531 183.485 216.199L176.212 200.777L174.946 197.937L175.231 198.931C175.878 201.186 176.006 203.557 175.608 205.868L175.423 206.933L180.483 218.936L182.005 252.206C182.007 252.266 182.021 252.326 182.046 252.38C182.071 252.435 182.106 252.484 182.15 252.525C182.194 252.566 182.245 252.597 182.302 252.618C182.358 252.639 182.418 252.649 182.478 252.646Z" fill="black"/>
<path opacity="0.3" d="M213.375 196.829L235.235 185.934C240.644 183.251 238.578 178.188 238.578 178.188C238.112 178.422 237.617 178.594 237.106 178.7C237.742 182.995 230.225 185.931 230.225 185.931L212.088 192.719L213.375 196.829Z" fill="black"/>
<g opacity="0.4">
<path opacity="0.4" d="M213.375 196.99C213.341 196.989 213.308 196.978 213.28 196.957C213.253 196.937 213.232 196.909 213.222 196.876C213.222 196.819 211.479 191.033 210.861 189.797C210.849 189.778 210.84 189.757 210.837 189.735C210.833 189.713 210.835 189.69 210.841 189.668C210.846 189.647 210.857 189.626 210.871 189.609C210.886 189.592 210.903 189.577 210.923 189.568C210.944 189.558 210.966 189.552 210.988 189.551C211.011 189.55 211.033 189.554 211.054 189.562C211.075 189.57 211.094 189.583 211.11 189.599C211.125 189.615 211.137 189.634 211.145 189.655C211.775 190.915 213.457 196.546 213.528 196.787C213.539 196.827 213.534 196.87 213.514 196.906C213.494 196.943 213.461 196.97 213.421 196.982L213.375 196.99Z" fill="black"/>
</g>
<g opacity="0.4">
<path opacity="0.4" d="M197.141 227.501C197.106 227.502 197.072 227.49 197.044 227.469C197.016 227.448 196.996 227.418 196.988 227.384C196.978 227.344 196.984 227.302 197.005 227.266C197.025 227.231 197.059 227.204 197.098 227.193C197.166 227.175 203.702 225.364 206.768 219.738C206.789 219.701 206.823 219.674 206.863 219.662C206.903 219.65 206.947 219.654 206.984 219.674C207.02 219.695 207.047 219.729 207.059 219.769C207.071 219.81 207.067 219.853 207.048 219.89C203.912 225.645 197.247 227.487 197.18 227.505L197.141 227.501Z" fill="black"/>
</g>
<g opacity="0.4">
<path opacity="0.4" d="M170.344 221.939C170.313 221.939 170.283 221.93 170.257 221.913C170.231 221.896 170.211 221.872 170.199 221.843C170.183 221.804 170.183 221.76 170.199 221.721C170.215 221.682 170.245 221.651 170.284 221.634C171.433 221.147 173.769 221.605 173.869 221.634C173.889 221.638 173.908 221.646 173.926 221.658C173.943 221.669 173.957 221.684 173.969 221.701C173.98 221.719 173.988 221.738 173.992 221.759C173.996 221.779 173.996 221.8 173.991 221.82C173.987 221.841 173.979 221.86 173.967 221.877C173.956 221.894 173.941 221.909 173.923 221.92C173.906 221.931 173.887 221.939 173.866 221.943C173.846 221.947 173.825 221.947 173.805 221.942C173.783 221.942 171.468 221.485 170.408 221.942C170.387 221.946 170.365 221.945 170.344 221.939Z" fill="black"/>
</g>
<path opacity="0.5" d="M193.556 186.29C193.556 186.29 197.408 196.315 198.457 200.93" stroke="black" stroke-width="4" stroke-miterlimit="10"/>
<path opacity="0.1" d="M194.228 161.933C194.228 161.933 193.204 164.62 199.563 163.751L199.42 162.629L197.07 161.301L194.228 161.933Z" fill="black"/>
<path d="M210.793 252.288C207.574 251.164 204.094 251.019 200.793 251.87C197.491 252.721 194.517 254.53 192.245 257.068C189.973 259.607 188.507 262.761 188.031 266.131C187.555 269.501 188.091 272.937 189.57 276.004C191.051 279.07 193.408 281.63 196.346 283.359C199.283 285.088 202.667 285.908 206.072 285.717C209.476 285.526 212.747 284.331 215.472 282.284C218.196 280.237 220.251 277.429 221.377 274.216C222.124 272.083 222.443 269.823 222.316 267.566C222.189 265.31 221.618 263.1 220.635 261.064C219.652 259.028 218.277 257.204 216.588 255.699C214.9 254.193 212.93 253.034 210.793 252.288ZM200.299 282.246C197.582 281.298 195.207 279.567 193.476 277.272C191.745 274.977 190.734 272.22 190.572 269.352C190.41 266.483 191.103 263.631 192.565 261.156C194.027 258.681 196.191 256.694 198.784 255.447C201.377 254.2 204.282 253.748 207.132 254.149C209.982 254.55 212.649 255.786 214.795 257.7C216.942 259.614 218.472 262.12 219.191 264.902C219.911 267.684 219.788 270.617 218.837 273.329C217.563 276.965 214.895 279.948 211.418 281.62C207.941 283.292 203.942 283.518 200.299 282.246Z" fill="#21252B"/>
<path d="M167.431 252.231L190.326 260.255L189.074 263.815L166.178 255.792C166.022 255.737 165.877 255.651 165.753 255.541C165.63 255.43 165.529 255.296 165.457 255.147C165.385 254.998 165.344 254.835 165.334 254.67C165.325 254.504 165.349 254.339 165.404 254.182L165.818 253.004C165.929 252.688 166.162 252.429 166.464 252.284C166.766 252.139 167.114 252.12 167.431 252.231Z" fill="#21252B"/>
<path opacity="0.3" d="M205.1 283.851C213.574 283.851 220.445 276.992 220.445 268.532C220.445 260.072 213.574 253.214 205.1 253.214C196.625 253.214 189.754 260.072 189.754 268.532C189.754 276.992 196.625 283.851 205.1 283.851Z" fill="black"/>
<path opacity="0.3" d="M190.547 268.533L211.241 255.426C211.241 255.426 216.38 257.939 218.596 262.995L192.905 276.346C192.905 276.346 190.348 272.494 190.547 268.533Z" fill="white"/>
<path opacity="0.3" d="M194.861 278.785L219.659 266.377C219.659 266.377 219.84 269.952 219.054 272.473L198.656 281.625C198.577 281.696 195.967 280.038 194.861 278.785Z" fill="white"/>
<path d="M208.464 159.107L206.974 158.685L203.098 157.513L199.687 158.088C199.605 158.119 199.537 158.178 199.497 158.256C199.456 158.333 199.445 158.423 199.467 158.507C199.566 158.887 199.822 159.444 200.562 159.189L198.033 159.377C197.941 159.386 197.854 159.423 197.784 159.484C197.714 159.544 197.665 159.625 197.642 159.714L197.582 159.945C197.493 160.3 198.403 160.655 198.784 160.655H198.983L196.739 160.747C196.687 160.764 196.639 160.792 196.598 160.828C196.557 160.864 196.524 160.909 196.501 160.958C196.478 161.008 196.465 161.062 196.464 161.116C196.463 161.171 196.473 161.226 196.494 161.276C196.611 161.564 196.767 161.904 196.878 161.944C196.988 161.983 195.292 162.157 194.641 162.213C194.608 162.216 194.576 162.226 194.548 162.242C194.52 162.259 194.496 162.282 194.478 162.31C194.46 162.337 194.449 162.368 194.445 162.401C194.441 162.433 194.445 162.466 194.456 162.497C194.595 162.891 195.1 163.58 196.92 163.562C199.463 163.534 200.423 163.104 200.423 163.104L202.45 163.644L202.351 164.862L199.595 164.819L199.719 166.363C200.125 166.555 203.275 166.903 203.275 166.903C203.275 166.903 207.543 166.967 208.684 166.413C209.826 165.859 210.672 165.408 210.672 165.408L213.834 161.301L208.464 159.107Z" fill="#FC9D9D"/>
<path opacity="0.15" d="M202.777 163.214C202.777 163.214 204.986 161.933 205.932 160.353" stroke="black" stroke-width="0.67" stroke-miterlimit="10" stroke-linecap="round"/>
<path opacity="0.15" d="M199.765 164.933L203.641 165.004C203.641 165.004 205.341 163.14 207.141 163.563" stroke="black" stroke-width="0.67" stroke-miterlimit="10" stroke-linecap="round"/>
<path opacity="0.15" d="M197.094 162.146C197.094 162.146 199.751 162.093 200.786 161.383C200.786 161.383 201.348 162.093 202.777 162.043" stroke="black" stroke-width="0.67" stroke-miterlimit="10" stroke-linecap="round"/>
<path opacity="0.15" d="M198.972 160.669C199.88 160.591 200.78 160.433 201.661 160.197C202.272 160.714 203.034 161.022 203.834 161.074" stroke="black" stroke-width="0.67" stroke-miterlimit="10" stroke-linecap="round"/>
<path opacity="0.15" d="M200.256 159.31C201.072 159.342 201.885 159.21 202.649 158.923L204.356 159.711" stroke="black" stroke-width="0.67" stroke-miterlimit="10" stroke-linecap="round"/>
<path d="M177.027 250.218L179.36 254.194L180.818 257.616L178.616 257.07C178.616 257.07 177.674 261.564 177.304 261.685C176.934 261.805 175.882 261.436 175.985 260.574C175.83 260.725 175.642 260.84 175.437 260.908C175.231 260.976 175.012 260.997 174.797 260.968C174.135 260.829 173.975 260.403 174.05 259.583C174.05 259.583 173.737 260.204 172.82 259.817C172.261 259.583 172.4 258.752 172.4 258.752C172.4 258.752 171.397 258.838 171.258 258.319C171.114 257.47 171.096 256.604 171.205 255.749L171.803 252.874L172.03 251.017L177.027 250.218Z" fill="#FC9D9D"/>
<path opacity="0.15" d="M172.4 258.749C172.572 258.17 172.683 257.575 172.731 256.974" stroke="black" stroke-width="0.66" stroke-miterlimit="10" stroke-linecap="round"/>
<path opacity="0.15" d="M174.018 259.54C174.234 258.866 174.373 258.169 174.434 257.464" stroke="black" stroke-width="0.66" stroke-miterlimit="10" stroke-linecap="round"/>
<path opacity="0.15" d="M175.984 260.57C176.223 259.72 176.388 258.852 176.479 257.975" stroke="black" stroke-width="0.66" stroke-miterlimit="10" stroke-linecap="round"/>
<path opacity="0.15" d="M167.161 232.334L172.73 251.319L171.664 255.962V258.668C171.664 258.668 171.237 258.81 171.194 257.745L171.155 256.25L171.276 255.462L171.987 251.536L165.209 232.678L167.161 232.334Z" fill="black"/>
<path opacity="0.3" d="M164.014 195.25L161.898 220.615C161.833 221.383 161.892 222.158 162.073 222.908L164.462 232.805L167.162 232.33L164.317 221.935L166.39 192.563C166.39 192.563 166.489 188.764 168.972 186.56L168.449 186.723C164.014 188.934 164.014 195.25 164.014 195.25Z" fill="black"/>
<path d="M200.242 164.39H196.778H196.298H193.275H189.331C189.028 164.389 188.737 164.508 188.522 164.721C188.306 164.934 188.184 165.223 188.183 165.526V166.406C188.183 167.231 188.511 168.022 189.095 168.605C189.679 169.188 190.472 169.516 191.298 169.516C192.124 169.516 192.916 169.188 193.501 168.605C194.085 168.022 194.413 167.231 194.413 166.406V165.522C194.421 165.397 194.403 165.271 194.362 165.152C194.32 165.033 194.256 164.924 194.171 164.83H195.391C195.306 164.927 195.241 165.039 195.2 165.161C195.159 165.283 195.143 165.412 195.153 165.54V166.424C195.153 167.249 195.481 168.04 196.065 168.623C196.65 169.206 197.442 169.534 198.268 169.534C199.094 169.534 199.887 169.206 200.471 168.623C201.055 168.04 201.383 167.249 201.383 166.424V165.54C201.37 165.241 201.245 164.958 201.035 164.746C200.824 164.533 200.541 164.407 200.242 164.39ZM194.008 165.558V166.442C193.983 167.128 193.692 167.778 193.197 168.254C192.702 168.73 192.041 168.997 191.353 168.997C190.665 168.997 190.004 168.73 189.509 168.254C189.014 167.778 188.724 167.128 188.698 166.442V165.558C188.705 165.379 188.779 165.21 188.906 165.084C189.033 164.957 189.202 164.883 189.381 164.876H193.325C193.499 164.897 193.66 164.976 193.784 165.099C193.908 165.223 193.987 165.385 194.008 165.558ZM200.928 166.467C200.903 167.153 200.612 167.802 200.117 168.279C199.622 168.755 198.961 169.022 198.273 169.022C197.586 169.022 196.925 168.755 196.43 168.279C195.935 167.802 195.644 167.153 195.619 166.467V165.583C195.621 165.403 195.693 165.232 195.819 165.104C195.946 164.977 196.118 164.904 196.298 164.901H196.778H200.242C200.422 164.903 200.594 164.975 200.721 165.102C200.849 165.228 200.922 165.399 200.925 165.579L200.928 166.467Z" fill="black"/>
<path d="M183.588 180.673C183.588 180.673 188.794 184.202 193.616 185.111C193.616 185.111 195.651 183.361 196.333 181.316L196.803 182.47C196.329 184.239 195.32 185.819 193.912 186.992C193.912 186.992 186.607 185.246 183.278 182.079L183.588 180.673Z" fill="#4D61FC"/>
<path opacity="0.5" d="M183.588 180.673C183.588 180.673 188.794 184.202 193.616 185.111C193.616 185.111 195.651 183.361 196.333 181.316L196.803 182.47C196.329 184.239 195.32 185.819 193.912 186.992C193.912 186.992 186.607 185.246 183.278 182.079L183.588 180.673Z" fill="black"/>
<path opacity="0.5" d="M164.042 231.059L174.857 229.284L175.088 230.938L164.462 232.809L164.042 231.059Z" fill="black"/>
<path opacity="0.5" d="M238.902 179.591L238.571 178.188C234.983 180.073 225.509 178.188 225.509 178.188L223.688 178.565C228.534 180.457 233.845 180.815 238.902 179.591Z" fill="black"/>
<path d="M193.46 186.375C193.656 186.375 193.816 186.216 193.816 186.02C193.816 185.824 193.656 185.665 193.46 185.665C193.264 185.665 193.104 185.824 193.104 186.02C193.104 186.216 193.264 186.375 193.46 186.375Z" fill="white"/>
<path d="M195.238 191.345C195.434 191.345 195.594 191.186 195.594 190.99C195.594 190.794 195.434 190.635 195.238 190.635C195.042 190.635 194.883 190.794 194.883 190.99C194.883 191.186 195.042 191.345 195.238 191.345Z" fill="white"/>
<path d="M196.661 195.605C196.857 195.605 197.016 195.446 197.016 195.25C197.016 195.054 196.857 194.895 196.661 194.895C196.464 194.895 196.305 195.054 196.305 195.25C196.305 195.446 196.464 195.605 196.661 195.605Z" fill="white"/>
<path d="M198.083 199.51C198.279 199.51 198.439 199.351 198.439 199.155C198.439 198.959 198.279 198.8 198.083 198.8C197.887 198.8 197.728 198.959 197.728 199.155C197.728 199.351 197.887 199.51 198.083 199.51Z" fill="white"/>
<path d="M209.869 166.023L212.735 160.85L214.282 161.532L211.028 166.921L209.869 166.023Z" fill="#21252B"/>
<path opacity="0.7" d="M194.438 176.435C193.265 176.129 192.054 175.989 190.843 176.02C190.085 176.02 189.441 175.626 188.847 175.153C185.992 172.885 185.636 165.43 185.636 165.43L185.092 169.452C185.992 173.95 188.481 179.105 194.1 178.061C196.266 177.656 197.656 176.311 198.531 174.468L198.983 173.13C198.478 174.172 197.763 175.098 196.885 175.853C196.559 176.148 196.164 176.356 195.736 176.457C195.308 176.559 194.862 176.551 194.438 176.435Z" fill="black"/>
<path d="M184.669 165.317C184.608 165.106 184.502 164.911 184.357 164.745C184.213 164.579 184.034 164.447 183.833 164.358C183.632 164.268 183.414 164.224 183.194 164.228C182.974 164.232 182.758 164.283 182.56 164.38C180.697 165.09 181.34 168.909 183.947 169.584C185.551 169.783 185.252 168.849 185.039 167.575L184.669 165.317Z" fill="#FC9D9D"/>
<path opacity="0.25" d="M182.436 165.462C182.563 165.363 182.711 165.294 182.869 165.262C183.027 165.23 183.19 165.235 183.346 165.277C183.491 165.323 183.625 165.397 183.741 165.495C183.857 165.593 183.952 165.714 184.022 165.849C184.212 166.191 184.296 166.583 184.26 166.974L184.288 167.304C184.294 167.333 184.292 167.363 184.284 167.392C184.275 167.42 184.26 167.446 184.24 167.468C184.219 167.489 184.194 167.506 184.166 167.516C184.138 167.526 184.108 167.529 184.079 167.525C184.049 167.521 184.021 167.511 183.996 167.494C183.972 167.477 183.952 167.455 183.938 167.429C183.924 167.403 183.915 167.374 183.915 167.344C183.914 167.314 183.92 167.285 183.933 167.258L183.904 166.928C183.904 166.604 183.841 166.283 183.719 165.983C183.619 165.805 183.465 165.663 183.278 165.579C183.076 165.55 182.869 165.593 182.695 165.699C182.651 165.72 182.602 165.725 182.555 165.716C182.507 165.706 182.464 165.682 182.432 165.646C182.332 165.653 182.361 165.54 182.436 165.462Z" fill="black"/>
<path opacity="0.7" d="M191.6 171.977C192.208 171.622 194.207 171.764 194.207 171.764C194.207 171.764 196.177 172.151 196.668 172.648C196.808 172.773 196.908 172.936 196.956 173.119C197.003 173.3 196.996 173.492 196.934 173.67C196.934 173.67 196.735 172.992 196.33 173.02C196.127 173.02 194.552 172.946 194.196 172.509C194.175 172.483 194.145 172.466 194.112 172.462C194.079 172.457 194.046 172.465 194.018 172.484C193.574 172.807 192.03 172.442 191.828 172.424C191.515 172.399 191.084 172.821 191.084 172.821C191.072 172.645 191.115 172.468 191.207 172.317C191.3 172.166 191.437 172.047 191.6 171.977Z" fill="black"/>
<path d="M132.534 310.916C130.511 281.945 128.267 280.031 128.182 279.964L128.32 279.701C128.42 279.747 130.76 281.178 132.833 310.895L132.534 310.916Z" fill="#3F4249"/>
<path d="M134.626 310.913H134.327C135.657 289.747 134.21 278.206 134.195 278.093L134.494 278.054C134.494 278.167 135.959 289.733 134.626 310.93" fill="#3F4249"/>
<path d="M136.45 311.545C134.835 298.346 138.939 288.292 138.989 288.193L139.266 288.306C139.224 288.406 135.145 298.392 136.749 311.509L136.45 311.545Z" fill="#3F4249"/>
<path d="M138.135 313.157C137.461 308.444 137.497 303.658 138.242 298.957L138.537 299.013C137.797 303.679 137.761 308.43 138.43 313.107L138.135 313.157Z" fill="#3F4249"/>
<path d="M139.049 288.43L140.354 288.32C141.279 288.245 142.177 287.972 142.986 287.518C143.38 287.284 143.79 287.078 144.213 286.9C145.824 286.254 147.623 286.371 149.359 286.282C152.197 286.137 154.978 285.428 157.538 284.195C157.686 284.126 157.811 284.013 157.894 283.872C158.161 283.385 157.663 282.949 157.236 282.686C155.038 281.334 152.801 279.967 150.308 279.296C147.815 278.625 144.992 278.739 142.865 280.198C140.376 281.912 139.458 285.434 139.039 288.43" fill="#4D61FC"/>
<path opacity="0.3" d="M157.926 283.712C157.85 283.684 157.777 283.649 157.706 283.61L157.087 283.286C156.55 283.002 155.778 282.576 154.804 282.122C153.668 281.565 152.485 281.11 151.269 280.762C149.781 280.342 148.224 280.221 146.688 280.407C145.152 280.575 143.699 281.192 142.513 282.182C141.589 283.04 140.85 284.076 140.34 285.228C139.882 286.205 139.601 287.035 139.394 287.603C139.298 287.877 139.22 288.093 139.163 288.26C139.137 288.337 139.106 288.413 139.071 288.487C139.081 288.406 139.1 288.326 139.128 288.249C139.181 288.079 139.245 287.859 139.33 287.582C139.582 286.764 139.882 285.961 140.23 285.179C140.732 284.001 141.473 282.94 142.407 282.062C143.613 281.036 145.099 280.395 146.674 280.219C148.233 280.035 149.813 280.168 151.319 280.61C152.545 280.965 153.736 281.434 154.875 282.012C155.846 282.495 156.61 282.928 157.137 283.226L157.738 283.581C157.812 283.618 157.881 283.663 157.944 283.716" fill="black"/>
<path opacity="0.3" d="M154.793 285.391C154.768 285.43 153.061 284.326 150.984 282.931C148.907 281.536 147.246 280.368 147.271 280.329C147.296 280.29 149.003 281.394 151.08 282.789C153.157 284.184 154.821 285.352 154.793 285.391Z" fill="black"/>
<path opacity="0.3" d="M152.976 280.237C152.16 280.466 151.307 280.536 150.465 280.443C150.878 280.371 151.297 280.33 151.717 280.318C152.134 280.26 152.554 280.233 152.976 280.237Z" fill="black"/>
<path opacity="0.3" d="M145.507 279.268C145.368 279.586 145.179 279.881 144.949 280.141C144.75 280.44 144.511 280.71 144.238 280.943C144.375 280.624 144.564 280.329 144.796 280.07C144.993 279.77 145.232 279.499 145.507 279.268Z" fill="black"/>
<path opacity="0.3" d="M147.037 286.393C146.749 286.274 146.473 286.125 146.215 285.949C145.725 285.651 145.056 285.214 144.345 284.699C143.634 284.185 143.008 283.695 142.567 283.336C142.311 283.158 142.073 282.956 141.855 282.733C142.133 282.875 142.395 283.045 142.638 283.24L144.455 284.557C145.166 285.072 145.814 285.523 146.29 285.846C146.556 286.006 146.809 286.189 147.044 286.393" fill="black"/>
<path d="M142.581 329.784H129.672L127.268 312.102H144.981L142.581 329.784Z" fill="#61656D"/>
<path d="M146.482 314.799H125.767L125.468 310.905H146.784L146.482 314.799Z" fill="#61656D"/>
<path opacity="0.2" d="M127.634 314.8H144.615L142.581 329.784L140.539 329.646L141.677 316L127.765 315.765L127.634 314.8Z" fill="black"/>
<path opacity="0.2" d="M142.047 310.934L141.446 314.799H146.482L146.784 310.905L142.047 310.934Z" fill="black"/>
<g opacity="0.2">
<g opacity="0.2">
<path opacity="0.2" d="M143.783 319.252H128.423V319.55H143.783V319.252Z" fill="white"/>
</g>
</g>
<g opacity="0.2">
<g opacity="0.2">
<path opacity="0.2" d="M143.783 320.451H128.423V320.75H143.783V320.451Z" fill="white"/>
</g>
</g>
<path d="M128.534 279.825C127.289 278.884 125.977 278.7 124.419 278.76C122.858 278.863 121.33 279.257 119.913 279.921C117.477 280.986 115.187 282.555 113.732 284.777C112.278 287 111.769 289.939 112.861 292.36C112.944 292.615 113.121 292.83 113.356 292.96C113.626 293.038 113.915 293.015 114.17 292.896C116.94 291.995 119.732 291.082 122.278 289.669C124.824 288.256 127.143 286.293 128.512 283.723C128.864 283.117 129.087 282.445 129.167 281.749C129.204 281.401 129.167 281.05 129.058 280.717C128.949 280.385 128.77 280.08 128.534 279.822" fill="#4D61FC"/>
<path opacity="0.3" d="M128.558 279.534C128.494 279.57 128.426 279.598 128.356 279.616L127.776 279.815L127.356 279.957C127.203 280.01 127.043 280.078 126.866 280.145C126.51 280.287 126.108 280.429 125.678 280.639L124.999 280.947C124.764 281.054 124.529 281.189 124.287 281.302C123.786 281.547 123.277 281.863 122.737 282.179C121.582 282.906 120.485 283.718 119.454 284.611C118.432 285.516 117.48 286.498 116.609 287.55C116.222 288.044 115.845 288.509 115.543 288.97C115.386 289.201 115.222 289.414 115.087 289.634L114.693 290.27C114.433 290.667 114.241 291.051 114.052 291.381C113.964 291.548 113.875 291.7 113.8 291.842C113.725 291.984 113.668 292.119 113.608 292.24L113.338 292.79C113.309 292.856 113.273 292.919 113.231 292.978C113.25 292.909 113.275 292.841 113.306 292.776C113.366 292.63 113.448 292.442 113.547 292.212C113.604 292.087 113.661 291.952 113.729 291.807C113.796 291.661 113.882 291.505 113.967 291.335C114.145 291.001 114.323 290.625 114.586 290.206L114.974 289.563C115.109 289.34 115.269 289.123 115.425 288.889C115.731 288.417 116.108 287.948 116.492 287.444C118.214 285.301 120.296 283.473 122.644 282.041C123.192 281.725 123.711 281.412 124.213 281.171C124.465 281.047 124.703 280.915 124.942 280.816L125.632 280.514C126.065 280.312 126.478 280.181 126.83 280.046C127.011 279.982 127.186 279.918 127.331 279.868L127.755 279.74L128.349 279.574C128.417 279.55 128.487 279.533 128.558 279.524" fill="black"/>
<path opacity="0.3" d="M118.85 284.781C117.861 285.16 116.852 285.485 115.827 285.753C114.819 286.08 113.793 286.348 112.754 286.559C113.744 286.182 114.753 285.857 115.777 285.586C116.786 285.262 117.812 284.994 118.85 284.781Z" fill="black"/>
<path opacity="0.3" d="M118.725 291.455C118.672 291.144 118.649 290.829 118.658 290.514C118.658 289.932 118.64 289.13 118.658 288.242C118.676 287.355 118.729 286.552 118.779 285.974C118.79 285.66 118.829 285.347 118.896 285.04C118.925 285.353 118.925 285.668 118.896 285.981C118.878 286.62 118.853 287.401 118.829 288.249C118.804 289.098 118.786 289.879 118.772 290.514C118.779 290.829 118.761 291.144 118.715 291.455" fill="black"/>
<path opacity="0.3" d="M124.44 288.533C124.39 288.533 124.238 286.904 124.085 284.887C123.932 282.871 123.871 281.234 123.918 281.231C123.964 281.227 124.117 282.86 124.273 284.877C124.43 286.893 124.487 288.529 124.44 288.533Z" fill="black"/>
<path opacity="0.3" d="M117.328 281.072C117.648 281.033 117.972 281.023 118.295 281.043C118.892 281.043 119.717 281.065 120.628 281.096C121.538 281.128 122.363 281.16 122.957 281.196C123.282 281.197 123.606 281.229 123.924 281.292C123.603 281.328 123.28 281.338 122.957 281.32C122.36 281.32 121.535 281.299 120.621 281.267C119.707 281.235 118.885 281.199 118.291 281.164C117.968 281.163 117.645 281.132 117.328 281.072Z" fill="black"/>
<path d="M126.037 273.524C125.499 274.49 124.964 275.455 124.433 276.421C124.398 276.488 124.348 276.563 124.27 276.57C124.191 276.577 124.124 276.499 124.078 276.428L119.846 269.938L120.82 269.385L126.037 273.524Z" fill="#4D61FC"/>
<path opacity="0.2" d="M126.037 273.524C125.499 274.49 124.964 275.455 124.433 276.421C124.398 276.488 124.348 276.563 124.27 276.57C124.191 276.577 124.124 276.499 124.078 276.428L119.846 269.938L120.82 269.385L126.037 273.524Z" fill="black"/>
<path d="M134.626 278.743L120.18 270.223C120.031 270.134 119.871 270.035 119.824 269.868C119.778 269.701 119.928 269.449 120.081 269.289C121.074 268.26 122.278 267.457 123.61 266.934C124.942 266.412 126.372 266.182 127.801 266.261C129.231 266.365 130.613 266.816 131.83 267.572C133.046 268.33 134.059 269.371 134.782 270.606C136.176 273.091 136.222 276.382 134.622 278.743" fill="#4D61FC"/>
<path opacity="0.3" d="M122.26 267.517C122.322 267.501 122.385 267.492 122.449 267.493C122.577 267.493 122.758 267.464 122.997 267.468C123.669 267.457 124.34 267.509 125.002 267.624C127.206 267.994 129.258 268.986 130.915 270.483C132.572 271.98 133.765 273.92 134.352 276.073C134.532 276.718 134.651 277.379 134.707 278.047C134.732 278.284 134.707 278.345 134.729 278.469C134.717 278.581 134.679 278.687 134.618 278.782C134.661 278.547 134.668 278.308 134.64 278.072C134.555 277.412 134.419 276.76 134.231 276.123C133.508 273.69 132.03 271.549 130.011 270.009C127.991 268.469 125.534 267.609 122.993 267.553C122.52 267.553 122.257 267.553 122.257 267.553" fill="black"/>
<path opacity="0.3" d="M132.669 272.871C132.44 273.009 132.196 273.12 131.94 273.201C131.482 273.382 130.838 273.613 130.116 273.84C129.394 274.067 128.74 274.252 128.26 274.369C128.003 274.448 127.738 274.498 127.47 274.518C127.711 274.403 127.964 274.313 128.224 274.252L130.066 273.677L131.901 273.087C132.149 272.988 132.406 272.915 132.669 272.871Z" fill="black"/>
<path opacity="0.3" d="M130.397 266.769C130.525 267.295 130.582 267.835 130.568 268.377C130.609 268.917 130.579 269.46 130.479 269.992C130.407 269.459 130.378 268.921 130.393 268.384C130.349 267.846 130.349 267.306 130.393 266.769" fill="black"/>
<path opacity="0.3" d="M120.052 270.073C120.39 269.922 120.741 269.803 121.101 269.718C121.759 269.516 122.673 269.26 123.693 269.008C124.714 268.756 125.642 268.575 126.318 268.454C126.681 268.375 127.049 268.325 127.42 268.305C127.072 268.421 126.715 268.511 126.353 268.575C125.685 268.724 124.76 268.93 123.743 269.175C122.726 269.42 121.809 269.654 121.147 269.828C120.791 269.935 120.429 270.019 120.062 270.08" fill="black"/>
<path d="M140.66 294.859C139.416 294.529 137.936 295.74 137.677 296.989C137.417 298.239 137.894 299.535 138.448 300.696C139.631 303.299 141.389 305.602 143.591 307.43C145.811 309.252 148.583 310.27 151.457 310.32C150.931 307.884 151.596 305.35 151.304 302.865C151.048 300.68 150.056 298.648 148.491 297.1C146.926 295.552 144.881 294.58 142.691 294.345C141.898 294.259 140.977 294.135 140.66 294.867" fill="#4D61FC"/>
<path opacity="0.3" d="M151.457 310.309C151.394 310.291 151.334 310.264 151.28 310.227C151.116 310.137 150.96 310.032 150.814 309.915C150.294 309.462 149.876 308.904 149.587 308.278C149.388 307.892 149.167 307.476 148.95 307.015L148.296 305.538C148.054 304.995 147.78 304.468 147.474 303.958C147.136 303.417 146.757 302.903 146.34 302.421C145.49 301.423 144.562 300.561 143.783 299.734C143.066 299.013 142.414 298.232 141.834 297.398C141.444 296.834 141.124 296.224 140.881 295.584C140.816 295.409 140.76 295.231 140.714 295.051C140.694 294.989 140.681 294.924 140.675 294.859C140.693 294.859 140.764 295.112 140.945 295.569C141.21 296.195 141.541 296.79 141.934 297.344C142.527 298.159 143.183 298.926 143.897 299.638C144.693 300.454 145.614 301.317 146.471 302.325C146.895 302.813 147.278 303.334 147.617 303.884C147.925 304.399 148.201 304.934 148.442 305.485C148.669 306.006 148.89 306.5 149.096 306.969C149.302 307.437 149.519 307.849 149.711 308.236C149.983 308.856 150.377 309.415 150.871 309.88C151.226 310.192 151.482 310.309 151.472 310.323" fill="black"/>
<path opacity="0.3" d="M145.024 308.285C145.031 308.003 145.069 307.722 145.138 307.447C145.237 306.936 145.397 306.233 145.611 305.47C145.824 304.707 146.059 304.022 146.244 303.535C146.325 303.266 146.439 303.007 146.582 302.765C146.535 303.042 146.46 303.313 146.358 303.574C146.205 304.071 146.002 304.757 145.778 305.516C145.554 306.276 145.387 306.972 145.259 307.476C145.206 307.752 145.127 308.023 145.024 308.285Z" fill="black"/>
<path opacity="0.3" d="M151.223 302.3C150.924 302.26 150.63 302.192 150.344 302.098C149.811 301.959 149.068 301.767 148.246 301.583C147.425 301.398 146.671 301.253 146.112 301.15C145.815 301.111 145.521 301.047 145.234 300.958C145.535 300.949 145.837 300.973 146.134 301.029C146.681 301.1 147.442 301.228 148.267 301.412C149.092 301.597 149.832 301.81 150.362 301.98C150.654 302.056 150.936 302.164 151.205 302.3" fill="black"/>
<path opacity="0.3" d="M140.408 304.04C140.422 303.713 140.467 303.389 140.543 303.071C140.653 302.478 140.827 301.651 141.059 300.774C141.29 299.897 141.539 299.087 141.734 298.516C141.824 298.202 141.943 297.898 142.09 297.607C142.037 297.928 141.957 298.244 141.852 298.551C141.688 299.13 141.46 299.929 141.226 300.816C140.991 301.704 140.802 302.51 140.664 303.095C140.606 303.417 140.52 303.733 140.408 304.04Z" fill="black"/>
<path opacity="0.3" d="M148.367 297.086C148.367 297.132 146.809 297.008 144.899 296.805C143.742 296.713 142.591 296.561 141.45 296.351C141.45 296.305 143.007 296.429 144.917 296.631C146.074 296.723 147.225 296.875 148.367 297.086Z" fill="black"/>
<path d="M134.53 282.58C134.423 281.451 133.278 280.596 132.14 280.585C131.57 280.61 131.015 280.765 130.514 281.036C130.013 281.307 129.58 281.688 129.249 282.151C128.592 283.083 128.119 284.131 127.854 285.239C127.09 287.902 126.67 290.703 126.997 293.454C127.325 296.205 128.445 298.914 130.422 300.859C130.742 301.175 131.162 301.491 131.603 301.395C131.841 301.325 132.055 301.193 132.225 301.012C134.161 299.242 135.696 297.079 136.726 294.668C137.756 292.258 138.259 289.656 138.2 287.036C138.168 285.988 138.032 284.906 137.449 284.029C136.866 283.152 135.518 282.229 134.53 282.58Z" fill="#4D61FC"/>
<path opacity="0.3" d="M131.041 301.238C131.029 301.174 131.022 301.109 131.019 301.043C131.019 300.898 131.019 300.717 130.994 300.489C130.973 300.007 130.97 299.307 130.994 298.445C131.019 297.582 131.069 296.56 131.172 295.42C131.275 294.28 131.45 293.041 131.681 291.742C131.912 290.443 132.207 289.222 132.502 288.118C132.797 287.014 133.114 286.034 133.406 285.221C133.697 284.408 133.943 283.751 134.135 283.307L134.355 282.793C134.379 282.733 134.407 282.674 134.44 282.619C134.43 282.684 134.413 282.747 134.387 282.807C134.337 282.942 134.273 283.116 134.199 283.329C134.024 283.78 133.793 284.44 133.519 285.256C133.246 286.073 132.95 287.06 132.659 288.16C132.367 289.261 132.09 290.482 131.851 291.774C131.613 293.066 131.453 294.305 131.332 295.438C131.211 296.57 131.147 297.589 131.115 298.452C131.083 299.314 131.069 300.007 131.069 300.489C131.069 300.713 131.069 300.898 131.069 301.043C131.077 301.108 131.077 301.174 131.069 301.238" fill="black"/>
<path opacity="0.3" d="M131.805 291.81C131.635 292.039 131.442 292.249 131.229 292.438C130.852 292.793 130.322 293.312 129.718 293.841C129.113 294.37 128.544 294.831 128.128 295.154C127.909 295.341 127.671 295.504 127.417 295.64C127.607 295.427 127.817 295.233 128.043 295.058L129.597 293.713L131.137 292.35C131.339 292.148 131.56 291.967 131.798 291.81" fill="black"/>
<path opacity="0.3" d="M136.375 295.47C136.15 295.203 135.945 294.92 135.764 294.622L134.341 292.545L132.887 290.483C132.669 290.208 132.472 289.917 132.3 289.613C132.551 289.858 132.78 290.125 132.983 290.412C133.384 290.919 133.921 291.633 134.483 292.446C135.045 293.259 135.55 294.004 135.874 294.576C136.072 294.863 136.242 295.169 136.382 295.488" fill="black"/>
<path opacity="0.3" d="M133.982 283.908C134.007 283.947 132.488 284.973 130.589 286.187C128.69 287.401 127.129 288.363 127.1 288.317C127.072 288.271 128.594 287.252 130.497 286.038C132.399 284.824 133.957 283.862 133.982 283.908Z" fill="black"/>
<path opacity="0.3" d="M138.263 288.522C136.693 287.152 135.199 285.695 133.79 284.159C134.594 284.826 135.361 285.538 136.087 286.289C136.855 286.994 137.582 287.744 138.263 288.533" fill="black"/>
<path d="M145.771 320.337V329.628H136.464V320.337H135.564V329.628H126.258V320.337H125.358V351.805H126.258V332.326H135.564V351.805H136.464V332.326H145.771V351.805H146.674V332.326V329.628V320.337H145.771Z" fill="#3F4249"/>
<path d="M438.802 199.51L434.734 201.001L430.662 202.482L430.491 206.55C430.313 210.892 432.187 214.715 435.918 217.434C437.931 218.904 440.057 219.98 441.53 219.44C443.002 218.9 443.919 216.707 444.499 214.285C445.566 209.791 444.52 205.673 441.565 202.482L438.795 199.496L438.802 199.51Z" fill="#4D61FC"/>
<path opacity="0.2" d="M438.813 199.51L434.744 201.005L430.662 202.503L430.495 206.571C430.313 210.913 432.187 214.736 435.918 217.455C437.931 218.925 440.061 220.001 441.53 219.461C442.998 218.921 443.923 216.727 444.499 214.306C445.566 209.812 444.521 205.694 441.565 202.503L438.799 199.514L438.813 199.51Z" fill="black"/>
<path opacity="0.2" d="M438.03 199.78L434.734 200.987L431.441 202.197L431.305 205.492C431.16 209.006 432.678 212.095 435.697 214.303C437.33 215.496 439.051 216.365 440.242 215.929C441.434 215.492 442.177 213.714 442.646 211.754C443.514 208.115 442.646 204.782 440.271 202.197L438.03 199.78Z" fill="white"/>
<path opacity="0.2" d="M437.255 200.064L434.734 200.987L432.216 201.914L432.113 204.431C432.003 207.122 433.18 209.486 435.473 211.176C436.718 212.088 438.038 212.752 438.948 212.418C439.858 212.084 440.427 210.725 440.787 209.223C441.452 206.44 440.787 203.898 438.969 201.914L437.255 200.064Z" fill="white"/>
<path d="M436.48 200.347L434.734 200.986L432.991 201.629L432.92 203.372C432.877 204.284 433.066 205.191 433.475 206.009C433.88 206.826 434.492 207.526 435.246 208.04C436.11 208.672 437.024 209.134 437.653 208.903C438.283 208.672 438.678 207.728 438.926 206.691C439.165 205.812 439.172 204.886 438.951 204.003C438.734 203.119 438.29 202.306 437.668 201.64L436.48 200.358V200.347Z" fill="white"/>
<path d="M437.799 184.635L447.149 190.205C447.223 190.248 447.28 190.316 447.312 190.397L449.254 195.672C449.261 195.691 449.265 195.711 449.261 195.732C449.261 195.752 449.254 195.771 449.24 195.788C449.229 195.804 449.215 195.818 449.197 195.827C449.176 195.836 449.158 195.84 449.137 195.839L442.024 195.751L437.799 184.635Z" fill="#4D61FC"/>
<path opacity="0.2" d="M439.008 185.356L442.878 195.857L442.042 195.751L437.799 184.635L439.008 185.356Z" fill="black"/>
<path d="M422.358 190.305L418.852 200.6C418.82 200.681 418.82 200.771 418.852 200.852L420.793 206.127C420.8 206.146 420.811 206.163 420.825 206.177C420.843 206.19 420.861 206.2 420.879 206.205C420.9 206.21 420.921 206.21 420.939 206.205C420.96 206.2 420.978 206.19 420.993 206.177L426.327 201.519L422.358 190.305Z" fill="#4D61FC"/>
<path opacity="0.2" d="M421.835 191.661L425.708 202.166L426.277 201.541L422.291 190.33L421.835 191.661Z" fill="black"/>
<path d="M419.598 159.981C418.332 160.457 417.241 164.596 417.145 170.883C417.081 174.583 417.61 178.269 418.713 181.803L427.604 205.311L433.809 202.972L437.405 201.616L443.61 199.273L435.537 177.944C434.752 175.857 433.766 173.851 432.596 171.952C431.43 170.045 430.111 168.235 428.656 166.538C424.549 161.82 420.857 159.502 419.591 159.981" fill="#B2B6BB"/>
<path d="M419.599 159.981C418.606 160.314 417.742 162.913 417.354 166.964L425.808 163.602C422.838 160.758 420.875 159.551 419.599 159.981Z" fill="#4D61FC"/>
<g opacity="0.3">
<path opacity="0.3" d="M442.291 196.058L426.37 201.906L426.459 202.149L442.38 196.302L442.291 196.058Z" fill="black"/>
</g>
<g opacity="0.3">
<path opacity="0.3" d="M442.472 196.548L426.551 202.395L426.643 202.638L442.561 196.791L442.472 196.548Z" fill="black"/>
</g>
<g opacity="0.3">
<path opacity="0.3" d="M442.65 197.035L426.732 202.882L426.821 203.126L442.742 197.278L442.65 197.035Z" fill="black"/>
</g>
<g opacity="0.3">
<path opacity="0.3" d="M442.831 197.523L426.91 203.37L426.999 203.613L442.92 197.766L442.831 197.523Z" fill="black"/>
</g>
<g opacity="0.3">
<path opacity="0.3" d="M443.009 198.005L427.088 203.852L427.177 204.096L443.098 198.249L443.009 198.005Z" fill="black"/>
</g>
<g opacity="0.3">
<path opacity="0.3" d="M443.187 198.493L427.266 204.34L427.358 204.583L443.276 198.736L443.187 198.493Z" fill="black"/>
</g>
<g opacity="0.3">
<path opacity="0.3" d="M443.368 198.979L427.451 204.826L427.54 205.069L443.457 199.222L443.368 198.979Z" fill="black"/>
</g>
<path opacity="0.3" d="M432.145 190.184L435.224 198.53" stroke="black" stroke-width="0.73" stroke-miterlimit="10"/>
<path opacity="0.3" d="M429.428 178.306L433.61 189.645" stroke="black" stroke-width="0.73" stroke-miterlimit="10"/>
<path d="M428.72 180.36C430.982 178.659 431.43 175.452 429.727 173.196C428.023 170.94 424.812 170.489 422.55 172.19C420.292 173.891 419.84 177.099 421.544 179.355C423.247 181.611 426.462 182.061 428.72 180.36Z" fill="white"/>
<path d="M427.557 181.469C426.302 181.932 424.922 181.923 423.674 181.445C422.422 180.967 421.391 180.051 420.768 178.869C420.146 177.687 419.975 176.319 420.288 175.021C420.601 173.722 421.376 172.581 422.468 171.811C423.56 171.041 424.897 170.695 426.227 170.836C427.561 170.977 428.791 171.596 429.698 172.579C430.605 173.561 431.124 174.839 431.156 176.174C431.188 177.509 430.733 178.811 429.876 179.836C429.261 180.573 428.461 181.136 427.557 181.469ZM424.001 171.884C423.318 172.132 422.699 172.535 422.198 173.061C421.693 173.587 421.32 174.221 421.103 174.915C420.886 175.608 420.832 176.342 420.943 177.06C421.056 177.778 421.334 178.46 421.753 179.054C422.173 179.647 422.724 180.136 423.364 180.483C424.005 180.829 424.716 181.024 425.445 181.051C426.17 181.079 426.896 180.939 427.561 180.642C428.226 180.345 428.813 179.899 429.275 179.339C429.876 178.621 430.249 177.742 430.352 176.813C430.452 175.883 430.274 174.945 429.84 174.116C429.406 173.287 428.734 172.606 427.913 172.158C427.091 171.71 426.152 171.516 425.221 171.6C424.805 171.636 424.396 171.727 424.001 171.869V171.884Z" fill="#4D61FC"/>
<path opacity="0.3" d="M429.698 183.571C429.915 183.571 430.089 183.396 430.089 183.18C430.089 182.965 429.915 182.79 429.698 182.79C429.481 182.79 429.307 182.965 429.307 183.18C429.307 183.396 429.481 183.571 429.698 183.571Z" stroke="black" stroke-width="0.73" stroke-miterlimit="10"/>
<path opacity="0.3" d="M431.046 187.223C431.263 187.223 431.437 187.048 431.437 186.833C431.437 186.617 431.263 186.442 431.046 186.442C430.829 186.442 430.655 186.617 430.655 186.833C430.655 187.048 430.829 187.223 431.046 187.223Z" stroke="black" stroke-width="0.73" stroke-miterlimit="10"/>
<path opacity="0.3" d="M434.57 192.285C434.787 192.285 434.961 192.111 434.961 191.895C434.961 191.679 434.787 191.504 434.57 191.504C434.353 191.504 434.179 191.679 434.179 191.895C434.179 192.111 434.353 192.285 434.57 192.285Z" stroke="black" stroke-width="0.73" stroke-miterlimit="10"/>
<path opacity="0.3" d="M435.918 195.935C436.135 195.935 436.309 195.76 436.309 195.545C436.309 195.329 436.135 195.154 435.918 195.154C435.701 195.154 435.527 195.329 435.527 195.545C435.527 195.76 435.701 195.935 435.918 195.935Z" stroke="black" stroke-width="0.73" stroke-miterlimit="10"/>
<path opacity="0.3" d="M423.485 193.365L438.927 187.692" stroke="black" stroke-width="0.73" stroke-miterlimit="10"/>
<path d="M382.503 122.383L379.633 148.621L383.904 144.829L387.546 148.745L386.589 122.983L382.503 122.383Z" fill="#DADDDF"/>
<path d="M392.059 120.037L406.796 141.947L401.252 140.566L399.847 145.724L388.716 122.461L392.059 120.037Z" fill="#DADDDF"/>
<path d="M385.779 128.287C392.912 128.287 398.698 122.512 398.698 115.39C398.698 108.266 392.912 102.492 385.779 102.492C378.645 102.492 372.859 108.266 372.859 115.39C372.859 122.512 378.645 128.287 385.779 128.287Z" fill="#4D61FC"/>
<path opacity="0.2" d="M394.388 123.508C394.168 123.949 393.983 124.406 393.83 124.875C393.592 125.585 393.364 126.234 392.983 126.501C392.603 126.767 391.917 126.735 391.23 126.724H390.747L391.725 128.769C392.574 128.826 393.424 128.619 394.153 128.176C395.075 127.534 395.441 126.483 395.757 125.553L394.388 123.508Z" fill="black"/>
<path opacity="0.2" d="M386.771 127.853L386.483 128.031C385.896 128.386 385.291 128.766 384.864 128.741C384.438 128.716 383.865 128.258 383.3 127.779C382.901 127.42 382.475 127.099 382.016 126.82L381.763 129.149L381.98 129.334C382.734 129.969 383.588 130.69 384.715 130.771C385.025 130.793 385.337 130.766 385.64 130.69C386.066 130.575 386.475 130.404 386.856 130.182L386.771 127.853Z" fill="black"/>
<path d="M385.64 129.866C385.337 129.942 385.025 129.969 384.715 129.947C383.588 129.866 382.734 129.145 381.98 128.51C381.621 128.167 381.216 127.876 380.775 127.647C380.291 127.499 379.79 127.42 379.285 127.413C378.307 127.342 377.201 127.26 376.347 126.539C375.494 125.819 375.234 124.764 374.999 123.813C374.907 123.311 374.74 122.824 374.509 122.368C374.217 121.981 373.869 121.638 373.477 121.349C372.716 120.71 371.856 119.99 371.582 118.864C371.308 117.739 371.735 116.713 372.112 115.797C372.322 115.358 372.467 114.892 372.549 114.413C372.542 113.902 372.464 113.396 372.314 112.907C372.083 111.96 371.82 110.887 372.24 109.865C372.659 108.843 373.605 108.25 374.438 107.735C374.882 107.494 375.288 107.191 375.647 106.837C375.931 106.43 376.155 105.984 376.315 105.513C376.671 104.6 377.108 103.567 378.068 102.971C379.029 102.375 380.085 102.478 381.049 102.545C381.568 102.612 382.094 102.605 382.61 102.524C383.104 102.353 383.574 102.114 384.004 101.814C384.825 101.306 385.757 100.731 386.849 100.809C387.941 100.887 388.83 101.611 389.58 102.25C389.914 102.628 390.334 102.924 390.8 103.114C391.269 103.305 391.774 103.385 392.279 103.347C393.254 103.418 394.363 103.5 395.217 104.217C396.07 104.934 396.326 105.992 396.561 106.943C396.657 107.446 396.824 107.932 397.055 108.388C397.347 108.776 397.695 109.119 398.087 109.407C398.844 110.046 399.705 110.77 399.982 111.892C400.259 113.014 399.829 114.047 399.452 114.963C399.239 115.4 399.093 115.865 399.011 116.344C399.018 116.856 399.1 117.363 399.25 117.853C399.481 118.797 399.74 119.869 399.324 120.891C398.908 121.914 397.959 122.507 397.126 123.021C396.664 123.221 396.252 123.525 395.924 123.91C395.597 124.295 395.366 124.751 395.245 125.24C394.89 126.152 394.456 127.186 393.495 127.782C392.535 128.378 391.476 128.275 390.512 128.208C389.996 128.098 389.463 128.106 388.951 128.232C388.442 128.358 387.966 128.599 387.56 128.936C386.973 129.343 386.323 129.656 385.64 129.866ZM379.416 104.604C379.32 104.627 379.228 104.664 379.142 104.714C378.748 104.959 378.485 105.605 378.207 106.29C377.976 106.962 377.638 107.592 377.208 108.158C376.717 108.683 376.145 109.127 375.515 109.475C374.889 109.862 374.299 110.227 374.128 110.646C373.957 111.065 374.128 111.757 374.295 112.421C374.505 113.111 374.601 113.83 374.583 114.551C374.494 115.246 374.299 115.923 374 116.557C373.716 117.249 373.445 117.899 373.563 118.367C373.68 118.836 374.217 119.287 374.79 119.766C375.352 120.191 375.842 120.699 376.244 121.275C376.593 121.908 376.842 122.592 376.98 123.302C377.147 123.976 377.336 124.676 377.663 124.963C377.99 125.251 378.701 125.318 379.441 125.361C380.16 125.337 380.874 125.465 381.543 125.736C382.208 126.007 382.809 126.415 383.307 126.933C383.872 127.409 384.406 127.864 384.872 127.896C385.337 127.927 385.903 127.541 386.49 127.186C387.094 126.766 387.763 126.446 388.467 126.238C389.189 126.097 389.929 126.07 390.661 126.16C391.348 126.209 392.059 126.259 392.439 126.032C392.82 125.805 393.097 125.141 393.378 124.459C393.609 123.787 393.947 123.155 394.377 122.588C394.868 122.063 395.441 121.618 396.07 121.271C396.696 120.884 397.283 120.519 397.457 120.1C397.631 119.681 397.457 118.989 397.286 118.325C397.08 117.634 396.984 116.915 396.998 116.195C397.087 115.498 397.283 114.82 397.585 114.185C397.87 113.497 398.136 112.844 398.023 112.375C397.909 111.906 397.365 111.455 396.796 110.976C396.234 110.553 395.743 110.044 395.341 109.467C394.993 108.835 394.744 108.15 394.605 107.44C394.434 106.766 394.249 106.067 393.922 105.779C393.595 105.491 392.884 105.424 392.144 105.385C391.426 105.369 390.711 105.239 390.032 105.002C389.388 104.7 388.794 104.297 388.275 103.809C387.709 103.333 387.18 102.882 386.714 102.847C386.248 102.811 385.682 103.202 385.096 103.557C384.488 103.973 383.819 104.293 383.115 104.505C382.393 104.644 381.653 104.67 380.924 104.579C380.423 104.517 379.914 104.526 379.416 104.604Z" fill="#4D61FC"/>
<path d="M385.778 126.504C391.927 126.504 396.913 121.528 396.913 115.389C396.913 109.251 391.927 104.274 385.778 104.274C379.63 104.274 374.644 109.251 374.644 115.389C374.644 121.528 379.63 126.504 385.778 126.504Z" stroke="white" stroke-width="1.91" stroke-miterlimit="10"/>
<path d="M384.377 109.702L387.151 112.989L391.44 112.574L389.16 116.223L390.882 120.164L386.703 119.131L383.481 121.985L383.172 117.697L379.459 115.517L383.449 113.898L384.377 109.702Z" fill="#F4F4F4"/>
<path d="M139.913 226.54L116.25 234.151C116.208 234.165 116.164 234.17 116.12 234.167C116.076 234.163 116.033 234.151 115.993 234.131C115.954 234.111 115.919 234.083 115.89 234.049C115.862 234.016 115.841 233.977 115.827 233.934L105.976 203.415C105.953 203.329 105.963 203.238 106.004 203.159C106.044 203.081 106.113 203.02 106.197 202.989L123.921 197.288L132.1 201.21L140.116 226.114C140.146 226.197 140.141 226.289 140.103 226.369C140.065 226.448 139.997 226.51 139.913 226.54Z" fill="#DADDDF"/>
<path d="M129.019 201.985L110.776 207.927L111.051 208.771L129.295 202.828L129.019 201.985Z" fill="white"/>
<path d="M129.919 204.932L111.658 210.866L111.933 211.71L130.194 205.776L129.919 204.932Z" fill="white"/>
<path d="M130.795 207.635L112.534 213.568L112.809 214.412L131.07 208.478L130.795 207.635Z" fill="white"/>
<path d="M131.677 210.332L113.417 216.266L113.692 217.11L131.952 211.176L131.677 210.332Z" fill="white"/>
<path d="M132.557 213.033L114.296 218.966L114.571 219.81L132.832 213.877L132.557 213.033Z" fill="white"/>
<path d="M133.44 215.734L115.18 221.668L115.455 222.511L133.716 216.578L133.44 215.734Z" fill="white"/>
<path d="M134.319 218.433L116.058 224.366L116.333 225.21L134.594 219.277L134.319 218.433Z" fill="white"/>
<path d="M135.186 220.867L116.942 226.81L117.218 227.653L135.462 221.711L135.186 220.867Z" fill="white"/>
<path d="M123.921 197.302L132.1 201.224L126.165 203.134C126.079 203.158 125.988 203.148 125.908 203.107C125.83 203.066 125.769 202.997 125.738 202.914L123.921 197.302Z" fill="#DADDDF"/>
<path opacity="0.2" d="M123.921 197.302L132.1 201.224L126.165 203.134C126.079 203.158 125.988 203.148 125.908 203.107C125.83 203.066 125.769 202.997 125.738 202.914L123.921 197.302Z" fill="black"/>
</svg>
