<svg width="64" height="65" viewBox="0 0 64 65" fill="none" xmlns="http://www.w3.org/2000/svg">
<path d="M4.35349 1.89572C2.87752 2.45189 1.76124 3.55131 0.967441 5.21984L0.434108 6.3322L0.347286 13.5884C0.28527 17.5851 0.260464 26.8719 0.28527 34.2445L0.310076 47.6445L0.84341 48.7568C1.64961 50.4512 2.77829 51.5506 4.31628 52.0939C4.93643 52.3138 5.40775 52.3396 9.50077 52.3396H14.0031L14.338 52.0422C14.586 51.8093 14.6853 51.5895 14.7225 51.085C14.7845 50.503 14.7473 50.3866 14.4124 49.9985L14.0403 49.5588L9.64961 49.4941C5.35814 49.4294 5.25891 49.4294 4.8124 49.1319C3.82015 48.4852 3.01395 47.1142 2.88992 45.8207C2.85271 45.4456 2.86512 39.858 2.91473 33.4038L3.00155 21.6853H10.9643C15.3302 21.6853 27.4109 21.7241 37.8047 21.7758L56.6822 21.8534V26.9237C56.6822 29.7175 56.645 32.6148 56.5954 33.365L56.5209 34.7489H55.9752C55.3426 34.7489 54.7845 34.9688 54.2512 35.4345L53.8791 35.7708L52.8248 35.331C51.8698 34.93 51.783 34.8524 51.783 34.5291C51.7581 33.5331 51.5721 33.0287 50.9891 32.4208C50.2078 31.6059 49.7116 31.4766 47.4915 31.5412C45.8171 31.58 45.6682 31.6059 45.1473 31.9293C44.3287 32.4208 43.6589 33.4943 43.6589 34.2833C43.6589 34.8653 43.6341 34.9042 43.2 35.0852C42.9395 35.1887 42.4682 35.3957 42.1457 35.5509L41.5752 35.8225L41.1535 35.4862C40.2233 34.7489 38.9457 34.5291 37.9783 34.943C37.4326 35.1887 35.2992 37.3358 34.9767 37.9825C34.4434 39.069 34.5674 40.4142 35.2868 41.4101L35.7085 41.9663L35.2868 42.9881L34.8651 43.997L34.2698 44.0746C33.414 44.2039 33.0667 44.3721 32.4341 44.98C31.7395 45.6526 31.6279 46.0536 31.6279 47.9678V49.4941H27.8822C24.4217 49.4941 24.0992 49.52 23.7395 49.7398C22.9953 50.2055 22.8837 51.3825 23.5039 52.0292L23.8016 52.3396L27.3116 52.3526C29.2465 52.3655 31.7271 52.4172 32.8434 52.4561L34.8651 52.5337L35.2868 53.6201L35.7085 54.7066L35.386 55.1076C34.9023 55.7155 34.7287 56.2458 34.7287 57.19C34.7287 58.3541 34.9519 58.7421 36.4899 60.3072C37.6682 61.523 37.8171 61.6394 38.4744 61.7817C39.4171 62.0016 40.3349 61.8076 41.0791 61.1997C41.538 60.8504 41.662 60.7987 41.8729 60.9151C41.9969 60.9927 42.4434 61.1867 42.8527 61.3419L43.5969 61.6265L43.6713 62.3379C43.7705 63.2562 44.2667 64.1358 44.924 64.6014C45.4202 64.9377 45.4946 64.9506 47.4791 64.9894C49.8357 65.0412 50.3318 64.9248 50.9891 64.1487C51.4977 63.5408 51.7209 62.9587 51.7209 62.2732V61.717L52.8 61.2385L53.8915 60.7599L54.2016 61.0574C54.7969 61.6394 55.3302 61.8464 56.2605 61.8334C56.9674 61.8334 57.2279 61.7817 57.6868 61.4972C58.3318 61.0962 60.155 59.1819 60.4527 58.5869C60.9488 57.5522 60.8 56.0777 60.1054 55.2369L59.7085 54.7454L60.1426 53.6072L60.5767 52.469H61.1225C62.0775 52.469 63.0202 51.874 63.4791 50.9815C63.6403 50.6711 63.6775 50.1537 63.6899 48.2524V45.9113L63.3302 45.368C62.8589 44.6696 62.0775 44.191 61.2341 44.1005L60.5767 44.0358L60.1426 42.9752L59.7085 41.9146L60.1178 41.3713C60.614 40.6858 60.8248 39.9227 60.738 39.069C60.6636 38.28 60.4651 37.8661 59.8326 37.0901L59.3612 36.5209L59.3985 22.3449C59.4233 9.8762 59.4109 8.05246 59.2372 7.1988C58.7907 4.98702 57.538 3.18915 55.8388 2.32255L54.8961 1.83104L41.9969 1.75344C34.8899 1.7017 23.6775 1.6629 17.0543 1.6629C5.40775 1.64996 4.99845 1.64996 4.35349 1.89572ZM54.6109 4.97409C55.355 5.38799 55.7395 5.86656 56.2357 6.94011L56.6202 7.78084L56.6574 13.3943L56.6946 19.0078L38.8093 18.9302C28.9736 18.8785 16.8806 18.8397 11.9442 18.8397H2.96434L3.00155 13.1745L3.03876 7.52215L3.39845 6.72023C3.77054 5.86656 4.55194 4.98702 5.24651 4.66367C5.5938 4.49552 8.71938 4.48258 29.8295 4.54726L54.0155 4.6378L54.6109 4.97409ZM48.9922 35.525C49.0791 37.1289 49.0791 37.1289 50.9147 37.7238C51.3985 37.8791 52.1923 38.2412 52.6884 38.5128C53.383 38.9009 53.7426 39.0173 54.1892 39.0173C54.7349 39.0173 54.8465 38.9526 55.5287 38.3188L56.2729 37.6074L57.1287 38.5128L57.9721 39.4053L57.4016 40.0132C56.3597 41.1385 56.3225 41.5136 57.1039 43.1304C57.4016 43.7642 57.7736 44.7084 57.9225 45.2387C58.3318 46.6356 58.5426 46.8296 59.8822 46.9072L60.9612 46.9719L60.9985 48.2912L61.0357 49.6234H60.0682C58.5674 49.6234 58.369 49.8174 57.8481 51.6153C57.724 52.0422 57.3892 52.87 57.0915 53.4649C56.3349 55.0041 56.3597 55.3663 57.2403 56.3364C57.6124 56.7503 57.9225 57.1383 57.9225 57.203C57.9225 57.3582 56.4093 58.9362 56.2605 58.9362C56.1985 58.9362 55.8264 58.6128 55.4295 58.2248C54.7969 57.591 54.6605 57.5134 54.1892 57.5134C53.8295 57.5134 53.4326 57.6427 52.8992 57.9531C52.4899 58.1989 51.5597 58.6128 50.8527 58.8585C49.1411 59.4665 49.0667 59.557 49.0047 61.0186L48.9674 62.1827L47.7023 62.1439L46.4496 62.1051L46.3876 60.9798C46.3132 59.5829 46.1271 59.363 44.8 58.9491C44.3039 58.7939 43.4109 58.4058 42.8279 58.0954C42.0341 57.6686 41.6 57.5134 41.2031 57.5134C40.7194 57.5134 40.5954 57.578 39.9256 58.2506L39.1814 58.9879L38.2884 58.0566L37.3953 57.1253L38.1271 56.3622C38.7969 55.6508 38.8589 55.5344 38.8589 55.03C38.8589 54.629 38.7225 54.2151 38.3504 53.5037C38.0775 52.9734 37.7054 52.0292 37.5194 51.4084C37.0605 49.8821 36.8744 49.714 35.4977 49.6234L34.4186 49.5588V48.2653V46.9719L35.4853 46.9331C36.8496 46.8814 37.0729 46.7003 37.4574 45.3422C37.6062 44.8119 37.9783 43.8677 38.276 43.2468C39.0574 41.6041 39.045 41.2161 38.1147 40.1814L37.4202 39.3924L38.2636 38.4999L39.107 37.6074L39.8388 38.3059C40.893 39.3277 41.1535 39.3406 42.7163 38.5258C43.3985 38.1765 44.3659 37.7497 44.8496 37.6074C46.0899 37.2323 46.3132 36.9478 46.3628 35.6802C46.3876 35.137 46.4248 34.6067 46.4496 34.5161C46.4992 34.3997 46.8217 34.3609 47.7147 34.3868L48.9302 34.4256L48.9922 35.525Z" fill="black"/>
<path d="M10.2822 7.4963C8.94263 8.09128 8.09922 9.10016 7.73953 10.5488C7.23101 12.6442 8.16124 14.8042 9.9845 15.7484C10.5178 16.02 10.7783 16.0588 11.907 16.0588C13.0109 16.0588 13.2961 16.02 13.7798 15.7613C14.6977 15.2957 15.3302 14.6361 15.7767 13.6919C16.1488 12.9029 16.186 12.7218 16.186 11.6612C16.1736 10.7428 16.124 10.3677 15.9008 9.86329C15.4791 8.89321 14.8589 8.19476 13.9907 7.71619C13.2961 7.32816 13.0853 7.27642 12.093 7.23762C11.138 7.19881 10.8775 7.23762 10.2822 7.4963ZM12.6636 10.3419C12.8992 10.4971 13.1845 10.8463 13.3085 11.1179C13.5938 11.7129 13.4574 12.2691 12.8868 12.8382C12.5767 13.1486 12.4031 13.2133 11.8946 13.2133C11.324 13.2133 11.2248 13.1615 10.8403 12.7347C10.1209 11.9069 10.2698 10.8851 11.2 10.3031C11.7209 9.96676 12.1426 9.9797 12.6636 10.3419Z" fill="black"/>
<path d="M21.3333 7.41869C20.2171 7.81965 19.4605 8.54398 18.8403 9.78567C18.5922 10.2772 18.555 10.5617 18.5426 11.6612C18.5426 13.2133 18.7907 13.8729 19.7829 14.9077C20.6884 15.8519 21.5318 16.1623 23.0078 16.0976C24.3225 16.033 25.0419 15.7096 25.8977 14.8171C27.1752 13.472 27.4729 11.3119 26.6295 9.56579C26.2078 8.69919 25.2527 7.81965 24.3969 7.47043C23.5287 7.14707 22.1643 7.10826 21.3333 7.41869ZM23.4543 10.2384C24.2481 10.6781 24.5581 11.881 24.0496 12.5536C23.5039 13.2779 22.6977 13.459 22.0155 13.0193C21.6186 12.7606 21.2093 12.088 21.2093 11.6612C21.2093 11.1955 21.8419 10.316 22.3256 10.1349C22.6729 10.0056 23.0822 10.0444 23.4543 10.2384Z" fill="black"/>
<path d="M36.1302 7.50922C34.9519 7.89725 33.9225 8.91906 33.476 10.1608C33.1163 11.1567 33.1783 12.9287 33.6 13.7953C33.9845 14.5843 34.7783 15.425 35.5349 15.8389L36.155 16.1882L42.7907 16.227C50.1705 16.2658 50.0961 16.2787 51.2496 15.3992C51.9938 14.8171 52.5395 13.9247 52.8 12.8252C53.2837 10.7687 52.3163 8.63451 50.4806 7.7291L49.7984 7.39281L43.2248 7.36694C38.0775 7.35401 36.5395 7.37987 36.1302 7.50922ZM49.2403 10.3677C50.4062 11.0015 50.4062 12.5795 49.2403 13.2133C48.6946 13.5108 37.3705 13.4978 36.8248 13.2133C36.3659 12.9546 35.969 12.3079 35.969 11.7905C35.969 11.2472 36.3907 10.5876 36.8744 10.3677C37.4822 10.0832 48.7194 10.0832 49.2403 10.3677Z" fill="black"/>
<path d="M46.0155 40.3754C44.6512 40.6987 43.2372 41.5136 42.2326 42.5742C38.9954 45.9371 39.231 51.486 42.7535 54.5514C43.5349 55.2369 45.1349 56.0389 46.1147 56.2329C47.1814 56.4398 49.2155 56.3234 50.245 55.9742C52.3783 55.2628 54.2512 53.3227 55.0326 51.0462C55.4667 49.7657 55.5659 47.6445 55.2682 46.3898C54.6109 43.6736 52.6512 41.4489 50.1705 40.6211C48.9178 40.2072 47.1814 40.1038 46.0155 40.3754ZM48.5085 43.1563C50.1085 43.4667 51.4481 44.5402 52.1798 46.1053C52.6264 47.0236 52.6512 47.1659 52.6512 48.2524C52.6388 49.9209 52.3287 50.697 51.1752 51.8999C50.0217 53.1028 49.2775 53.4261 47.6899 53.4391C46.6853 53.4391 46.4868 53.4003 45.7426 53.0252C43.6341 51.9904 42.4062 49.714 42.7783 47.5669C43.1752 45.368 44.6264 43.7383 46.6977 43.208C47.4915 43.0011 47.7023 43.0011 48.5085 43.1563Z" fill="black"/>
<path d="M19.4853 29.1484C19.2248 29.42 19.0884 29.7822 18.9271 30.61C18.8031 31.2179 18.5674 32.1103 18.4186 32.6148C17.9969 33.947 16.4961 40.5953 16.4961 41.1256C16.4961 42.2509 17.9473 42.8588 18.8155 42.0956C19.0884 41.8628 19.1256 41.7335 20.093 37.5298C20.5767 35.4086 21.0481 33.4943 21.1349 33.2744C21.4574 32.4725 21.8667 30.2607 21.7798 29.7951C21.6558 29.1354 21.2093 28.7991 20.4403 28.7991C19.9318 28.7991 19.7705 28.8638 19.4853 29.1484Z" fill="black"/>
<path d="M11.7085 29.821C11.5721 29.8856 10.9519 30.5065 10.3442 31.2049C9.73643 31.9034 8.88062 32.8476 8.44651 33.3132C7.37984 34.4515 7.1938 34.7878 7.1938 35.6673C7.1938 36.2235 7.25581 36.4822 7.46667 36.7667C8.18605 37.7238 11.0884 41.048 11.386 41.242C11.5721 41.3713 11.9318 41.4748 12.2047 41.4748C13.1597 41.4748 13.8419 40.2719 13.3705 39.3665C13.2961 39.2113 12.5643 38.3059 11.7457 37.3617L10.2698 35.6414L10.5798 35.2275C10.7411 35.0076 11.4233 34.2316 12.0806 33.5202C12.738 32.8088 13.3705 32.0586 13.4822 31.8517C13.7426 31.3472 13.631 30.5324 13.2341 30.1314C12.9116 29.7822 12.1426 29.627 11.7085 29.821Z" fill="black"/>
<path d="M25.6 29.8339C25.1411 30.0279 24.8062 30.597 24.8062 31.192C24.8062 31.787 24.8682 31.8775 26.6047 33.9987C27.014 34.5032 27.4729 35.0723 27.6341 35.2792L27.9194 35.6414L26.4434 37.3617C24.8062 39.263 24.6822 39.47 24.6822 40.052C24.6822 41.1385 25.8481 41.8499 26.7411 41.3067C27.0512 41.1256 30.4496 37.1806 30.7721 36.6244C31.107 36.0553 31.0822 35.0335 30.7349 34.5161C29.4202 32.6536 27.1504 30.002 26.7039 29.821C26.3442 29.6787 25.9473 29.6787 25.6 29.8339Z" fill="black"/>
<path d="M18.307 49.6881C17.7736 49.9856 17.6248 50.2702 17.6124 50.9557C17.6124 51.486 17.6744 51.6412 17.9721 51.9646C18.2822 52.275 18.4434 52.3397 18.9643 52.3397C19.8326 52.3397 20.2295 51.9775 20.3039 51.085C20.3659 50.503 20.3287 50.3866 20.0186 50.0244C19.5845 49.52 18.8651 49.3777 18.307 49.6881Z" fill="black"/>
</svg>
