<svg width="72" height="72" viewBox="0 0 72 68" fill="none" xmlns="http://www.w3.org/2000/svg">
<g clip-path="url(#clip0_3_13)">
<path d="M4.47907 0.527122C2.83255 1.08061 1.57674 2.16123 0.837204 3.6372L0.4186 4.45425L0.279065 33.407C0.209297 49.3395 0.18139 62.6232 0.223251 62.9132C0.516274 64.7845 2.26046 66.6426 4.35348 67.3279C5.09302 67.5651 6.15348 67.5783 36.1535 67.6178L67.186 67.6705L68.1628 67.2225C69.4326 66.6294 70.5488 65.5752 71.1349 64.4287L71.5814 63.5457L71.7209 34.6721C71.7907 18.7922 71.8186 5.5217 71.7767 5.17906C71.5535 3.51859 70.1023 1.73952 68.3023 0.909292L67.3256 0.46123L49.6744 0.38216C39.9628 0.329447 25.9953 0.289912 18.6279 0.289912C5.73488 0.276734 5.20465 0.276734 4.47907 0.527122ZM48.9767 4.46743L65.9302 4.5465L66.4186 4.83642C66.6837 4.99456 67.0326 5.32402 67.186 5.56123C67.4512 5.96976 67.4651 6.27286 67.507 11.1225L67.5488 16.2488L44.6233 16.1698C32.0093 16.117 17.8465 16.0775 13.1442 16.0775H4.59069L4.63255 10.9643C4.67441 5.98294 4.67441 5.85115 4.98139 5.40309C5.31627 4.88914 5.72093 4.61239 6.34883 4.46743C6.85116 4.36201 25.7302 4.34883 48.9767 4.46743ZM67.507 20.3605C67.5209 20.3736 67.493 29.7829 67.4372 41.2612C67.3256 61.8062 67.3256 62.1488 67.0465 62.5705C66.893 62.8077 66.5442 63.1372 66.2791 63.2953C65.7907 63.5853 65.7628 63.5853 57.0698 63.6248C52.2698 63.638 38.8326 63.6116 27.2093 63.5589L6.06976 63.4535L5.58139 63.1636C5.31627 63.0054 4.96744 62.676 4.81395 62.4387C4.54883 62.017 4.53488 61.7271 4.49302 54.9535C4.46511 51.0791 4.49302 41.6566 4.53488 34.0132L4.63255 20.1364L36.0558 20.2287C53.3302 20.2814 67.4791 20.3341 67.507 20.3605Z" fill="black"/>
<path d="M9.71163 8.42091C9.04186 8.84262 8.7907 9.33022 8.7907 10.2132C8.7907 11.5705 9.51628 12.2558 10.9535 12.2558C12.3907 12.2558 13.1163 11.5705 13.1163 10.2132C13.1163 8.8558 12.3907 8.17053 10.9535 8.17053C10.3674 8.17053 9.9907 8.2496 9.71163 8.42091Z" fill="black"/>
<path d="M18.0837 8.42091C17.4139 8.84262 17.1628 9.33022 17.1628 10.2132C17.1628 11.5705 17.8884 12.2558 19.3256 12.2558C20.7628 12.2558 21.4884 11.5705 21.4884 10.2132C21.4884 8.8558 20.7628 8.17053 19.3256 8.17053C18.7395 8.17053 18.3628 8.2496 18.0837 8.42091Z" fill="black"/>
<path d="M26.4558 8.42091C25.786 8.84262 25.5349 9.33022 25.5349 10.2132C25.5349 11.5705 26.2605 12.2558 27.6977 12.2558C29.1349 12.2558 29.8605 11.5705 29.8605 10.2132C29.8605 8.8558 29.1349 8.17053 27.6977 8.17053C27.1116 8.17053 26.7349 8.2496 26.4558 8.42091Z" fill="black"/>
<path d="M47.386 8.55269C46.7163 8.97439 46.4651 9.46199 46.4651 10.3449C46.4651 11.2279 46.7163 11.7155 47.386 12.1372C47.7628 12.3744 48.1674 12.3876 54.907 12.3876C61.6465 12.3876 62.0512 12.3744 62.4279 12.1372C63.0977 11.7155 63.3488 11.2279 63.3488 10.3449C63.3488 9.46199 63.0977 8.97439 62.4279 8.55269C62.0512 8.31548 61.6465 8.3023 54.907 8.3023C48.1674 8.3023 47.7628 8.31548 47.386 8.55269Z" fill="black"/>
<path d="M41.1209 26.3434C40.5488 26.6861 40.4791 26.8178 39.1674 29.7302C38.5116 31.1799 37.6186 33.0512 37.214 33.8814C35.9302 36.4248 35.8186 36.662 31.5907 45.9659C27.8651 54.1892 27.4884 55.0853 27.4884 55.7442C27.4884 57.0225 28.2419 57.7209 29.6372 57.7209C30.6698 57.7209 31.2698 57.3915 31.6605 56.6271C31.9395 56.0868 33.0698 53.583 38.986 40.6419C40.6047 37.0837 42 34.0791 42.0837 33.9868C42.1814 33.8814 42.7535 32.6822 43.3814 31.2985C44.3442 29.1768 44.5116 28.6892 44.5116 28.0698C44.5116 27.2527 44.2326 26.752 43.5907 26.3434C43.0465 26.0008 41.6651 26.0008 41.1209 26.3434Z" fill="black"/>
<path d="M22.3256 32.1155C22.1302 32.2341 21.5302 32.6821 20.9721 33.1039C20.4279 33.5256 19.9395 33.8682 19.8977 33.8682C19.7023 33.8682 11.2047 40.3783 10.9953 40.7077C10.6605 41.1821 10.6605 42.5 10.9953 42.9744C11.1209 43.1721 13.4791 45.017 16.214 47.086C23.093 52.2914 22.3256 51.7907 23.3442 51.7907C24.307 51.7907 24.8233 51.5535 25.2698 50.9209C25.6186 50.407 25.6326 49.1023 25.2837 48.6015C25.1581 48.417 23.2186 46.8883 21 45.2015C18.7674 43.5279 16.8698 42.0783 16.7721 41.986C16.6186 41.8411 17.3581 41.2349 20.8186 38.6256C25.4093 35.1728 25.6744 34.8961 25.6744 33.7496C25.6744 33.0643 25.3535 32.524 24.7535 32.1418C24.2233 31.8124 22.814 31.7992 22.3256 32.1155Z" fill="black"/>
<path d="M47.386 32.2868C46.4233 32.8798 46.0047 34.3953 46.5767 35.2124C46.7023 35.3969 48.6419 36.9255 50.8605 38.6124C53.093 40.286 54.9907 41.7356 55.0884 41.8279C55.2419 41.9728 54.5023 42.579 51.0419 45.1883C48.7256 46.9542 46.7023 48.5488 46.5767 48.7333C46.2279 49.2341 46.2419 50.5387 46.5907 51.0527C47.0372 51.6852 47.5535 51.9224 48.5163 51.9224C49.5349 51.9224 48.7674 52.4232 55.6465 47.2178C58.3814 45.1488 60.7395 43.3038 60.8651 43.1062C61.2 42.6317 61.2 41.3139 60.8651 40.8395C60.7395 40.6418 58.8419 39.1395 56.6512 37.479C54.4605 35.8317 52.3535 34.1976 51.9488 33.8682C51.5581 33.5255 50.8465 32.9721 50.3721 32.6294C49.5628 32.0628 49.4512 32.0232 48.6558 32.0232C48.0419 32.0232 47.6791 32.1023 47.386 32.2868Z" fill="black"/>
</g>
<defs>
<clipPath id="clip0_3_13">
<rect width="72" height="72" fill="white"/>
</clipPath>
</defs>
</svg>
