<svg width="591" height="410" viewBox="0 0 591 410" fill="none" xmlns="http://www.w3.org/2000/svg">
<g clip-path="url(#clip0_20_220)">
<path opacity="0.1" d="M467.436 351.825C534.414 351.825 588.711 341.493 588.711 328.748C588.711 316.003 534.414 305.672 467.436 305.672C400.458 305.672 346.162 316.003 346.162 328.748C346.162 341.493 400.458 351.825 467.436 351.825Z" fill="#174AFF"/>
<g opacity="0.5">
<path d="M363.559 58.175C361.924 58.63 359.921 59.8153 358.934 63.0566C357 69.41 361.493 73.7299 360.013 80.3529C359.602 82.1098 358.82 83.7631 357.718 85.2065C355.91 87.6052 353.948 88.7399 352.043 90.4195C349.627 92.5653 347.895 95.3491 347.057 98.4357C346.138 101.843 346.062 105.415 346.833 108.856C347.51 111.732 348.663 113.828 349.673 116.159C350.929 119.133 351.91 122.21 352.605 125.355C352.987 126.886 353.202 128.453 353.248 130.029C353.219 132.122 353.028 134.21 352.674 136.275L349.926 155.049C349.508 157.504 349.257 159.983 349.174 162.47C349.21 164.962 349.504 167.445 350.052 169.879C351.016 174.845 352.054 179.991 354.264 182.62C356.473 185.249 360.237 184.305 362.549 178.985C364.747 173.896 364.798 167.104 366.738 161.666C369.796 153.1 375.872 151.948 379.246 143.775C382.482 135.91 381.489 126.315 383.13 117.372C384.278 110.963 386.808 105.121 388.294 98.7896C390.429 89.6724 390.217 80.2069 388.513 73.1962C387.216 67.4359 384.413 62.1046 380.376 57.7256C378.948 56.1808 377.416 54.8045 375.62 54.664C373.709 54.518 372.039 56.8717 370.152 57.5795C367.971 58.4165 365.779 57.5571 363.559 58.175Z" fill="#174AFF"/>
<path d="M373.904 55.1415C373.904 55.1415 370.668 136.225 357.058 184.035" stroke="#535461" stroke-width="2" stroke-miterlimit="10"/>
<path d="M358.854 63.4386C358.854 63.4386 373.399 76.4038 370.639 101.076" stroke="#535461" stroke-width="2" stroke-miterlimit="10"/>
<path d="M346.649 100.334C346.649 100.334 370.524 105.036 368.751 119.018" stroke="#535461" stroke-width="2" stroke-miterlimit="10"/>
<path d="M388.553 73.0277C388.553 73.0277 378.89 81.3079 370.284 104.761" stroke="#535461" stroke-width="2" stroke-miterlimit="10"/>
<path d="M379.114 143.909C379.114 143.909 372.521 148.965 367.231 131.264" stroke="#535461" stroke-width="2" stroke-miterlimit="10"/>
<path d="M350.666 154.251C350.666 154.251 364.11 152.532 365.349 144.292" stroke="#535461" stroke-width="2" stroke-miterlimit="10"/>
</g>
<path d="M396.058 3.79183C392.73 4.27494 388.725 5.78605 387.078 10.443C383.848 19.5771 393.665 26.4922 391.405 36.0364C390.73 38.6629 389.31 41.0487 387.308 42.9178C383.865 46.2378 379.929 47.6871 376.199 49.9397C372.47 52.1923 368.597 55.737 366.847 61.1747C365.166 66.4047 365.894 72.1795 367.644 76.4937C369.394 80.808 372.039 84.0268 374.403 87.5771C377.276 91.947 379.678 96.597 381.57 101.452C382.524 103.665 383.165 105.996 383.475 108.379C383.779 111.3 383.395 114.44 383.01 117.513L379.596 144.893C379.143 148.533 378.684 152.229 378.942 155.734C379.235 159.773 380.457 163.301 381.662 166.745C384.255 174.171 387.032 181.912 391.927 186.002C396.821 190.091 404.498 189.215 408.635 181.609C412.571 174.368 411.848 164.374 415.205 156.594C420.495 144.331 432.935 143.337 438.919 131.697C444.657 120.529 441.45 106.244 443.756 93.2676C445.409 83.9706 449.884 75.6567 452.179 66.5058C455.49 53.3215 453.901 39.3619 449.529 28.8684C445.156 18.3749 438.242 10.8924 430.823 5.14565C427.679 2.70203 424.345 0.49435 420.61 0.089889C416.639 -0.34266 413.466 2.92673 409.651 3.75251C405.21 4.65693 400.574 3.13458 396.058 3.79183Z" fill="#174AFF"/>
<path d="M417.104 0.5224C417.104 0.5224 420.237 119.552 397.848 188.383" stroke="#535461" stroke-width="2" stroke-miterlimit="10"/>
<path d="M386.952 11.0159C386.952 11.0159 418.625 31.8007 415.911 67.8427" stroke="#535461" stroke-width="2" stroke-miterlimit="10"/>
<path d="M366.164 63.9161C366.164 63.9161 416.152 73.6119 414.178 93.9923" stroke="#535461" stroke-width="2" stroke-miterlimit="10"/>
<path d="M449.586 28.5651C449.586 28.5651 430.588 39.6372 415.624 73.1738" stroke="#535461" stroke-width="2" stroke-miterlimit="10"/>
<path d="M438.621 131.854C438.621 131.854 425.596 138.595 412.497 111.85" stroke="#535461" stroke-width="2" stroke-miterlimit="10"/>
<path d="M380.996 143.769C380.996 143.769 408.612 142.797 410.184 130.804" stroke="#535461" stroke-width="2" stroke-miterlimit="10"/>
<path d="M38.5867 325.024C38.5867 325.024 43.395 331.203 36.3662 340.472C29.3374 349.741 23.5307 357.617 25.8889 363.414C25.8889 363.414 36.4924 346.151 45.1221 345.91C53.7517 345.668 48.0828 335.405 38.5867 325.024Z" fill="#174AFF"/>
<path opacity="0.1" d="M38.5869 325.024C39.016 325.617 39.3561 326.268 39.5968 326.956C48.0199 336.641 52.5011 345.679 44.4108 345.91C36.8713 346.123 27.8286 359.319 25.6597 362.656C25.7312 362.913 25.8174 363.166 25.9179 363.414C25.9179 363.414 36.5213 346.151 45.151 345.91C53.7807 345.668 48.083 335.405 38.5869 325.024Z" fill="black"/>
<path d="M47.5265 332.872C47.5265 335.04 47.2797 336.804 46.9527 336.804C46.6256 336.804 46.3789 335.046 46.3789 332.872C46.3789 330.698 46.6887 331.748 46.9928 331.748C47.297 331.748 47.5265 330.703 47.5265 332.872Z" fill="#FFD037"/>
<path d="M50.5962 335.456C48.651 336.495 46.9584 337.141 46.815 336.854C46.6715 336.568 48.1232 335.534 50.0683 334.501C52.0134 333.467 51.2445 334.22 51.3937 334.501C51.5429 334.781 52.5355 334.416 50.5962 335.456Z" fill="#FFD037"/>
<path d="M13.2028 325.024C13.2028 325.024 8.39449 331.203 15.4233 340.472C22.4521 349.741 28.2473 357.611 25.9005 363.408C25.9005 363.408 15.2971 346.146 6.66741 345.904C-1.96225 345.663 3.69522 335.405 13.2028 325.024Z" fill="#174AFF"/>
<path opacity="0.1" d="M13.2028 325.024C12.7838 325.619 12.4534 326.27 12.2216 326.956C3.79851 336.641 -0.682723 345.679 7.40759 345.91C14.9471 346.123 23.9899 359.319 26.1587 362.656C26.0872 362.913 26.001 363.166 25.9005 363.414C25.9005 363.414 15.2971 346.151 6.66741 345.91C-1.96225 345.668 3.69522 335.405 13.2028 325.024Z" fill="black"/>
<path d="M4.25195 332.872C4.25195 335.04 4.49868 336.804 4.82573 336.804C5.15279 336.804 5.39951 335.046 5.39951 332.872C5.39951 330.698 5.08967 331.748 4.78557 331.748C4.48147 331.748 4.25195 330.703 4.25195 332.872Z" fill="#FFD037"/>
<path d="M1.1817 335.456C3.12682 336.495 4.81947 337.141 4.96291 336.854C5.10636 336.568 3.65469 335.534 1.70958 334.501C-0.235541 333.467 0.533326 334.22 0.384143 334.501C0.23496 334.781 -0.757681 334.416 1.1817 335.456Z" fill="#FFD037"/>
<path d="M5.78369 362.605C5.78369 362.605 19.2274 362.201 23.2783 359.375C27.3292 356.549 43.9344 353.196 44.9615 357.69C45.9885 362.184 65.1643 380.222 49.9878 380.34C34.8113 380.458 14.7232 378.025 10.678 375.615C6.63289 373.205 5.78369 362.605 5.78369 362.605Z" fill="#A8A8A8"/>
<path opacity="0.2" d="M50.2574 378.778C35.0809 378.896 14.9929 376.463 10.9477 374.053C7.86652 372.217 6.63862 365.627 6.23124 362.588H5.78369C5.78369 362.588 6.63289 373.205 10.678 375.615C14.7232 378.025 34.8113 380.463 49.9878 380.339C54.3715 380.306 55.8805 378.778 55.8002 376.52C55.192 377.901 53.5223 378.755 50.2574 378.778Z" fill="black"/>
<path d="M563.66 322.468C564.711 321.629 565.478 320.496 565.857 319.221C566.144 317.929 565.582 316.384 564.319 315.912C562.908 315.384 561.399 316.339 560.257 317.311C559.115 318.283 557.801 319.384 556.304 319.176C557.073 318.493 557.649 317.626 557.975 316.66C558.301 315.695 558.366 314.663 558.163 313.665C558.098 313.252 557.92 312.863 557.646 312.542C556.86 311.722 555.443 312.075 554.502 312.722C551.518 314.778 550.686 318.743 550.669 322.316C550.371 321.03 550.623 319.687 550.612 318.384C550.6 317.081 550.233 315.575 549.097 314.89C548.393 314.519 547.601 314.335 546.802 314.356C545.459 314.306 543.967 314.44 543.049 315.401C541.902 316.592 542.206 318.597 543.199 319.895C544.191 321.193 545.694 322.03 547.083 322.94C548.196 323.588 549.145 324.473 549.86 325.529C549.944 325.676 550.013 325.83 550.067 325.99H558.473C560.356 325.05 562.101 323.866 563.66 322.468Z" fill="#174AFF"/>
<path opacity="0.1" d="M84.1911 269.821C102.449 292.549 95.3569 325.754 83.755 352.342C79.8705 361.246 75.4753 370.666 77.1164 380.21C79.1188 391.884 89.7395 400.433 100.94 404.927C121.309 413.174 145.695 411.208 164.406 399.81C180.581 389.957 192.165 373.936 208.615 364.532C236.157 348.803 271.192 354.74 301.086 365.577C322.236 373.245 345.359 383.221 366.377 375.205C381.163 369.588 391.388 355.841 396.959 341.292C399.65 334.265 401.601 326.687 406.713 321.069C409.766 317.76 413.748 315.407 417.833 313.429C455.129 295.335 502.179 305.003 538.373 284.96C562.822 271.41 578.475 245.845 585.423 219.19C592.372 192.535 591.545 164.582 589.784 137.135C588.533 117.625 586.289 96.801 573.557 81.7405C560.091 65.8148 536.973 59.8883 516.082 62.9162C495.19 65.944 476.244 76.7858 459.604 89.4926C438.782 105.373 419.474 125.153 393.907 131.59C376.498 135.972 358.183 133.573 340.224 132.747C310.203 131.36 280.177 134.433 250.324 137.803C221.744 141.039 192.945 144.6 165.731 153.701C146.464 160.144 131.017 171.834 112.823 180.002C100.963 185.327 88.0297 186.799 76.8065 193.58C62.9727 201.933 50.2978 216.465 53.8553 233.464C57.1947 249.648 74.4942 257.76 84.1911 269.821Z" fill="#174AFF"/>
<path opacity="0.1" d="M316.928 269.809C452.453 269.809 562.317 259.477 562.317 246.733C562.317 233.988 452.453 223.656 316.928 223.656C181.403 223.656 71.5391 233.988 71.5391 246.733C71.5391 259.477 181.403 269.809 316.928 269.809Z" fill="#174AFF"/>
<path opacity="0.1" d="M128.332 402.944C195.31 402.944 249.606 392.613 249.606 379.868C249.606 367.123 195.31 356.791 128.332 356.791C61.354 356.791 7.05762 367.123 7.05762 379.868C7.05762 392.613 61.354 402.944 128.332 402.944Z" fill="#174AFF"/>
<path d="M252.303 239.536L250.381 242.272C250.381 242.272 252.475 245.008 252.676 245.351C252.877 245.693 258.787 245.182 258.787 245.182L259.309 243.132L258.437 240.739L252.303 239.536Z" fill="#E6E6F0"/>
<path d="M187.678 237.997L183.833 238.677L186.278 243.3L188.9 244.665L191.344 246.373L192.044 244.497L190.294 240.902L187.678 237.997Z" fill="#FDC2CC"/>
<path d="M250.558 193.535C250.558 193.535 270.997 198.321 274.835 203.646C274.835 203.646 278.329 206.556 274.835 211.853C271.341 217.151 266.452 229.127 266.452 229.127C266.452 229.127 262.958 240.755 261.564 241.609C260.169 242.463 252.131 243.149 251.431 239.924C251.431 239.924 255.969 232.913 255.969 229.661C255.969 226.408 263.48 211.022 263.48 211.022C263.48 211.022 246.364 209.14 240.948 210.337C235.531 211.533 243.398 191.653 250.558 193.535Z" fill="#565171"/>
<path opacity="0.1" d="M250.558 193.535C250.558 193.535 270.997 198.321 274.835 203.646C274.835 203.646 278.329 206.556 274.835 211.853C271.341 217.151 266.452 229.127 266.452 229.127C266.452 229.127 262.958 240.755 261.564 241.609C260.169 242.463 252.131 243.149 251.431 239.924C251.431 239.924 255.969 232.913 255.969 229.661C255.969 226.408 263.48 211.022 263.48 211.022C263.48 211.022 246.364 209.14 240.948 210.337C235.531 211.533 243.398 191.653 250.558 193.535Z" fill="black"/>
<path d="M246.365 198.152C246.324 199.147 246.215 200.264 246.06 201.467C244.942 210.174 241.298 223.122 241.298 223.122C241.298 223.122 237.632 230.818 236.582 235.778C235.532 240.739 228.371 241.958 228.371 241.958C228.371 241.958 208.805 244.205 204.788 243.328C200.772 242.452 194.46 245.896 191.339 245.379C188.218 244.862 186.272 237.683 186.272 237.683C191.69 237.714 197.051 236.607 201.994 234.436C210.027 230.846 221.56 232.554 221.56 232.554C222.42 232.309 223.22 231.895 223.911 231.337C224.602 230.778 225.168 230.088 225.576 229.307C226.799 226.74 226.799 211.179 226.449 210.151C224.153 203.41 224.343 199.085 225.003 196.562C225.224 195.461 225.72 194.43 226.449 193.563L246.365 198.152Z" fill="#565171"/>
<path opacity="0.1" d="M246.364 198.152C246.324 199.147 246.215 200.264 246.06 201.467C244.304 201.601 239.381 201.731 235.732 199.523C232.289 197.456 227.28 196.754 225.025 196.534C225.246 195.433 225.743 194.402 226.471 193.535L246.364 198.152Z" fill="black"/>
<path d="M248.78 196.012C247.965 198.259 246.714 200.894 246.714 200.894C246.714 200.894 240.254 201.747 235.709 199.012C231.165 196.276 223.832 195.933 223.832 195.933C225.02 195.22 225.823 193.052 226.322 191.153C226.601 190.079 226.819 188.992 226.976 187.895C226.976 187.895 248.459 192.17 249.354 192.855C249.687 193.125 249.331 194.484 248.78 196.012Z" fill="#E6E6F0"/>
<path d="M287.063 123.934L261.007 139.331L258.419 140.859V133.337L260.215 132.495L282.174 122.22C282.174 122.22 283.224 103.581 286.018 106.491C288.813 109.401 287.063 123.934 287.063 123.934Z" fill="#FDC2CC"/>
<path opacity="0.1" d="M261.007 139.331L258.419 140.859V133.337L260.215 132.495C260.334 134.787 260.599 137.071 261.007 139.331Z" fill="black"/>
<path d="M240.954 142.084L259.642 131.484C259.642 131.484 259.992 141.747 262.086 143.28C262.086 143.28 254.403 145.527 251.431 150.291L240.954 142.084Z" fill="#B45181"/>
<path opacity="0.1" d="M240.954 142.084L259.642 131.484C259.642 131.484 259.992 141.747 262.086 143.28C262.086 143.28 254.403 145.527 251.431 150.291L240.954 142.084Z" fill="black"/>
<path d="M286.896 151.122C286.896 151.122 278.008 154.914 272.121 156.307C270.797 156.699 269.411 156.855 268.03 156.768C264.014 156.083 269.08 151.151 269.08 151.151L271.192 150.83L282.53 149.1C282.53 149.1 283.752 132 285.846 133.371C287.94 134.742 286.896 151.122 286.896 151.122Z" fill="#FDC2CC"/>
<path d="M249.337 135.73C249.337 135.73 241.826 141.202 244.62 148.044C247.414 154.886 230.121 143.938 230.121 143.938C230.121 143.938 235.709 135.73 236.931 129.574C238.154 123.417 249.337 135.73 249.337 135.73Z" fill="#FDC2CC"/>
<path opacity="0.1" d="M248.78 196.012C245.532 194.814 242.136 194.04 238.682 193.709C233.632 193.147 229.008 192.198 226.328 191.153C226.607 190.079 226.825 188.992 226.982 187.895C226.982 187.895 248.465 192.17 249.36 192.855C249.687 193.125 249.331 194.484 248.78 196.012Z" fill="black"/>
<path opacity="0.1" d="M272.115 156.307C270.791 156.699 269.405 156.855 268.024 156.768C264.008 156.083 269.074 151.151 269.074 151.151L271.186 150.83C272.07 152.162 272.97 154.24 272.115 156.307Z" fill="black"/>
<path d="M237.109 138.809C237.109 138.809 230.299 138.64 227.854 141.376C225.41 144.112 225.932 151.488 225.932 151.488C225.932 151.488 225.421 166.256 229.249 174.519C229.375 174.786 229.389 175.091 229.289 175.368C229.249 175.469 229.249 175.407 229.249 175.407C229.249 175.407 226.804 186.181 224.36 188.063C221.916 189.945 229.599 192.17 238.704 193.192C247.81 194.214 251.454 196.782 251.454 196.782C251.454 196.782 253.026 195.096 253.175 191.31C253.324 187.524 250.748 160.015 250.748 160.015C250.748 160.015 260.353 162.408 266.12 159.504C266.12 159.504 268.742 160.874 271.186 157.111C273.631 153.347 269.465 149.246 269.465 149.246C269.465 149.246 265.621 153.01 254.965 148.05C244.31 143.089 240.42 138.64 237.109 138.809Z" fill="#B45181"/>
<path d="M184.884 238.34H182.79V241.25L184.884 245.867C184.884 245.867 187.678 246.379 187.856 246.379C188.034 246.379 190.3 245.867 190.3 245.867L191 244.671C191 244.671 183.312 241.755 184.884 238.34Z" fill="#E6E6F0"/>
<path d="M250.558 241.076L247.414 247.918L260.691 254.097L271.174 254.44C271.174 254.44 272.046 252.047 268.552 250.85L265.758 250.339C265.758 250.339 262.091 243.839 261.741 240.789C261.741 240.789 258.247 241.475 257.725 244.036C257.719 243.98 252.831 246.373 250.558 241.076Z" fill="#B45181"/>
<path d="M183.312 237.655L182.244 238.509L177.551 242.272L188.378 256.316C188.378 256.316 194.489 258.883 197.289 256.316C197.289 256.316 199.01 254.631 195.195 253.238C195.195 253.238 192.222 253.749 192.222 250.845C192.222 247.94 192.922 244.862 193.944 244.177C193.944 244.177 191.322 243.323 190.627 244.008C190.093 244.584 189.624 245.215 189.227 245.89C189.227 245.89 182.962 243.469 183.312 237.655Z" fill="#B45181"/>
<path opacity="0.1" d="M236.587 129.916C236.41 130.784 236.176 131.639 235.887 132.478C236.794 134.615 238.517 136.321 240.688 137.235C242.86 138.148 245.31 138.197 247.518 137.371C247.978 136.906 248.471 136.472 248.992 136.073C248.992 136.073 237.809 123.759 236.587 129.916Z" fill="black"/>
<path opacity="0.1" d="M235.623 152.757C235.623 152.757 241.04 159.768 248.9 159.942L235.623 152.757Z" fill="black"/>
<g opacity="0.1">
<path d="M267.996 159.622C267.886 159.592 267.778 159.552 267.675 159.504C267.506 159.59 267.334 159.67 267.158 159.745C267.442 159.74 267.723 159.698 267.996 159.622Z" fill="black"/>
<path d="M269.855 149.948C269.665 149.709 269.462 149.481 269.247 149.263C269.247 149.263 268.099 150.387 265.265 150.6C266.826 150.752 268.402 150.528 269.855 149.948Z" fill="black"/>
<path d="M252.303 160.015L252.338 160.38C254.642 160.798 256.983 160.986 259.326 160.942C256.96 160.857 254.608 160.547 252.303 160.015Z" fill="black"/>
<path d="M240.254 193.203C231.171 192.175 223.488 189.956 225.909 188.074C228.331 186.193 230.798 175.418 230.798 175.418C230.798 175.418 230.798 175.48 230.838 175.379C230.938 175.102 230.924 174.797 230.798 174.531C226.971 166.245 227.481 151.499 227.481 151.499C227.481 151.499 226.959 144.145 229.403 141.387C231.222 139.348 235.463 138.927 237.511 138.843C237.32 138.828 237.128 138.828 236.937 138.843C236.937 138.843 230.126 138.674 227.682 141.41C225.238 144.145 225.76 151.521 225.76 151.521C225.76 151.521 225.249 166.29 229.076 174.553C229.203 174.82 229.217 175.124 229.117 175.401C229.076 175.502 229.076 175.441 229.076 175.441C229.076 175.441 226.649 186.181 224.182 188.063C221.715 189.945 229.421 192.17 238.527 193.192C247.633 194.214 251.276 196.782 251.276 196.782C251.459 196.567 251.62 196.335 251.758 196.091C249.985 195.254 246.336 193.877 240.254 193.203Z" fill="black"/>
</g>
<path d="M244.62 137.612C249.636 137.612 253.703 133.631 253.703 128.72C253.703 123.809 249.636 119.827 244.62 119.827C239.604 119.827 235.537 123.809 235.537 128.72C235.537 133.631 239.604 137.612 244.62 137.612Z" fill="#FDC2CC"/>
<path opacity="0.1" d="M257.547 124.743C256.796 126.585 254.552 127.282 252.584 127.759C249.773 128.433 246.743 129.096 244.052 128.051C243.703 127.86 243.301 127.783 242.904 127.832C242.585 127.958 242.318 128.185 242.147 128.478C239.181 132.613 239.663 138.123 238.894 143.123C238.653 144.679 238.245 146.286 237.172 147.449C235.084 149.696 231.142 149.611 229.22 151.999C227.952 153.572 227.94 155.757 227.952 157.762C227.952 159.901 227.933 162.041 227.894 164.183C227.86 165.587 227.791 167.042 227.143 168.29C226.041 170.402 223.585 171.407 221.319 172.222C219.907 172.739 218.45 173.261 216.935 173.121C215.42 172.98 213.906 171.997 213.71 170.514C213.441 168.503 215.558 167.099 217.015 165.649C219.345 163.34 220.303 159.981 220.389 156.734C220.471 155.423 220.276 154.109 219.815 152.875C219.282 151.6 218.329 150.527 217.756 149.269C215.988 145.393 218.169 140.91 220.779 137.517C223.39 134.124 226.598 130.815 227.154 126.608C227.203 125.697 227.335 124.793 227.55 123.906C227.952 122.681 228.904 119.299 229.954 118.524C231.635 117.284 233.609 116.48 235.692 116.187C237.304 115.957 238.951 116.041 240.552 115.738C242.422 115.384 244.161 114.513 246.032 114.187C250.077 113.485 254.466 118.086 256.239 121.715C256.727 122.827 258.006 123.613 257.547 124.743Z" fill="black"/>
<path d="M257.547 124.4C256.796 126.242 254.552 126.939 252.584 127.416C249.773 128.091 246.743 128.753 244.052 127.709C243.703 127.517 243.301 127.44 242.904 127.489C242.585 127.615 242.318 127.843 242.147 128.136C239.181 132.27 239.663 137.781 238.894 142.78C238.653 144.336 238.245 145.943 237.172 147.106C235.084 149.353 231.142 149.269 229.22 151.656C227.952 153.229 227.94 155.414 227.952 157.42C227.952 159.558 227.933 161.698 227.894 163.84C227.86 165.245 227.791 166.7 227.143 167.947C226.041 170.059 223.585 171.065 221.319 171.879C219.907 172.396 218.45 172.918 216.935 172.778C215.42 172.637 213.906 171.654 213.71 170.171C213.441 168.16 215.558 166.756 217.015 165.307C219.345 162.998 220.303 159.639 220.389 156.392C220.471 155.08 220.276 153.766 219.815 152.532C219.282 151.257 218.329 150.184 217.756 148.926C215.988 145.05 218.169 140.567 220.779 137.174C223.39 133.781 226.598 130.472 227.154 126.265C227.203 125.354 227.335 124.45 227.55 123.563C227.952 122.338 228.904 118.957 229.954 118.181C231.635 116.942 233.609 116.138 235.692 115.844C237.304 115.614 238.951 115.698 240.552 115.395C242.422 115.041 244.161 114.17 246.032 113.845C250.077 113.142 254.466 117.743 256.239 121.372C256.727 122.484 258.006 123.271 257.547 124.4Z" fill="#F569BC"/>
<path d="M286.896 107.306H437.898V255.131H286.896V107.306Z" fill="#F7DF1E"/>
<path d="M326.607 230.841L338.163 223.993C340.395 227.863 342.421 231.138 347.286 231.138C351.951 231.138 354.889 229.352 354.889 222.409V175.171H369.079V222.6C369.079 236.986 360.472 243.536 347.895 243.536C336.545 243.536 329.958 237.778 326.613 230.835M376.785 229.346L388.335 222.796C391.376 227.661 395.329 231.223 402.324 231.223C408.205 231.223 411.952 228.346 411.952 224.375C411.952 219.611 408.102 217.926 401.624 215.145L398.078 213.657C387.841 209.393 381.048 204.034 381.048 192.72C381.048 182.3 389.155 174.362 401.824 174.362C410.844 174.362 417.316 177.44 421.993 185.474L410.947 192.422C408.515 188.153 405.881 186.468 401.824 186.468C397.67 186.468 395.031 189.046 395.031 192.422C395.031 196.591 397.664 198.276 403.747 200.849L407.292 202.337C419.342 207.393 426.147 212.556 426.147 224.167C426.147 236.672 416.111 243.519 402.622 243.519C389.425 243.519 380.933 237.34 376.802 229.329" fill="black"/>
<path d="M504.135 337.169C504.135 337.169 498.242 337.573 494.605 331.394C493.894 330.15 493.053 328.981 492.097 327.906C490.923 326.02 490.312 323.85 490.336 321.642C490.536 317.064 485.659 291.987 485.659 291.987C485.659 291.987 486.268 282.437 481.39 276.466C478.177 272.534 473.558 261.299 470.775 254.041C470.962 254.204 471.187 254.32 471.43 254.378L471.315 253.754H471.43L469.989 246.008C467.893 243.648 466.125 241.026 464.734 238.211L465.061 238.143L469.375 237.256C469.375 237.256 476.387 227.498 476.835 222.701H477.408H478.217C484.708 222.666 491.194 222.998 497.646 223.695C497.646 223.667 497.6 223.543 497.542 223.347C497.269 222.381 497.058 221.4 496.911 220.409H497.313L501.329 220.15C501.329 220.15 515.152 205.028 510.068 202.242C504.984 199.455 499.7 214.78 499.7 214.78L497.978 215.083L497.514 215.168C497.56 215.1 497.605 215.038 497.657 214.977C497.709 214.915 475.096 213.988 471.613 208.606C471.613 208.606 461.652 200.843 461.245 195.686C461.172 194.616 460.799 193.587 460.167 192.711C459.536 191.835 458.67 191.146 457.665 190.72C456.434 190.145 455.071 189.895 453.711 189.996L449.046 190.31L449.373 190.872H449.241C448.949 190.215 448.703 189.54 448.507 188.85H448.605C448.57 188.709 448.541 188.569 448.513 188.428C449.942 188.098 451.29 187.491 452.475 186.641C453.661 185.792 454.66 184.719 455.414 183.485C456.168 182.25 456.661 180.881 456.864 179.456C457.067 178.032 456.977 176.583 456.597 175.193C457.054 175.251 457.517 175.237 457.969 175.154C459.69 174.811 460.901 173.104 460.947 171.396C460.947 171.284 460.947 171.171 460.947 171.065C460.947 171.065 460.947 171.02 460.947 170.997C460.929 170.139 460.717 169.295 460.325 168.528C459.933 167.76 459.371 167.088 458.68 166.559C457.751 165.801 456.638 165.262 455.811 164.419C454.807 163.413 454.256 162.065 453.476 160.88C452.169 158.919 450.23 157.442 447.968 156.684C446.286 156.122 444.221 156.066 442.93 157.245C442.264 157.858 441.88 158.745 441.134 159.262C440.061 160.015 438.604 159.79 437.29 159.942C436.1 160.121 434.973 160.584 434.01 161.291C433.046 161.997 432.275 162.925 431.764 163.992C431.12 165.329 430.809 166.796 430.858 168.273C430.843 169.286 430.967 170.297 431.225 171.278C431.477 172.255 431.85 173.199 432.126 174.177C432.699 176.199 432.831 178.328 433.491 180.322C433.935 181.802 434.82 183.119 436.033 184.103L435.838 184.923C435.712 184.923 432.544 185.614 430.358 190.293C428.637 193.984 422.779 197.793 420.202 199.332C419.722 199.62 419.305 199.999 418.976 200.446C418.647 200.894 418.412 201.401 418.286 201.938C418.039 203.024 417.929 204.135 417.959 205.247C417.913 207.646 418.424 210.966 420.392 215.173C424.862 224.723 428.115 228.902 428.115 228.902C428.115 228.902 428.362 231.829 428.379 234.913C428.379 237.211 428.207 239.497 427.707 240.643C427.283 241.609 427.134 244.075 427.168 246.895C427.168 252.299 427.707 259.349 427.707 259.349C427.707 259.349 429.262 259.642 431.667 259.984L433.164 285.78C433.352 288.904 432.328 291.982 430.295 294.397C429.245 295.667 428.032 296.8 426.686 297.768C422.417 300.751 413.271 332.197 413.271 332.197C413.271 332.197 413.719 332.197 414.453 332.282L411.642 339.961C411.642 339.961 422.876 348.387 429.71 346.084C430.45 345.848 431.227 345.741 432.005 345.769C433.353 345.769 436.24 344.724 434.633 343.348C431.531 340.551 428.605 337.572 425.871 334.428C426.091 334.533 426.302 334.655 426.503 334.793V334.731L426.6 334.793C426.6 334.793 426.6 334.484 426.675 333.978L426.577 333.944C426.784 331.877 427.438 326.642 428.735 326.035C430.358 325.237 442.356 301.953 442.356 301.953L454.348 271.702C454.348 271.702 463.902 287.825 472.032 290.605V297.346C472.032 297.346 476.502 317.249 478.131 319.434C479.761 321.62 478.131 330.377 478.131 330.377C478.453 330.738 478.821 331.055 479.227 331.321L477.925 338.534C477.925 338.534 487.277 338.135 503.131 342.91C503.119 342.938 509.219 340.354 504.135 337.169ZM466.736 233.088L464.756 233.571L464.366 233.666C464.326 233.425 464.297 233.284 464.297 233.284C463.843 233.485 463.355 233.601 462.857 233.627C462.156 231.451 461.75 229.194 461.652 226.914C460.986 224.185 460.581 221.402 460.442 218.6C460.442 217.151 460.688 215.887 461.245 215.173L461.905 215.224L462.364 215.651L462.398 215.679L462.634 215.887L462.88 216.1L462.92 216.134L463.184 216.364L463.23 216.404L463.5 216.628L463.804 216.875L463.873 216.932L464.194 217.184L464.51 217.432L464.584 217.488L464.934 217.746L465.009 217.797L465.342 218.038L465.399 218.078L465.778 218.342L465.87 218.403L466.271 218.673H466.306L466.696 218.926L466.788 218.988L467.207 219.252L467.298 219.308L467.689 219.544L467.763 219.589L468.211 219.847L468.32 219.909L468.784 220.162H468.819L469.272 220.398L469.381 220.454L469.863 220.69L469.961 220.735L470.408 220.937L470.494 220.976L470.999 221.19L471.12 221.24L471.642 221.448C468.4 224.942 466.736 233.088 466.736 233.088Z" fill="url(#paint0_linear_20_220)"/>
<path d="M416.599 327.552L412.83 337.849C412.83 337.849 423.158 345.601 429.871 343.994C430.882 343.748 431.913 343.584 432.952 343.505C434.341 343.404 436.733 342.41 435.247 341.152C430.485 337.073 424.133 329.495 424.133 329.495L416.599 327.552Z" fill="#4F4D59"/>
<path d="M479.308 326.58L477.523 336.489C477.523 336.489 486.652 336.102 502.133 340.764C502.133 340.764 508.089 338.236 503.126 335.147C503.126 335.147 497.388 335.534 493.802 329.529C490.215 323.524 488.064 324.282 488.064 324.282L479.308 326.58Z" fill="#4F4D59"/>
<path d="M432.063 254.698L433.784 284.853C433.973 288.066 432.885 291.226 430.749 293.673C429.783 294.796 428.683 295.801 427.472 296.667C423.307 299.582 414.373 330.276 414.373 330.276C414.373 330.276 424.495 330.838 427.272 332.804C427.272 332.804 427.845 325.035 429.452 324.254C431.059 323.473 442.747 300.745 442.747 300.745L454.457 271.214C454.457 271.214 463.781 286.943 471.722 289.673V296.279C471.722 296.279 476.089 315.71 477.678 317.845C479.268 319.979 477.678 328.518 477.678 328.518C477.678 328.518 482.269 334.135 492.757 328.13C492.757 328.13 489.383 324.44 489.584 319.968C489.785 315.497 484.994 291.021 484.994 291.021C484.994 291.021 485.568 281.696 480.828 275.854C476.089 270.012 468.211 247.693 468.211 247.693L462.749 236.188L432.063 254.698Z" fill="#C48C96"/>
<g opacity="0.1">
<path d="M416.301 330.271C416.301 330.271 425.229 299.577 429.4 296.661C430.68 295.743 431.837 294.671 432.843 293.47C434.88 291.057 435.905 287.977 435.712 284.853L433.962 254.693L463.225 237.031L462.829 236.194L432.178 254.698L433.928 284.859C434.12 287.983 433.095 291.063 431.059 293.476C430.052 294.676 428.896 295.748 427.616 296.667C423.456 299.577 414.517 330.271 414.517 330.271C414.517 330.271 424.638 330.832 427.415 332.799C427.415 332.799 427.415 332.495 427.49 332.006C423.582 330.692 416.301 330.271 416.301 330.271Z" fill="black"/>
<path d="M479.606 328.524C479.606 328.524 481.196 319.974 479.606 317.85C478.017 315.727 473.65 296.285 473.65 296.285V289.667C465.715 286.948 456.385 271.208 456.385 271.208L455.697 272.972C458.388 277.151 465.566 287.521 471.872 289.678V296.285C471.872 296.285 476.238 315.716 477.828 317.85C479.417 319.985 477.828 328.524 477.828 328.524C477.828 328.524 480.042 331.254 484.931 330.883C481.276 330.585 479.606 328.524 479.606 328.524Z" fill="black"/>
</g>
<path d="M500.343 220.892L496.447 221.145L494.393 221.28V216.42L497.089 215.943L498.759 215.645C498.759 215.645 503.923 200.686 508.881 203.405C513.838 206.124 500.343 220.892 500.343 220.892Z" fill="#714B4F"/>
<path d="M437.835 180.845C437.835 180.845 435.253 190.557 434.461 196.574C433.669 202.59 452.914 197.742 452.914 197.742C452.914 197.742 445.57 189.001 449.741 184.339L437.835 180.845Z" fill="#714B4F"/>
<path d="M458.669 221.291L459.065 224.982L452.914 224.594L446.763 219.347L440.612 202.438L436.653 196.411L433.675 192.72L434.868 188.226C434.868 188.226 435.413 188.692 436.331 189.378C439.355 191.625 446.441 196.349 451.623 195.046C451.862 194.987 452.098 194.914 452.328 194.827L460.069 207.842L458.669 221.291Z" fill="#E6E6F0"/>
<path opacity="0.1" d="M436.447 187.086C436.447 187.086 433.274 187.648 431.087 192.333C429.412 195.916 423.743 199.635 421.213 201.135C420.73 201.424 420.311 201.804 419.981 202.254C419.651 202.703 419.416 203.213 419.29 203.753C418.78 205.966 418.585 210.095 421.362 216.033C425.728 225.358 428.901 229.436 428.901 229.436C428.901 229.436 429.693 238.761 428.505 241.48C427.318 244.199 428.505 259.158 428.505 259.158C428.505 259.158 449.339 263.046 456.288 259.158C463.236 255.271 462.244 240.312 462.244 240.312C462.244 240.312 468.791 253.912 471.172 254.299L469.783 246.721C469.783 246.721 462.043 238.559 461.647 228.071C461.647 228.071 459.266 218.549 461.251 216.027C461.251 216.027 494.789 218.746 496.774 216.415C496.774 216.415 474.746 215.443 471.373 210.196C471.373 210.196 461.647 202.618 461.251 197.568C461.193 196.62 460.89 195.702 460.369 194.901C459.847 194.1 459.126 193.442 458.273 192.99C456.923 192.238 455.375 191.9 453.826 192.018L449.345 192.321C449.345 192.321 457.085 205.725 456.69 207.489C456.294 209.252 457.085 223.42 457.085 223.42C457.085 223.42 448.129 204.573 444.187 202.438C440.245 200.304 435.649 191.518 435.649 191.518L436.441 187.08" fill="black"/>
<path opacity="0.1" d="M458.669 221.291L459.065 224.982L452.914 224.594L446.763 219.347L440.612 202.438L436.653 196.411L433.675 192.72L434.868 188.226C434.868 188.226 435.413 188.692 436.331 189.378L436.056 190.911C436.056 190.911 440.646 199.686 444.588 201.826C448.53 203.966 457.487 222.808 457.487 222.808C457.487 222.808 456.695 208.623 457.091 206.876C457.36 205.691 453.883 199.141 451.623 195.046C451.862 194.987 452.098 194.914 452.328 194.827L460.069 207.842L458.669 221.291Z" fill="black"/>
<path opacity="0.1" d="M496.447 221.145L494.393 221.28V216.42L497.089 215.943C496.148 217.162 496.183 219.319 496.447 221.145Z" fill="black"/>
<path d="M436.447 186.507C436.447 186.507 433.274 187.069 431.087 191.754C429.412 195.338 423.743 199.057 421.213 200.557C420.73 200.845 420.311 201.225 419.981 201.675C419.651 202.125 419.416 202.634 419.29 203.174C418.78 205.388 418.585 209.516 421.362 215.454C425.728 224.779 428.901 228.858 428.901 228.858C428.901 228.858 429.693 238.183 428.505 240.902C427.318 243.62 428.505 258.58 428.505 258.58C428.505 258.58 449.339 262.467 456.288 258.58C463.236 254.693 462.244 239.733 462.244 239.733C462.244 239.733 468.785 253.311 471.172 253.726L469.783 246.148C469.783 246.148 462.043 237.986 461.647 227.498C461.647 227.498 459.266 217.976 461.251 215.454C461.251 215.454 468.991 223.616 477.724 223.42C484.088 223.382 490.449 223.707 496.774 224.392C496.774 224.392 494.789 218.173 496.774 215.842C496.774 215.842 474.746 214.87 471.373 209.623C471.373 209.623 461.647 202.045 461.251 196.995C461.193 196.047 460.89 195.129 460.369 194.328C459.847 193.527 459.126 192.869 458.273 192.417C456.923 191.665 455.375 191.327 453.826 191.445L449.345 191.748C449.345 191.748 457.085 205.152 456.69 206.916C456.294 208.679 457.085 222.847 457.085 222.847C457.085 222.847 448.129 203.989 444.187 201.854C440.245 199.72 435.649 190.956 435.649 190.956L436.441 186.518" fill="#C48C96"/>
<path opacity="0.1" d="M432.063 206.904C432.063 206.904 436.825 222.633 439.602 224.583C442.379 226.532 459.249 236.436 464.212 234.104C464.212 234.104 465.405 239.935 463.638 241.295C463.638 241.295 445.134 240.587 444.984 240.52C444.984 240.52 432.878 238.964 430.892 233.138C428.907 227.313 426.526 217.409 426.526 217.409L432.063 206.904Z" fill="black"/>
<path d="M457.481 224.684C457.865 224.684 458.176 224.249 458.176 223.712C458.176 223.175 457.865 222.74 457.481 222.74C457.098 222.74 456.787 223.175 456.787 223.712C456.787 224.249 457.098 224.684 457.481 224.684Z" fill="#BA7855"/>
<path d="M459.461 231.481C459.844 231.481 460.155 231.046 460.155 230.509C460.155 229.972 459.844 229.537 459.461 229.537C459.077 229.537 458.767 229.972 458.767 230.509C458.767 231.046 459.077 231.481 459.461 231.481Z" fill="#BA7855"/>
<g opacity="0.1">
<path d="M429.9 258.366C429.9 258.366 428.706 243.407 429.9 240.688C431.093 237.969 430.296 228.644 430.296 228.644C430.296 228.644 427.123 224.566 422.756 215.241C419.973 209.303 420.174 205.174 420.685 202.961C420.81 202.421 421.045 201.911 421.375 201.461C421.705 201.012 422.124 200.632 422.607 200.343C425.137 198.826 430.801 195.124 432.482 191.54C433.715 188.911 435.259 187.58 436.372 186.917L436.447 186.49C436.447 186.49 433.274 187.052 431.087 191.737C429.412 195.321 423.743 199.04 421.213 200.54C420.73 200.828 420.311 201.209 419.981 201.658C419.651 202.108 419.416 202.618 419.29 203.157C418.78 205.371 418.585 209.5 421.362 215.437C425.728 224.762 428.901 228.841 428.901 228.841C428.901 228.841 429.693 238.166 428.505 240.885C427.318 243.604 428.505 258.563 428.505 258.563C428.505 258.563 443.389 261.338 452.191 259.849C443.303 260.889 429.9 258.366 429.9 258.366Z" fill="black"/>
<path d="M456.684 206.904C456.414 208.101 456.684 215.14 456.908 219.454C457.866 221.369 458.468 222.645 458.468 222.645C458.468 222.645 457.676 208.46 458.072 206.713C458.451 205.028 451.48 192.861 450.785 191.658L449.339 191.754C449.339 191.754 457.085 205.157 456.684 206.904Z" fill="black"/>
<path d="M479.113 223.223C470.38 223.42 462.64 215.258 462.64 215.258C462.408 215.574 462.238 215.93 462.141 216.308C464.436 218.398 470.747 223.571 477.725 223.414C484.088 223.377 490.449 223.701 496.774 224.386C496.774 224.386 496.734 224.257 496.671 224.038C490.838 223.447 484.977 223.175 479.113 223.223Z" fill="black"/>
<path d="M463.621 239.542C463.621 239.542 463.701 240.755 463.655 242.576C465.721 246.586 469.479 253.445 471.16 253.721L470.867 252.125C467.981 248.575 463.621 239.542 463.621 239.542Z" fill="black"/>
</g>
<path d="M469.186 237.582L464.969 238.452L461.641 239.138L463.426 234.278L464.671 233.975L466.604 233.503C466.604 233.503 469.381 219.903 474.941 220.875C480.501 221.847 469.186 237.582 469.186 237.582Z" fill="#714B4F"/>
<path opacity="0.1" d="M464.975 238.469L461.647 239.155L463.431 234.295L464.677 233.992C464.953 235.468 465.053 236.971 464.975 238.469Z" fill="black"/>
<path d="M432.063 206.517C432.063 206.517 436.825 222.246 439.602 224.195C442.379 226.144 459.249 236.048 464.212 233.717C464.212 233.717 465.405 239.548 463.638 240.907C463.638 240.907 445.134 240.199 444.984 240.132C444.984 240.132 432.878 238.576 430.892 232.751C428.907 226.925 426.526 217.021 426.526 217.021L432.063 206.517Z" fill="#C48C96"/>
<path opacity="0.1" d="M438.03 181.26C438.03 181.26 437.628 182.783 437.089 184.996C438.187 187.034 439.941 188.661 442.078 189.625C444.216 190.59 446.618 190.839 448.914 190.333C448.438 188.338 448.542 186.322 449.936 184.76L438.03 181.26Z" fill="black"/>
<path d="M446.367 190.198C452.287 190.198 457.085 185.5 457.085 179.704C457.085 173.909 452.287 169.211 446.367 169.211C440.448 169.211 435.649 173.909 435.649 179.704C435.649 185.5 440.448 190.198 446.367 190.198Z" fill="#714B4F"/>
<path opacity="0.1" d="M455.674 176.817C456.45 177.029 457.264 177.079 458.061 176.963C458.887 176.744 459.617 176.268 460.141 175.606C460.665 174.944 460.954 174.132 460.964 173.295C460.949 172.457 460.743 171.634 460.361 170.884C459.979 170.135 459.43 169.479 458.755 168.964C457.849 168.222 456.764 167.7 455.932 166.874C454.951 165.891 454.412 164.576 453.637 163.419C452.361 161.506 450.469 160.064 448.261 159.324C446.62 158.762 444.606 158.717 443.343 159.886C442.695 160.487 442.316 161.346 441.593 161.858C440.543 162.588 439.12 162.374 437.841 162.52C436.682 162.693 435.583 163.142 434.643 163.827C433.702 164.513 432.948 165.415 432.447 166.453C431.468 168.569 431.281 170.956 431.919 173.194C432.166 174.149 432.533 175.07 432.797 176.002C433.371 177.98 433.486 180.053 434.129 182.002C434.771 183.951 436.097 185.861 438.105 186.445C437.947 184.257 438.388 182.068 439.384 180.103C439.548 179.674 439.872 179.32 440.291 179.115C440.649 179.025 441.024 179.025 441.381 179.115C443.898 179.479 446.466 178.97 448.639 177.676C449.403 177.227 450.59 175.677 451.399 175.525C452.444 175.351 454.584 176.581 455.674 176.817Z" fill="black"/>
<path d="M455.674 176.429C456.45 176.642 457.264 176.691 458.061 176.575C458.887 176.357 459.617 175.88 460.141 175.218C460.665 174.556 460.954 173.745 460.964 172.907C460.949 172.07 460.743 171.246 460.361 170.497C459.979 169.747 459.43 169.091 458.755 168.576C457.849 167.835 456.764 167.312 455.932 166.486C454.951 165.503 454.412 164.189 453.637 163.032C452.361 161.118 450.469 159.677 448.261 158.936C446.62 158.375 444.606 158.33 443.343 159.498C442.695 160.099 442.316 160.959 441.593 161.47C440.543 162.2 439.12 161.987 437.841 162.133C436.682 162.305 435.583 162.754 434.643 163.44C433.702 164.126 432.948 165.027 432.447 166.065C431.468 168.182 431.281 170.568 431.919 172.806C432.166 173.761 432.533 174.682 432.797 175.615C433.371 177.592 433.486 179.665 434.129 181.614C434.771 183.564 436.097 185.474 438.105 186.058C437.951 183.871 438.397 181.683 439.396 179.721C439.56 179.292 439.884 178.938 440.302 178.732C440.66 178.643 441.035 178.643 441.393 178.732C443.909 179.097 446.477 178.588 448.651 177.294C449.414 176.845 450.602 175.295 451.411 175.143C452.444 174.963 454.584 176.193 455.674 176.429Z" fill="#503F43"/>
<path d="M562.598 141.797L553.853 237.688L514.55 248.362L475.355 237.688L466.622 141.797H562.598Z" fill="#E44D26"/>
<path d="M514.607 240.205L546.366 231.588L553.825 149.639H514.607V240.205Z" fill="#F16529"/>
<path d="M497.612 173.166H514.607V161.402H484.483L484.77 164.56L487.725 196.973H514.613V185.209H498.713L497.612 173.166ZM500.343 202.854H488.293L489.974 221.325L514.555 228.032H514.613V215.758H514.561L501.18 212.219L500.343 202.854Z" fill="#EBEBEB"/>
<path d="M475.555 115.732H481.66V121.636H487.243V115.732H493.348V133.618H487.243V127.63H481.66V133.618H475.555V115.732ZM501.375 121.664H495.999V115.732H512.857V121.664H507.48V133.618H501.381V121.664H501.375ZM515.536 115.732H521.905L525.824 122.018L529.737 115.732H536.106V133.618H530.024V124.754L525.824 131.113H525.721L521.515 124.754V133.618H515.536V115.732ZM539.142 115.732H545.247V127.703H553.853V133.613H539.159V115.732H539.142Z" fill="black"/>
<path d="M514.566 196.973H529.358L527.964 212.23L514.566 215.769V228.032L539.199 221.347L539.377 219.358L542.2 188.389L542.492 185.232H514.566V196.995V196.973ZM514.566 173.137V173.166H543.588L543.829 170.52L544.403 164.554L544.69 161.397H514.566V173.132V173.137Z" fill="white"/>
<path d="M210.422 212.589C209.304 209.382 207.691 205.286 206.406 204.354C206.329 204.293 206.244 204.242 206.154 204.202H205.993V200.242L202.975 200.714C202.49 199.282 202.124 197.815 201.879 196.327C202.17 196.611 202.54 196.805 202.943 196.884C203.347 196.963 203.765 196.924 204.145 196.77C204.094 196.692 204.053 196.607 204.008 196.523L204.145 196.467C203.67 195.646 203.419 194.72 203.417 193.776C203.442 192.915 203.582 192.062 203.835 191.237C204.375 189.411 205.287 187.704 205.798 185.872C206.124 184.69 206.279 183.468 206.257 182.243C206.272 180.168 205.789 178.119 204.845 176.261C204.611 175.726 204.244 175.257 203.778 174.896C203.354 174.665 202.917 174.457 202.47 174.272C201.722 173.779 201.077 173.149 200.571 172.418C198.427 169.863 195.558 167.989 192.325 167.031C191.484 166.725 190.572 166.655 189.692 166.829C187.666 167.391 186.926 169.823 185.285 171.11C183.833 172.233 181.842 172.362 180.029 172.744C178.168 173.054 176.455 173.933 175.135 175.255C174.277 176.216 173.809 177.451 173.821 178.727C173.772 179.322 173.879 179.92 174.133 180.463C174.387 181.006 174.78 181.476 175.273 181.828C175.834 182.189 176.469 182.424 177.134 182.516C177.798 182.608 178.476 182.556 179.117 182.361C178.616 184.056 178.478 185.833 178.712 187.582C178.945 189.331 179.546 191.014 180.475 192.525C181.404 194.036 182.643 195.343 184.112 196.364C185.582 197.384 187.251 198.096 189.015 198.456L189.37 199.074C190.456 201.055 191.279 203.163 191.82 205.348C189.043 206.893 186.008 208.337 184.178 208.472C184.105 209.172 183.973 209.866 183.782 210.544C183.354 212.249 182.532 213.835 181.378 215.179C178.887 217.92 167.682 238.649 167.682 238.649C167.682 238.649 167.326 239.475 166.752 240.896C159.792 241.733 148.437 242.941 145.264 242.317L132.813 230.734C132.813 230.734 128.796 233.739 129.141 237.391L126.897 235.301C126.897 235.301 115.066 244.137 133.748 249.906L162.173 253.136C159.465 261.136 156.94 270.444 157.721 275.511H157.956C158.5 275.51 159.042 275.469 159.58 275.387L159.528 276.286L156.791 324.277C156.791 324.277 156.166 333.113 164.572 337.079C164.572 337.079 174.848 366.644 170.797 369.998C170.797 369.998 171.279 370.245 172.088 370.593L163.636 377.896C163.636 377.896 157.411 379.418 153.985 379.115C153.383 379.035 152.772 379.174 152.268 379.507C151.765 379.839 151.404 380.342 151.254 380.918C151.254 380.98 151.254 381.042 151.22 381.109V381.188C151.22 381.25 151.22 381.317 151.22 381.384C151.22 381.452 151.22 381.435 151.22 381.457C151.22 381.48 151.22 381.57 151.22 381.626V381.699C151.22 381.766 151.22 381.828 151.26 381.896V381.969C151.279 382.04 151.302 382.109 151.329 382.176V382.244C151.357 382.311 151.392 382.379 151.426 382.446V382.491C151.466 382.558 151.507 382.626 151.553 382.693L151.593 382.749C151.642 382.821 151.698 382.892 151.759 382.963L151.805 383.019C151.868 383.092 151.937 383.16 152.012 383.233H152.046L152.275 383.424L152.327 383.463L152.608 383.659L152.677 383.704L153.004 383.89H153.056L153.406 384.058H153.457L153.865 384.221L153.951 384.255L154.404 384.401H154.479L154.967 384.525H155.007L155.58 384.631H155.689L156.263 384.716H156.372L157.032 384.777C158.312 384.873 160.039 384.907 162.036 384.901C162.036 384.901 162.036 384.952 162.036 384.974C162.036 384.996 162.036 385.086 162.036 385.143V385.216C162.036 385.283 162.036 385.345 162.076 385.412V385.485C162.095 385.556 162.118 385.626 162.145 385.693V385.76C162.173 385.828 162.208 385.895 162.242 385.963V386.008C162.282 386.075 162.322 386.142 162.368 386.21L162.408 386.266C162.458 386.337 162.514 386.408 162.575 386.479L162.621 386.536C162.684 386.609 162.753 386.676 162.827 386.749H162.856L163.086 386.94L163.137 386.979L163.418 387.176L163.487 387.221L163.808 387.406H163.86L164.21 387.575H164.262L164.669 387.738L164.755 387.771L165.209 387.918H165.283L165.771 388.041H165.811L166.385 388.148H166.494L167.068 388.232H167.177L167.836 388.294C175.932 388.906 201.77 387.075 201.77 387.075V387.002V386.912C202.028 385.732 203.267 378.873 198.861 373.801C198.993 373.666 199.119 373.525 199.239 373.379C199.239 373.379 195.797 367.588 197.685 365.762C199.572 363.936 188.567 332.518 188.567 332.518C188.567 332.518 182.651 323.372 186.077 313.008C189.502 302.644 185.767 291.369 185.767 291.369C185.767 291.369 193.943 288.999 194.093 279.151C194.093 278.853 194.093 278.545 194.093 278.236C194.264 278.26 194.436 278.271 194.609 278.269C194.724 278.277 194.839 278.277 194.953 278.269C194.953 278.269 193.398 272.781 195.263 268.821C197.128 264.86 201.179 268.517 204.914 252.361C207.617 240.671 209.992 227.229 211.105 220.684C211.562 217.972 211.328 215.191 210.422 212.589ZM139.377 246.856L136.537 244.216C137.478 244.598 138.522 244.969 139.687 245.339L150.388 246.57C145.614 246.991 141.156 247.227 139.377 246.873V246.856Z" fill="url(#paint1_linear_20_220)"/>
<path d="M166.477 245.317C166.477 245.317 144.455 248.311 139.865 247.412L127.632 236.031C127.632 236.031 116.007 244.716 134.362 250.406L168.617 254.299L166.477 245.317Z" fill="#FDC2CC"/>
<path opacity="0.05" d="M166.477 245.317C166.477 245.317 144.455 248.311 139.865 247.412L127.632 236.031C127.632 236.031 116.007 244.716 134.362 250.406L168.617 254.299L166.477 245.317Z" fill="black"/>
<path d="M123.369 252.872L75.7792 239.952L65.1758 123.501H181.705L171.09 239.935L123.369 252.872Z" fill="#264DE4"/>
<path d="M162.001 232.526L171.073 133.028H123.449V242.969L162.001 232.526Z" fill="#2965F1"/>
<path d="M89.5155 176.199L90.8237 190.479H123.472V176.199H89.5155ZM86.8876 147.291L88.213 161.571H123.466V147.291H86.8589H86.8876ZM123.466 213.291H123.403L107.154 208.994L106.115 197.602H91.4434L93.4861 220.027L123.369 228.167H123.437L123.466 213.291Z" fill="#EBEBEB"/>
<path d="M92.6025 91.8408H110.269V99.0761H99.9871V106.311H110.269V113.547H92.6025V91.8408ZM113.832 91.8408H131.499V98.1324H121.194V99.3907H131.476V113.861H113.804V107.255H124.086V105.997H113.804V91.8408H113.832ZM135.062 91.8408H152.729V98.1324H142.395V99.3907H152.677V113.861H135.005V107.255H145.287V105.997H135.005V91.8408H135.062Z" fill="black"/>
<path d="M157.302 176.199L159.936 147.291H123.369V161.571H143.927L142.602 176.177H123.369V190.456H141.334L139.612 208.994L123.369 213.303V228.161L153.274 220.044L153.492 217.628L156.935 180.025L157.291 176.188L157.302 176.199Z" fill="white"/>
<path d="M174.435 366.891L163.729 376.171C163.729 376.171 157.612 377.671 154.25 377.368C150.887 377.065 149.355 382.457 157.308 383.058C165.261 383.659 190.645 381.862 190.645 381.862C190.645 381.862 193.089 372.278 185.75 366.891H174.435Z" fill="#47465A"/>
<path opacity="0.05" d="M174.435 366.891L163.729 376.171C163.729 376.171 157.612 377.671 154.25 377.368C150.887 377.065 149.355 382.457 157.308 383.058C165.261 383.659 190.645 381.862 190.645 381.862C190.645 381.862 193.089 372.278 185.75 366.891H174.435Z" fill="black"/>
<path opacity="0.3" d="M191.023 377.722C191.005 378.814 190.876 379.901 190.639 380.969C190.639 380.969 165.254 382.766 157.302 382.165C153.475 381.879 151.851 380.48 151.564 379.143C151.214 380.682 152.603 382.71 157.302 383.075C165.254 383.676 190.639 381.879 190.639 381.879C190.938 380.513 191.067 379.118 191.023 377.722Z" fill="white"/>
<path d="M186.966 197.136C186.966 197.136 193.697 206.416 191.247 212.707C188.797 218.999 204.094 206.118 204.094 206.118C204.094 206.118 199.199 197.697 201.649 188.709L186.966 197.136Z" fill="#FDC2CC"/>
<path d="M185.13 370.486L174.435 379.767C174.435 379.767 168.319 381.266 164.956 380.963C161.594 380.66 160.062 386.053 168.014 386.654C175.967 387.255 201.351 385.457 201.351 385.457C201.351 385.457 203.795 375.874 196.457 370.486H185.13Z" fill="#47465A"/>
<path d="M188.206 368.391C186.611 370.318 184.362 371.059 182.009 371.172C176.662 371.419 170.775 368.391 170.775 368.391C174.751 365.099 164.658 336.051 164.658 336.051C156.401 332.158 157.01 323.473 157.01 323.473L159.683 276.342L160.36 264.501L168.927 259.411L175.675 264.467L182.078 269.276C182.495 270.805 182.764 272.37 182.881 273.949C183.627 284.954 174.739 287.544 174.739 287.544C174.739 287.544 178.412 298.622 175.043 308.806C171.675 318.991 177.488 327.973 177.488 327.973C177.488 327.973 188.499 359.117 186.668 360.914C184.838 362.712 188.206 368.391 188.206 368.391Z" fill="#565171"/>
<path opacity="0.05" d="M188.206 368.391C186.611 370.318 184.362 371.059 182.009 371.172C176.662 371.419 170.775 368.391 170.775 368.391C174.751 365.099 164.658 336.051 164.658 336.051C156.401 332.158 157.01 323.473 157.01 323.473L159.683 276.342L160.36 264.501L168.927 259.411L175.675 264.467L182.078 269.276C182.495 270.805 182.764 272.37 182.881 273.949C183.627 284.954 174.739 287.544 174.739 287.544C174.739 287.544 178.412 298.622 175.043 308.806C171.675 318.991 177.488 327.973 177.488 327.973C177.488 327.973 188.499 359.117 186.668 360.914C184.838 362.712 188.206 368.391 188.206 368.391Z" fill="black"/>
<path d="M198.896 371.981C193.697 378.267 181.464 371.981 181.464 371.981C181.71 371.758 181.894 371.478 181.998 371.166C184.241 365.195 174.429 336.646 174.429 336.646C166.173 332.754 165.249 323.473 165.249 323.473L163.086 275.489L162.805 269.276L175.675 264.467L179.628 262.99L192.796 272.871C193.362 274.918 193.64 277.031 193.622 279.151C193.456 288.819 185.44 291.156 185.44 291.156C185.44 291.156 189.113 302.234 185.744 312.418C182.376 322.603 188.206 331.557 188.206 331.557C188.206 331.557 199.217 362.701 197.386 364.498C195.556 366.296 198.896 371.981 198.896 371.981Z" fill="#565171"/>
<path opacity="0.1" d="M193.622 279.151C190.977 278.78 185.624 275.663 182.875 273.972C181.825 273.326 181.154 272.893 181.154 272.893C181.154 272.893 178.4 265.405 171.061 271.096C168.674 272.994 165.978 274.487 163.086 275.511C161.981 275.894 160.842 276.174 159.683 276.348L160.36 264.506L168.927 259.417L175.674 264.473L179.628 262.995L192.796 272.871C193.361 274.918 193.639 277.031 193.622 279.151Z" fill="black"/>
<path d="M210.176 221.69C209.086 228.116 206.733 241.351 204.094 252.805C200.422 268.675 196.445 265.079 194.615 268.972C192.785 272.865 194.311 278.252 194.311 278.252C191.253 278.55 181.16 271.966 181.16 271.966C181.16 271.966 178.406 264.478 171.067 270.169C163.728 275.859 157.916 275.556 157.916 275.556C156.384 265.675 167.705 239.323 167.705 239.323C167.705 239.323 178.716 218.96 181.16 216.291C182.294 214.972 183.103 213.415 183.524 211.741C183.712 211.075 183.842 210.395 183.914 209.707C187.89 209.41 197.685 202.82 197.685 202.82L205.333 201.624V205.517C205.424 205.556 205.509 205.607 205.586 205.668C206.842 206.607 208.455 210.606 209.528 213.758C210.406 216.309 210.629 219.034 210.176 221.69Z" fill="#E1A0A7"/>
<path d="M174.435 249.811L170.482 249.361L140.18 245.918C121.819 240.227 133.45 231.543 133.45 231.543L145.683 242.924C149.212 243.615 163.057 242.003 169.26 241.239C171.119 241.003 172.295 240.845 172.295 240.845L174.435 249.811Z" fill="#FDC2CC"/>
<path opacity="0.1" d="M204.094 209.387C204.094 209.387 196.141 203.101 184.189 223.459C172.238 243.817 169.506 240.525 169.506 240.525C169.506 240.525 171.951 249.513 170.729 251.305C170.729 251.305 178.985 250.704 182.043 251.305C185.102 251.906 204.065 228.549 204.065 228.549C204.065 228.549 213.883 215.376 204.094 209.387Z" fill="black"/>
<path opacity="0.1" d="M203.79 208.191C203.79 208.191 195.837 201.905 183.908 222.263C171.979 242.621 169.225 239.329 169.225 239.329C169.225 239.329 178.704 249.508 181.762 250.109C184.82 250.71 203.784 227.352 203.784 227.352C203.784 227.352 213.578 214.179 203.79 208.191Z" fill="black"/>
<path opacity="0.1" d="M170.476 249.378C170.602 247.159 169.747 243.261 169.254 241.239C171.113 241.003 172.289 240.845 172.289 240.845L174.429 249.833L170.476 249.378Z" fill="black"/>
<path d="M204.094 208.786C204.094 208.786 196.141 202.5 184.189 222.864C172.238 243.227 169.506 239.93 169.506 239.93C169.506 239.93 171.951 248.918 170.729 250.71C170.729 250.71 178.985 250.109 182.043 250.71C185.102 251.311 204.065 227.953 204.065 227.953C204.065 227.953 213.883 214.774 204.094 208.786Z" fill="#E1A0A7"/>
<path opacity="0.1" d="M201.977 189.322L187.271 197.697C187.893 198.581 188.467 199.496 188.992 200.439C189.838 200.607 190.699 200.692 191.562 200.691C195.481 200.691 197.3 196.664 199.67 193.95C199.498 191.793 201.299 191.737 201.977 189.322Z" fill="black"/>
<path d="M191.247 200.107C198.342 200.107 204.094 194.476 204.094 187.53C204.094 180.583 198.342 174.952 191.247 174.952C184.152 174.952 178.4 180.583 178.4 187.53C178.4 194.476 184.152 200.107 191.247 200.107Z" fill="#FDC2CC"/>
<path opacity="0.1" d="M175.009 177.356C176.305 176.055 177.988 175.19 179.817 174.884C181.602 174.508 183.558 174.396 184.981 173.278C186.594 172.014 187.317 169.61 189.308 169.07C190.173 168.901 191.069 168.971 191.895 169.273C195.071 170.212 197.891 172.054 199.997 174.564C200.495 175.285 201.13 175.904 201.868 176.39C202.307 176.572 202.736 176.776 203.153 177.002C203.61 177.358 203.969 177.819 204.197 178.345C205.631 181.18 205.961 184.429 205.127 187.485C204.628 189.288 203.732 190.962 203.199 192.759C202.665 194.557 202.533 196.591 203.503 198.197C202.562 198.669 201.374 198.074 200.783 197.214C200.192 196.355 200.014 195.299 199.705 194.304C199.095 192.352 197.948 190.603 196.388 189.248C195.424 188.417 193.703 187.855 193.031 188.928C192.773 189.344 192.79 189.878 192.567 190.31C192.131 191.158 190.845 191.327 190.025 190.872C189.217 190.326 188.649 189.501 188.435 188.563C187.179 184.389 185.027 181.766 180.471 183.547C178.75 184.21 176.771 184.67 175.135 183.547C173.041 182.041 173.46 179.058 175.009 177.356Z" fill="black"/>
<path d="M175.009 177.053C176.305 175.752 177.988 174.887 179.817 174.581C181.602 174.205 183.558 174.092 184.981 172.975C186.594 171.711 187.317 169.306 189.308 168.767C190.173 168.598 191.069 168.668 191.895 168.969C195.071 169.909 197.891 171.751 199.997 174.261C200.495 174.981 201.13 175.601 201.868 176.087C202.307 176.268 202.736 176.473 203.153 176.699C203.61 177.054 203.969 177.516 204.197 178.042C205.631 180.876 205.961 184.125 205.127 187.181C204.628 188.984 203.732 190.658 203.199 192.456C202.665 194.254 202.533 196.287 203.503 197.894C202.562 198.366 201.374 197.77 200.783 196.911C200.192 196.051 200.014 194.995 199.705 194.001C199.095 192.049 197.948 190.3 196.388 188.945C195.424 188.114 193.703 187.552 193.031 188.625C192.773 189.041 192.79 189.574 192.567 190.007C192.131 190.855 190.845 191.024 190.025 190.569C189.217 190.023 188.649 189.198 188.435 188.26C187.179 184.086 185.027 181.463 180.471 183.243C178.75 183.906 176.771 184.367 175.135 183.243C173.041 181.743 173.46 178.761 175.009 177.053Z" fill="#8F5A6A"/>
<path opacity="0.05" d="M205.568 205.646H199.354C199.354 205.646 187.121 211.634 186.817 211.337C186.611 211.134 184.717 211.483 183.518 211.724C183.706 211.058 183.836 210.378 183.908 209.691C187.885 209.393 197.679 202.804 197.679 202.804L205.327 201.607V205.5C205.414 205.539 205.495 205.588 205.568 205.646Z" fill="black"/>
<path opacity="0.3" d="M201.724 381.311C201.706 382.403 201.577 383.491 201.34 384.558C201.34 384.558 175.956 386.356 168.003 385.755C164.176 385.468 162.552 384.07 162.265 382.733C161.915 384.272 163.304 386.3 168.003 386.665C175.956 387.266 201.34 385.468 201.34 385.468C201.639 384.103 201.768 382.707 201.724 381.311Z" fill="white"/>
<g opacity="0.05">
<path d="M168.158 269.871C164.033 273.073 160.383 274.365 157.985 274.927C157.985 275.152 158.031 275.371 158.065 275.584C158.065 275.584 163.878 275.882 171.216 270.197C172.353 269.243 173.698 268.555 175.147 268.186C173.546 267.416 171.262 267.467 168.158 269.871Z" fill="black"/>
<path d="M209.665 213.73C208.569 210.578 206.98 206.584 205.723 205.64C205.646 205.579 205.561 205.528 205.471 205.489C205.471 205.489 202.94 205.573 203.027 205.64C204.283 206.579 205.511 210.28 206.607 213.426C207.495 215.983 207.724 218.716 207.273 221.381C206.182 227.807 203.83 241.042 201.19 252.496C197.518 268.366 193.542 264.77 191.712 268.663C190.208 271.854 190.96 276.045 191.287 277.455C192.276 277.939 193.36 278.21 194.466 278.247C194.466 278.247 192.934 272.86 194.77 268.967C196.606 265.074 200.582 268.669 204.249 252.799C206.905 241.317 209.241 228.082 210.331 221.684C210.782 219.019 210.553 216.287 209.665 213.73Z" fill="black"/>
</g>
<path d="M245.211 269.663C246.262 268.824 247.029 267.692 247.408 266.416C247.695 265.124 247.133 263.579 245.871 263.108C244.459 262.58 242.95 263.534 241.808 264.506C240.667 265.478 239.353 266.579 237.855 266.371C238.625 265.688 239.2 264.822 239.526 263.856C239.852 262.89 239.917 261.858 239.714 260.861C239.649 260.447 239.471 260.059 239.198 259.737C238.412 258.917 236.994 259.271 236.053 259.917C233.07 261.973 232.238 265.939 232.22 269.512C231.922 268.225 232.175 266.883 232.163 265.579C232.152 264.276 231.784 262.771 230.648 262.085C229.944 261.715 229.153 261.531 228.353 261.551C227.011 261.501 225.519 261.636 224.601 262.596C223.453 263.787 223.757 265.793 224.75 267.09C225.742 268.388 227.246 269.225 228.634 270.135C229.747 270.783 230.696 271.668 231.411 272.725C231.496 272.871 231.565 273.026 231.618 273.185H240.024C241.907 272.246 243.652 271.061 245.211 269.663Z" fill="#174AFF"/>
<path d="M260.652 375.143C261.988 373.924 263.245 372.486 263.635 370.739C264.025 368.992 263.262 366.891 261.552 366.245C259.642 365.526 257.593 366.807 256.044 368.138C254.495 369.47 252.716 370.947 250.691 370.666C251.734 369.74 252.514 368.565 252.956 367.255C253.397 365.946 253.485 364.547 253.21 363.195C253.121 362.637 252.879 362.112 252.51 361.678C251.448 360.555 249.52 361.043 248.252 361.92C244.236 364.728 243.088 370.082 243.059 374.924C242.652 373.177 242.996 371.357 242.985 369.565C242.973 367.773 242.474 365.79 240.931 364.824C239.969 364.318 238.889 364.07 237.798 364.105C235.979 364.037 233.954 364.217 232.714 365.52C231.171 367.138 231.567 369.852 232.915 371.632C234.263 373.413 236.3 374.531 238.177 375.761C239.683 376.64 240.967 377.84 241.935 379.272C242.05 379.472 242.144 379.683 242.216 379.901H253.617C256.17 378.633 258.536 377.032 260.652 375.143Z" fill="#174AFF"/>
</g>
<defs>
<linearGradient id="paint0_linear_20_220" x1="461.4" y1="346.477" x2="461.4" y2="156.296" gradientUnits="userSpaceOnUse">
<stop stop-color="#808080" stop-opacity="0.25"/>
<stop offset="0.54" stop-color="#808080" stop-opacity="0.12"/>
<stop offset="1" stop-color="#808080" stop-opacity="0.1"/>
</linearGradient>
<linearGradient id="paint1_linear_20_220" x1="167.28" y1="388.726" x2="167.28" y2="166.717" gradientUnits="userSpaceOnUse">
<stop stop-color="#808080" stop-opacity="0.25"/>
<stop offset="0.54" stop-color="#808080" stop-opacity="0.12"/>
<stop offset="1" stop-color="#808080" stop-opacity="0.1"/>
</linearGradient>
<clipPath id="clip0_20_220">
<rect width="591" height="410" fill="white"/>
</clipPath>
</defs>
</svg>
