<svg width="570" height="336" viewBox="0 0 570 336" fill="none" xmlns="http://www.w3.org/2000/svg">
<g clip-path="url(#clip0_58_1227)">
<path d="M57.5336 308.296C59.9 309.091 62.4407 309.29 64.9109 308.874C67.3812 308.459 69.6978 307.442 71.6375 305.923C76.5773 301.963 78.1264 295.441 79.3863 289.4L83.1137 271.531L75.31 276.663C69.6977 280.354 63.9594 284.163 60.0738 289.509C56.1882 294.855 54.4931 302.153 57.6141 307.937" fill="#E6E6E6"/>
<path d="M58.7387 331.174C57.7565 324.339 56.746 317.416 57.4366 310.508C58.0486 304.373 60.0084 298.381 63.9981 293.467C66.1158 290.864 68.6927 288.633 71.613 286.876C72.3743 286.417 73.0751 287.569 72.3171 288.027C67.2642 291.076 63.3559 295.58 61.1557 300.888C58.7257 306.791 58.3355 313.226 58.7541 319.497C59.0071 323.289 59.5447 327.056 60.0846 330.819C60.1273 330.989 60.1006 331.168 60.0102 331.32C59.9197 331.473 59.7721 331.586 59.5972 331.638C59.4189 331.684 59.2288 331.661 59.0681 331.574C58.9075 331.487 58.7893 331.343 58.7392 331.173L58.7387 331.174Z" fill="#F2F2F2"/>
<path d="M65.8086 320.207C66.8233 321.68 68.2183 322.879 69.8591 323.689C71.5 324.498 73.3313 324.889 75.1768 324.826C79.9204 324.611 83.8734 321.45 87.4315 318.449L97.9582 309.571L90.9915 309.253C85.9815 309.024 80.8421 308.809 76.0701 310.286C71.2982 311.764 66.8973 315.314 66.0249 320.031" fill="#E6E6E6"/>
<path d="M55.9624 335.103C60.6911 327.111 66.1755 318.23 75.9762 315.391C78.701 314.604 81.5581 314.322 84.3938 314.561C85.2876 314.634 85.0644 315.95 84.1724 315.877C79.4191 315.5 74.675 316.699 70.7387 319.271C66.9508 321.734 64.0014 325.158 61.5054 328.788C59.9763 331.012 58.6067 333.33 57.2371 335.645C56.7995 336.385 55.5196 335.851 55.9624 335.103Z" fill="#F2F2F2"/>
<path d="M531.311 317.81C529.935 318.987 528.266 319.806 526.463 320.188C524.66 320.57 522.785 320.501 521.017 319.99C516.489 318.624 513.513 314.603 510.876 310.832L503.075 299.68L509.895 301.073C514.8 302.075 519.826 303.121 524.045 305.714C528.263 308.308 531.567 312.814 531.149 317.588" fill="#E6E6E6"/>
<path d="M536.844 334.615C534.411 325.735 531.485 315.809 522.769 310.672C520.345 309.247 517.659 308.277 514.853 307.815C513.97 307.668 513.833 308.995 514.715 309.141C519.412 309.937 523.677 312.254 526.794 315.703C529.798 319.008 531.733 323.038 533.175 327.157C534.058 329.681 534.762 332.256 535.466 334.829C535.691 335.651 537.072 335.447 536.844 334.615Z" fill="#F2F2F2"/>
<path d="M441.017 204.572H281.583C280.31 204.57 279.089 204.087 278.189 203.227C277.289 202.367 276.782 201.201 276.781 199.985V148.614C276.782 147.398 277.289 146.232 278.189 145.372C279.089 144.512 280.31 144.028 281.583 144.027H441.017C442.29 144.028 443.51 144.512 444.411 145.372C445.311 146.232 445.817 147.398 445.819 148.614V199.985C445.817 201.201 445.311 202.367 444.411 203.227C443.51 204.087 442.29 204.57 441.017 204.572Z" fill="#F1F1F1"/>
<path d="M344.012 157.787H301.752V162.374H344.012V157.787Z" fill="#4D61FC"/>
<path d="M399.718 163.291C401.309 163.291 402.599 162.059 402.599 160.539C402.599 159.019 401.309 157.787 399.718 157.787C398.126 157.787 396.836 159.019 396.836 160.539C396.836 162.059 398.126 163.291 399.718 163.291Z" fill="#4D61FC"/>
<path d="M409.322 163.291C410.913 163.291 412.203 162.059 412.203 160.539C412.203 159.019 410.913 157.787 409.322 157.787C407.731 157.787 406.441 159.019 406.441 160.539C406.441 162.059 407.731 163.291 409.322 163.291Z" fill="#4D61FC"/>
<path d="M418.926 163.291C420.518 163.291 421.808 162.059 421.808 160.539C421.808 159.019 420.518 157.787 418.926 157.787C417.335 157.787 416.045 159.019 416.045 160.539C416.045 162.059 417.335 163.291 418.926 163.291Z" fill="#4D61FC"/>
<path d="M441.017 269.703H281.583C280.31 269.702 279.089 269.218 278.189 268.358C277.289 267.498 276.782 266.332 276.781 265.116V213.745C276.782 212.529 277.289 211.363 278.189 210.503C279.089 209.643 280.31 209.16 281.583 209.158H441.017C442.29 209.16 443.51 209.643 444.411 210.503C445.311 211.363 445.817 212.529 445.819 213.745V265.116C445.817 266.332 445.311 267.498 444.411 268.358C443.51 269.218 442.29 269.702 441.017 269.703Z" fill="#F1F1F1"/>
<path d="M344.012 222.919H301.752V227.505H344.012V222.919Z" fill="#4D61FC"/>
<path d="M399.718 228.423C401.309 228.423 402.599 227.19 402.599 225.671C402.599 224.151 401.309 222.919 399.718 222.919C398.126 222.919 396.836 224.151 396.836 225.671C396.836 227.19 398.126 228.423 399.718 228.423Z" fill="#4D61FC"/>
<path d="M409.322 228.423C410.913 228.423 412.203 227.19 412.203 225.671C412.203 224.151 410.913 222.919 409.322 222.919C407.731 222.919 406.441 224.151 406.441 225.671C406.441 227.19 407.731 228.423 409.322 228.423Z" fill="#4D61FC"/>
<path d="M418.926 228.423C420.518 228.423 421.808 227.19 421.808 225.671C421.808 224.151 420.518 222.919 418.926 222.919C417.335 222.919 416.045 224.151 416.045 225.671C416.045 227.19 417.335 228.423 418.926 228.423Z" fill="#4D61FC"/>
<path d="M441.017 334.835H281.583C280.31 334.833 279.089 334.349 278.189 333.49C277.289 332.63 276.782 331.464 276.781 330.248V278.877C276.782 277.66 277.289 276.495 278.189 275.635C279.089 274.775 280.31 274.291 281.583 274.29H441.017C442.29 274.291 443.51 274.775 444.411 275.635C445.311 276.495 445.817 277.66 445.819 278.877V330.248C445.817 331.464 445.311 332.63 444.411 333.49C443.51 334.349 442.29 334.833 441.017 334.835Z" fill="#F1F1F1"/>
<path d="M344.012 288.05H301.752V292.637H344.012V288.05Z" fill="#4D61FC"/>
<path d="M399.718 293.554C401.309 293.554 402.599 292.322 402.599 290.802C402.599 289.282 401.309 288.05 399.718 288.05C398.126 288.05 396.836 289.282 396.836 290.802C396.836 292.322 398.126 293.554 399.718 293.554Z" fill="#4D61FC"/>
<path d="M409.322 293.554C410.913 293.554 412.203 292.322 412.203 290.802C412.203 289.282 410.913 288.05 409.322 288.05C407.731 288.05 406.441 289.282 406.441 290.802C406.441 292.322 407.731 293.554 409.322 293.554Z" fill="#4D61FC"/>
<path d="M418.926 293.554C420.518 293.554 421.808 292.322 421.808 290.802C421.808 289.282 420.518 288.05 418.926 288.05C417.335 288.05 416.045 289.282 416.045 290.802C416.045 292.322 417.335 293.554 418.926 293.554Z" fill="#4D61FC"/>
<path d="M380.912 93.8633L380.736 93.7389L380.731 93.7358C380.504 93.5745 380.246 93.4576 379.971 93.3917C379.696 93.3257 379.41 93.3122 379.13 93.3517C378.85 93.3912 378.581 93.4831 378.338 93.622C378.094 93.761 377.882 93.9443 377.714 94.1615L341.827 140.311H337.879V139.425C337.879 139.207 337.788 138.997 337.626 138.842C337.464 138.688 337.245 138.601 337.016 138.601H334.66C334.432 138.601 334.212 138.688 334.05 138.842C333.889 138.997 333.798 139.207 333.798 139.425V140.311H332.434V139.425C332.434 139.207 332.343 138.997 332.182 138.842C332.02 138.688 331.8 138.601 331.571 138.601H329.216C328.987 138.601 328.768 138.688 328.606 138.842C328.444 138.997 328.353 139.207 328.353 139.425V140.311H326.994V139.425C326.994 139.207 326.903 138.997 326.741 138.842C326.579 138.688 326.36 138.601 326.131 138.601H323.776C323.547 138.601 323.327 138.688 323.165 138.842C323.004 138.997 322.913 139.207 322.913 139.425V140.311H321.549V139.425C321.549 139.207 321.458 138.997 321.297 138.842C321.135 138.688 320.915 138.601 320.686 138.601H318.331C318.102 138.601 317.883 138.688 317.721 138.842C317.559 138.997 317.468 139.207 317.468 139.425V140.311H316.109V139.425C316.109 139.207 316.018 138.997 315.856 138.842C315.695 138.688 315.475 138.601 315.246 138.601H312.891C312.777 138.601 312.665 138.622 312.56 138.664C312.456 138.705 312.361 138.766 312.28 138.842C312.2 138.919 312.137 139.01 312.093 139.11C312.05 139.21 312.028 139.317 312.028 139.425V140.311H310.664V139.425C310.664 139.207 310.574 138.997 310.412 138.842C310.25 138.688 310.03 138.601 309.802 138.601H307.446C307.217 138.601 306.998 138.688 306.836 138.842C306.674 138.997 306.583 139.207 306.583 139.425V140.311H305.22V139.425C305.22 139.207 305.129 138.997 304.967 138.842C304.805 138.688 304.586 138.601 304.357 138.601H302.001C301.773 138.601 301.553 138.688 301.391 138.842C301.229 138.997 301.139 139.207 301.138 139.425V140.311H299.78V139.425C299.78 139.207 299.689 138.997 299.527 138.842C299.365 138.688 299.146 138.601 298.917 138.601H296.561C296.332 138.601 296.113 138.688 295.951 138.842C295.789 138.997 295.698 139.207 295.698 139.425V140.311H294.335V139.425C294.335 139.207 294.244 138.997 294.082 138.842C293.92 138.688 293.701 138.601 293.472 138.601H291.116C290.888 138.601 290.668 138.688 290.506 138.842C290.344 138.997 290.254 139.207 290.254 139.425V140.311H288.895V139.425C288.895 139.207 288.804 138.997 288.642 138.842C288.48 138.688 288.261 138.601 288.032 138.601H285.676C285.447 138.601 285.228 138.688 285.066 138.842C284.904 138.997 284.813 139.207 284.813 139.425V140.311H283.105C282.822 140.311 282.541 140.364 282.279 140.468C282.018 140.571 281.78 140.723 281.58 140.915C281.379 141.106 281.22 141.333 281.112 141.583C281.004 141.833 280.948 142.101 280.948 142.371V144.337C280.948 144.608 281.004 144.875 281.112 145.125C281.22 145.375 281.379 145.603 281.58 145.794C281.78 145.985 282.018 146.137 282.279 146.24C282.541 146.344 282.822 146.397 283.105 146.397H341.469C342.208 146.397 342.925 146.154 343.498 145.708C344.071 145.262 344.466 144.642 344.616 143.95L344.639 143.966L381.354 96.7499L381.358 96.7458C381.699 96.3071 381.843 95.757 381.76 95.2164C381.676 94.6759 381.371 94.1892 380.912 93.8633Z" fill="#3F3D56"/>
<path d="M154.114 317.335L161.363 320.878L179.122 295.857L168.423 290.627L154.114 317.335Z" fill="#FFB7B7"/>
<path d="M153.475 314.17L167.752 321.149L167.753 321.149C170.166 322.328 171.989 324.375 172.822 326.839C173.655 329.303 173.43 331.981 172.195 334.286L172.044 334.569L148.668 323.143L153.475 314.17Z" fill="#2F2E41"/>
<path d="M237.842 327.029H245.986L249.86 297.027H237.841L237.842 327.029Z" fill="#FFB7B7"/>
<path d="M235.765 324.489L251.803 324.489H251.803C254.514 324.489 257.114 325.517 259.03 327.348C260.947 329.179 262.024 331.662 262.024 334.25V334.568L235.765 334.569L235.765 324.489Z" fill="#2F2E41"/>
<path d="M199.749 82.3101C199.749 82.3101 194.296 78.3195 194.296 88.0671L193.435 120.279L203.05 150.709L208.647 140.84L206.351 119.456L199.749 82.3101Z" fill="#2F2E41"/>
<path d="M258.085 170.415C258.085 170.415 264.409 199.83 256.398 223.97L251.972 316.785L235.741 315.577L230.049 246.72L224.569 212.494L213.186 243.7L175.665 309.738L158.38 296.853C158.38 296.853 177.534 246.933 191.685 236.452L198.782 159.248L258.085 170.415Z" fill="#2F2E41"/>
<path d="M255.084 33.7847C259.987 25.2186 256.691 14.4784 247.722 9.79573C238.754 5.11309 227.509 8.26127 222.606 16.8274C217.704 25.3934 221 36.1336 229.968 40.8163C238.937 45.4989 250.182 42.3508 255.084 33.7847Z" fill="#FFB7B7"/>
<path d="M237.536 29.0553C239.754 29.331 241.428 27.1629 242.204 25.1588C242.98 23.1547 243.571 20.8216 245.5 19.739C248.135 18.26 251.507 20.0388 254.521 19.5508C257.924 18.9998 260.136 15.5549 260.31 12.2622C260.483 8.96956 259.111 5.8027 257.765 2.76687L257.295 6.53971C257.358 5.261 257.076 3.98828 256.477 2.84328C255.878 1.69829 254.981 0.719309 253.872 0L254.478 5.53605C254.349 4.77227 254.063 4.04033 253.638 3.38222C253.212 2.7241 252.654 2.15279 251.997 1.70105C251.339 1.24932 250.595 0.926065 249.806 0.749838C249.017 0.573612 248.2 0.547885 247.401 0.674133L247.496 3.97272C243.565 3.5263 239.6 3.07925 235.658 3.41936C231.716 3.75946 227.746 4.95081 224.758 7.43062C220.288 11.14 218.656 17.248 219.204 22.8791C219.752 28.5102 222.186 33.8002 224.722 38.9105C225.36 40.1962 226.243 41.6471 227.723 41.8108C229.053 41.958 230.269 40.8964 230.683 39.6804C231.001 38.4327 230.989 37.1289 230.647 35.8869C230.273 33.9888 229.801 32.0488 230.153 30.1469C230.505 28.2449 231.937 26.3654 233.945 26.1324C235.952 25.8993 238.006 28.0908 237.041 29.788L237.536 29.0553Z" fill="#2F2E41"/>
<path d="M259.23 178.281L197.453 174.474L202.103 156.075L258.565 168.13L259.23 178.281Z" fill="#CBCBCB"/>
<path d="M221.132 49.413L225.007 44.2748C225.007 44.2748 229.338 45.6806 240.937 51.1949L241.756 56.009L261.889 174.285L225.294 172.777L215.328 172.575L212.067 165.592L208.046 172.427L198.314 172.229L188.412 166.746L198.17 138.235L201.328 112.192L196.448 87.6559C196.448 87.6559 190.308 65.1252 213.957 52.9769L221.132 49.413Z" fill="#2F2E41"/>
<path d="M303.616 138.949C302.72 139.166 301.784 139.193 300.876 139.028C299.968 138.863 299.108 138.51 298.358 137.993C297.608 137.477 296.986 136.809 296.535 136.038C296.085 135.267 295.816 134.411 295.75 133.53L274.038 127.975L282.772 120.568L302.051 126.979C303.608 126.97 305.114 127.506 306.284 128.487C307.454 129.468 308.207 130.824 308.4 132.3C308.593 133.775 308.212 135.267 307.33 136.492C306.449 137.718 305.127 138.592 303.616 138.949Z" fill="#FFB7B7"/>
<path d="M293.891 135.813C293.435 136.05 292.931 136.193 292.413 136.233C291.895 136.272 291.374 136.207 290.883 136.041L255.168 123.093C246.454 120.143 239.16 114.271 234.64 106.568L219.746 81.1912C218.7 80.0762 217.895 78.775 217.376 77.3623C216.857 75.9497 216.635 74.4531 216.723 72.9584C216.81 71.4636 217.205 70 217.886 68.6513C218.566 67.3026 219.518 66.0953 220.687 65.0984C221.857 64.1015 223.22 63.3346 224.7 62.8416C226.18 62.3487 227.747 62.1393 229.312 62.2255C230.877 62.3117 232.409 62.6918 233.82 63.344C235.23 63.9961 236.493 64.9077 237.534 66.0263L263.314 105.053L295.757 123.22C296.393 123.619 296.885 124.194 297.167 124.868C297.45 125.543 297.508 126.284 297.336 126.991L295.722 133.521C295.549 134.221 295.156 134.854 294.597 135.336C294.382 135.521 294.145 135.681 293.891 135.813Z" fill="#2F2E41"/>
<path d="M569.397 335.871H0.603175C0.443203 335.871 0.289782 335.81 0.176665 335.702C0.0635481 335.594 0 335.447 0 335.295C0 335.142 0.0635481 334.995 0.176665 334.887C0.289782 334.779 0.443203 334.719 0.603175 334.719H569.397C569.557 334.719 569.71 334.779 569.823 334.887C569.937 334.995 570 335.142 570 335.295C570 335.447 569.937 335.594 569.823 335.702C569.71 335.81 569.557 335.871 569.397 335.871Z" fill="#CBCBCB"/>
</g>
<defs>
<clipPath id="clip0_58_1227">
<rect width="570" height="336" fill="white"/>
</clipPath>
</defs>
</svg>
