<svg width="530" height="359" viewBox="0 0 530 359" fill="none" xmlns="http://www.w3.org/2000/svg">
<g clip-path="url(#clip0_59_1541)">
<path d="M308.724 63.2875C318.657 63.2875 326.71 55.7881 326.71 46.5371C326.71 37.286 318.657 29.7866 308.724 29.7866C298.791 29.7866 290.739 37.286 290.739 46.5371C290.739 55.7881 298.791 63.2875 308.724 63.2875Z" fill="#F2F2F2"/>
<path d="M448.244 311.883C474.977 292.919 487.746 261.053 479.752 230.654C479.554 229.898 479.344 229.145 479.123 228.393C473.824 210.348 460.713 193.199 441.604 187.433C425.559 182.592 408.046 186.315 391.307 184.39C358.448 180.61 332.973 155.849 315.048 129.924C297.123 103.999 283.347 74.9799 259.529 53.562C220.269 18.2582 156.225 10.6573 107.548 33.6374C58.8703 56.6176 27.8634 107.601 29.1857 158.412C30.5081 209.224 62.8968 257.803 109.933 283.577C127.212 293.046 147.198 299.753 167.087 297.406C184.344 295.37 200.025 286.733 217.201 284.17C244.207 280.138 271.04 291.51 294.398 304.761C317.755 318.012 340.317 333.719 366.859 339.862C392.632 345.827 424.562 328.682 448.244 311.883Z" fill="#F2F2F2"/>
<path d="M409.834 34.7044C409.248 34.3406 408.656 33.9955 408.069 33.6442C391.129 23.554 372.972 15.3567 353.973 9.22189L349.568 65.8205H321.64V0.959829C319.882 0.621066 318.111 0.301123 316.339 0V65.8205H283.151C264.88 65.8205 247.358 59.061 234.439 47.0291C221.52 34.9971 214.262 18.6783 214.262 1.66252C212.484 2.02011 210.719 2.40273 208.954 2.8105V65.8205H181.923L177.726 11.8505C158.202 18.8242 139.666 27.9949 122.531 39.1586C122.235 39.3468 121.939 39.5412 121.649 39.7294C120.16 40.7018 118.692 41.693 117.23 42.6968V258.621H196.897L195.489 240.459L187.742 140.744H343.741L335.995 240.459L334.587 258.621H413.371V36.8876C412.199 36.1473 411.02 35.4196 409.834 34.7044ZM208.954 124.276H186.463L182.307 70.7639H208.954V124.276ZM316.339 124.276H278.564V123.216C278.564 122.706 278.456 122.201 278.246 121.731C278.037 121.26 277.729 120.832 277.342 120.472C276.955 120.112 276.495 119.827 275.989 119.632C275.483 119.438 274.941 119.338 274.394 119.339H257.972C257.425 119.339 256.884 119.439 256.378 119.634C255.873 119.828 255.414 120.114 255.028 120.474C254.641 120.834 254.334 121.261 254.125 121.732C253.916 122.202 253.809 122.707 253.809 123.216V124.276H214.262V70.7639H316.339V124.276ZM321.64 124.276V70.7639H349.184L345.028 124.276H321.64Z" fill="#3F3D56"/>
<path d="M0 272.448C5.85171 278.905 12.181 284.974 18.9416 290.609L511.058 291.237C517.819 285.601 524.148 279.533 530 273.075L0 272.448Z" fill="#3F3D56"/>
<path d="M333.72 214.294V268.059C333.721 268.744 334.014 269.401 334.534 269.886C335.054 270.37 335.759 270.643 336.495 270.643H422.045C422.781 270.643 423.486 270.37 424.006 269.886C424.526 269.401 424.819 268.744 424.82 268.059V214.294C424.818 213.609 424.525 212.953 424.005 212.469C423.485 211.986 422.78 211.713 422.045 211.713H336.495C335.76 211.713 335.055 211.986 334.535 212.469C334.015 212.953 333.722 213.609 333.72 214.294Z" fill="#3F3D56"/>
<path d="M335.727 214.963V267.396C335.728 267.762 335.884 268.113 336.162 268.372C336.44 268.631 336.817 268.776 337.21 268.777H421.333C421.726 268.776 422.103 268.631 422.38 268.372C422.658 268.113 422.815 267.762 422.816 267.396V214.963C422.816 214.596 422.659 214.245 422.381 213.985C422.103 213.726 421.726 213.58 421.333 213.579H337.21C336.817 213.58 336.439 213.726 336.161 213.985C335.883 214.245 335.727 214.596 335.727 214.963Z" fill="#4D61FC"/>
<path d="M331.931 278.545C332.088 278.728 332.287 278.876 332.514 278.977C332.741 279.078 332.989 279.13 333.24 279.128H424.844C425.095 279.128 425.342 279.076 425.568 278.975C425.794 278.875 425.993 278.729 426.151 278.547C426.309 278.366 426.421 278.155 426.48 277.928C426.539 277.701 426.543 277.465 426.492 277.237L425.07 270.946C425.011 270.69 424.884 270.451 424.701 270.252C424.517 270.052 424.284 269.899 424.02 269.806C423.83 269.736 423.627 269.7 423.422 269.701H334.657C334.452 269.7 334.249 269.736 334.059 269.806C333.795 269.899 333.561 270.052 333.378 270.252C333.195 270.451 333.068 270.69 333.009 270.946L331.587 277.237C331.536 277.465 331.541 277.701 331.601 277.927C331.66 278.153 331.773 278.364 331.931 278.545Z" fill="#2F2E41"/>
<path d="M420.279 272.41H422.443C422.624 272.41 422.771 272.273 422.771 272.104V271.14C422.771 270.97 422.624 270.833 422.443 270.833H420.279C420.097 270.833 419.95 270.97 419.95 271.14V272.104C419.95 272.273 420.097 272.41 420.279 272.41Z" fill="#3F3D56"/>
<path d="M414.636 272.41H416.8C416.982 272.41 417.129 272.273 417.129 272.104V271.14C417.129 270.97 416.982 270.833 416.8 270.833H414.636C414.455 270.833 414.308 270.97 414.308 271.14V272.104C414.308 272.273 414.455 272.41 414.636 272.41Z" fill="#3F3D56"/>
<path d="M408.994 272.41H411.157C411.339 272.41 411.486 272.273 411.486 272.104V271.14C411.486 270.97 411.339 270.833 411.157 270.833H408.994C408.812 270.833 408.665 270.97 408.665 271.14V272.104C408.665 272.273 408.812 272.41 408.994 272.41Z" fill="#3F3D56"/>
<path d="M403.351 272.41H405.515C405.696 272.41 405.844 272.273 405.844 272.104V271.14C405.844 270.97 405.696 270.833 405.515 270.833H403.351C403.169 270.833 403.022 270.97 403.022 271.14V272.104C403.022 272.273 403.169 272.41 403.351 272.41Z" fill="#3F3D56"/>
<path d="M397.708 272.41H399.872C400.053 272.41 400.201 272.273 400.201 272.104V271.14C400.201 270.97 400.053 270.833 399.872 270.833H397.708C397.527 270.833 397.379 270.97 397.379 271.14V272.104C397.379 272.273 397.527 272.41 397.708 272.41Z" fill="#3F3D56"/>
<path d="M392.066 272.41H394.229C394.411 272.41 394.558 272.273 394.558 272.104V271.14C394.558 270.97 394.411 270.833 394.229 270.833H392.066C391.884 270.833 391.737 270.97 391.737 271.14V272.104C391.737 272.273 391.884 272.41 392.066 272.41Z" fill="#3F3D56"/>
<path d="M386.423 272.41H388.586C388.768 272.41 388.915 272.273 388.915 272.104V271.14C388.915 270.97 388.768 270.833 388.586 270.833H386.423C386.241 270.833 386.094 270.97 386.094 271.14V272.104C386.094 272.273 386.241 272.41 386.423 272.41Z" fill="#3F3D56"/>
<path d="M380.78 272.41H382.944C383.125 272.41 383.272 272.273 383.272 272.104V271.14C383.272 270.97 383.125 270.833 382.944 270.833H380.78C380.598 270.833 380.451 270.97 380.451 271.14V272.104C380.451 272.273 380.598 272.41 380.78 272.41Z" fill="#3F3D56"/>
<path d="M375.137 272.41H377.301C377.483 272.41 377.63 272.273 377.63 272.104V271.14C377.63 270.97 377.483 270.833 377.301 270.833H375.137C374.956 270.833 374.809 270.97 374.809 271.14V272.104C374.809 272.273 374.956 272.41 375.137 272.41Z" fill="#3F3D56"/>
<path d="M369.495 272.41H371.658C371.84 272.41 371.987 272.273 371.987 272.104V271.14C371.987 270.97 371.84 270.833 371.658 270.833H369.495C369.313 270.833 369.166 270.97 369.166 271.14V272.104C369.166 272.273 369.313 272.41 369.495 272.41Z" fill="#3F3D56"/>
<path d="M363.852 272.41H366.016C366.197 272.41 366.344 272.273 366.344 272.104V271.14C366.344 270.97 366.197 270.833 366.016 270.833H363.852C363.67 270.833 363.523 270.97 363.523 271.14V272.104C363.523 272.273 363.67 272.41 363.852 272.41Z" fill="#3F3D56"/>
<path d="M358.209 272.41H360.373C360.554 272.41 360.702 272.273 360.702 272.104V271.14C360.702 270.97 360.554 270.833 360.373 270.833H358.209C358.028 270.833 357.88 270.97 357.88 271.14V272.104C357.88 272.273 358.028 272.41 358.209 272.41Z" fill="#3F3D56"/>
<path d="M352.567 272.41H354.73C354.912 272.41 355.059 272.273 355.059 272.104V271.14C355.059 270.97 354.912 270.833 354.73 270.833H352.567C352.385 270.833 352.238 270.97 352.238 271.14V272.104C352.238 272.273 352.385 272.41 352.567 272.41Z" fill="#3F3D56"/>
<path d="M346.924 272.41H349.087C349.269 272.41 349.416 272.273 349.416 272.104V271.14C349.416 270.97 349.269 270.833 349.087 270.833H346.924C346.742 270.833 346.595 270.97 346.595 271.14V272.104C346.595 272.273 346.742 272.41 346.924 272.41Z" fill="#3F3D56"/>
<path d="M341.281 272.41H343.445C343.626 272.41 343.773 272.273 343.773 272.104V271.14C343.773 270.97 343.626 270.833 343.445 270.833H341.281C341.099 270.833 340.952 270.97 340.952 271.14V272.104C340.952 272.273 341.099 272.41 341.281 272.41Z" fill="#3F3D56"/>
<path d="M335.638 272.41H337.802C337.984 272.41 338.131 272.273 338.131 272.104V271.14C338.131 270.97 337.984 270.833 337.802 270.833H335.638C335.457 270.833 335.31 270.97 335.31 271.14V272.104C335.31 272.273 335.457 272.41 335.638 272.41Z" fill="#3F3D56"/>
<path d="M420.346 275.038H422.51C422.691 275.038 422.838 274.9 422.838 274.731V273.767C422.838 273.598 422.691 273.461 422.51 273.461H420.346C420.164 273.461 420.017 273.598 420.017 273.767V274.731C420.017 274.9 420.164 275.038 420.346 275.038Z" fill="#3F3D56"/>
<path d="M414.703 275.038H416.867C417.048 275.038 417.196 274.9 417.196 274.731V273.767C417.196 273.598 417.048 273.461 416.867 273.461H414.703C414.521 273.461 414.374 273.598 414.374 273.767V274.731C414.374 274.9 414.521 275.038 414.703 275.038Z" fill="#3F3D56"/>
<path d="M409.06 275.038H411.224C411.405 275.038 411.553 274.9 411.553 274.731V273.767C411.553 273.598 411.405 273.461 411.224 273.461H409.06C408.879 273.461 408.731 273.598 408.731 273.767V274.731C408.731 274.9 408.879 275.038 409.06 275.038Z" fill="#3F3D56"/>
<path d="M403.418 275.038H405.581C405.763 275.038 405.91 274.9 405.91 274.731V273.767C405.91 273.598 405.763 273.461 405.581 273.461H403.418C403.236 273.461 403.089 273.598 403.089 273.767V274.731C403.089 274.9 403.236 275.038 403.418 275.038Z" fill="#3F3D56"/>
<path d="M397.775 275.038H399.939C400.12 275.038 400.267 274.9 400.267 274.731V273.767C400.267 273.598 400.12 273.461 399.939 273.461H397.775C397.593 273.461 397.446 273.598 397.446 273.767V274.731C397.446 274.9 397.593 275.038 397.775 275.038Z" fill="#3F3D56"/>
<path d="M392.132 275.038H394.296C394.478 275.038 394.625 274.9 394.625 274.731V273.767C394.625 273.598 394.478 273.461 394.296 273.461H392.132C391.951 273.461 391.803 273.598 391.803 273.767V274.731C391.803 274.9 391.951 275.038 392.132 275.038Z" fill="#3F3D56"/>
<path d="M386.489 275.038H388.653C388.835 275.038 388.982 274.9 388.982 274.731V273.767C388.982 273.598 388.835 273.461 388.653 273.461H386.489C386.308 273.461 386.161 273.598 386.161 273.767V274.731C386.161 274.9 386.308 275.038 386.489 275.038Z" fill="#3F3D56"/>
<path d="M380.847 275.038H383.01C383.192 275.038 383.339 274.9 383.339 274.731V273.767C383.339 273.598 383.192 273.461 383.01 273.461H380.847C380.665 273.461 380.518 273.598 380.518 273.767V274.731C380.518 274.9 380.665 275.038 380.847 275.038Z" fill="#3F3D56"/>
<path d="M375.204 275.038H377.368C377.549 275.038 377.697 274.9 377.697 274.731V273.767C377.697 273.598 377.549 273.461 377.368 273.461H375.204C375.022 273.461 374.875 273.598 374.875 273.767V274.731C374.875 274.9 375.022 275.038 375.204 275.038Z" fill="#3F3D56"/>
<path d="M369.561 275.038H371.725C371.906 275.038 372.054 274.9 372.054 274.731V273.767C372.054 273.598 371.906 273.461 371.725 273.461H369.561C369.38 273.461 369.232 273.598 369.232 273.767V274.731C369.232 274.9 369.38 275.038 369.561 275.038Z" fill="#3F3D56"/>
<path d="M363.919 275.038H366.082C366.264 275.038 366.411 274.9 366.411 274.731V273.767C366.411 273.598 366.264 273.461 366.082 273.461H363.919C363.737 273.461 363.59 273.598 363.59 273.767V274.731C363.59 274.9 363.737 275.038 363.919 275.038Z" fill="#3F3D56"/>
<path d="M358.276 275.038H360.439C360.621 275.038 360.768 274.9 360.768 274.731V273.767C360.768 273.598 360.621 273.461 360.439 273.461H358.276C358.094 273.461 357.947 273.598 357.947 273.767V274.731C357.947 274.9 358.094 275.038 358.276 275.038Z" fill="#3F3D56"/>
<path d="M352.633 275.038H354.797C354.979 275.038 355.126 274.9 355.126 274.731V273.767C355.126 273.598 354.979 273.461 354.797 273.461H352.633C352.452 273.461 352.304 273.598 352.304 273.767V274.731C352.304 274.9 352.452 275.038 352.633 275.038Z" fill="#3F3D56"/>
<path d="M346.99 275.038H349.154C349.336 275.038 349.483 274.9 349.483 274.731V273.767C349.483 273.598 349.336 273.461 349.154 273.461H346.99C346.809 273.461 346.662 273.598 346.662 273.767V274.731C346.662 274.9 346.809 275.038 346.99 275.038Z" fill="#3F3D56"/>
<path d="M341.348 275.038H343.512C343.693 275.038 343.84 274.9 343.84 274.731V273.767C343.84 273.598 343.693 273.461 343.512 273.461H341.348C341.166 273.461 341.019 273.598 341.019 273.767V274.731C341.019 274.9 341.166 275.038 341.348 275.038Z" fill="#3F3D56"/>
<path d="M335.705 275.038H337.869C338.05 275.038 338.198 274.9 338.198 274.731V273.767C338.198 273.598 338.05 273.461 337.869 273.461H335.705C335.523 273.461 335.376 273.598 335.376 273.767V274.731C335.376 274.9 335.523 275.038 335.705 275.038Z" fill="#3F3D56"/>
<path d="M373.511 278.191H395.424C395.606 278.191 395.753 278.054 395.753 277.884V276.92C395.753 276.751 395.606 276.614 395.424 276.614H373.511C373.33 276.614 373.182 276.751 373.182 276.92V277.884C373.182 278.054 373.33 278.191 373.511 278.191Z" fill="#3F3D56"/>
<path d="M350.295 225.05H348.379C347.799 225.05 347.328 225.488 347.328 226.029C347.328 226.57 347.799 227.009 348.379 227.009H350.295C350.876 227.009 351.346 226.57 351.346 226.029C351.346 225.488 350.876 225.05 350.295 225.05Z" fill="white"/>
<path d="M372.202 225.05H370.287C369.706 225.05 369.235 225.488 369.235 226.029C369.235 226.57 369.706 227.009 370.287 227.009H372.202C372.783 227.009 373.254 226.57 373.254 226.029C373.254 225.488 372.783 225.05 372.202 225.05Z" fill="white"/>
<path d="M378.409 225.05H376.494C375.913 225.05 375.442 225.488 375.442 226.029C375.442 226.57 375.913 227.009 376.494 227.009H378.409C378.99 227.009 379.461 226.57 379.461 226.029C379.461 225.488 378.99 225.05 378.409 225.05Z" fill="white"/>
<path d="M366.243 224.887H354.338C353.757 224.887 353.287 225.325 353.287 225.866C353.287 226.407 353.757 226.845 354.338 226.845H366.243C366.824 226.845 367.295 226.407 367.295 225.866C367.295 225.325 366.824 224.887 366.243 224.887Z" fill="white"/>
<path d="M395.453 224.887H383.548C382.967 224.887 382.497 225.325 382.497 225.866C382.497 226.407 382.967 226.845 383.548 226.845H395.453C396.034 226.845 396.505 226.407 396.505 225.866C396.505 225.325 396.034 224.887 395.453 224.887Z" fill="white"/>
<path d="M356.137 229.471H354.221C353.641 229.471 353.17 229.909 353.17 230.45C353.17 230.991 353.641 231.429 354.221 231.429H356.137C356.718 231.429 357.189 230.991 357.189 230.45C357.189 229.909 356.718 229.471 356.137 229.471Z" fill="white"/>
<path d="M378.044 229.471H376.129C375.548 229.471 375.077 229.909 375.077 230.45C375.077 230.991 375.548 231.429 376.129 231.429H378.044C378.625 231.429 379.096 230.991 379.096 230.45C379.096 229.909 378.625 229.471 378.044 229.471Z" fill="white"/>
<path d="M384.251 229.471H382.336C381.755 229.471 381.284 229.909 381.284 230.45C381.284 230.991 381.755 231.429 382.336 231.429H384.251C384.832 231.429 385.303 230.991 385.303 230.45C385.303 229.909 384.832 229.471 384.251 229.471Z" fill="white"/>
<path d="M372.085 229.307H360.18C359.599 229.307 359.129 229.746 359.129 230.287C359.129 230.828 359.599 231.266 360.18 231.266H372.085C372.666 231.266 373.137 230.828 373.137 230.287C373.137 229.746 372.666 229.307 372.085 229.307Z" fill="white"/>
<path d="M401.295 229.307H389.39C388.809 229.307 388.339 229.746 388.339 230.287C388.339 230.828 388.809 231.266 389.39 231.266H401.295C401.876 231.266 402.347 230.828 402.347 230.287C402.347 229.746 401.876 229.307 401.295 229.307Z" fill="white"/>
<path d="M361.979 233.891H360.063C359.482 233.891 359.012 234.33 359.012 234.871C359.012 235.411 359.482 235.85 360.063 235.85H361.979C362.559 235.85 363.03 235.411 363.03 234.871C363.03 234.33 362.559 233.891 361.979 233.891Z" fill="white"/>
<path d="M383.886 233.891H381.971C381.39 233.891 380.919 234.33 380.919 234.871C380.919 235.411 381.39 235.85 381.971 235.85H383.886C384.467 235.85 384.938 235.411 384.938 234.871C384.938 234.33 384.467 233.891 383.886 233.891Z" fill="white"/>
<path d="M390.093 233.891H388.178C387.597 233.891 387.126 234.33 387.126 234.871C387.126 235.411 387.597 235.85 388.178 235.85H390.093C390.674 235.85 391.145 235.411 391.145 234.871C391.145 234.33 390.674 233.891 390.093 233.891Z" fill="white"/>
<path d="M377.927 233.728H366.022C365.441 233.728 364.971 234.166 364.971 234.707C364.971 235.248 365.441 235.687 366.022 235.687H377.927C378.508 235.687 378.979 235.248 378.979 234.707C378.979 234.166 378.508 233.728 377.927 233.728Z" fill="white"/>
<path d="M407.137 233.728H395.232C394.651 233.728 394.181 234.166 394.181 234.707C394.181 235.248 394.651 235.687 395.232 235.687H407.137C407.718 235.687 408.189 235.248 408.189 234.707C408.189 234.166 407.718 233.728 407.137 233.728Z" fill="white"/>
<path d="M367.821 238.312H365.905C365.325 238.312 364.854 238.75 364.854 239.291C364.854 239.832 365.325 240.271 365.905 240.271H367.821C368.402 240.271 368.872 239.832 368.872 239.291C368.872 238.75 368.402 238.312 367.821 238.312Z" fill="white"/>
<path d="M389.728 238.312H387.813C387.232 238.312 386.761 238.75 386.761 239.291C386.761 239.832 387.232 240.271 387.813 240.271H389.728C390.309 240.271 390.78 239.832 390.78 239.291C390.78 238.75 390.309 238.312 389.728 238.312Z" fill="white"/>
<path d="M395.935 238.312H394.02C393.439 238.312 392.968 238.75 392.968 239.291C392.968 239.832 393.439 240.271 394.02 240.271H395.935C396.516 240.271 396.987 239.832 396.987 239.291C396.987 238.75 396.516 238.312 395.935 238.312Z" fill="white"/>
<path d="M383.769 238.149H371.864C371.284 238.149 370.813 238.587 370.813 239.128C370.813 239.669 371.284 240.107 371.864 240.107H383.769C384.35 240.107 384.821 239.669 384.821 239.128C384.821 238.587 384.35 238.149 383.769 238.149Z" fill="white"/>
<path d="M372.202 255.89H370.287C369.706 255.89 369.235 256.329 369.235 256.87C369.235 257.411 369.706 257.849 370.287 257.849H372.202C372.783 257.849 373.254 257.411 373.254 256.87C373.254 256.329 372.783 255.89 372.202 255.89Z" fill="white"/>
<path d="M378.409 255.89H376.494C375.913 255.89 375.442 256.329 375.442 256.87C375.442 257.411 375.913 257.849 376.494 257.849H378.409C378.99 257.849 379.461 257.411 379.461 256.87C379.461 256.329 378.99 255.89 378.409 255.89Z" fill="white"/>
<path d="M395.453 256.054H383.548C382.967 256.054 382.497 256.492 382.497 257.033C382.497 257.574 382.967 258.012 383.548 258.012H395.453C396.034 258.012 396.505 257.574 396.505 257.033C396.505 256.492 396.034 256.054 395.453 256.054Z" fill="white"/>
<path d="M350.295 255.89H348.379C347.799 255.89 347.328 256.329 347.328 256.87C347.328 257.411 347.799 257.849 348.379 257.849H350.295C350.876 257.849 351.346 257.411 351.346 256.87C351.346 256.329 350.876 255.89 350.295 255.89Z" fill="white"/>
<path d="M366.243 256.054H354.338C353.757 256.054 353.287 256.492 353.287 257.033C353.287 257.574 353.757 258.012 354.338 258.012H366.243C366.824 258.012 367.295 257.574 367.295 257.033C367.295 256.492 366.824 256.054 366.243 256.054Z" fill="white"/>
<path d="M356.137 251.47H354.221C353.641 251.47 353.17 251.908 353.17 252.449C353.17 252.99 353.641 253.428 354.221 253.428H356.137C356.718 253.428 357.189 252.99 357.189 252.449C357.189 251.908 356.718 251.47 356.137 251.47Z" fill="white"/>
<path d="M378.044 251.47H376.129C375.548 251.47 375.077 251.908 375.077 252.449C375.077 252.99 375.548 253.428 376.129 253.428H378.044C378.625 253.428 379.096 252.99 379.096 252.449C379.096 251.908 378.625 251.47 378.044 251.47Z" fill="white"/>
<path d="M384.251 251.47H382.336C381.755 251.47 381.284 251.908 381.284 252.449C381.284 252.99 381.755 253.428 382.336 253.428H384.251C384.832 253.428 385.303 252.99 385.303 252.449C385.303 251.908 384.832 251.47 384.251 251.47Z" fill="white"/>
<path d="M372.085 251.633H360.18C359.599 251.633 359.129 252.071 359.129 252.612C359.129 253.153 359.599 253.592 360.18 253.592H372.085C372.666 253.592 373.137 253.153 373.137 252.612C373.137 252.071 372.666 251.633 372.085 251.633Z" fill="white"/>
<path d="M361.979 247.049H360.063C359.482 247.049 359.012 247.487 359.012 248.028C359.012 248.569 359.482 249.008 360.063 249.008H361.979C362.559 249.008 363.03 248.569 363.03 248.028C363.03 247.487 362.559 247.049 361.979 247.049Z" fill="white"/>
<path d="M383.886 247.049H381.971C381.39 247.049 380.919 247.487 380.919 248.028C380.919 248.569 381.39 249.008 381.971 249.008H383.886C384.467 249.008 384.938 248.569 384.938 248.028C384.938 247.487 384.467 247.049 383.886 247.049Z" fill="white"/>
<path d="M390.093 247.049H388.178C387.597 247.049 387.126 247.487 387.126 248.028C387.126 248.569 387.597 249.008 388.178 249.008H390.093C390.674 249.008 391.145 248.569 391.145 248.028C391.145 247.487 390.674 247.049 390.093 247.049Z" fill="white"/>
<path d="M377.927 247.212H366.022C365.441 247.212 364.971 247.651 364.971 248.192C364.971 248.732 365.441 249.171 366.022 249.171H377.927C378.508 249.171 378.979 248.732 378.979 248.192C378.979 247.651 378.508 247.212 377.927 247.212Z" fill="white"/>
<path d="M367.821 242.628H365.905C365.325 242.628 364.854 243.067 364.854 243.608C364.854 244.149 365.325 244.587 365.905 244.587H367.821C368.402 244.587 368.872 244.149 368.872 243.608C368.872 243.067 368.402 242.628 367.821 242.628Z" fill="white"/>
<path d="M389.728 242.628H387.813C387.232 242.628 386.761 243.067 386.761 243.608C386.761 244.149 387.232 244.587 387.813 244.587H389.728C390.309 244.587 390.78 244.149 390.78 243.608C390.78 243.067 390.309 242.628 389.728 242.628Z" fill="white"/>
<path d="M395.935 242.628H394.02C393.439 242.628 392.968 243.067 392.968 243.608C392.968 244.149 393.439 244.587 394.02 244.587H395.935C396.516 244.587 396.987 244.149 396.987 243.608C396.987 243.067 396.516 242.628 395.935 242.628Z" fill="white"/>
<path d="M383.769 242.792H371.864C371.284 242.792 370.813 243.23 370.813 243.771C370.813 244.312 371.284 244.75 371.864 244.75H383.769C384.35 244.75 384.821 244.312 384.821 243.771C384.821 243.23 384.35 242.792 383.769 242.792Z" fill="white"/>
<path d="M340.111 307.699L331.119 294.461L359.344 273.506L370.994 261.485C372.507 259.924 374.435 258.759 376.583 258.108C378.731 257.458 381.025 257.343 383.235 257.777C385.446 258.211 387.495 259.177 389.179 260.579C390.863 261.982 392.122 263.771 392.831 265.769C393.881 268.729 393.655 271.953 392.201 274.761C390.747 277.569 388.178 279.741 385.037 280.819L366.615 287.14L340.111 307.699Z" fill="#FFB6B6"/>
<path d="M129.122 211.715V276.055H177.52V211.715C177.521 211.252 177.362 210.802 177.067 210.429C176.773 210.056 176.358 209.781 175.883 209.645C175.659 209.576 175.425 209.542 175.189 209.544H131.459C131.153 209.544 130.849 209.6 130.566 209.708C130.282 209.817 130.025 209.977 129.807 210.179C129.59 210.38 129.418 210.62 129.3 210.883C129.183 211.147 129.122 211.43 129.122 211.715ZM148.01 233.823C148.022 232.554 148.572 231.342 149.54 230.449C150.507 229.556 151.814 229.055 153.176 229.055C154.538 229.055 155.845 229.556 156.812 230.449C157.78 231.342 158.33 232.554 158.342 233.823V241.288C158.336 242.56 157.788 243.777 156.82 244.674C155.852 245.571 154.542 246.075 153.176 246.075C151.81 246.075 150.5 245.571 149.532 244.674C148.564 243.777 148.016 242.56 148.01 241.288V233.823Z" fill="#2F2E41"/>
<path d="M128.974 273.997V280.202C128.975 280.523 129.112 280.831 129.355 281.059C129.599 281.287 129.929 281.416 130.274 281.419H176.368C176.713 281.417 177.044 281.288 177.288 281.06C177.531 280.832 177.668 280.524 177.668 280.202V273.997H128.974Z" fill="#3F3D56"/>
<path d="M52.9851 114.779V232.254C52.9864 233.751 53.6255 235.187 54.7621 236.245C55.8988 237.304 57.44 237.899 59.0475 237.9H245.971C247.578 237.899 249.12 237.304 250.256 236.245C251.393 235.187 252.032 233.751 252.033 232.254V114.779C252.029 113.283 251.389 111.849 250.253 110.792C249.117 109.735 247.577 109.141 245.971 109.139H59.0475C57.4414 109.141 55.9016 109.735 54.7654 110.792C53.6291 111.85 52.9889 113.283 52.9851 114.779Z" fill="#3F3D56"/>
<path d="M57.3704 116.24V230.805C57.3718 231.605 57.7137 232.372 58.321 232.937C58.9283 233.503 59.7515 233.821 60.6104 233.823H244.415C245.274 233.821 246.097 233.503 246.704 232.937C247.312 232.372 247.653 231.605 247.655 230.805V116.24C247.655 115.439 247.314 114.671 246.706 114.104C246.099 113.538 245.275 113.218 244.415 113.216H60.6104C59.7505 113.218 58.9264 113.538 58.319 114.104C57.7116 114.671 57.3705 115.439 57.3704 116.24Z" fill="white"/>
<path d="M91.4812 280.999C91.6683 281.217 91.9061 281.393 92.1768 281.514C92.4474 281.634 92.7439 281.696 93.044 281.695H202.396C202.695 281.695 202.99 281.632 203.26 281.512C203.53 281.392 203.768 281.218 203.956 281.001C204.144 280.785 204.279 280.532 204.349 280.262C204.419 279.991 204.424 279.709 204.363 279.436L202.665 271.927C202.595 271.621 202.443 271.336 202.225 271.098C202.006 270.86 201.727 270.677 201.412 270.566C201.185 270.483 200.943 270.44 200.698 270.44H94.7347C94.4904 270.44 94.2482 270.483 94.0207 270.566C93.7065 270.677 93.4273 270.86 93.2084 271.098C92.9896 271.336 92.8381 271.621 92.7678 271.927L91.0703 279.436C91.0099 279.709 91.0155 279.99 91.0866 280.261C91.1576 280.531 91.2924 280.783 91.4812 280.999Z" fill="#2F2E41"/>
<path d="M238.45 128.998H66.4646C66.2858 128.995 66.1157 128.926 65.9907 128.807C65.8656 128.688 65.7957 128.528 65.7957 128.361C65.7957 128.195 65.8656 128.035 65.9907 127.916C66.1157 127.797 66.2858 127.728 66.4646 127.724H238.45C238.629 127.728 238.799 127.797 238.924 127.916C239.049 128.035 239.119 128.195 239.119 128.361C239.119 128.528 239.049 128.688 238.924 128.807C238.799 128.926 238.629 128.995 238.45 128.998Z" fill="#3F3D56"/>
<path d="M78.1718 124.472C80.3854 124.472 82.18 122.764 82.18 120.656C82.18 118.548 80.3854 116.84 78.1718 116.84C75.9581 116.84 74.1636 118.548 74.1636 120.656C74.1636 122.764 75.9581 124.472 78.1718 124.472Z" fill="#3F3D56"/>
<path d="M92.0184 124.472C94.2321 124.472 96.0266 122.764 96.0266 120.656C96.0266 118.548 94.2321 116.84 92.0184 116.84C89.8048 116.84 88.0103 118.548 88.0103 120.656C88.0103 122.764 89.8048 124.472 92.0184 124.472Z" fill="#3F3D56"/>
<path d="M105.865 124.472C108.079 124.472 109.873 122.764 109.873 120.656C109.873 118.548 108.079 116.84 105.865 116.84C103.651 116.84 101.857 118.548 101.857 120.656C101.857 122.764 103.651 124.472 105.865 124.472Z" fill="#3F3D56"/>
<path d="M230.112 117.784H220.278C220.083 117.788 219.898 117.863 219.762 117.992C219.626 118.122 219.55 118.296 219.55 118.477C219.55 118.658 219.626 118.832 219.762 118.961C219.898 119.091 220.083 119.166 220.278 119.17H230.112C230.308 119.167 230.494 119.093 230.632 118.964C230.769 118.834 230.846 118.659 230.846 118.477C230.846 118.295 230.769 118.12 230.632 117.99C230.494 117.86 230.308 117.786 230.112 117.784Z" fill="#3F3D56"/>
<path d="M230.112 120.387H220.277C220.083 120.391 219.898 120.466 219.762 120.595C219.626 120.725 219.549 120.899 219.549 121.08C219.549 121.261 219.626 121.436 219.762 121.565C219.898 121.695 220.083 121.769 220.277 121.773H230.112C230.308 121.771 230.495 121.697 230.632 121.567C230.77 121.438 230.847 121.263 230.847 121.08C230.847 120.898 230.77 120.723 230.632 120.593C230.495 120.463 230.308 120.389 230.112 120.387Z" fill="#3F3D56"/>
<path d="M230.112 122.99H220.278C220.083 122.995 219.898 123.07 219.762 123.199C219.626 123.329 219.55 123.503 219.55 123.684C219.55 123.865 219.626 124.039 219.762 124.168C219.898 124.298 220.083 124.373 220.278 124.377H230.112C230.308 124.374 230.494 124.3 230.632 124.17C230.769 124.041 230.846 123.866 230.846 123.684C230.846 123.502 230.769 123.327 230.632 123.197C230.494 123.067 230.308 122.993 230.112 122.99Z" fill="#3F3D56"/>
<path d="M467.204 276.72C467.501 277.525 468.064 278.222 468.812 278.71C469.561 279.198 470.456 279.453 471.369 279.437L489.214 279.01C490.134 278.993 491.024 278.699 491.75 278.173C492.476 277.646 493 276.915 493.243 276.088L495.768 250.94C496.664 251.318 497.639 251.504 498.623 251.486C499.477 251.466 500.319 251.29 501.1 250.967C501.881 250.644 502.586 250.181 503.175 249.604C503.764 249.027 504.225 248.348 504.532 247.605C504.84 246.862 504.987 246.071 504.965 245.275C504.944 244.479 504.754 243.695 504.407 242.968C504.061 242.24 503.563 241.584 502.944 241.035C502.325 240.487 501.596 240.057 500.798 239.771C500.001 239.485 499.15 239.348 498.296 239.368C497.903 239.367 497.511 239.405 497.127 239.481C496.708 239.06 496.2 238.725 495.635 238.498C495.07 238.271 494.459 238.156 493.843 238.162L466.394 238.822C466.166 238.83 465.94 238.856 465.717 238.9C465.115 239.005 464.544 239.228 464.042 239.556C463.541 239.883 463.121 240.306 462.81 240.798C462.499 241.289 462.304 241.836 462.239 242.404C462.175 242.971 462.241 243.544 462.434 244.085L467.204 276.72ZM496.286 249.232L498.083 243.239C498.287 242.547 498.292 241.817 498.096 241.122C498.184 241.122 498.261 241.084 498.348 241.084C499.58 241.06 500.772 241.492 501.662 242.286C502.553 243.079 503.069 244.169 503.098 245.316C503.126 246.464 502.666 247.575 501.816 248.406C500.967 249.238 499.798 249.722 498.566 249.752C497.769 249.775 496.981 249.595 496.286 249.232Z" fill="#2F2E41"/>
<path d="M465.717 238.9C466.302 242.015 472.877 244.204 480.782 243.823C488.052 243.511 493.997 241.134 495.086 238.316C494.683 238.205 494.264 238.153 493.843 238.162L466.394 238.822C466.166 238.83 465.94 238.856 465.717 238.9Z" fill="#3F3D56"/>
<path d="M482.231 262.901C482.268 262.893 482.302 262.879 482.333 262.859L486.208 260.497C486.255 260.469 486.294 260.43 486.32 260.384C486.347 260.338 486.361 260.287 486.361 260.235C486.361 260.183 486.347 260.132 486.32 260.086C486.294 260.04 486.255 260.001 486.209 259.973L482.181 257.515C482.144 257.493 482.102 257.477 482.059 257.469C482.015 257.461 481.97 257.461 481.927 257.47C481.884 257.478 481.842 257.494 481.806 257.518C481.769 257.541 481.738 257.57 481.713 257.605C481.689 257.64 481.672 257.678 481.664 257.719C481.656 257.759 481.656 257.801 481.665 257.841C481.675 257.882 481.692 257.92 481.717 257.954C481.742 257.988 481.774 258.017 481.811 258.04L485.409 260.234L481.964 262.335C481.898 262.375 481.849 262.437 481.826 262.508C481.803 262.579 481.808 262.655 481.84 262.723C481.872 262.791 481.929 262.846 482.001 262.879C482.072 262.911 482.154 262.919 482.231 262.901Z" fill="#4D61FC"/>
<path d="M476.111 263.164C476.176 263.149 476.234 263.116 476.279 263.069C476.324 263.022 476.352 262.964 476.362 262.903C476.371 262.841 476.36 262.778 476.33 262.722C476.301 262.666 476.254 262.619 476.196 262.588L472.623 260.681L476.076 258.292C476.111 258.268 476.141 258.237 476.164 258.201C476.187 258.166 476.202 258.127 476.208 258.086C476.215 258.046 476.212 258.004 476.202 257.964C476.191 257.924 476.172 257.887 476.145 257.854C476.119 257.82 476.086 257.793 476.048 257.772C476.01 257.75 475.968 257.736 475.924 257.73C475.881 257.724 475.836 257.726 475.793 257.737C475.75 257.747 475.71 257.764 475.675 257.789L471.809 260.463C471.764 260.494 471.728 260.535 471.705 260.582C471.681 260.629 471.67 260.681 471.673 260.733C471.677 260.785 471.694 260.836 471.723 260.88C471.753 260.924 471.794 260.961 471.842 260.987L475.86 263.132C475.936 263.173 476.026 263.184 476.111 263.164Z" fill="#4D61FC"/>
<path d="M481.846 264.971C481.879 264.964 481.91 264.952 481.938 264.935C481.976 264.914 482.009 264.886 482.035 264.852C482.061 264.819 482.08 264.781 482.091 264.741C482.101 264.701 482.103 264.66 482.096 264.619C482.089 264.578 482.074 264.539 482.051 264.504L476.558 256.092C476.511 256.021 476.436 255.971 476.349 255.951C476.263 255.932 476.171 255.945 476.095 255.988C476.019 256.031 475.964 256.101 475.943 256.182C475.922 256.263 475.936 256.348 475.982 256.419L481.476 264.831C481.513 264.888 481.569 264.932 481.636 264.958C481.703 264.983 481.776 264.988 481.846 264.971Z" fill="#4D61FC"/>
<path d="M173.007 163.627H143.24C142.025 163.627 141.041 164.544 141.041 165.675V168.383C141.041 169.514 142.025 170.431 143.24 170.431H173.007C174.221 170.431 175.205 169.514 175.205 168.383V165.675C175.205 164.544 174.221 163.627 173.007 163.627Z" fill="#4D61FC"/>
<path d="M190.357 177.235H125.889C124.674 177.235 123.69 178.152 123.69 179.283V181.991C123.69 183.122 124.674 184.039 125.889 184.039H190.357C191.572 184.039 192.556 183.122 192.556 181.991V179.283C192.556 178.152 191.572 177.235 190.357 177.235Z" fill="#E6E6E6"/>
<path d="M190.357 190.843H125.889C124.674 190.843 123.69 191.76 123.69 192.891V195.599C123.69 196.73 124.674 197.647 125.889 197.647H190.357C191.572 197.647 192.556 196.73 192.556 195.599V192.891C192.556 191.76 191.572 190.843 190.357 190.843Z" fill="#E6E6E6"/>
<path d="M195.822 236.41L195.968 236.84L195.976 236.854L200.371 249.299L205.427 263.641L214.941 290.592L215.033 294.779V294.793L215.74 328.471L213.78 333.037L215.986 340.523C215.986 340.523 214.971 329.208 209.531 335.706C206.449 339.398 202.846 343.177 199.887 346.719C204.198 348.344 208.578 349.814 213.027 351.128C213.988 351.414 214.956 351.686 215.924 351.958C216.132 352.015 216.339 352.073 216.547 352.13C231.295 356.192 246.542 358.474 261.914 358.921C262.713 358.943 263.497 358.957 264.258 358.971C264.527 358.979 264.788 358.986 265.049 358.986C265.91 358.993 266.763 359 267.623 359C269.36 359 271.089 358.976 272.81 358.928C285.55 358.594 298.216 356.999 310.593 354.169C310.509 349.41 310.278 343.85 309.948 337.91C309.794 334.997 306.344 331.841 306.136 328.792C305.99 326.502 309.087 324.348 308.926 322.022C307.881 307.702 306.574 313.199 305.606 303.059C305.506 302.064 305.414 301.112 305.329 300.203C304.707 293.691 304.277 289.619 304.277 289.619L308.411 265.351L314.904 227.25L314.404 226.484L313.844 226.227L279.595 210.44L277.736 206.002C277.194 204.724 276.254 203.626 275.036 202.849C273.819 202.073 272.38 201.653 270.904 201.644L248.344 201.558C247.173 201.553 246.018 201.809 244.974 202.303C243.93 202.797 243.028 203.516 242.342 204.399L236.233 212.279L195.822 236.41Z" fill="#3F3D56"/>
<path d="M220.143 284.595L215.033 294.779L211.544 301.735L205.543 330.998L202.538 333.968L199.964 323.454L173.022 329.025C172.138 324.452 172.785 329.18 172.24 324.163C172.393 324.02 172.555 323.877 172.716 323.734C173.146 323.362 173.508 323.011 173.5 322.675C173.193 305.37 174.115 275.921 181.814 258.08C183.02 255.167 184.61 252.405 186.548 249.857C186.701 249.664 186.847 249.471 186.993 249.278C190.543 244.647 192.787 240.089 195.969 236.847V236.84C195.988 236.825 196.006 236.808 196.022 236.79C196.034 236.784 196.044 236.777 196.053 236.768L217.907 225.976L218.844 250.509L219.513 268.142L220.143 284.595Z" fill="#3F3D56"/>
<path d="M298.944 287.487L305.327 300.207L307.554 304.636L313.554 333.896L316.549 336.859L319.129 326.348L320.341 326.116L342.205 321.899L348.578 340.748C350.014 338.519 350.58 335.897 350.18 333.325C349.779 330.752 348.438 328.387 346.381 326.63C345.946 326.263 345.583 325.906 345.594 325.568C345.956 305.215 344.62 268.051 332.548 252.755C328.714 247.901 326.413 243.066 323.066 239.689C323.056 239.679 323.056 239.669 323.046 239.669L314.901 227.249L314.404 226.487L313.844 226.226L298.944 287.487Z" fill="#3F3D56"/>
<path d="M260.276 195.579C276.852 195.579 290.29 183.064 290.29 167.625C290.29 152.187 276.852 139.672 260.276 139.672C243.699 139.672 230.261 152.187 230.261 167.625C230.261 183.064 243.699 195.579 260.276 195.579Z" fill="#FFB6B6"/>
<path d="M300.844 148.1C300.611 147.869 300.331 147.683 300.019 147.555C299.708 147.427 299.372 147.358 299.032 147.354L299.483 146.187C299.63 145.819 299.67 145.422 299.598 145.035C299.526 144.649 299.345 144.287 299.074 143.987C298.803 143.687 298.45 143.46 298.054 143.328C297.657 143.197 297.229 143.166 296.816 143.238L295.172 143.533L295.327 142.511C295.386 142.13 295.338 141.741 295.187 141.383C295.037 141.025 294.788 140.709 294.467 140.467C294.145 140.225 293.762 140.066 293.354 140.004C292.946 139.942 292.528 139.98 292.141 140.114C291.788 140.243 291.41 140.298 291.032 140.273C290.654 140.248 290.287 140.144 289.958 139.97C289.628 139.801 289.341 139.567 289.117 139.284C288.894 139.002 288.74 138.677 288.665 138.333L288.092 135.761L288.032 135.623C285.243 131.294 279.881 128.145 273.32 126.99C267.48 125.955 261.492 126.482 255.719 126.978C253.429 127.179 250.842 127.404 248.687 128.634C246.855 129.688 245.306 131.796 245.622 133.922C239.93 132.298 233.827 135.541 230.803 139.631C227.219 144.499 226.633 150.597 226.539 155.365C226.283 166.644 228.782 175.873 233.949 182.798C234.326 183.3 234.42 184.348 235.168 184.699L235.013 184.467C235.848 184.856 236.697 185.483 236.38 186.155C235.471 188.087 241.513 192.359 245.77 193.771C253.537 196.349 263.863 196.129 271.125 195.201L271.38 193.601C274.001 193.269 275.846 192.635 276.365 191.644C277.281 190.916 278.063 190.264 278.743 189.662L278.75 189.655C278.763 189.643 278.79 189.624 278.803 189.611C282.084 186.682 282.845 185.013 283.189 182.472C283.519 179.982 282.933 177.454 282.333 175.176C294.956 176.996 277.362 162.655 289.123 159.882C289.258 159.843 289.395 159.812 289.534 159.788C289.877 159.712 290.221 159.637 290.551 159.549C292.142 159.147 293.665 158.541 295.078 157.749C298.365 155.886 299.449 153.414 301.147 150.629C301.392 150.232 301.494 149.773 301.44 149.318C301.385 148.863 301.176 148.437 300.844 148.1Z" fill="#2F2E41"/>
<path d="M366.432 289.478C366.425 290.575 366.412 292.112 366.358 294.013C366.351 294.277 366.344 294.546 366.337 294.823C366.25 298.317 366.162 301.246 366.021 304.502C366.014 304.728 366.007 304.948 365.994 305.174C365.805 309.716 365.509 315.004 364.997 323.379C364.047 338.849 362.39 325.506 360.726 330.932C360.645 331.202 360.558 331.522 360.477 331.898C360.225 333.264 359.8 334.597 359.211 335.869C358.328 336.359 357.419 336.829 356.523 337.3C353.97 338.623 351.377 339.897 348.763 341.108C347.295 341.785 345.82 342.45 344.338 343.09C344.102 343.19 343.873 343.291 343.644 343.385C336.055 346.654 328.234 349.433 320.236 351.703C318.674 352.143 317.118 352.569 315.541 352.964C313.898 353.391 312.254 353.792 310.59 354.169C298.213 356.999 285.548 358.595 272.808 358.93C271.091 358.981 269.36 358.999 267.622 358.999C266.76 358.999 265.911 358.993 265.049 358.987C264.786 358.987 264.523 358.981 264.26 358.974C263.499 358.955 262.711 358.943 261.916 358.924C246.544 358.478 231.297 356.194 216.55 352.13L215.923 351.961C214.953 351.685 213.99 351.415 213.027 351.126C208.581 349.815 204.2 348.347 199.885 346.722C196.591 345.486 193.335 344.161 190.118 342.745C190.088 342.738 190.061 342.725 190.037 342.707C189.363 342.419 188.683 342.118 188.009 341.81C187.922 341.766 187.827 341.722 187.733 341.679C185.221 340.537 182.735 339.341 180.276 338.09C178.208 333.667 175.298 332.82 173.493 328.931C172.968 327.775 172.588 326.567 172.362 325.33C172.362 325.317 172.355 325.305 172.355 325.286C172.543 327.62 171.553 321.146 172.348 325.261C172.341 325.186 172.335 325.104 172.328 325.01C172.308 324.784 172.281 324.508 172.24 324.163C169.93 303.154 170.078 279.127 169.074 259.328C169.007 258.048 168.937 256.822 168.866 255.651C168.845 255.262 168.818 254.88 168.792 254.503C168.839 254.39 168.893 254.271 168.953 254.158C168.966 254.126 168.982 254.094 169 254.064C169.02 254.025 169.043 253.988 169.068 253.951C169.081 253.933 169.101 253.907 169.115 253.889C169.125 253.867 169.136 253.846 169.149 253.826C169.209 253.738 169.276 253.644 169.351 253.556C169.384 253.518 169.411 253.487 169.445 253.456C169.468 253.424 169.495 253.394 169.526 253.368C169.546 253.338 169.571 253.31 169.6 253.286C169.627 253.261 169.654 253.23 169.687 253.199C169.702 253.179 169.72 253.162 169.741 253.148C169.795 253.091 169.853 253.039 169.916 252.992C170.157 252.786 170.413 252.597 170.684 252.427C170.779 252.37 170.88 252.314 170.974 252.251C171.653 251.873 172.368 251.554 173.109 251.298C173.365 251.21 173.621 251.128 173.897 251.041C173.998 251.015 174.093 250.984 174.194 250.953C174.342 250.909 174.49 250.865 174.645 250.833C175.413 250.62 176.241 250.438 177.137 250.269C177.245 250.25 177.36 250.231 177.474 250.206C177.636 250.175 177.804 250.15 177.973 250.125C178.202 250.087 178.437 250.049 178.673 250.012C180.674 249.717 182.944 249.497 185.45 249.353C185.685 249.34 185.921 249.328 186.157 249.315C186.433 249.303 186.709 249.29 186.992 249.278C187.228 249.265 187.47 249.259 187.713 249.253C187.949 249.24 188.191 249.234 188.44 249.228C189.121 249.209 189.821 249.19 190.535 249.177C192.569 249.14 194.712 249.152 196.961 249.196C198.005 249.221 199.07 249.246 200.161 249.29C200.235 249.29 200.302 249.297 200.37 249.297C201.32 249.328 202.276 249.366 203.259 249.416C203.947 249.447 204.64 249.478 205.334 249.516C205.988 249.554 206.648 249.591 207.315 249.635C207.833 249.66 208.352 249.698 208.877 249.729C209.322 249.761 209.766 249.792 210.211 249.817L210.817 249.855C211.147 249.88 211.477 249.899 211.814 249.93C212.555 249.987 213.296 250.043 214.051 250.1C214.798 250.162 215.559 250.225 216.321 250.288C217.082 250.35 217.85 250.419 218.617 250.488C218.698 250.495 218.772 250.501 218.847 250.507C219.547 250.576 220.248 250.639 220.955 250.708C221.117 250.721 221.285 250.733 221.447 250.752C222.121 250.815 222.808 250.889 223.489 250.956C223.698 250.977 223.906 250.998 224.115 251.019C224.648 251.073 225.174 251.12 225.71 251.179C226.418 251.254 227.138 251.323 227.839 251.411C228.385 251.467 228.93 251.524 229.476 251.586C230.331 251.68 231.2 251.781 232.069 251.887C232.399 251.925 232.729 251.963 233.059 252.007C235.538 252.295 238.044 252.615 240.59 252.948C244.45 253.456 248.37 254.008 252.317 254.604C256.272 255.2 260.248 255.829 264.247 256.492C265.257 256.661 266.268 256.831 267.285 257.006C267.743 257.088 268.201 257.17 268.659 257.251C269.44 257.383 270.222 257.521 271.003 257.659C271.784 257.797 272.566 257.935 273.347 258.079C274.277 258.249 275.213 258.418 276.143 258.587C282.266 259.717 288.355 260.921 294.296 262.182C295.273 262.389 296.25 262.602 297.22 262.809C299.159 263.23 301.081 263.656 302.986 264.089C303.511 264.202 304.03 264.321 304.548 264.44C305.842 264.742 307.135 265.043 308.408 265.35L308.63 265.407C309.567 265.62 310.483 265.839 311.399 266.065C313.561 266.592 315.687 267.125 317.778 267.665C319.165 268.023 320.537 268.384 321.893 268.75C323.921 269.296 325.908 269.848 327.841 270.406C328.32 270.544 328.798 270.682 329.269 270.814C330.684 271.222 332.078 271.636 333.432 272.05C334.51 272.376 335.561 272.709 336.598 273.041C337.635 273.374 338.652 273.706 339.649 274.039C340.289 274.252 340.923 274.478 341.556 274.691C342.465 275.005 343.361 275.319 344.237 275.632C344.506 275.726 344.769 275.827 345.031 275.921C345.2 275.99 345.362 276.046 345.523 276.109C345.84 276.228 346.163 276.341 346.473 276.46C346.79 276.573 347.099 276.692 347.409 276.818C347.712 276.931 348.022 277.05 348.319 277.169C348.622 277.282 348.918 277.401 349.215 277.527C349.464 277.621 349.706 277.721 349.942 277.822C350.42 278.016 350.899 278.211 351.363 278.411C351.592 278.512 351.821 278.606 352.05 278.706L352.576 278.932C352.65 278.97 352.724 279.001 352.798 279.032C352.966 279.108 353.142 279.189 353.31 279.264C353.701 279.434 354.085 279.616 354.462 279.785C354.967 280.024 355.459 280.262 355.93 280.494C356.409 280.732 356.873 280.971 357.318 281.203C357.392 281.241 357.459 281.278 357.533 281.316C357.634 281.366 357.736 281.423 357.837 281.473C358.18 281.655 358.51 281.843 358.84 282.025C359.487 282.395 360.1 282.759 360.672 283.123C360.8 283.204 360.922 283.286 361.05 283.361C361.474 283.643 361.878 283.919 362.255 284.202C362.255 284.208 362.255 284.208 362.262 284.208C362.39 284.296 362.511 284.39 362.633 284.478C362.734 284.565 362.841 284.641 362.942 284.729C363.293 285.011 363.616 285.281 363.912 285.557C364.012 285.642 364.106 285.732 364.195 285.826C364.235 285.857 364.271 285.89 364.303 285.927C364.438 286.052 364.559 286.178 364.674 286.303C364.691 286.32 364.707 286.339 364.721 286.36C364.882 286.535 365.031 286.711 365.172 286.887C365.239 286.974 365.313 287.062 365.374 287.15C365.455 287.257 365.536 287.37 365.603 287.476C365.664 287.564 365.718 287.658 365.772 287.746C365.914 287.972 366.036 288.209 366.135 288.455C366.211 288.622 366.272 288.794 366.317 288.969C366.368 289.136 366.406 289.306 366.432 289.478Z" fill="#2F2E41"/>
<path opacity="0.2" d="M366.432 289.478C366.425 290.575 366.412 292.112 366.358 294.013C366.351 294.277 366.338 294.546 366.331 294.823C366.264 297.489 366.162 300.782 366.021 304.502C366.014 304.728 366.008 304.948 365.994 305.174C365.805 309.716 365.509 315.004 364.997 323.379C364.047 338.849 362.39 325.506 360.727 330.932C356.106 328.285 351.04 325.512 345.624 322.664C344.648 322.149 343.662 321.633 342.667 321.114C331.836 315.487 319.738 309.59 307.108 303.75C306.61 303.517 306.105 303.285 305.606 303.059C276.675 289.741 245.097 276.787 219.514 268.142C214.576 266.473 209.861 264.967 205.429 263.644C196.093 260.865 188.023 258.92 181.812 258.079C175.346 257.201 170.88 257.515 169.075 259.328C169.007 258.048 168.938 256.822 168.866 255.651C168.839 255.262 168.812 254.88 168.785 254.503C168.826 254.4 168.88 254.302 168.933 254.202C168.94 254.188 168.946 254.173 168.953 254.158C168.966 254.126 168.982 254.094 169 254.064C169.02 254.025 169.043 253.988 169.068 253.951C169.09 253.907 169.117 253.865 169.149 253.826C169.209 253.738 169.277 253.644 169.351 253.556C169.405 253.49 169.464 253.427 169.526 253.368C169.547 253.338 169.571 253.31 169.6 253.286C169.627 253.261 169.654 253.23 169.688 253.199C169.702 253.179 169.72 253.162 169.741 253.148C169.795 253.091 169.853 253.039 169.917 252.992C170.157 252.786 170.414 252.597 170.684 252.427C170.779 252.37 170.88 252.314 170.974 252.251C171.653 251.873 172.368 251.554 173.109 251.298C173.365 251.21 173.621 251.128 173.898 251.04C173.999 251.015 174.093 250.984 174.194 250.953C174.342 250.909 174.49 250.865 174.645 250.833C175.413 250.62 176.242 250.438 177.138 250.269C177.407 250.219 177.69 250.168 177.973 250.125C178.202 250.087 178.438 250.049 178.673 250.012C180.674 249.717 182.944 249.497 185.45 249.353C185.685 249.34 185.921 249.328 186.157 249.315C186.433 249.303 186.709 249.29 186.992 249.278C187.228 249.265 187.471 249.259 187.713 249.253C187.949 249.24 188.191 249.234 188.441 249.227C189.121 249.209 189.821 249.19 190.535 249.177C192.57 249.146 194.712 249.158 196.962 249.202C198.006 249.221 199.07 249.253 200.161 249.296C200.228 249.296 200.303 249.303 200.37 249.303C201.32 249.328 202.283 249.372 203.26 249.416C203.947 249.447 204.641 249.478 205.334 249.516C205.988 249.554 206.648 249.591 207.315 249.635C207.833 249.66 208.352 249.698 208.877 249.729C209.322 249.761 209.767 249.792 210.211 249.817C210.743 249.855 211.275 249.892 211.814 249.93C212.555 249.987 213.296 250.043 214.051 250.099C214.798 250.162 215.56 250.225 216.321 250.288C217.082 250.35 217.85 250.419 218.618 250.488C218.698 250.495 218.773 250.501 218.847 250.507C219.547 250.576 220.248 250.639 220.955 250.708C224.875 251.078 228.91 251.511 233.06 252.007C235.538 252.301 238.049 252.617 240.59 252.954C244.45 253.462 248.37 254.014 252.318 254.604C256.272 255.2 260.248 255.829 264.247 256.492C265.258 256.661 266.268 256.831 267.285 257.006C268.524 257.22 269.764 257.437 271.003 257.659C271.785 257.797 272.566 257.935 273.347 258.079C274.277 258.249 275.213 258.418 276.143 258.587C282.266 259.717 288.355 260.921 294.296 262.182C295.273 262.389 296.25 262.602 297.22 262.809C299.16 263.23 301.082 263.656 302.986 264.089C303.511 264.208 304.03 264.328 304.548 264.447C305.849 264.748 307.135 265.049 308.408 265.35V265.356C308.482 265.369 308.556 265.388 308.63 265.407C309.56 265.626 310.483 265.846 311.399 266.072C313.561 266.598 315.688 267.13 317.778 267.665C319.166 268.029 320.54 268.386 321.894 268.75C323.921 269.302 325.908 269.854 327.841 270.406C328.32 270.544 328.798 270.682 329.27 270.814C330.684 271.228 332.072 271.64 333.432 272.05C334.51 272.376 335.561 272.709 336.598 273.041C337.636 273.374 338.653 273.706 339.65 274.039C340.296 274.252 340.929 274.472 341.556 274.685C342.472 274.999 343.361 275.312 344.237 275.632C344.506 275.726 344.769 275.827 345.032 275.921C345.523 276.096 346.002 276.278 346.473 276.46C346.79 276.573 347.1 276.692 347.409 276.818C347.713 276.931 348.022 277.05 348.319 277.169C348.622 277.282 348.918 277.401 349.215 277.527C349.464 277.621 349.706 277.721 349.942 277.822C350.42 278.016 350.899 278.211 351.364 278.411C351.593 278.512 351.822 278.606 352.051 278.706L352.576 278.932C352.65 278.97 352.724 279.001 352.798 279.032C353.371 279.283 353.923 279.534 354.462 279.785C354.967 280.024 355.459 280.262 355.931 280.494C356.49 280.77 357.022 281.04 357.534 281.316C357.635 281.366 357.736 281.423 357.837 281.473C358.18 281.655 358.51 281.843 358.84 282.025C359.487 282.395 360.1 282.759 360.673 283.123C361.238 283.486 361.764 283.844 362.256 284.202C362.256 284.208 362.256 284.208 362.262 284.208C362.498 284.384 362.727 284.559 362.943 284.729C363.293 285.011 363.616 285.281 363.913 285.557C364.012 285.642 364.106 285.732 364.196 285.826C364.235 285.857 364.271 285.89 364.303 285.927C364.445 286.071 364.586 286.215 364.721 286.36C364.883 286.535 365.031 286.711 365.172 286.887C365.24 286.974 365.314 287.062 365.374 287.15C365.455 287.257 365.536 287.37 365.603 287.476C365.664 287.564 365.718 287.658 365.772 287.746C365.915 287.972 366.036 288.209 366.136 288.455C366.209 288.622 366.27 288.794 366.317 288.969C366.368 289.136 366.407 289.306 366.432 289.478Z" fill="black"/>
</g>
<defs>
<clipPath id="clip0_59_1541">
<rect width="530" height="359" fill="white"/>
</clipPath>
</defs>
</svg>
