<svg width="543" height="388" viewBox="0 0 543 388" fill="none" xmlns="http://www.w3.org/2000/svg">
<g clip-path="url(#clip0_21_444)">
<path d="M312.915 18.8841C317.573 28.2663 307.704 30.9239 296.398 35.9526C285.092 40.9814 276.632 46.4772 271.974 37.0949C267.317 27.7126 263.538 9.0905 279.531 1.97641C296.076 -5.38275 308.258 9.50177 312.915 18.8841Z" fill="#2F2E41"/>
<path d="M289.849 37.3353C298.254 37.3353 305.068 30.8851 305.068 22.9285C305.068 14.9719 298.254 8.52173 289.849 8.52173C281.443 8.52173 274.629 14.9719 274.629 22.9285C274.629 30.8851 281.443 37.3353 289.849 37.3353Z" fill="#FFB8B8"/>
<path d="M365.25 86.8196C364.723 86.1685 364.197 85.5291 363.664 84.9073C362.976 84.0979 362.284 83.3138 361.588 82.5552C353.699 73.9385 345.309 68.5127 336.07 67.932H336.058L335.921 67.9203L317.511 84.9073L311.252 90.6792L311.388 90.9959L314.765 98.9557H373.938C371.272 94.7672 368.372 90.7161 365.25 86.8196Z" fill="#2F2E41"/>
<path d="M273.298 28.7287L278.746 26.3053L277.987 18.8656L281.631 25.0224L284.235 23.8641L283.792 19.5243L285.917 23.1158L305.266 14.5093C303.449 10.8485 300.169 8.02107 296.15 6.64891C292.13 5.27675 287.699 5.47228 283.832 7.19248L281.028 8.4398C277.161 10.16 274.174 13.264 272.724 17.0689C271.274 20.8738 271.481 25.0679 273.298 28.7287Z" fill="#2F2E41"/>
<path d="M399.394 290.235H81.603C78.8922 290.232 76.2933 289.211 74.3765 287.397C72.4597 285.582 71.3815 283.122 71.3784 280.556V99.8027C71.3806 97.9228 72.1705 96.1206 73.5748 94.7913C74.979 93.462 76.883 92.7142 78.8689 92.712H401.998C404.019 92.7142 405.956 93.4749 407.384 94.8272C408.813 96.1794 409.616 98.0129 409.619 99.9253V280.556C409.616 283.122 408.537 285.582 406.621 287.397C404.704 289.211 402.105 290.232 399.394 290.235Z" fill="#F2F2F2"/>
<path d="M91.5178 280.556H389.479C392.109 280.556 394.631 279.568 396.49 277.808C398.349 276.048 399.394 273.66 399.394 271.171V117.755C399.394 115.266 398.349 112.879 396.49 111.119C394.631 109.359 392.109 108.37 389.479 108.37H91.5178C88.8882 108.37 86.3664 109.359 84.507 111.119C82.6476 112.879 81.603 115.266 81.603 117.755V271.171C81.603 273.66 82.6476 276.048 84.507 277.808C86.3664 279.568 88.8882 280.556 91.5178 280.556Z" fill="white"/>
<path d="M409.476 99.2492H71.2349V94.3217C71.2388 91.7472 72.3214 89.2793 74.2452 87.4594C76.169 85.6395 78.7768 84.6163 81.4966 84.6141H399.214C401.934 84.6162 404.542 85.6395 406.466 87.4594C408.39 89.2793 409.472 91.7472 409.476 94.3217V99.2492Z" fill="#6C63FF"/>
<path d="M89.8843 94.4586C91.3502 94.4586 92.5386 93.3337 92.5386 91.9461C92.5386 90.5585 91.3502 89.4336 89.8843 89.4336C88.4184 89.4336 87.23 90.5585 87.23 91.9461C87.23 93.3337 88.4184 94.4586 89.8843 94.4586Z" fill="white"/>
<path d="M99.959 94.4586C101.425 94.4586 102.613 93.3337 102.613 91.9461C102.613 90.5585 101.425 89.4336 99.959 89.4336C98.4931 89.4336 97.3047 90.5585 97.3047 91.9461C97.3047 93.3337 98.4931 94.4586 99.959 94.4586Z" fill="white"/>
<path d="M110.034 94.4586C111.5 94.4586 112.689 93.3337 112.689 91.9461C112.689 90.5585 111.5 89.4336 110.034 89.4336C108.568 89.4336 107.38 90.5585 107.38 91.9461C107.38 93.3337 108.568 94.4586 110.034 94.4586Z" fill="white"/>
<path d="M249.795 247.286H223.15C221.589 247.284 220.092 246.696 218.989 245.652C217.885 244.607 217.264 243.191 217.263 241.713V216.491C217.264 215.013 217.885 213.597 218.989 212.552C220.092 211.508 221.589 210.92 223.15 210.918H249.795C251.356 210.92 252.852 211.508 253.956 212.552C255.06 213.597 255.681 215.013 255.682 216.491V241.713C255.681 243.191 255.06 244.607 253.956 245.652C252.852 246.696 251.356 247.284 249.795 247.286ZM223.15 212.091C221.917 212.093 220.736 212.557 219.865 213.381C218.993 214.206 218.503 215.324 218.502 216.491V241.713C218.503 242.879 218.993 243.998 219.865 244.822C220.736 245.647 221.917 246.111 223.15 246.112H249.795C251.028 246.111 252.209 245.647 253.08 244.822C253.951 243.998 254.442 242.879 254.443 241.713V216.491C254.442 215.324 253.951 214.206 253.08 213.381C252.209 212.557 251.028 212.093 249.795 212.091H223.15Z" fill="#CCCCCC"/>
<path d="M244.529 240.247H228.417C227.924 240.246 227.452 240.061 227.103 239.731C226.755 239.401 226.559 238.954 226.558 238.487V219.717C226.559 219.25 226.755 218.803 227.103 218.473C227.452 218.143 227.924 217.958 228.417 217.957H240.091C240.515 217.957 240.926 218.094 241.256 218.345L245.693 221.72C245.91 221.885 246.086 222.093 246.206 222.331C246.326 222.568 246.388 222.829 246.388 223.092V238.487C246.387 238.954 246.191 239.401 245.842 239.731C245.494 240.061 245.021 240.246 244.529 240.247ZM228.417 219.13C228.253 219.13 228.095 219.192 227.979 219.302C227.863 219.412 227.798 219.561 227.797 219.717V238.487C227.798 238.643 227.863 238.792 227.979 238.902C228.095 239.012 228.253 239.073 228.417 239.074H244.529C244.693 239.073 244.85 239.012 244.966 238.902C245.083 238.792 245.148 238.643 245.148 238.487V223.092C245.148 223.004 245.128 222.917 245.088 222.838C245.048 222.759 244.989 222.69 244.917 222.635L240.479 219.259C240.369 219.176 240.232 219.13 240.091 219.13H228.417Z" fill="#CCCCCC"/>
<path d="M241.43 226.169H231.515C231.351 226.169 231.193 226.107 231.077 225.997C230.961 225.887 230.896 225.738 230.896 225.583C230.896 225.427 230.961 225.278 231.077 225.168C231.193 225.058 231.351 224.996 231.515 224.996H241.43C241.594 224.996 241.752 225.058 241.868 225.168C241.984 225.278 242.05 225.427 242.05 225.583C242.05 225.738 241.984 225.887 241.868 225.997C241.752 226.107 241.594 226.169 241.43 226.169Z" fill="#CCCCCC"/>
<path d="M241.43 229.689H231.515C231.351 229.689 231.193 229.627 231.077 229.517C230.961 229.407 230.896 229.258 230.896 229.102C230.896 228.946 230.961 228.797 231.077 228.687C231.193 228.577 231.351 228.515 231.515 228.515H241.43C241.594 228.515 241.752 228.577 241.868 228.687C241.984 228.797 242.05 228.946 242.05 229.102C242.05 229.258 241.984 229.407 241.868 229.517C241.752 229.627 241.594 229.689 241.43 229.689Z" fill="#CCCCCC"/>
<path d="M241.43 233.208H231.515C231.351 233.208 231.193 233.146 231.077 233.036C230.961 232.926 230.896 232.777 230.896 232.621C230.896 232.466 230.961 232.317 231.077 232.207C231.193 232.097 231.351 232.035 231.515 232.035H241.43C241.594 232.035 241.752 232.097 241.868 232.207C241.984 232.317 242.05 232.466 242.05 232.621C242.05 232.777 241.984 232.926 241.868 233.036C241.752 233.146 241.594 233.208 241.43 233.208Z" fill="#CCCCCC"/>
<path d="M313.002 247.286H286.356C284.795 247.284 283.299 246.696 282.195 245.652C281.092 244.607 280.471 243.191 280.469 241.713V216.491C280.471 215.013 281.092 213.597 282.195 212.552C283.299 211.508 284.795 210.92 286.356 210.918H313.002C314.563 210.92 316.059 211.508 317.163 212.552C318.266 213.597 318.887 215.013 318.889 216.491V241.713C318.887 243.191 318.266 244.607 317.163 245.652C316.059 246.696 314.563 247.284 313.002 247.286ZM286.356 212.091C285.124 212.093 283.943 212.557 283.071 213.381C282.2 214.206 281.71 215.324 281.709 216.491V241.713C281.71 242.879 282.2 243.998 283.071 244.822C283.943 245.647 285.124 246.111 286.356 246.112H313.002C314.234 246.111 315.415 245.647 316.287 244.822C317.158 243.998 317.648 242.879 317.649 241.713V216.491C317.648 215.324 317.158 214.206 316.287 213.381C315.415 212.557 314.234 212.093 313.002 212.091H286.356Z" fill="#CCCCCC"/>
<path d="M308.354 235.554H291.004C290.511 235.554 290.038 235.368 289.69 235.038C289.341 234.708 289.145 234.261 289.145 233.794V224.409C289.145 223.943 289.341 223.496 289.69 223.166C290.038 222.836 290.511 222.65 291.004 222.65H308.354C308.847 222.65 309.32 222.836 309.668 223.166C310.017 223.496 310.213 223.943 310.213 224.409V233.794C310.213 234.261 310.017 234.708 309.668 235.038C309.32 235.368 308.847 235.554 308.354 235.554ZM291.004 223.823C290.839 223.823 290.682 223.885 290.566 223.995C290.449 224.105 290.384 224.254 290.384 224.409V233.794C290.384 233.95 290.449 234.099 290.566 234.209C290.682 234.319 290.839 234.381 291.004 234.381H308.354C308.519 234.381 308.676 234.319 308.792 234.209C308.908 234.099 308.974 233.95 308.974 233.794V224.409C308.974 224.254 308.908 224.105 308.792 223.995C308.676 223.885 308.519 223.823 308.354 223.823H291.004Z" fill="#CCCCCC"/>
<path d="M299.679 230.649C299.331 230.65 298.99 230.558 298.694 230.384L289.436 224.907C289.297 224.824 289.198 224.693 289.161 224.541C289.124 224.39 289.153 224.231 289.24 224.099C289.327 223.967 289.466 223.873 289.625 223.838C289.785 223.803 289.954 223.83 290.093 223.912L299.351 229.389C299.45 229.447 299.563 229.477 299.679 229.477C299.795 229.477 299.909 229.447 300.008 229.389L309.265 223.912C309.405 223.83 309.573 223.803 309.733 223.838C309.893 223.873 310.031 223.967 310.118 224.099C310.205 224.231 310.234 224.39 310.197 224.541C310.16 224.693 310.061 224.824 309.922 224.907L300.665 230.384C300.369 230.558 300.027 230.65 299.679 230.649Z" fill="#CCCCCC"/>
<path d="M186.589 247.286H159.944C158.383 247.284 156.886 246.696 155.783 245.652C154.679 244.607 154.058 243.191 154.057 241.713V216.491C154.058 215.013 154.679 213.597 155.783 212.552C156.886 211.508 158.383 210.92 159.944 210.918H186.589C188.15 210.92 189.646 211.508 190.75 212.552C191.854 213.597 192.474 215.013 192.476 216.491V241.713C192.474 243.191 191.854 244.607 190.75 245.652C189.646 246.696 188.15 247.284 186.589 247.286ZM159.944 212.091C158.711 212.093 157.53 212.557 156.659 213.381C155.787 214.206 155.297 215.324 155.296 216.491V241.713C155.297 242.879 155.787 243.998 156.659 244.822C157.53 245.647 158.711 246.111 159.944 246.112H186.589C187.822 246.111 189.003 245.647 189.874 244.822C190.745 243.998 191.236 242.879 191.237 241.713V216.491C191.236 215.324 190.745 214.206 189.874 213.381C189.003 212.557 187.822 212.093 186.589 212.091H159.944Z" fill="#CCCCCC"/>
<path d="M181.942 235.554H164.591C164.098 235.554 163.626 235.368 163.277 235.038C162.929 234.708 162.732 234.261 162.732 233.794V224.409C162.732 223.943 162.929 223.496 163.277 223.166C163.626 222.836 164.098 222.65 164.591 222.65H181.942C182.435 222.65 182.907 222.836 183.256 223.166C183.604 223.496 183.8 223.943 183.801 224.409V233.794C183.8 234.261 183.604 234.708 183.256 235.038C182.907 235.368 182.435 235.554 181.942 235.554ZM164.591 223.823C164.427 223.823 164.269 223.885 164.153 223.995C164.037 224.105 163.971 224.254 163.971 224.409V233.794C163.971 233.95 164.037 234.099 164.153 234.209C164.269 234.319 164.427 234.381 164.591 234.381H181.942C182.106 234.381 182.264 234.319 182.38 234.209C182.496 234.099 182.561 233.95 182.561 233.794V224.409C182.561 224.254 182.496 224.105 182.38 223.995C182.264 223.885 182.106 223.823 181.942 223.823H164.591Z" fill="#CCCCCC"/>
<path d="M179.192 235.554H166.721C166.504 235.554 166.29 235.5 166.102 235.397C165.913 235.294 165.757 235.146 165.648 234.968C165.539 234.789 165.482 234.587 165.482 234.381C165.482 234.175 165.539 233.973 165.648 233.795L169.404 227.636C169.513 227.457 169.67 227.309 169.858 227.206C170.046 227.103 170.26 227.049 170.478 227.049C170.695 227.049 170.909 227.103 171.097 227.206C171.286 227.309 171.442 227.457 171.551 227.636L173.977 231.613L175.383 229.309C175.491 229.13 175.648 228.982 175.836 228.879C176.025 228.776 176.238 228.722 176.456 228.722C176.673 228.722 176.887 228.776 177.076 228.879C177.264 228.982 177.421 229.13 177.529 229.309L180.265 233.795C180.374 233.973 180.431 234.175 180.431 234.381C180.431 234.587 180.374 234.789 180.265 234.968C180.156 235.146 180 235.294 179.811 235.397C179.623 235.5 179.409 235.554 179.192 235.554ZM179.192 234.381L176.456 229.895L174.514 233.08C174.46 233.169 174.381 233.243 174.287 233.294C174.193 233.346 174.086 233.373 173.977 233.373C173.868 233.373 173.761 233.346 173.667 233.294C173.573 233.243 173.495 233.169 173.44 233.08L170.478 228.222L166.721 234.381H179.192Z" fill="#CCCCCC"/>
<path d="M180.083 227.342C180.767 227.342 181.322 226.817 181.322 226.169C181.322 225.521 180.767 224.996 180.083 224.996C179.398 224.996 178.843 225.521 178.843 226.169C178.843 226.817 179.398 227.342 180.083 227.342Z" fill="#CCCCCC"/>
<path d="M476.419 380.185L468.821 380.185L465.208 352.447L476.42 352.448L476.419 380.185Z" fill="#FFB8B8"/>
<path d="M478.356 387.156L453.86 387.155V386.862C453.86 385.677 454.106 384.503 454.586 383.408C455.065 382.313 455.767 381.318 456.652 380.48C457.538 379.642 458.589 378.977 459.746 378.524C460.902 378.07 462.142 377.837 463.394 377.837H463.395L478.356 377.837L478.356 387.156Z" fill="#2F2E41"/>
<path d="M507.402 380.185L499.805 380.185L496.191 352.447L507.403 352.448L507.402 380.185Z" fill="#FFB8B8"/>
<path d="M509.34 387.156L484.844 387.155V386.862C484.844 385.677 485.09 384.503 485.569 383.408C486.049 382.313 486.751 381.318 487.636 380.48C488.522 379.642 489.573 378.977 490.73 378.524C491.886 378.07 493.126 377.837 494.378 377.837H494.379L509.34 377.837L509.34 387.156Z" fill="#2F2E41"/>
<path d="M505.125 368.161L498.089 366.135C497.564 365.984 497.098 365.691 496.749 365.291C496.4 364.891 496.184 364.402 496.127 363.886L489.567 305.038C489.562 304.967 489.528 304.9 489.473 304.852C489.418 304.803 489.346 304.776 489.271 304.776C489.195 304.769 489.12 304.79 489.061 304.835C489.002 304.88 488.964 304.945 488.954 305.016L477.967 362.03C477.9 362.376 477.761 362.706 477.558 363C477.355 363.294 477.091 363.547 476.783 363.744C476.475 363.941 476.129 364.077 475.765 364.145C475.4 364.214 475.025 364.212 474.661 364.141L465.669 362.388C465.009 362.257 464.422 361.906 464.014 361.398C463.606 360.89 463.406 360.26 463.449 359.624L470.133 266.176L515.454 261.547L508.72 365.796C508.676 366.466 508.364 367.096 507.848 367.556C507.332 368.017 506.65 368.274 505.941 368.276C505.664 368.276 505.389 368.237 505.125 368.161Z" fill="#A5A4AB"/>
<path d="M505.082 184.798C513.487 184.798 520.301 178.348 520.301 170.391C520.301 162.434 513.487 155.984 505.082 155.984C496.676 155.984 489.862 162.434 489.862 170.391C489.862 178.348 496.676 184.798 505.082 184.798Z" fill="#FFB8B8"/>
<path d="M470.062 266.725L479.889 208.155C480.412 205.041 481.629 202.068 483.46 199.434C485.291 196.8 487.693 194.565 490.507 192.878C493.322 191.191 496.483 190.091 499.781 189.65C503.08 189.21 506.439 189.44 509.637 190.324C515.227 191.854 520.014 195.303 523.062 199.995C526.11 204.688 527.201 210.287 526.121 215.7L515.84 268.006L470.062 266.725Z" fill="#18171C"/>
<path d="M509.283 277.204C510.043 276.729 510.684 276.102 511.161 275.367C511.637 274.632 511.938 273.807 512.041 272.951C512.144 272.094 512.047 271.226 511.758 270.408C511.469 269.591 510.993 268.843 510.366 268.218L520.526 249.594L509.084 250.75L501.19 268.258C500.15 269.326 499.561 270.718 499.533 272.169C499.505 273.621 500.041 275.032 501.039 276.134C502.036 277.237 503.427 277.955 504.946 278.152C506.466 278.35 508.009 278.012 509.283 277.204Z" fill="#FFB8B8"/>
<path d="M511.459 264.933C510.897 264.858 510.372 264.623 509.955 264.258L506.068 260.858C505.648 260.489 505.358 260.007 505.237 259.476C505.116 258.946 505.17 258.394 505.391 257.893L513.161 240.462L512.058 206.018C512.217 204.911 512.604 203.844 513.198 202.879C513.793 201.913 514.582 201.068 515.522 200.392C516.461 199.715 517.532 199.221 518.674 198.937C519.815 198.652 521.005 198.584 522.174 198.735C523.344 198.886 524.47 199.253 525.49 199.817C526.509 200.38 527.401 201.128 528.115 202.018C528.829 202.908 529.35 203.922 529.649 205.003C529.949 206.084 530.02 207.21 529.86 208.317L531.744 229.968C532.317 236.54 530.349 243.084 526.206 248.385L514.09 263.889C513.857 264.187 513.56 264.435 513.219 264.618C512.878 264.8 512.5 264.912 512.11 264.947C511.893 264.967 511.675 264.962 511.459 264.933Z" fill="#A9A9AE"/>
<path d="M417.435 162.542C417.601 163.389 417.962 164.193 418.491 164.894C419.02 165.596 419.705 166.18 420.499 166.604C421.292 167.028 422.174 167.282 423.082 167.349C423.99 167.415 424.903 167.292 425.755 166.989L439.912 183.107L443.249 172.682L429.294 158.975C428.66 157.652 427.537 156.596 426.135 156.006C424.734 155.416 423.153 155.333 421.691 155.772C420.229 156.212 418.989 157.144 418.204 158.391C417.42 159.639 417.146 161.116 417.435 162.542Z" fill="#FFB8B8"/>
<path d="M428.525 169.222C428.817 168.762 429.251 168.396 429.768 168.175L434.592 166.112C435.114 165.89 435.697 165.825 436.26 165.926C436.823 166.028 437.339 166.29 437.739 166.678L451.668 180.247L485.605 192.715C486.621 193.285 487.508 194.039 488.216 194.933C488.924 195.827 489.438 196.845 489.73 197.928C490.022 199.011 490.086 200.137 489.917 201.243C489.749 202.35 489.352 203.413 488.749 204.374C488.146 205.335 487.349 206.174 486.403 206.842C485.457 207.511 484.382 207.997 483.237 208.272C482.093 208.547 480.903 208.606 479.735 208.446C478.566 208.285 477.443 207.908 476.429 207.336L454.631 200.537C448.015 198.474 442.415 194.207 438.874 188.529L428.515 171.923C428.316 171.603 428.19 171.248 428.146 170.879C428.102 170.511 428.14 170.138 428.258 169.784C428.323 169.588 428.413 169.399 428.525 169.222Z" fill="#ADADB3"/>
<path opacity="0.1" d="M517.426 220.346L516.807 239.116L505.391 257.893L514.923 236.968L517.426 220.346Z" fill="black"/>
<path d="M503.338 173.098C502.382 173.216 501.413 173.001 500.612 172.494C499.811 171.987 499.231 171.221 498.981 170.34C498.74 169.326 498.211 168.393 497.453 167.641C496.694 166.89 495.733 166.348 494.674 166.074C491.882 165.47 488.47 166.714 486.424 164.711C485.986 164.254 485.669 163.705 485.499 163.109C485.33 162.514 485.312 161.888 485.448 161.284C485.825 159.339 487.295 157.869 488.895 156.693C492.263 154.231 496.338 152.789 500.586 152.557C502.785 152.497 504.985 152.601 507.167 152.867C509.452 153.004 511.711 153.395 513.899 154.032C516.392 154.922 518.607 156.393 520.34 158.308C522.073 160.223 523.268 162.521 523.815 164.989C524.315 167.465 524.238 170.014 523.59 172.459C522.942 174.903 521.738 177.185 520.062 179.143C518.055 181.508 515.468 183.373 512.526 184.574C511.825 184.887 511.022 184.926 510.291 184.681C508.459 183.992 508.758 181.843 509.594 180.41C510.488 178.876 511.864 177.391 511.145 175.524C510.784 174.659 510.092 173.954 509.207 173.55C507.385 172.67 505.348 172.879 503.389 173.093L503.338 173.098Z" fill="#2F2E41"/>
<path d="M412.35 181.234H223.97C221.259 181.231 218.66 180.211 216.743 178.396C214.826 176.582 213.748 174.122 213.745 171.556V133.429C213.748 130.863 214.826 128.403 216.743 126.588C218.66 124.774 221.259 123.753 223.97 123.75H412.35C415.06 123.753 417.659 124.774 419.576 126.588C421.493 128.403 422.571 130.863 422.574 133.429V171.556C422.571 174.122 421.493 176.582 419.576 178.396C417.659 180.211 415.06 181.231 412.35 181.234Z" fill="white"/>
<path d="M412.349 181.527H223.969C221.177 181.524 218.499 180.473 216.524 178.604C214.549 176.734 213.438 174.2 213.435 171.556V133.429C213.438 130.785 214.549 128.25 216.524 126.381C218.499 124.512 221.177 123.46 223.969 123.457H412.349C415.142 123.46 417.82 124.512 419.795 126.381C421.77 128.25 422.881 130.785 422.884 133.429V171.556C422.881 174.2 421.77 176.734 419.795 178.604C417.82 180.473 415.142 181.524 412.349 181.527ZM223.969 124.63C221.505 124.633 219.143 125.561 217.4 127.21C215.657 128.86 214.677 131.096 214.674 133.429V171.556C214.677 173.888 215.657 176.125 217.4 177.774C219.143 179.424 221.505 180.352 223.969 180.354H412.349C414.814 180.352 417.176 179.424 418.919 177.774C420.661 176.125 421.642 173.888 421.644 171.556V133.429C421.642 131.096 420.661 128.86 418.919 127.21C417.176 125.561 414.814 124.633 412.349 124.63H223.969Z" fill="#3F3D56"/>
<path d="M389.422 171.849H246.897C244.187 171.846 241.588 170.826 239.671 169.011C237.754 167.197 236.676 164.737 236.673 162.171V142.227C236.676 139.661 237.754 137.201 239.671 135.387C241.588 133.572 244.187 132.552 246.897 132.549H389.422C392.133 132.552 394.731 133.572 396.648 135.387C398.565 137.201 399.643 139.661 399.646 142.227V162.171C399.643 164.737 398.565 167.197 396.648 169.011C394.731 170.826 392.133 171.846 389.422 171.849Z" fill="#F2F2F2"/>
<path d="M277.568 161.1C284.321 161.1 289.795 155.918 289.795 149.525C289.795 143.133 284.321 137.951 277.568 137.951C270.815 137.951 265.34 143.133 265.34 149.525C265.34 155.918 270.815 161.1 277.568 161.1Z" fill="#FF6584"/>
<path d="M380.565 170.681L363.305 156.979L346.344 143.513C345.896 143.158 345.33 142.964 344.746 142.965C344.162 142.966 343.597 143.162 343.151 143.519L326.244 157.046L322.115 160.351L315.888 155.408L296.965 140.385C296.518 140.03 295.952 139.835 295.368 139.836C294.783 139.837 294.218 140.034 293.772 140.391L274.911 155.482L255.752 170.811C255.655 170.889 255.586 170.993 255.553 171.109C255.521 171.226 255.527 171.349 255.571 171.462C255.614 171.574 255.694 171.672 255.798 171.741C255.902 171.809 256.027 171.846 256.154 171.846L295.433 171.774L307.866 171.752L307.744 171.849L344.805 171.781L380.168 171.717C380.295 171.717 380.419 171.68 380.523 171.61C380.627 171.541 380.706 171.443 380.749 171.33C380.792 171.217 380.798 171.094 380.765 170.978C380.732 170.862 380.662 170.758 380.565 170.681Z" fill="#3F3D56"/>
<path d="M542.38 388H423.403C423.239 388 423.081 387.938 422.965 387.828C422.849 387.718 422.784 387.569 422.784 387.413C422.784 387.258 422.849 387.109 422.965 386.999C423.081 386.889 423.239 386.827 423.403 386.827H542.38C542.545 386.827 542.702 386.889 542.818 386.999C542.935 387.109 543 387.258 543 387.413C543 387.569 542.935 387.718 542.818 387.828C542.702 387.938 542.545 388 542.38 388Z" fill="#CCCCCC"/>
<path d="M374.316 77.3758C373.821 76.6145 373.167 75.9566 372.395 75.4423C371.622 74.928 370.747 74.568 369.823 74.3843C369.484 74.3169 369.14 74.2757 368.795 74.2611L321.582 34.3039C320.654 33.4017 319.417 32.8422 318.093 32.7261C317.832 32.6977 317.569 32.6898 317.306 32.7026C316.217 32.7495 315.165 33.0957 314.281 33.6991C313.396 34.3025 312.716 35.1368 312.324 36.1001C311.933 37.0634 311.846 38.1138 312.075 39.123C312.303 40.1322 312.838 41.0565 313.613 41.7827L331.689 56.6992L361.371 81.1885C361.395 81.6497 361.468 82.1075 361.588 82.5552C361.943 83.852 362.706 85.016 363.776 85.8928C364.847 86.7696 366.173 87.3179 367.58 87.4648C368.863 87.6066 370.162 87.4033 371.329 86.8782C372.254 86.4687 373.074 85.8744 373.733 85.1361C373.801 85.0598 373.863 84.9894 373.925 84.9073C374.792 83.8385 375.294 82.5449 375.363 81.1992C375.433 79.8536 375.068 78.5198 374.316 77.3758Z" fill="#FFB8B8"/>
<path d="M293.561 115.884L293.121 98.9556L292.749 84.9073L292.495 75.0764L291.993 55.9131C291.894 54.8871 291.481 53.9107 290.805 53.103C290.129 52.2953 289.22 51.6913 288.187 51.3647C287.155 51.0382 286.045 51.0032 284.992 51.264C283.939 51.5249 282.989 52.0703 282.258 52.8337C282.086 53.0081 281.93 53.1965 281.793 53.3968C281.03 54.431 280.687 55.691 280.826 56.9455L281.929 84.9073L282.481 98.9556L283.187 116.875C282.984 117.139 282.799 117.415 282.636 117.702C282.195 118.493 281.929 119.361 281.853 120.252C281.778 121.144 281.894 122.04 282.196 122.888C282.511 123.776 283.021 124.592 283.693 125.28C284.365 125.969 285.183 126.515 286.094 126.882C287.005 127.25 287.988 127.43 288.978 127.412C289.968 127.394 290.943 127.177 291.838 126.777C292.878 126.311 293.78 125.611 294.466 124.737C295.152 123.863 295.6 122.842 295.77 121.766C295.94 120.689 295.828 119.589 295.443 118.563C295.057 117.537 294.411 116.617 293.561 115.884Z" fill="#FFB8B8"/>
<path d="M336.07 67.932L331.689 56.6992L324.6 38.5038C324.088 37.1799 323.268 35.9821 322.201 34.9991C321.133 34.0162 319.846 33.2734 318.434 32.8258C318.322 32.7906 318.205 32.7554 318.093 32.7261C316.725 32.3331 315.283 32.225 313.867 32.4092C312.451 32.5935 311.094 33.0658 309.889 33.7936L286.013 48.1294C283.826 49.4393 282.263 51.5025 281.654 53.8831C281.044 56.2637 281.436 58.7753 282.747 60.8873C285.733 65.7745 288.986 70.5106 292.494 75.0764C295.277 78.6604 300.457 79.0416 301.356 84.9073H318.96L336.782 69.7621L336.07 67.932Z" fill="#CCCCCC"/>
<path d="M62.6889 205.214C70.619 205.214 77.0477 199.129 77.0477 191.622C77.0477 184.116 70.619 178.03 62.6889 178.03C54.7587 178.03 48.3301 184.116 48.3301 191.622C48.3301 199.129 54.7587 205.214 62.6889 205.214Z" fill="#A0616A"/>
<path d="M97.94 182.266C98.0815 182.373 98.2187 182.486 98.3515 182.605C99.0111 183.193 99.532 183.907 99.88 184.699C100.228 185.491 100.395 186.343 100.371 187.201C100.346 188.058 100.131 188.901 99.7384 189.675C99.3458 190.448 98.7851 191.134 98.093 191.687C97.9317 191.816 97.7634 191.936 97.5887 192.047L98.5605 223.103C98.5882 224.12 98.2688 225.118 97.6498 225.949C97.0309 226.78 96.1453 227.4 95.1244 227.718L95.0652 227.73L68.4264 230.415C67.7022 230.488 66.9698 230.424 66.2717 230.228C65.5736 230.031 64.9235 229.706 64.359 229.27C63.7945 228.835 63.3268 228.297 62.9828 227.69C62.6389 227.082 62.4255 226.416 62.355 225.73C62.2845 225.044 62.3583 224.351 62.5722 223.692C62.7861 223.033 63.1357 222.42 63.601 221.89C64.0663 221.36 64.6379 220.922 65.283 220.602C65.928 220.282 66.6337 220.086 67.3592 220.025L86.3486 218.442L89.6326 191.547C89.4178 191.367 89.2166 191.173 89.0305 190.967C88.0009 189.813 87.4608 188.338 87.5153 186.829C87.5698 185.32 88.2148 183.884 89.3252 182.799C90.4356 181.715 91.9321 181.06 93.5241 180.961C95.1161 180.863 96.6899 181.328 97.94 182.266Z" fill="#A0616A"/>
<path d="M86.3377 380.786H93.5054L96.9148 354.617H86.3364L86.3377 380.786Z" fill="#A0616A"/>
<path d="M84.5098 378.571L98.6246 378.57C99.8059 378.57 100.976 378.791 102.068 379.218C103.159 379.646 104.151 380.273 104.986 381.064C105.821 381.855 106.484 382.793 106.936 383.826C107.388 384.86 107.62 385.967 107.62 387.085V387.362L84.5102 387.362L84.5098 378.571Z" fill="#2F2E41"/>
<path d="M15.0991 371.405L21.2574 374.876L38.3312 354.043L29.2419 348.92L15.0991 371.405Z" fill="#A0616A"/>
<path d="M14.725 368.617L26.853 375.452C27.868 376.024 28.7544 376.78 29.4609 377.676C30.1673 378.573 30.6804 379.592 30.9707 380.676C31.2611 381.76 31.323 382.887 31.1531 383.993C30.9831 385.1 30.5846 386.164 29.9802 387.125L29.8307 387.362L9.97363 376.171L14.725 368.617Z" fill="#2F2E41"/>
<path d="M95.1963 371.543H87.1705C86.5206 371.544 85.8934 371.317 85.4103 370.906C84.9271 370.494 84.6222 369.928 84.5546 369.316L76.4634 297.322C76.443 297.141 76.3601 296.971 76.2277 296.839C76.0952 296.706 75.9204 296.619 75.7303 296.59C75.5402 296.561 75.3453 296.593 75.1758 296.679C75.0062 296.765 74.8714 296.902 74.7921 297.068L60.1954 327.663L34.353 367.551C34.0185 368.062 33.5006 368.443 32.8942 368.622C32.2878 368.801 31.6334 368.768 31.0508 368.528L20.7269 364.229C20.3856 364.086 20.0801 363.877 19.8307 363.614C19.5813 363.352 19.3936 363.042 19.2803 362.706C19.1669 362.37 19.1304 362.014 19.1731 361.663C19.2158 361.313 19.3368 360.975 19.528 360.672L43.2844 323.018L50.5702 291.294C48.2787 277.536 58.1023 257.081 58.202 256.876L58.2506 256.776L85.3101 246.765L85.4458 246.922C96.1173 280.071 102.62 315.745 97.8186 369.261C97.7594 369.882 97.458 370.46 96.9731 370.882C96.4883 371.304 95.8548 371.539 95.1963 371.543Z" fill="#919191"/>
<path d="M57.1603 260.128L57.0343 259.878C56.9741 259.758 50.9572 247.745 46.3189 234.906C45.4275 232.424 45.0906 229.793 45.3293 227.18C45.5681 224.568 46.3775 222.031 47.7061 219.73C49.052 217.405 50.8934 215.37 53.1134 213.754C55.3335 212.138 57.8839 210.976 60.6031 210.342C65.3237 209.271 70.2938 209.841 74.6077 211.948C78.9216 214.055 82.2924 217.559 84.1058 221.821C87.7849 230.53 86.6124 239.826 85.5089 247.136L85.487 247.282L85.3462 247.346L57.1603 260.128Z" fill="#3F3D56"/>
<path d="M80.0984 183.944H57.2983V174.537C62.3027 172.655 67.1997 171.054 70.1599 174.537C72.7958 174.537 75.3236 175.528 77.1875 177.292C79.0513 179.056 80.0984 181.449 80.0984 183.944Z" fill="#2F2E41"/>
<path d="M56.0363 172.876C42.4059 172.876 38.5908 189.049 38.5908 198.173C38.5908 203.261 41.0218 205.081 44.8418 205.696L46.1908 198.886L49.3506 205.989C50.4236 205.995 51.5509 205.975 52.7195 205.954L53.7909 203.866L56.1799 205.917C65.7481 205.93 73.4815 207.251 73.4815 198.173C73.4815 189.049 70.1356 172.876 56.0363 172.876Z" fill="#2F2E41"/>
<path d="M119.596 388H0.619671C0.455324 388 0.297708 387.938 0.181497 387.828C0.0652861 387.718 0 387.569 0 387.413C0 387.258 0.0652861 387.109 0.181497 386.999C0.297708 386.889 0.455324 386.827 0.619671 386.827H119.596C119.761 386.827 119.918 386.889 120.035 386.999C120.151 387.109 120.216 387.258 120.216 387.413C120.216 387.569 120.151 387.718 120.035 387.828C119.918 387.938 119.761 388 119.596 388Z" fill="#CCCCCC"/>
<path d="M121.833 195.018H95.1877C93.6269 195.017 92.1306 194.429 91.027 193.384C89.9234 192.34 89.3026 190.923 89.3008 189.446V164.224C89.3026 162.746 89.9234 161.33 91.027 160.285C92.1306 159.24 93.6269 158.653 95.1877 158.651H121.833C123.394 158.653 124.891 159.24 125.994 160.285C127.098 161.33 127.719 162.746 127.72 164.224V189.446C127.719 190.923 127.098 192.34 125.994 193.384C124.891 194.429 123.394 195.017 121.833 195.018Z" fill="white"/>
<path d="M121.833 195.018H95.1877C93.6269 195.017 92.1306 194.429 91.027 193.384C89.9234 192.34 89.3026 190.923 89.3008 189.446V164.224C89.3026 162.746 89.9234 161.33 91.027 160.285C92.1306 159.24 93.6269 158.653 95.1877 158.651H121.833C123.394 158.653 124.891 159.24 125.994 160.285C127.098 161.33 127.719 162.746 127.72 164.224V189.446C127.719 190.923 127.098 192.34 125.994 193.384C124.891 194.429 123.394 195.017 121.833 195.018ZM95.1877 159.824C93.9555 159.826 92.7742 160.289 91.9029 161.114C91.0316 161.939 90.5415 163.057 90.5401 164.224V189.446C90.5415 190.612 91.0316 191.731 91.9029 192.555C92.7742 193.38 93.9555 193.844 95.1877 193.845H121.833C123.066 193.844 124.247 193.38 125.118 192.555C125.99 191.731 126.48 190.612 126.481 189.446V164.224C126.48 163.057 125.99 161.939 125.118 161.114C124.247 160.289 123.066 159.826 121.833 159.824H95.1877Z" fill="#3F3D56"/>
<path d="M117.186 184.754H99.8351C99.3422 184.753 98.8697 184.567 98.5212 184.238C98.1726 183.908 97.9766 183.46 97.9761 182.994V170.676C97.9766 170.209 98.1726 169.762 98.5212 169.432C98.8697 169.102 99.3422 168.917 99.8351 168.916H104.72C105.037 168.915 105.35 168.992 105.627 169.138C105.905 169.285 106.137 169.497 106.303 169.753L107.665 171.849H117.186C117.679 171.85 118.151 172.035 118.5 172.365C118.848 172.695 119.044 173.142 119.045 173.609V182.994C119.044 183.46 118.848 183.908 118.5 184.238C118.151 184.567 117.679 184.753 117.186 184.754Z" fill="#6C63FF"/>
<path d="M116.622 190.976C116.709 191.127 116.789 191.281 116.862 191.44C117.229 192.224 117.416 193.073 117.413 193.931C117.409 194.789 117.213 195.636 116.839 196.418C116.465 197.199 115.921 197.897 115.242 198.465C114.564 199.033 113.766 199.46 112.901 199.716C112.699 199.775 112.495 199.823 112.288 199.862L100.453 228.841C100.062 229.789 99.3583 230.591 98.4471 231.13C97.5358 231.669 96.4654 231.915 95.3945 231.832L95.3351 231.822L69.6828 224.512C68.9853 224.313 68.3364 223.985 67.7734 223.548C67.2105 223.11 66.7447 222.572 66.403 221.963C66.0612 221.354 65.8503 220.687 65.7823 220.001C65.7144 219.314 65.7908 218.622 66.0072 217.963C66.2235 217.305 66.5755 216.694 67.0428 216.165C67.5101 215.636 68.0835 215.2 68.7298 214.882C69.3761 214.564 70.0826 214.371 70.8084 214.313C71.5342 214.255 72.2649 214.333 72.9584 214.544L91.1088 220.06L105.161 196.479C105.036 196.234 104.931 195.981 104.844 195.723C104.368 194.281 104.475 192.724 105.144 191.353C105.812 189.982 106.996 188.895 108.464 188.304C109.931 187.712 111.579 187.658 113.087 188.152C114.594 188.646 115.854 189.653 116.622 190.976Z" fill="#A0616A"/>
</g>
<defs>
<clipPath id="clip0_21_444">
<rect width="543" height="388" fill="white"/>
</clipPath>
</defs>
</svg>
